<svg width="181" height="200" viewBox="0 0 181 200" fill="none" xmlns="http://www.w3.org/2000/svg">
<g clip-path="url(#clip0_1_8355)">
<path d="M19.2585 0.765282L25.6212 0.699457C25.5849 2.70633 25.6212 4.83546 25.6224 6.85215C27.5964 7.03307 29.7636 6.99239 31.7595 7.00138C31.6783 11.0816 31.7858 15.1861 31.8235 19.2696C33.9375 19.3665 35.7782 19.4333 37.899 19.4063C37.7353 13.3884 37.909 6.82885 37.8689 0.748319C42.0441 0.818029 46.3585 0.804331 50.5387 0.757926C81.3733 0.415712 112.384 1.21053 143.203 0.691079C143.285 2.74457 143.254 4.87573 143.254 6.93637L149.342 7.00751C149.273 9.14093 149.342 10.9714 149.426 13.097L155.526 13.2205C155.491 15.2435 155.518 17.2674 155.611 19.2888C157.641 19.3746 159.672 19.4176 161.705 19.4174C161.659 21.6068 161.71 23.3277 161.816 25.5104C163.847 25.5598 165.876 25.594 167.908 25.6128C167.836 27.7542 167.91 29.5607 168.001 31.6937L174.079 31.8299L174.049 37.9734C176.088 37.9936 178.209 37.9844 180.241 38.0365L180.232 174.445L88.7358 174.457L59.0347 174.467C55.073 174.471 47.7585 174.706 44.1244 174.389C44.1289 179.966 44.3566 187.639 44.0796 193.04C42.4043 193.08 39.6526 193.23 38.0667 193.084C37.9353 195.139 37.876 197.198 37.8886 199.258C27.881 199.275 16.8531 199.033 6.96227 199.275C6.9947 197.267 6.98818 195.262 6.94249 193.256L2.05072 193.162C1.32303 193.228 1.40461 193.336 0.858834 193.056C0.593086 192.171 0.711785 183.836 0.712805 182.282L0.718917 155.854C0.889828 151.052 0.779701 145.755 0.779701 140.91L0.77705 114.516L0.772967 90.2736C0.773782 85.3262 0.871067 80.1121 0.660385 75.1984C0.952036 71.1699 0.721782 63.917 0.719539 59.7041L0.681186 31.7593C2.73498 31.7737 4.85016 31.7105 6.90803 31.6749C6.92842 27.6589 6.96779 23.3749 6.85664 19.3734C8.98161 19.3914 11.016 19.3248 13.1371 19.2544C13.0776 15.7477 13.3029 10.2029 12.9984 6.95825C15.0479 6.99525 17.2157 6.9147 19.2736 6.87198L19.2585 0.765282Z" fill="#FEFEFE"/>
<path d="M19.2585 0.765365L25.6212 0.699541C25.5849 2.70642 25.6212 4.83555 25.6224 6.85224C27.5964 7.03316 29.7636 6.99247 31.7595 7.00146C31.6783 11.0817 31.7858 15.1862 31.8235 19.2696C33.9375 19.3665 35.7782 19.4334 37.899 19.4064L37.9276 31.72L43.9825 31.7527L43.9952 125.811L43.986 153.168C43.9862 155.615 43.8516 164.215 44.1461 166.264C44.2827 165.025 44.2281 163.385 44.2215 162.099C46.9596 161.842 53.8072 162.044 56.7676 162.046L82.2222 162.05L167.863 162.015C168.032 151.986 167.885 141.53 167.885 131.474V73.1225C167.885 63.7846 167.657 53.4587 167.889 44.1952L143.056 44.1562C143.021 42.1988 143.075 40.0562 143.085 38.0845L167.81 37.9647L167.824 31.8416C165.811 31.7872 163.692 31.7983 161.671 31.7805C161.573 29.9919 161.64 27.4723 161.642 25.6264L155.491 25.5787C155.399 23.7937 155.469 21.2878 155.471 19.4471L149.242 19.416L149.256 13.221C147.221 13.1852 145.13 13.1979 143.089 13.1871C143.072 9.96425 142.887 3.62942 143.203 0.691162C143.285 2.74465 143.254 4.87582 143.254 6.93646L149.342 7.0076C149.273 9.14102 149.342 10.9715 149.426 13.0971L155.526 13.2206C155.491 15.2436 155.518 17.2675 155.611 19.2889C157.641 19.3747 159.672 19.4176 161.705 19.4174C161.659 21.6069 161.71 23.3278 161.816 25.5104C163.847 25.5599 165.876 25.5941 167.908 25.6129C167.836 27.7543 167.91 29.5608 168.001 31.6938L174.079 31.83L174.049 37.9734C176.088 37.9937 178.209 37.9845 180.241 38.0366L180.232 174.445L88.7358 174.457L59.0347 174.467C55.073 174.471 47.7585 174.706 44.1244 174.39C44.1289 179.966 44.3566 187.639 44.0796 193.04C42.4043 193.08 39.6526 193.23 38.0667 193.085C37.9353 195.139 37.876 197.198 37.8886 199.258C27.881 199.275 16.8531 199.033 6.96227 199.275C6.9947 197.267 6.98818 195.262 6.94249 193.256L2.05072 193.162C1.32303 193.228 1.40461 193.336 0.858834 193.056C0.593086 192.171 0.711785 183.836 0.712805 182.283L0.718917 155.854C0.889828 151.052 0.779701 145.755 0.779701 140.91L0.77705 114.516L0.772967 90.2737C0.773782 85.3263 0.871067 80.1121 0.660385 75.1985C0.952036 71.17 0.721782 63.9171 0.719539 59.7042L0.681186 31.7594C2.73498 31.7737 4.85016 31.7106 6.90803 31.675C6.92842 27.659 6.96779 23.375 6.85664 19.3735C8.98161 19.3915 11.016 19.3248 13.1371 19.2545C13.0776 15.7477 13.3029 10.203 12.9984 6.95833C15.0479 6.99533 17.2157 6.91479 19.2736 6.87206L19.2585 0.765365Z" fill="black"/>
<path d="M13.2046 68.9436L19.2936 68.9665L19.3268 75.2042L25.5445 75.2147L25.5402 155.832L19.3036 155.811C19.3052 157.692 19.3807 160.219 19.294 162.046L13.4498 161.964C12.2267 161.817 8.34446 161.917 6.93984 161.926C6.89762 159.81 6.9272 157.921 6.98716 155.811L0.718917 155.854C0.889828 151.052 0.779701 145.755 0.779701 140.91L0.77705 114.517L0.772967 90.2737C0.773782 85.3263 0.871067 80.1122 0.660385 75.1985C2.75986 75.2136 4.85913 75.2165 6.9584 75.2069C6.85092 73.3129 6.91067 71.0198 6.91129 69.0967C8.10195 69.1016 12.2138 69.2122 13.2046 68.9436Z" fill="black"/>
<path d="M167.889 44.1953L174.034 44.2229L174.032 168.197L86.9022 168.187L58.0876 168.185C56.5076 168.185 44.9025 168.465 44.2377 167.889C44.0998 167.143 44.1071 167.032 44.1461 166.264C44.2827 165.025 44.2281 163.385 44.2215 162.099C46.9596 161.842 53.8073 162.044 56.7676 162.046L82.2222 162.05L167.863 162.016C168.032 151.986 167.885 141.53 167.885 131.474V73.1226C167.885 63.7847 167.657 53.4588 167.889 44.1953Z" fill="#C1C0C0"/>
<path d="M19.3156 62.8042L31.7403 62.804L31.7279 174.324L31.705 180.596L19.3197 180.602L19.294 162.046C19.3807 160.219 19.3052 157.692 19.3036 155.811L25.5402 155.831L25.5445 75.2146L19.3268 75.2042L19.2936 68.9665L13.2046 68.9436L13.1718 68.8123C13.1198 66.8993 13.163 64.7497 13.1644 62.8185L19.3156 62.8042Z" fill="#FE0000"/>
<path d="M13.1644 62.8185L19.3156 62.8042L19.2936 68.9665L13.2046 68.9436L13.1718 68.8124C13.1198 66.8993 13.163 64.7497 13.1644 62.8185Z" fill="#C1C0C0"/>
<path d="M19.2585 0.765287L25.6212 0.699463C25.5849 2.70634 25.6212 4.83547 25.6224 6.85216C25.6193 10.933 25.5555 15.1914 25.6669 19.2577C27.3244 19.2671 30.1879 19.2003 31.743 19.3873C30.1057 19.5962 27.2248 19.4908 25.4947 19.4732C25.5443 23.4765 25.4142 27.8505 25.5561 31.7878C23.5082 31.7796 21.3686 31.7379 19.3287 31.7923L13.1381 31.7553C13.1453 33.3498 13.0767 36.3997 13.1934 37.8826L13.154 38.1187C11.0682 38.0825 8.98201 38.0725 6.89579 38.0887L6.93597 44.1999L13.1724 44.1966L13.1404 50.1166L13.7241 50.4139C15.5291 50.4096 17.5219 50.3667 19.3128 50.4047L19.3166 56.5799L16.5288 56.5921C15.4342 56.6068 14.2413 56.5946 13.1575 56.6786C13.1567 58.6237 13.1002 60.8998 13.1644 62.8184C13.163 64.7496 13.1198 66.8992 13.1718 68.8123L13.2046 68.9435C12.2138 69.2121 8.10195 69.1015 6.91129 69.0966C6.91067 71.0197 6.85092 73.3128 6.9584 75.2068C4.85913 75.2164 2.75986 75.2135 0.660385 75.1984C0.952036 71.1699 0.721782 63.917 0.719539 59.7041L0.681186 31.7594C2.73498 31.7737 4.85016 31.7105 6.90803 31.6749C6.92842 27.6589 6.96779 23.3749 6.85664 19.3734C8.98161 19.3914 11.016 19.3248 13.1371 19.2544C13.0776 15.7477 13.3029 10.2029 12.9984 6.95825C15.0479 6.99525 17.2157 6.91471 19.2736 6.87198L19.2585 0.765287Z" fill="#840000"/>
<path d="M19.2787 6.96949L25.4366 6.94189C25.3595 10.8303 25.2895 15.6189 25.4947 19.4732C25.5443 23.4765 25.4142 27.8505 25.5561 31.7878C23.5082 31.7796 21.3686 31.7379 19.3287 31.7922L13.1381 31.7552C13.1453 33.3498 13.0767 36.3997 13.1934 37.8826L6.91965 37.8587L6.91252 31.7444L13.1118 31.6866C13.2275 27.7942 13.1192 23.3076 13.1324 19.3738L19.2807 19.2732C19.3864 15.3744 19.2862 10.9064 19.2787 6.96949Z" fill="#FE0000"/>
<path d="M19.3024 19.378C21.367 19.3633 23.4316 19.3952 25.4947 19.4733C25.5443 23.4766 25.4142 27.8506 25.5561 31.7879C23.5082 31.7797 21.3686 31.738 19.3287 31.7923L19.3024 19.378Z" fill="#C1C0C0"/>
<path d="M6.91108 56.7192L13.1575 56.6787C13.1567 58.6239 13.1002 60.9 13.1644 62.8185C13.163 64.7498 13.1198 66.8993 13.1718 68.8124C12.0851 68.9821 8.18782 68.8829 6.92047 68.8745L6.91108 56.7192Z" fill="#FE0000"/>
<path d="M13.7241 50.414C15.5291 50.4097 17.5219 50.3667 19.3128 50.4048L19.3166 56.5799L16.5288 56.5922L13.1748 56.5155L13.1732 50.4452L13.7241 50.414Z" fill="#C1C0C0"/>
<path d="M6.93598 44.2L13.1724 44.1968L13.1404 50.1168C12.4037 50.3998 7.95003 50.2892 6.91212 50.2826C6.88112 48.2551 6.88907 46.2272 6.93598 44.2Z" fill="#FE0000"/>
<path d="M6.88885 50.5003L13.1732 50.4453L13.1748 56.5156C11.1675 56.4465 8.96917 56.4964 6.94699 56.5019C6.89702 54.5269 6.90517 52.4816 6.88885 50.5003Z" fill="black"/>
<path d="M31.7573 56.6673L37.8974 56.5857C37.3055 89.8526 38.2174 123.364 37.8352 156.653C37.7677 162.539 37.7832 168.529 37.8835 174.412C36.3906 174.402 33.0766 174.457 31.7279 174.324L31.7403 62.804L31.7573 56.6673Z" fill="#840000"/>
<path d="M0.718908 155.854L6.98715 155.811C6.92719 157.921 6.89762 159.81 6.93983 161.926C8.34445 161.917 12.2267 161.817 13.4498 161.964L19.294 162.046L19.3197 180.602L13.4132 180.573L13.2016 180.794C13.1408 182.661 13.0655 184.807 13.2197 186.655L13.277 186.829C13.0198 188.272 13.1271 191.414 13.15 192.997C10.4462 193.007 4.42981 192.896 2.05072 193.162C1.32302 193.228 1.4046 193.336 0.858826 193.056C0.593077 192.171 0.711776 183.836 0.712796 182.283L0.718908 155.854Z" fill="#840000"/>
<path d="M13.4498 161.964L19.294 162.046L19.3197 180.602L13.4132 180.574L13.2211 180.479C13.1134 178.779 13.1648 176.178 13.1518 174.41C13.1218 170.315 13.1324 166.219 13.184 162.122L13.4498 161.964Z" fill="#C1C0C0"/>
<path d="M6.90803 162.157L13.184 162.122C13.1324 166.219 13.1218 170.315 13.1518 174.41L6.93454 174.416C6.86581 170.391 6.91251 166.194 6.90803 162.157Z" fill="#FE0000"/>
<path d="M6.91191 180.758C9.0171 180.729 11.0988 180.672 13.2016 180.794C13.1408 182.661 13.0655 184.807 13.2197 186.655C12.4673 187.007 8.01651 186.876 6.92252 186.866L6.91191 180.758Z" fill="#FE0000"/>
<path d="M6.93453 174.416L13.1518 174.41C13.1648 176.178 13.1134 178.779 13.2211 180.479C11.3799 180.58 8.84331 180.518 6.95044 180.526C6.88334 178.49 6.87804 176.452 6.93453 174.416Z" fill="black"/>
<path d="M25.4947 19.4733C27.2248 19.4909 30.1057 19.5964 31.743 19.3875C31.6918 23.5494 31.6869 27.7118 31.7283 31.8738L31.7205 37.8678L31.7063 44.1834L19.3238 44.1849L13.1863 44.1624L13.154 38.1188L13.1934 37.8827C13.0767 36.3998 13.1453 33.3499 13.1381 31.7554L19.3287 31.7924C21.3686 31.738 23.5082 31.7797 25.5561 31.7879C25.4142 27.8506 25.5443 23.4766 25.4947 19.4733Z" fill="#FE0000"/>
<path d="M19.3287 31.7924C19.3244 35.883 19.2693 40.1046 19.3238 44.1848L13.1863 44.1624L13.154 38.1188L13.1934 37.8827C13.0767 36.3998 13.1453 33.3499 13.1381 31.7554L19.3287 31.7924Z" fill="#C1C0C0"/>
<path d="M31.7542 180.696C33.7313 180.666 35.9531 180.678 37.9076 180.584C37.8209 184.723 37.8097 188.863 37.8742 193.001L31.8219 193.013C31.6653 191.349 31.7438 188.667 31.7434 186.925C27.7569 186.933 23.4146 187.025 19.4569 186.872C21.1964 186.488 29.4077 186.802 31.7799 186.739C31.7477 184.725 31.7389 182.71 31.7542 180.696Z" fill="#840000"/>
<path d="M19.3128 50.4047C23.4521 50.362 27.592 50.355 31.7316 50.3839L31.7052 56.5936C28.1887 56.5958 22.6757 56.7725 19.3166 56.5799L19.3128 50.4047Z" fill="#FE0000"/>
<path d="M19.4569 186.872C23.4146 187.025 27.7569 186.933 31.7434 186.925C31.7438 188.667 31.6653 191.349 31.8219 193.013L19.324 193.017L19.3111 186.874L19.4569 186.872Z" fill="#FE0000"/>
<path d="M13.277 186.829L19.3111 186.874L19.324 193.017L13.15 192.997C13.1271 191.414 13.0198 188.272 13.277 186.829Z" fill="#C1C0C0"/>
<path d="M31.7283 31.8737C33.7482 31.8332 35.8799 31.7545 37.8913 31.7874C37.864 33.8266 37.8001 35.9592 37.8805 37.9894C36.2684 37.9738 33.2084 38.0272 31.7205 37.8677L31.7283 31.8737Z" fill="#840000"/>
<path d="M31.7575 44.2687L37.9082 44.1738C37.8419 46.2864 37.8552 48.2577 37.8807 50.3682C35.8451 50.3443 33.8092 50.3349 31.7736 50.3398C31.7006 48.3573 31.7464 46.2606 31.7575 44.2687Z" fill="#840000"/>
<path d="M37.8688 0.748319C42.0441 0.818029 46.3585 0.804331 50.5387 0.757926C81.3733 0.415712 112.384 1.21053 143.203 0.691079C142.887 3.62933 143.072 9.96417 143.089 13.187C145.13 13.1978 147.221 13.1851 149.256 13.2209L149.242 19.4159L155.471 19.447C155.469 21.2877 155.399 23.7936 155.491 25.5786L161.642 25.6263C161.64 27.4723 161.573 29.9918 161.671 31.7804C163.692 31.7982 165.811 31.7871 167.824 31.8415L167.81 37.9646L143.085 38.0844C143.074 40.0561 143.021 42.1987 143.056 44.1561L136.96 44.1894L136.954 6.97726L83.6655 6.94905C70.5618 6.94987 57.1406 6.79879 44.0582 6.98237L44.2052 84.716C44.2044 110.302 43.8907 136.564 44.2215 162.099C44.2281 163.385 44.2827 165.025 44.1461 166.263C43.8516 164.215 43.9862 155.615 43.986 153.168L43.9951 125.811L43.9825 31.7526L37.9276 31.7199L37.899 19.4063C37.7353 13.3884 37.909 6.82885 37.8688 0.748319Z" fill="#818181"/>
<path d="M143.097 19.4059L149.33 19.3728L149.289 25.5975L155.491 25.5789L161.642 25.6265C161.64 27.4725 161.573 29.9921 161.671 31.7806L161.703 37.8008L155.558 37.8178C155.454 35.9875 155.528 33.6115 155.532 31.741L149.328 31.7569C149.297 29.6899 149.303 27.6227 149.342 25.556L143.058 25.5782L143.097 19.4059Z" fill="#C1C0C0"/>
<path d="M155.491 25.5789L161.642 25.6265C161.64 27.4725 161.573 29.9921 161.671 31.7806L155.507 31.7812L155.491 25.5789Z" fill="#818181"/>
<path d="M143.058 25.5782L149.342 25.5559C149.303 27.6227 149.297 29.6899 149.328 31.7568L155.532 31.7409C155.528 33.6114 155.454 35.9875 155.558 37.8177C151.671 37.9688 147.017 37.8732 143.074 37.8801L143.058 25.5782Z" fill="#FEFEFE"/>
<path d="M81.2181 38.0169L93.5857 37.9932L93.5796 44.1994L87.3937 44.1824L87.3958 50.3887L81.2248 50.3629C81.203 52.45 81.2057 54.5372 81.2328 56.6242C85.2808 56.6199 89.5638 56.5514 93.5918 56.6332L93.5673 50.3877C99.6675 50.385 106.084 50.2779 112.16 50.4032L112.129 44.2031L118.368 44.1786L118.364 50.4216C122.433 50.402 126.665 50.3221 130.721 50.4018L130.693 44.2064L136.917 44.1782L136.929 56.6232C134.849 56.5968 132.769 56.5882 130.691 56.5974L130.705 62.8018C126.612 62.7934 122.428 62.7442 118.343 62.79L118.349 68.9895L112.129 68.9709C112.123 71.063 112.129 73.1553 112.149 75.2474C116.232 75.2342 120.469 75.1624 124.541 75.2356L124.517 68.9919L143.099 68.9711V75.2227C139.022 75.2057 134.757 75.1238 130.695 75.21C130.697 77.2515 130.668 79.3755 130.701 81.4093C126.585 81.3795 122.467 81.374 118.349 81.3926C118.329 83.4743 118.333 85.5562 118.362 87.6379C122.469 87.5974 126.579 87.58 130.689 87.5857L130.707 93.8505C134.784 93.8378 139.04 93.7617 143.103 93.8427L143.081 87.5933L155.495 87.5751C155.473 91.7213 155.473 95.8678 155.493 100.014L149.252 99.9937L149.273 106.202L143.077 106.176L143.095 112.433C141.033 112.415 138.971 112.409 136.909 112.413L136.923 118.615L130.689 118.597L130.717 143.411C126.607 143.38 122.5 143.378 118.39 143.404L118.36 131.038C116.281 131.012 114.203 130.965 112.125 131.024L112.139 137.218L105.953 137.202L105.966 143.402L99.8266 143.404L99.7818 131.043C101.819 131.041 103.948 131.01 105.978 131.043L105.966 124.812C101.905 124.726 97.7035 124.787 93.6306 124.793L93.5755 118.621C91.5156 118.597 89.4557 118.589 87.3937 118.601L87.406 124.848L93.5592 124.789L93.5714 131.038C91.5156 131.028 89.4414 131.002 87.3897 131.018L87.4121 143.411C83.2882 143.398 79.1178 143.351 74.9964 143.388L75.0147 149.631C73.0087 149.631 70.8653 149.597 68.8691 149.637L68.8405 137.225C64.7036 137.19 60.5666 137.184 56.4297 137.206L56.4474 143.402L50.306 143.404C50.2403 139.328 50.2801 135.123 50.2715 131.038L56.4633 131.047L56.4354 124.81L62.6702 124.791C62.7334 122.896 62.6634 120.545 62.6536 118.617L68.8568 118.624L68.835 93.8112C66.7898 93.7936 64.7443 93.7981 62.6993 93.8249C62.5329 85.695 62.6565 77.1494 62.6557 68.9913L68.8542 68.9993L68.8409 56.6082C66.7759 56.5702 64.7103 56.5692 62.6453 56.6052L62.653 62.7957L56.4886 62.7994C56.3754 58.8146 56.4484 54.3982 56.4419 50.3822L68.8574 50.4028L68.8336 44.1968L81.2479 44.2092L81.2181 38.0169Z" fill="#FE0000"/>
<path d="M62.6702 124.791L68.8378 124.783C68.8427 126.754 68.908 129.08 68.8499 131.022C68.8332 133.089 68.8301 135.158 68.8405 137.224C64.7036 137.19 60.5666 137.184 56.4297 137.206L56.4474 143.402L50.306 143.404C50.2403 139.328 50.2801 135.123 50.2715 131.038L56.4633 131.047L56.4354 124.81L62.6702 124.791Z" fill="#FE0000"/>
<path d="M62.6702 124.791L68.8379 124.783C68.8428 126.754 68.908 129.08 68.8499 131.022L62.6665 131.065C62.6284 128.974 62.6296 126.882 62.6702 124.791Z" fill="#FEFEFE"/>
<path d="M74.9984 124.787L81.2297 124.789L81.2509 131.041H75.0149L74.9984 124.787Z" fill="#FEFEFE"/>
<path d="M68.8499 131.022C70.8755 131.022 72.9987 130.993 75.0149 131.04L75.0337 137.22L68.8405 137.224C68.8301 135.158 68.8332 133.089 68.8499 131.022Z" fill="#FEFEFE"/>
<path d="M93.5653 112.423C95.6415 112.393 97.7198 112.388 99.7981 112.409L99.8164 118.617L93.5755 118.621L93.5653 112.423Z" fill="#FEFEFE"/>
<path d="M74.9974 56.6002C77.0758 56.5731 79.1547 56.581 81.2328 56.6242L81.2538 62.8096C79.1947 62.7905 77.0791 62.8224 75.0149 62.8294L74.9974 56.6002Z" fill="#FEFEFE"/>
<path d="M105.957 118.605C108.021 118.589 110.085 118.591 112.149 118.611L112.155 124.81L105.966 124.812L105.957 118.605Z" fill="#FEFEFE"/>
<path d="M130.707 106.21L130.727 112.433L124.531 112.437C124.493 110.387 124.523 108.237 124.521 106.178C126.583 106.166 128.645 106.176 130.707 106.21Z" fill="#FEFEFE"/>
<path d="M130.693 100.001L136.927 99.9932L136.944 106.2L130.707 106.21L130.693 100.001Z" fill="#FEFEFE"/>
<path d="M99.7919 69L99.8164 75.2314C97.7606 75.2089 95.6436 75.2408 93.5816 75.248C93.5551 73.1663 93.5673 71.0562 93.5633 68.9718C95.6395 68.9579 97.7157 68.9673 99.7919 69Z" fill="#FEFEFE"/>
<path d="M99.7879 62.7881C101.848 62.7785 103.908 62.7855 105.968 62.809L105.982 68.9893L99.7919 69.0001C99.7389 67.013 99.7838 64.7936 99.7879 62.7881Z" fill="#FEFEFE"/>
<path d="M87.3958 87.5803C89.4577 87.5655 91.5197 87.5676 93.5816 87.5864L93.5918 93.8319L87.406 93.8315L87.3958 87.5803Z" fill="#FEFEFE"/>
<path d="M118.347 112.417C120.409 112.388 122.471 112.397 124.531 112.438L124.543 118.617L118.362 118.64C118.339 116.565 118.335 114.49 118.347 112.417Z" fill="#FEFEFE"/>
<path d="M81.2185 93.8126C83.2637 93.7645 85.3563 93.8108 87.406 93.8316L87.4182 100.017C85.3746 99.9984 83.28 100.03 81.2332 100.038C81.2083 97.9631 81.2034 95.8877 81.2185 93.8126Z" fill="#FEFEFE"/>
<path d="M105.957 56.6074C108.021 56.5684 110.087 56.568 112.151 56.6064L112.162 62.8029L105.968 62.809L105.957 56.6074Z" fill="#FEFEFE"/>
<path d="M74.9943 68.9765C77.0726 68.9652 79.1511 68.9667 81.2295 68.9806L81.2485 75.2326C79.2275 75.1962 77.0489 75.2408 75.0174 75.2492L74.9943 68.9765Z" fill="#FEFEFE"/>
<path d="M105.953 81.3937C108.017 81.3839 110.081 81.3866 112.145 81.4019L112.166 87.6063C110.151 87.5693 107.997 87.6237 105.97 87.6411L105.953 81.3937Z" fill="#FEFEFE"/>
<path d="M130.701 81.4093L136.931 81.3845L136.919 87.6026C134.88 87.5951 132.793 87.5666 130.758 87.5846L130.701 81.4093Z" fill="#FE0000"/>
</g>
<defs>
<clipPath id="clip0_1_8355">
<rect width="181" height="200" fill="white"/>
</clipPath>
</defs>
</svg>
