<svg width="540" height="500" viewBox="0 0 540 500" fill="none" xmlns="http://www.w3.org/2000/svg">
<path d="M270 154C301.68 154 333.36 154 366 154C366 159.28 366 164.56 366 170C371.28 170 376.56 170 382 170C382 191.12 382 212.24 382 234C376.72 234 371.44 234 366 234C366 239.28 366 244.56 366 250C360.72 250 355.44 250 350 250C350 255.28 350 260.56 350 266C344.72 266 339.44 266 334 266C334 271.28 334 276.56 334 282C328.72 282 323.44 282 318 282C318 287.28 318 292.56 318 298C312.72 298 307.44 298 302 298C302 303.28 302 308.56 302 314C296.72 314 291.44 314 286 314C286 319.28 286 324.56 286 330C249.04 330 212.08 330 174 330C174 324.72 174 319.44 174 314C168.72 314 163.44 314 158 314C158 298.16 158 282.32 158 266C163.28 266 168.56 266 174 266C174 260.72 174 255.44 174 250C179.28 250 184.56 250 190 250C190 244.72 190 239.44 190 234C195.28 234 200.56 234 206 234C206 228.72 206 223.44 206 218C211.28 218 216.56 218 222 218C222 212.72 222 207.44 222 202C227.28 202 232.56 202 238 202C238 196.72 238 191.44 238 186C243.28 186 248.56 186 254 186C254 180.72 254 175.44 254 170C259.28 170 264.56 170 270 170C270 164.72 270 159.44 270 154Z" fill="#C0C0C0"/>
<path d="M366 170C371.28 170 376.56 170 382 170C382 191.12 382 212.24 382 234C376.72 234 371.44 234 366 234C366 239.28 366 244.56 366 250C360.72 250 355.44 250 350 250C350 255.28 350 260.56 350 266C344.72 266 339.44 266 334 266C334 271.28 334 276.56 334 282C328.72 282 323.44 282 318 282C318 287.28 318 292.56 318 298C312.72 298 307.44 298 302 298C302 303.28 302 308.56 302 314C296.72 314 291.44 314 286 314C286 319.28 286 324.56 286 330C249.04 330 212.08 330 174 330C174 324.72 174 319.44 174 314C205.68 314 237.36 314 270 314C270 298.16 270 282.32 270 266C275.28 266 280.56 266 286 266C286 260.72 286 255.44 286 250C291.28 250 296.56 250 302 250C302 244.72 302 239.44 302 234C307.28 234 312.56 234 318 234C318 228.72 318 223.44 318 218C323.28 218 328.56 218 334 218C334 212.72 334 207.44 334 202C339.28 202 344.56 202 350 202C350 196.72 350 191.44 350 186C355.28 186 360.56 186 366 186C366 180.72 366 175.44 366 170Z" fill="#BFBF00"/>
<path d="M286 170C312.4 170 338.8 170 366 170C366 175.28 366 180.56 366 186C360.72 186 355.44 186 350 186C350 191.28 350 196.56 350 202C344.72 202 339.44 202 334 202C334 207.28 334 212.56 334 218C328.72 218 323.44 218 318 218C318 223.28 318 228.56 318 234C312.72 234 307.44 234 302 234C302 239.28 302 244.56 302 250C296.72 250 291.44 250 286 250C286 255.28 286 260.56 286 266C259.6 266 233.2 266 206 266C206 260.72 206 255.44 206 250C211.28 250 216.56 250 222 250C222 244.72 222 239.44 222 234C227.28 234 232.56 234 238 234C238 228.72 238 223.44 238 218C243.28 218 248.56 218 254 218C254 212.72 254 207.44 254 202C259.28 202 264.56 202 270 202C270 196.72 270 191.44 270 186C275.28 186 280.56 186 286 186C286 180.72 286 175.44 286 170Z" fill="white"/>
<path d="M270 154C301.68 154 333.36 154 366 154C366 159.28 366 164.56 366 170C339.6 170 313.2 170 286 170C286 175.28 286 180.56 286 186C280.72 186 275.44 186 270 186C270 191.28 270 196.56 270 202C264.72 202 259.44 202 254 202C254 207.28 254 212.56 254 218C248.72 218 243.44 218 238 218C238 223.28 238 228.56 238 234C232.72 234 227.44 234 222 234C222 239.28 222 244.56 222 250C211.44 250 200.88 250 190 250C190 244.72 190 239.44 190 234C195.28 234 200.56 234 206 234C206 228.72 206 223.44 206 218C211.28 218 216.56 218 222 218C222 212.72 222 207.44 222 202C227.28 202 232.56 202 238 202C238 196.72 238 191.44 238 186C243.28 186 248.56 186 254 186C254 180.72 254 175.44 254 170C259.28 170 264.56 170 270 170C270 164.72 270 159.44 270 154Z" fill="white"/>
<path d="M270 266C275.28 266 280.56 266 286 266C286 276.56 286 287.12 286 298C291.28 298 296.56 298 302 298C302 303.28 302 308.56 302 314C296.72 314 291.44 314 286 314C286 319.28 286 324.56 286 330C249.04 330 212.08 330 174 330C174 324.72 174 319.44 174 314C205.68 314 237.36 314 270 314C270 298.16 270 282.32 270 266Z" fill="black"/>
<path d="M270 154C301.68 154 333.36 154 366 154C366 159.28 366 164.56 366 170C334.32 170 302.64 170 270 170C270 164.72 270 159.44 270 154Z" fill="black"/>
<path d="M366 170C371.28 170 376.56 170 382 170C382 191.12 382 212.24 382 234C376.72 234 371.44 234 366 234C366 223.44 366 212.88 366 202C360.72 202 355.44 202 350 202C350 196.72 350 191.44 350 186C355.28 186 360.56 186 366 186C366 180.72 366 175.44 366 170Z" fill="black"/>
<path d="M238 218C248.56 218 259.12 218 270 218C270 233.84 270 249.68 270 266C264.72 266 259.44 266 254 266C254 255.44 254 244.88 254 234C248.72 234 243.44 234 238 234C238 228.72 238 223.44 238 218Z" fill="white"/>
<path d="M158 266C163.28 266 168.56 266 174 266C174 281.84 174 297.68 174 314C168.72 314 163.44 314 158 314C158 298.16 158 282.32 158 266Z" fill="black"/>
<path d="M206 250C216.56 250 227.12 250 238 250C238 255.28 238 260.56 238 266C227.44 266 216.88 266 206 266C206 260.72 206 255.44 206 250Z" fill="white"/>
<path d="M302 282C307.28 282 312.56 282 318 282C318 287.28 318 292.56 318 298C312.72 298 307.44 298 302 298C302 292.72 302 287.44 302 282Z" fill="black"/>
<path d="M318 266C323.28 266 328.56 266 334 266C334 271.28 334 276.56 334 282C328.72 282 323.44 282 318 282C318 276.72 318 271.44 318 266Z" fill="black"/>
<path d="M334 250C339.28 250 344.56 250 350 250C350 255.28 350 260.56 350 266C344.72 266 339.44 266 334 266C334 260.72 334 255.44 334 250Z" fill="black"/>
<path d="M286 250C291.28 250 296.56 250 302 250C302 255.28 302 260.56 302 266C296.72 266 291.44 266 286 266C286 260.72 286 255.44 286 250Z" fill="black"/>
<path d="M270 250C275.28 250 280.56 250 286 250C286 255.28 286 260.56 286 266C280.72 266 275.44 266 270 266C270 260.72 270 255.44 270 250Z" fill="#FFFF00"/>
<path d="M254 250C259.28 250 264.56 250 270 250C270 255.28 270 260.56 270 266C264.72 266 259.44 266 254 266C254 260.72 254 255.44 254 250Z" fill="white"/>
<path d="M238 250C243.28 250 248.56 250 254 250C254 255.28 254 260.56 254 266C248.72 266 243.44 266 238 266C238 260.72 238 255.44 238 250Z" fill="#FFFF00"/>
<path d="M206 250C211.28 250 216.56 250 222 250C222 255.28 222 260.56 222 266C216.72 266 211.44 266 206 266C206 260.72 206 255.44 206 250Z" fill="#FFFF00"/>
<path d="M190 250C195.28 250 200.56 250 206 250C206 255.28 206 260.56 206 266C200.72 266 195.44 266 190 266C190 260.72 190 255.44 190 250Z" fill="white"/>
<path d="M174 250C179.28 250 184.56 250 190 250C190 255.28 190 260.56 190 266C184.72 266 179.44 266 174 266C174 260.72 174 255.44 174 250Z" fill="black"/>
<path d="M350 234C355.28 234 360.56 234 366 234C366 239.28 366 244.56 366 250C360.72 250 355.44 250 350 250C350 244.72 350 239.44 350 234Z" fill="black"/>
<path d="M302 234C307.28 234 312.56 234 318 234C318 239.28 318 244.56 318 250C312.72 250 307.44 250 302 250C302 244.72 302 239.44 302 234Z" fill="black"/>
<path d="M286 234C291.28 234 296.56 234 302 234C302 239.28 302 244.56 302 250C296.72 250 291.44 250 286 250C286 244.72 286 239.44 286 234Z" fill="#FFFF00"/>
<path d="M270 234C275.28 234 280.56 234 286 234C286 239.28 286 244.56 286 250C280.72 250 275.44 250 270 250C270 244.72 270 239.44 270 234Z" fill="white"/>
<path d="M254 234C259.28 234 264.56 234 270 234C270 239.28 270 244.56 270 250C264.72 250 259.44 250 254 250C254 244.72 254 239.44 254 234Z" fill="#FFFF00"/>
<path d="M222 234C227.28 234 232.56 234 238 234C238 239.28 238 244.56 238 250C232.72 250 227.44 250 222 250C222 244.72 222 239.44 222 234Z" fill="#FFFF00"/>
<path d="M190 234C195.28 234 200.56 234 206 234C206 239.28 206 244.56 206 250C200.72 250 195.44 250 190 250C190 244.72 190 239.44 190 234Z" fill="black"/>
<path d="M318 218C323.28 218 328.56 218 334 218C334 223.28 334 228.56 334 234C328.72 234 323.44 234 318 234C318 228.72 318 223.44 318 218Z" fill="black"/>
<path d="M302 218C307.28 218 312.56 218 318 218C318 223.28 318 228.56 318 234C312.72 234 307.44 234 302 234C302 228.72 302 223.44 302 218Z" fill="#FFFF00"/>
<path d="M286 218C291.28 218 296.56 218 302 218C302 223.28 302 228.56 302 234C296.72 234 291.44 234 286 234C286 228.72 286 223.44 286 218Z" fill="white"/>
<path d="M270 218C275.28 218 280.56 218 286 218C286 223.28 286 228.56 286 234C280.72 234 275.44 234 270 234C270 228.72 270 223.44 270 218Z" fill="#FFFF00"/>
<path d="M238 218C243.28 218 248.56 218 254 218C254 223.28 254 228.56 254 234C248.72 234 243.44 234 238 234C238 228.72 238 223.44 238 218Z" fill="#FFFF00"/>
<path d="M206 218C211.28 218 216.56 218 222 218C222 223.28 222 228.56 222 234C216.72 234 211.44 234 206 234C206 228.72 206 223.44 206 218Z" fill="black"/>
<path d="M334 202C339.28 202 344.56 202 350 202C350 207.28 350 212.56 350 218C344.72 218 339.44 218 334 218C334 212.72 334 207.44 334 202Z" fill="black"/>
<path d="M318 202C323.28 202 328.56 202 334 202C334 207.28 334 212.56 334 218C328.72 218 323.44 218 318 218C318 212.72 318 207.44 318 202Z" fill="#FFFF00"/>
<path d="M302 202C307.28 202 312.56 202 318 202C318 207.28 318 212.56 318 218C312.72 218 307.44 218 302 218C302 212.72 302 207.44 302 202Z" fill="white"/>
<path d="M286 202C291.28 202 296.56 202 302 202C302 207.28 302 212.56 302 218C296.72 218 291.44 218 286 218C286 212.72 286 207.44 286 202Z" fill="#FFFF00"/>
<path d="M254 202C259.28 202 264.56 202 270 202C270 207.28 270 212.56 270 218C264.72 218 259.44 218 254 218C254 212.72 254 207.44 254 202Z" fill="#FFFF00"/>
<path d="M222 202C227.28 202 232.56 202 238 202C238 207.28 238 212.56 238 218C232.72 218 227.44 218 222 218C222 212.72 222 207.44 222 202Z" fill="black"/>
<path d="M334 186C339.28 186 344.56 186 350 186C350 191.28 350 196.56 350 202C344.72 202 339.44 202 334 202C334 196.72 334 191.44 334 186Z" fill="#FFFF00"/>
<path d="M318 186C323.28 186 328.56 186 334 186C334 191.28 334 196.56 334 202C328.72 202 323.44 202 318 202C318 196.72 318 191.44 318 186Z" fill="white"/>
<path d="M302 186C307.28 186 312.56 186 318 186C318 191.28 318 196.56 318 202C312.72 202 307.44 202 302 202C302 196.72 302 191.44 302 186Z" fill="#FFFF00"/>
<path d="M270 186C275.28 186 280.56 186 286 186C286 191.28 286 196.56 286 202C280.72 202 275.44 202 270 202C270 196.72 270 191.44 270 186Z" fill="#FFFF00"/>
<path d="M238 186C243.28 186 248.56 186 254 186C254 191.28 254 196.56 254 202C248.72 202 243.44 202 238 202C238 196.72 238 191.44 238 186Z" fill="black"/>
<path d="M350 170C355.28 170 360.56 170 366 170C366 175.28 366 180.56 366 186C360.72 186 355.44 186 350 186C350 180.72 350 175.44 350 170Z" fill="#FFFF00"/>
<path d="M334 170C339.28 170 344.56 170 350 170C350 175.28 350 180.56 350 186C344.72 186 339.44 186 334 186C334 180.72 334 175.44 334 170Z" fill="white"/>
<path d="M318 170C323.28 170 328.56 170 334 170C334 175.28 334 180.56 334 186C328.72 186 323.44 186 318 186C318 180.72 318 175.44 318 170Z" fill="#FFFF00"/>
<path d="M286 170C291.28 170 296.56 170 302 170C302 175.28 302 180.56 302 186C296.72 186 291.44 186 286 186C286 180.72 286 175.44 286 170Z" fill="#FFFF00"/>
<path d="M254 170C259.28 170 264.56 170 270 170C270 175.28 270 180.56 270 186C264.72 186 259.44 186 254 186C254 180.72 254 175.44 254 170Z" fill="black"/>
</svg>
