<svg width="540" height="500" viewBox="0 0 540 500" fill="none" xmlns="http://www.w3.org/2000/svg">
<path d="M334 138C349.84 138 365.68 138 382 138C382 143.28 382 148.56 382 154C387.28 154 392.56 154 398 154C398 169.84 398 185.68 398 202C392.72 202 387.44 202 382 202C382 207.28 382 212.56 382 218C376.72 218 371.44 218 366 218C366 223.28 366 228.56 366 234C360.72 234 355.44 234 350 234C350 244.56 350 255.12 350 266C344.72 266 339.44 266 334 266C334 260.72 334 255.44 334 250C328.72 250 323.44 250 318 250C318 255.28 318 260.56 318 266C312.72 266 307.44 266 302 266C302 271.28 302 276.56 302 282C296.72 282 291.44 282 286 282C286 287.28 286 292.56 286 298C280.72 298 275.44 298 270 298C270 303.28 270 308.56 270 314C264.72 314 259.44 314 254 314C254 319.28 254 324.56 254 330C264.56 330 275.12 330 286 330C286 335.28 286 340.56 286 346C291.28 346 296.56 346 302 346C302 351.28 302 356.56 302 362C291.44 362 280.88 362 270 362C270 367.28 270 372.56 270 378C233.04 378 196.08 378 158 378C158 372.72 158 367.44 158 362C152.72 362 147.44 362 142 362C142 356.72 142 351.44 142 346C147.28 346 152.56 346 158 346C158 340.72 158 335.44 158 330C163.28 330 168.56 330 174 330C174 324.72 174 319.44 174 314C179.28 314 184.56 314 190 314C190 308.72 190 303.44 190 298C195.28 298 200.56 298 206 298C206 292.72 206 287.44 206 282C211.28 282 216.56 282 222 282C222 276.72 222 271.44 222 266C227.28 266 232.56 266 238 266C238 260.72 238 255.44 238 250C243.28 250 248.56 250 254 250C254 244.72 254 239.44 254 234C259.28 234 264.56 234 270 234C270 228.72 270 223.44 270 218C275.28 218 280.56 218 286 218C286 212.72 286 207.44 286 202C280.72 202 275.44 202 270 202C270 196.72 270 191.44 270 186C280.56 186 291.12 186 302 186C302 180.72 302 175.44 302 170C307.28 170 312.56 170 318 170C318 164.72 318 159.44 318 154C323.28 154 328.56 154 334 154C334 148.72 334 143.44 334 138Z" fill="white"/>
<path d="M334 138C349.84 138 365.68 138 382 138C382 143.28 382 148.56 382 154C387.28 154 392.56 154 398 154C398 169.84 398 185.68 398 202C392.72 202 387.44 202 382 202C382 207.28 382 212.56 382 218C376.72 218 371.44 218 366 218C366 223.28 366 228.56 366 234C360.72 234 355.44 234 350 234C350 244.56 350 255.12 350 266C344.72 266 339.44 266 334 266C334 260.72 334 255.44 334 250C328.72 250 323.44 250 318 250C318 244.72 318 239.44 318 234C312.72 234 307.44 234 302 234C302 228.72 302 223.44 302 218C296.72 218 291.44 218 286 218C286 212.72 286 207.44 286 202C280.72 202 275.44 202 270 202C270 196.72 270 191.44 270 186C280.56 186 291.12 186 302 186C302 180.72 302 175.44 302 170C307.28 170 312.56 170 318 170C318 164.72 318 159.44 318 154C323.28 154 328.56 154 334 154C334 148.72 334 143.44 334 138Z" fill="black"/>
<path d="M174 314C179.28 314 184.56 314 190 314C190 319.28 190 324.56 190 330C205.84 330 221.68 330 238 330C238 324.72 238 319.44 238 314C243.28 314 248.56 314 254 314C254 319.28 254 324.56 254 330C264.56 330 275.12 330 286 330C286 335.28 286 340.56 286 346C291.28 346 296.56 346 302 346C302 351.28 302 356.56 302 362C291.44 362 280.88 362 270 362C270 367.28 270 372.56 270 378C233.04 378 196.08 378 158 378C158 372.72 158 367.44 158 362C152.72 362 147.44 362 142 362C142 356.72 142 351.44 142 346C147.28 346 152.56 346 158 346C158 340.72 158 335.44 158 330C163.28 330 168.56 330 174 330C174 324.72 174 319.44 174 314Z" fill="#00BFBF"/>
<path d="M174 314C179.28 314 184.56 314 190 314C190 324.56 190 335.12 190 346C200.56 346 211.12 346 222 346C222 351.28 222 356.56 222 362C206.16 362 190.32 362 174 362C174 346.16 174 330.32 174 314Z" fill="black"/>
<path d="M190 330C200.56 330 211.12 330 222 330C222 335.28 222 340.56 222 346C211.44 346 200.88 346 190 346C190 340.72 190 335.44 190 330Z" fill="#00BFBF"/>
<path d="M222 330C227.28 330 232.56 330 238 330C238 335.28 238 340.56 238 346C232.72 346 227.44 346 222 346C222 340.72 222 335.44 222 330Z" fill="black"/>
<path d="M238 314C243.28 314 248.56 314 254 314C254 319.28 254 324.56 254 330C248.72 330 243.44 330 238 330C238 324.72 238 319.44 238 314Z" fill="black"/>
<path d="M222 314C227.28 314 232.56 314 238 314C238 319.28 238 324.56 238 330C232.72 330 227.44 330 222 330C222 324.72 222 319.44 222 314Z" fill="#00BFBF"/>
<path d="M254 298C259.28 298 264.56 298 270 298C270 303.28 270 308.56 270 314C264.72 314 259.44 314 254 314C254 308.72 254 303.44 254 298Z" fill="black"/>
<path d="M238 298C243.28 298 248.56 298 254 298C254 303.28 254 308.56 254 314C248.72 314 243.44 314 238 314C238 308.72 238 303.44 238 298Z" fill="#00BFBF"/>
<path d="M190 298C195.28 298 200.56 298 206 298C206 303.28 206 308.56 206 314C200.72 314 195.44 314 190 314C190 308.72 190 303.44 190 298Z" fill="black"/>
<path d="M270 282C275.28 282 280.56 282 286 282C286 287.28 286 292.56 286 298C280.72 298 275.44 298 270 298C270 292.72 270 287.44 270 282Z" fill="black"/>
<path d="M254 282C259.28 282 264.56 282 270 282C270 287.28 270 292.56 270 298C264.72 298 259.44 298 254 298C254 292.72 254 287.44 254 282Z" fill="#00BFBF"/>
<path d="M206 282C211.28 282 216.56 282 222 282C222 287.28 222 292.56 222 298C216.72 298 211.44 298 206 298C206 292.72 206 287.44 206 282Z" fill="black"/>
<path d="M286 266C291.28 266 296.56 266 302 266C302 271.28 302 276.56 302 282C296.72 282 291.44 282 286 282C286 276.72 286 271.44 286 266Z" fill="black"/>
<path d="M270 266C275.28 266 280.56 266 286 266C286 271.28 286 276.56 286 282C280.72 282 275.44 282 270 282C270 276.72 270 271.44 270 266Z" fill="#808080"/>
<path d="M222 266C227.28 266 232.56 266 238 266C238 271.28 238 276.56 238 282C232.72 282 227.44 282 222 282C222 276.72 222 271.44 222 266Z" fill="black"/>
<path d="M302 250C307.28 250 312.56 250 318 250C318 255.28 318 260.56 318 266C312.72 266 307.44 266 302 266C302 260.72 302 255.44 302 250Z" fill="black"/>
<path d="M286 250C291.28 250 296.56 250 302 250C302 255.28 302 260.56 302 266C296.72 266 291.44 266 286 266C286 260.72 286 255.44 286 250Z" fill="#808080"/>
<path d="M238 250C243.28 250 248.56 250 254 250C254 255.28 254 260.56 254 266C248.72 266 243.44 266 238 266C238 260.72 238 255.44 238 250Z" fill="black"/>
<path d="M302 234C307.28 234 312.56 234 318 234C318 239.28 318 244.56 318 250C312.72 250 307.44 250 302 250C302 244.72 302 239.44 302 234Z" fill="#808080"/>
<path d="M254 234C259.28 234 264.56 234 270 234C270 239.28 270 244.56 270 250C264.72 250 259.44 250 254 250C254 244.72 254 239.44 254 234Z" fill="black"/>
<path d="M270 218C275.28 218 280.56 218 286 218C286 223.28 286 228.56 286 234C280.72 234 275.44 234 270 234C270 228.72 270 223.44 270 218Z" fill="black"/>
<path d="M334 154C339.28 154 344.56 154 350 154C350 159.28 350 164.56 350 170C344.72 170 339.44 170 334 170C334 164.72 334 159.44 334 154Z" fill="#C0C0C0"/>
</svg>
