<svg width="200" height="200" viewBox="0 0 200 200" fill="none" xmlns="http://www.w3.org/2000/svg">
<g clip-path="url(#clip0_1_9094)">
<path d="M180.541 25.539L193.113 25.5083C193.213 27.5571 193.199 29.6249 193.205 31.6773L199.259 31.8389C199.216 35.9612 199.21 40.0839 199.239 44.2062C197.673 44.2356 194.595 44.3787 193.152 44.2199C193.093 46.2599 192.999 48.382 193.013 50.4165C191.286 50.4306 188.584 50.5322 186.936 50.3809C186.889 52.4111 186.877 54.4419 186.897 56.4723C189.027 56.5988 190.922 56.6262 193.05 56.6383L193.023 75.2297C191.096 75.255 188.753 75.3501 186.867 75.1853L186.82 81.4138L179.1 81.4692C177.947 81.4829 175.647 81.5968 174.586 81.4717C174.466 83.6507 174.458 85.3192 174.499 87.4958C176.555 87.5547 178.611 87.6029 180.667 87.6405C180.518 93.7153 180.637 100.118 180.63 106.221C178.783 106.257 176.401 106.364 174.595 106.316C174.263 109.801 174.419 115.03 174.425 118.63C172.579 118.642 170.049 118.732 168.258 118.581C168.25 126.795 168.346 135.252 168.23 143.445C166.21 143.494 164.189 143.511 162.169 143.492C161.818 149.059 162.026 156.341 162.024 162.046C160.009 162.087 157.994 162.108 155.978 162.106C155.582 167.218 155.815 175.385 155.813 180.651C153.801 180.704 151.788 180.731 149.777 180.729C149.656 182.771 149.607 184.818 149.628 186.864C147.784 186.88 145.251 186.974 143.463 186.815C143.432 188.892 143.414 190.969 143.41 193.044C140.422 193.06 133.738 193.254 131.06 193.001L131.003 199.25L87.3311 199.283C81.323 199.281 74.9565 199.156 68.985 199.273C68.9991 197.28 68.9756 195.109 69.0417 193.132C64.9911 193.068 60.6385 192.995 56.5851 193.062L56.644 186.931C54.6587 186.907 52.3371 186.825 50.3812 186.88C50.3706 185.008 50.4162 182.765 50.3075 180.923C49.4946 180.88 44.5784 180.833 44.1678 180.645C44.2737 174.59 44.1713 168.23 44.1694 162.151C42.0049 162.083 40.142 162.042 37.9719 162.108C38.1307 156.181 37.9836 149.523 37.9782 143.55C35.799 143.476 33.9306 143.451 31.749 143.5L31.7924 132.737C31.7192 131.997 31.8192 131.67 31.4445 131.171C29.6495 130.855 21.6351 131.045 19.3912 131.059C19.411 129.988 19.5531 125.821 19.1016 124.973C16.9667 124.916 15.2481 124.879 13.1046 124.992C13.2759 120.799 13.0373 116.455 13.1299 112.247C13.1735 110.274 13.1506 108.135 13.0245 106.173C15.1604 106.171 17.1298 106.182 19.2641 106.029C19.3291 104.02 19.38 102.01 19.4166 100.001C17.3088 100.01 15.2017 100.083 13.098 100.221C13.2748 96.0047 13.0367 91.6357 13.1308 87.405C13.1745 85.4427 13.1545 83.3118 13.0228 81.3621C15.0645 81.3572 17.3965 81.8411 18.9651 80.9823C19.4542 80.2725 19.3037 80.073 19.343 79.1105C19.5198 78.1227 19.4458 76.2694 19.436 75.1996C23.2656 75.292 27.9828 75.3206 31.7944 75.2119L32.0117 75.3354C31.7887 77.4003 31.888 79.2814 31.9408 81.3505L37.9621 81.3572C37.8525 79.3804 37.9049 77.2525 37.9155 75.2618C38.0843 74.368 37.9676 70.4409 38.0739 68.9936C39.9689 68.9842 42.3346 68.9079 44.1921 68.9737L56.3288 68.9678C57.7857 68.9678 61.4189 68.8963 62.7746 69.0943L62.8233 68.9743C65.5638 69.19 72.1986 68.9819 75.2157 68.9752C75.1948 66.9335 75.2208 64.8606 75.2279 62.8161C77.2707 62.8384 79.3136 62.8337 81.3564 62.8024L81.5005 62.8221L87.6571 62.7887C89.6361 62.784 91.7992 62.8196 93.763 62.7673L93.8192 68.9637L100.039 68.9809C99.9285 65.0544 100.016 60.6128 100.016 56.6518L100.025 56.4633L100.002 50.3613L106.128 50.3955L112.474 50.3779C113.578 50.366 117.785 50.1965 118.553 50.5412C118.547 51.8115 118.453 55.6215 118.721 56.6655C120.789 56.5782 122.7 56.597 124.767 56.6187L124.891 56.6692C124.701 58.2249 124.763 61.1151 124.767 62.7789L124.926 62.7971C126.925 62.782 128.924 62.7808 130.923 62.793L131.042 62.7423C132.761 62.8852 135.418 62.7887 137.208 62.7769C138.623 62.7986 142.159 62.9208 143.402 62.6863L143.49 62.7726C143.31 63.7956 143.291 67.9545 143.443 68.9735C145.313 68.9574 147.731 68.8701 149.554 69.014L149.621 69.0856C151.062 68.866 154.241 68.9703 155.794 68.9991C155.798 71.0628 155.778 73.1799 155.813 75.2389C157.732 75.2149 159.943 75.5631 161.615 75.0614C162.124 74.5017 161.953 74.5405 162.01 73.5626L161.971 69.2869C162.098 67.8506 162 64.1094 162.024 62.4428L162.032 56.6381C164.013 56.5439 166.237 56.605 168.236 56.6168L168.205 44.2139L174.37 44.188L174.419 44.051L174.415 38.0095C174.407 36.9878 174.276 32.5098 174.576 31.7538C176.565 31.7583 178.554 31.7137 180.541 31.6203C180.479 29.7103 180.536 27.4798 180.541 25.539ZM37.9155 75.2618C37.9049 77.2525 37.8525 79.3804 37.9621 81.3572L31.9408 81.3505C31.888 79.2814 31.7887 77.4003 32.0117 75.3354L31.7944 75.2119C27.9828 75.3206 23.2656 75.292 19.436 75.1996C19.4458 76.2694 19.5198 78.1227 19.343 79.1105C19.3037 80.073 19.4542 80.2725 18.9651 80.9823C17.3965 81.8411 15.0645 81.3572 13.0228 81.3621C13.1545 83.3118 13.1745 85.4427 13.1308 87.405C13.0367 91.6357 13.2748 96.0047 13.098 100.221C15.2017 100.083 17.3088 100.01 19.4166 100.001C19.38 102.01 19.3291 104.02 19.2641 106.029C17.1298 106.182 15.1604 106.171 13.0245 106.173C13.1506 108.135 13.1735 110.274 13.1299 112.247C13.0373 116.455 13.2759 120.799 13.1046 124.992C15.2481 124.879 16.9667 124.916 19.1016 124.973C19.5531 125.821 19.411 129.988 19.3912 131.059C21.6351 131.045 29.6495 130.855 31.4445 131.171C31.8192 131.67 31.7192 131.997 31.7924 132.737C31.7948 132.136 31.7491 131.918 32.0172 131.374C33.1943 130.709 36.3639 131.028 37.931 131.034L38.0097 130.951C40.0707 130.994 42.17 131.041 44.2277 130.934L44.2193 137.192C48.1458 137.186 52.608 137.077 56.4925 137.235L56.6417 137.255C62.6571 137.147 69.3311 137.431 75.2095 137.2L75.2396 131.061L75.2347 124.805L81.4328 124.808L81.415 118.621L100.004 118.603L100.012 112.433C96.5273 112.1 91.8601 112.458 88.2977 112.454C83.9434 112.45 79.6218 112.438 75.2657 112.395C75.1787 110.403 75.2228 108.244 75.2263 106.238C75.2731 104.204 75.2212 102.07 75.203 100.028C75.3017 98.3074 75.2271 95.6316 75.2285 93.8435L75.2044 87.5972C75.2653 85.6138 75.2306 83.4058 75.2381 81.4055L68.9566 81.3887L68.9611 75.2037L62.8026 75.2082L62.7746 69.0943C61.4189 68.8963 57.7857 68.9678 56.3288 68.9678L44.1921 68.9737C42.3346 68.9079 39.9689 68.9842 38.0739 68.9936C37.9676 70.4409 38.0843 74.368 37.9155 75.2618Z" fill="#C2C1C1"/>
<path d="M68.9567 81.3887L75.2382 81.4054C75.2306 83.4058 75.2654 85.6138 75.2045 87.5972C73.1354 87.6233 71.0658 87.6127 68.9971 87.5653L68.9567 81.3887Z" fill="#00FEFE" fill-opacity="0.988235"/>
<path d="M112.474 50.3777C113.578 50.3659 117.785 50.1964 118.553 50.5411C118.547 51.8114 118.453 55.6213 118.721 56.6653C120.789 56.578 122.7 56.5969 124.767 56.6185L124.891 56.669C124.701 58.2247 124.763 61.1149 124.767 62.7788L124.926 62.797C126.925 62.7819 128.924 62.7806 130.923 62.7929L131.042 62.7422C132.761 62.8851 135.418 62.7886 137.208 62.7767C138.623 62.7984 142.159 62.9207 143.402 62.6862L143.49 62.7724C143.31 63.7954 143.291 67.9543 143.443 68.9734C145.313 68.9572 147.731 68.8699 149.554 69.0139L149.621 69.0854C151.062 68.8659 154.241 68.9701 155.794 68.9989C155.798 71.0626 155.778 73.1797 155.813 75.2387L155.817 87.5686C153.771 87.5856 151.682 87.5807 149.64 87.6212C149.64 89.4291 149.724 92.0935 149.632 93.8338L149.634 99.8795L149.425 99.9817C149.474 102.057 149.493 104.133 149.478 106.208C147.941 106.215 144.98 106.149 143.555 106.268C143.573 107.269 143.784 111.863 143.408 112.439C141.376 112.429 139.332 112.388 137.307 112.507L137.247 112.599C136.505 112.19 120.566 112.39 118.61 112.39L105.594 112.472C104.106 112.47 101.416 112.542 100.012 112.433C96.5273 112.1 91.8601 112.458 88.2977 112.454C83.9434 112.45 79.6219 112.437 75.2658 112.394C75.1787 110.403 75.2228 108.244 75.2263 106.238C75.2731 104.204 75.2212 102.07 75.203 100.028C75.3017 98.3073 75.2271 95.6315 75.2286 93.8434L75.2044 87.597C75.2653 85.6137 75.2306 83.4056 75.2382 81.4053L68.9566 81.3885L68.9611 75.2035L62.8027 75.2081L62.7747 69.0942L62.8233 68.9742C65.5639 69.1899 72.1986 68.9818 75.2157 68.975C75.1948 66.9334 75.2208 64.8605 75.2279 62.816C77.2707 62.8383 79.3136 62.8336 81.3564 62.8023L81.5005 62.8219L87.6571 62.7886C89.6361 62.7839 91.7992 62.8195 93.7631 62.7671L93.8193 68.9636L100.039 68.9807C99.9285 65.0543 100.016 60.6126 100.016 56.6516L100.025 56.4632L100.002 50.3612L106.128 50.3953L112.474 50.3777Z" fill="#81007F"/>
<path d="M149.554 69.0138L149.621 69.0854C151.062 68.8658 154.241 68.9701 155.794 68.9989C155.798 71.0626 155.778 73.1797 155.813 75.2387L155.817 87.5686C153.771 87.5856 151.682 87.5807 149.64 87.6211C149.64 89.4291 149.724 92.0934 149.632 93.8337L149.634 99.8795L149.425 99.9817C149.474 102.057 149.493 104.133 149.478 106.208C147.941 106.215 144.98 106.149 143.555 106.267C143.573 107.269 143.784 111.863 143.408 112.439C141.376 112.429 139.332 112.388 137.307 112.507C137.006 111.305 137.188 96.1319 137.202 93.8472L130.974 93.8384L130.995 87.7237L137.249 87.699C137.219 89.7229 137.225 91.7469 137.27 93.7706C139.199 93.8245 141.421 93.7728 143.373 93.7681C143.349 89.6691 143.357 85.5701 143.394 81.4711C143.637 80.5148 143.522 70.417 143.443 68.9733C145.313 68.9572 147.731 68.8699 149.554 69.0138Z" fill="black"/>
<path d="M149.621 69.0855C151.062 68.8659 154.241 68.9702 155.794 68.999C155.798 71.0627 155.778 73.1798 155.813 75.2388L155.817 87.5687C153.771 87.5857 151.682 87.5808 149.64 87.6212L149.621 69.0855Z" fill="#828101"/>
<path d="M143.422 93.8528L149.632 93.8337L149.634 99.8795L149.425 99.9817C149.474 102.057 149.493 104.133 149.478 106.208C147.941 106.215 144.98 106.149 143.555 106.268C143.573 107.269 143.784 111.863 143.408 112.439C143.091 106.915 143.363 99.5046 143.422 93.8528Z" fill="#818081"/>
<path d="M143.51 99.9997C145.454 99.9611 147.475 99.9848 149.425 99.9819C149.474 102.057 149.493 104.133 149.478 106.209C147.941 106.215 144.98 106.149 143.555 106.268L143.51 99.9997Z" fill="#FEFEFE"/>
<path d="M112.413 68.9604C114.486 69.0958 116.538 69.0017 118.596 69.0845L118.588 75.2393L118.6 81.3895L118.584 93.7366C116.53 93.7546 114.459 93.7881 112.409 93.7814L106.197 93.7918L99.9816 93.8143L100 87.6573C99.9366 85.6392 99.9857 83.4489 99.9938 81.4173L100.006 75.1324C101.874 75.2656 104.256 75.2246 106.165 75.2436C106.165 73.1537 106.181 71.0638 106.214 68.9743L112.301 68.9999L112.413 68.9604Z" fill="#828101"/>
<path d="M106.152 75.2023L112.44 75.1804C112.47 79.3187 112.47 83.4571 112.438 87.5956C108.95 87.6475 103.227 87.4429 100 87.6573C99.9366 85.6392 99.9857 83.4489 99.9938 81.4173C102.019 81.3977 104.123 81.3472 106.142 81.3756L106.152 75.2023Z" fill="#FEFE00"/>
<path d="M112.413 68.9604C114.486 69.0958 116.538 69.0017 118.596 69.0845L118.588 75.2393L112.419 75.2121C112.421 73.8725 112.509 70.1729 112.301 68.9999L112.413 68.9604Z" fill="#81007F"/>
<path d="M143.402 62.6863L143.49 62.7725C143.31 63.7955 143.291 67.9544 143.442 68.9735C143.522 70.4172 143.637 80.5149 143.393 81.4712C141.709 81.3596 138.983 81.415 137.223 81.4019L137.233 87.4874C133.084 87.469 128.92 87.6356 124.742 87.6313C124.726 85.4613 124.728 83.5409 124.83 81.3684C124.918 79.576 124.853 77.0727 124.853 75.228L131.007 75.2116C130.989 73.1577 131.003 71.1038 131.052 69.0503L131.093 68.9755C131.068 67.7847 131.138 63.7201 130.923 62.793L131.042 62.7423C132.761 62.8852 135.418 62.7887 137.208 62.7768C138.623 62.7985 142.159 62.9208 143.402 62.6863Z" fill="#FE00FE"/>
<path d="M143.402 62.6863L143.49 62.7725C143.31 63.7955 143.291 67.9544 143.443 68.9735C143.522 70.4172 143.637 80.5149 143.393 81.4712C143.124 79.8266 143.293 71.0587 143.301 68.9645C141.315 68.9404 139.164 68.8707 137.194 68.9663C135.387 69.0458 132.947 68.9749 131.093 68.9755C131.068 67.7847 131.138 63.7201 130.923 62.793L131.042 62.7423C132.761 62.8852 135.418 62.7887 137.208 62.7768C138.623 62.7985 142.159 62.9208 143.402 62.6863Z" fill="#81007F"/>
<path d="M131.093 68.9755C132.947 68.9749 135.387 69.0458 137.194 68.9663C137.194 70.9298 137.141 73.2481 137.214 75.1813C135.197 75.1777 133.026 75.2106 131.025 75.155C131.005 77.1016 130.917 79.4715 131.023 81.3845C128.994 81.38 126.85 81.4107 124.83 81.3684C124.918 79.576 124.853 77.0727 124.853 75.228L131.007 75.2116C130.989 73.1577 131.003 71.1038 131.052 69.0503L131.093 68.9755Z" fill="#C2C1C1"/>
<path d="M112.474 50.3777C113.578 50.3659 117.785 50.1964 118.553 50.5411C118.547 51.8114 118.453 55.6213 118.721 56.6653L118.623 56.7596C118.582 60.8678 118.574 64.9762 118.596 69.0844C116.538 69.0016 114.486 69.0956 112.413 68.9603L112.301 68.9997L106.214 68.9742C106.011 65.698 106.177 60.095 106.175 56.6525L100.016 56.6516L100.025 56.4632L100.002 50.3612L106.128 50.3953L112.474 50.3777Z" fill="#C2C1C1"/>
<path d="M112.36 56.5972C113.472 56.4975 117.688 56.494 118.623 56.7595C118.582 60.8677 118.573 64.9761 118.596 69.0843C116.538 69.0015 114.486 69.0956 112.413 68.9603C112.27 65.0704 112.399 60.5619 112.36 56.5972Z" fill="#FE00FE"/>
<path d="M112.474 50.3777C113.578 50.3659 117.785 50.1964 118.553 50.5411C118.547 51.8114 118.453 55.6213 118.721 56.6653L118.623 56.7596C117.689 56.494 113.472 56.4975 112.36 56.5973L106.24 56.6114C106.273 55.1777 106.412 51.7836 106.116 50.5077L106.128 50.3953L112.474 50.3777Z" fill="#81007F"/>
<path d="M106.128 50.3955L106.116 50.5079L106.073 56.4462L100.025 56.4633L100.002 50.3613L106.128 50.3955Z" fill="#FEFEFE"/>
<path d="M106.197 93.7917L112.409 93.7812V112.302C108.276 112.354 104.159 112.28 100.004 112.354C99.951 108.234 99.9489 104.114 99.998 99.9942L106.163 99.9967C106.136 97.9283 106.146 95.8597 106.197 93.7917Z" fill="black"/>
<path d="M75.2279 62.8159C77.2707 62.8382 79.3136 62.8335 81.3564 62.8022L81.5005 62.8219C81.2959 64.4446 81.3909 67.205 81.3817 68.9425C79.3175 68.9784 77.2531 68.9795 75.1889 68.9457C75.2063 70.96 75.2733 73.1985 75.2136 75.1921C75.2281 76.9976 75.3246 79.6654 75.2382 81.4053L68.9566 81.3885L68.9611 75.2035L62.8027 75.208L62.7747 69.0941L62.8233 68.9742C65.5639 69.1898 72.1986 68.9817 75.2157 68.975C75.1948 66.9333 75.2208 64.8604 75.2279 62.8159Z" fill="#820000"/>
<path d="M68.9612 75.2036C71.0372 75.1324 73.1349 75.1735 75.2137 75.1921C75.2282 76.9976 75.3246 79.6654 75.2382 81.4053L68.9567 81.3886L68.9612 75.2036Z" fill="black"/>
<path d="M118.721 56.6653C120.789 56.578 122.7 56.5968 124.767 56.6185L124.891 56.669C124.701 58.2247 124.763 61.1149 124.767 62.7788C124.45 67.7449 124.773 76.0799 124.742 81.4351L118.6 81.3893L118.588 75.2391L118.596 69.0844C118.574 64.9762 118.582 60.8678 118.623 56.7596L118.721 56.6653Z" fill="black"/>
<path d="M93.8199 75.1177C95.8201 75.134 98.0215 75.1982 100.006 75.1324L99.9939 81.4173C93.9319 81.5414 87.4599 81.4253 81.3637 81.4257C81.2955 79.3534 81.3596 77.2178 81.3921 75.14C85.5344 75.2156 89.6778 75.2082 93.8199 75.1177Z" fill="#FE00FE"/>
<path d="M81.3952 68.9909C85.5289 68.9627 89.6626 68.9711 93.7961 69.0159L93.8198 75.1175C89.6777 75.208 85.5344 75.2154 81.3921 75.1397L81.3952 68.9909Z" fill="#C2C1C1"/>
<path d="M75.2045 87.5971L81.42 87.5552L81.4008 93.8272L75.2286 93.8434L75.2045 87.5971Z" fill="black"/>
<path d="M124.926 62.7971C126.925 62.782 128.924 62.7807 130.923 62.793C131.138 63.7201 131.068 67.7847 131.093 68.9755L131.052 69.0504C129.576 68.9042 126.518 69.0371 124.945 69.0663C124.881 66.977 124.875 64.8865 124.926 62.7971Z" fill="#FE00FE"/>
<path d="M93.7606 93.8055C95.3827 93.6448 98.328 93.772 100.053 93.8059C100.039 95.8621 99.9939 97.992 100.037 100.042L93.8515 100.022L93.8485 106.216C91.7969 106.213 89.6569 106.24 87.6135 106.203C87.6219 108.025 87.5588 110.511 87.6845 112.28L81.368 112.309C81.3645 108.257 81.2938 103.995 81.3913 99.959L81.3925 93.8125L93.7606 93.8055Z" fill="#FE00FE"/>
<path d="M81.3926 93.8124L93.7606 93.8054L93.797 99.991C89.763 99.9875 85.4002 100.057 81.3914 99.9589L81.3926 93.8124Z" fill="#C2C1C1"/>
<path d="M124.775 93.8026C126.527 93.6558 129.257 93.7643 131.081 93.7819C131.023 97.9255 131.017 102.069 131.064 106.213L118.574 106.24C118.533 104.147 118.541 102.054 118.596 99.9622L118.602 93.8157L124.775 93.8026Z" fill="#FE00FE"/>
<path d="M118.602 93.8156L124.775 93.8025C124.775 95.7341 124.722 98.0957 124.808 99.9897L118.596 99.9621L118.602 93.8156Z" fill="#C2C1C1"/>
<path d="M180.54 25.539L193.113 25.5083C193.213 27.5571 193.199 29.6249 193.205 31.6773L199.259 31.8389C199.216 35.9612 199.21 40.0839 199.239 44.2062C197.673 44.2356 194.595 44.3787 193.152 44.2199C193.092 46.2599 192.998 48.382 193.013 50.4165C191.286 50.4306 188.583 50.5322 186.936 50.3809C186.889 52.4111 186.877 54.4419 186.897 56.4723C189.027 56.5988 190.922 56.6262 193.05 56.6383L193.023 75.2297C191.096 75.255 188.753 75.3501 186.867 75.1853L186.82 81.4138L179.099 81.4692C177.947 81.4829 175.647 81.5968 174.586 81.4717C174.466 83.6507 174.458 85.3192 174.498 87.4958C176.555 87.5547 178.611 87.6029 180.667 87.6405C180.518 93.7153 180.637 100.118 180.63 106.221C178.783 106.257 176.401 106.364 174.595 106.316C174.263 109.801 174.419 115.03 174.425 118.63C172.579 118.642 170.049 118.732 168.258 118.581C168.25 126.795 168.346 135.252 168.23 143.445C166.21 143.494 164.189 143.511 162.169 143.492C161.818 149.059 162.026 156.341 162.024 162.046C160.009 162.087 157.993 162.108 155.978 162.106C155.582 167.218 155.815 175.385 155.813 180.651C153.801 180.704 151.788 180.731 149.777 180.729C149.656 182.771 149.607 184.818 149.627 186.864C147.784 186.88 145.251 186.974 143.463 186.815C143.432 188.892 143.414 190.969 143.41 193.044C140.421 193.06 133.738 193.254 131.06 193.001L131.003 199.25L87.331 199.283C81.323 199.281 74.9564 199.156 68.985 199.273C68.9991 197.28 68.9756 195.109 69.0416 193.132C64.9911 193.068 60.6384 192.995 56.585 193.062L56.6439 186.931C54.6586 186.907 52.3371 186.825 50.3812 186.88C50.3706 185.008 50.4161 182.765 50.3074 180.923C49.4945 180.88 44.5784 180.833 44.1677 180.645C49.869 180.42 57.0762 180.539 62.8255 180.588C62.8273 182.64 62.8114 184.726 62.8357 186.774C66.691 186.786 71.4247 186.68 75.2238 186.833C91.5357 186.876 108.533 187.087 124.797 186.825L124.818 180.621L137.225 180.629L137.212 168.247L143.4 168.242C143.412 166.174 143.442 164.103 143.494 162.034L149.63 162.014C151.42 161.92 153.936 161.977 155.772 161.971L155.8 143.37L161.959 143.364L161.983 124.838L155.806 124.791C155.747 122.763 155.786 120.635 155.794 118.597L161.987 118.583L161.951 114.347C161.996 113.683 161.963 113.043 162.282 112.48C163.698 112.256 166.66 112.374 168.201 112.391C168.195 110.324 168.201 108.257 168.217 106.19C162.545 106.219 155.187 105.853 149.689 106.214C149.703 104.103 149.685 101.991 149.634 99.8797L149.632 93.8339C149.724 92.0936 149.64 89.4293 149.64 87.6213C151.682 87.5808 153.771 87.5857 155.817 87.5688L155.813 75.2389C157.732 75.2149 159.943 75.5631 161.615 75.0614C162.124 74.5017 161.953 74.5405 162.01 73.5626L161.971 69.2869C162.098 67.8506 162 64.1094 162.024 62.4428L162.032 56.6381C164.013 56.5439 166.237 56.605 168.236 56.6168L168.205 44.2139L174.37 44.188L174.419 44.051L174.415 38.0095C174.406 36.9878 174.276 32.5098 174.576 31.7538C176.565 31.7583 178.554 31.7137 180.54 31.6203C180.479 29.7103 180.536 27.4798 180.54 25.539Z" fill="black"/>
<path d="M162.01 73.5625C162.018 74.037 162.049 74.7848 162.026 75.2355C161.926 77.3054 161.961 79.3538 161.973 81.425L168.144 81.4023C168.191 83.4893 168.209 85.577 168.201 87.6644C170.276 87.5965 172.352 87.5753 174.427 87.6008C174.308 93.3874 174.253 100.356 174.402 106.167C172.506 106.169 170.073 106.107 168.217 106.19C162.545 106.219 155.187 105.853 149.689 106.214C149.703 104.103 149.685 101.991 149.634 99.8796L149.632 93.8338C149.724 92.0935 149.64 89.4292 149.64 87.6213C151.682 87.5808 153.771 87.5857 155.817 87.5687L155.813 75.2388C157.732 75.2149 159.943 75.563 161.615 75.0614C162.124 74.5016 161.953 74.5405 162.01 73.5625Z" fill="#820000"/>
<path d="M161.955 87.6025C164.156 87.5022 166.124 87.5741 168.283 87.5334C168.185 91.4297 168.173 96.1056 168.281 100.01L155.786 100.025C155.78 98.1603 155.71 95.6703 155.792 93.8452C155.78 91.7428 155.782 89.6403 155.8 87.5377L161.955 87.6025Z" fill="#FE0000"/>
<path d="M155.8 87.5376L161.955 87.6024C162.118 89.7123 161.957 91.758 162.028 93.8418L155.792 93.845C155.78 91.7427 155.782 89.6401 155.8 87.5376Z" fill="#FE00FE"/>
<path d="M180.541 25.539L193.113 25.5083C192.964 27.5215 193.027 29.7353 193.039 31.7685L193.003 44.1906L186.822 44.2178L186.818 50.3513C184.884 50.3603 182.55 50.3161 180.647 50.3948C178.49 50.4592 176.542 50.4357 174.388 50.3922L174.37 44.188L174.419 44.051L174.415 38.0095C174.407 36.9878 174.276 32.5098 174.576 31.7538C176.565 31.7583 178.554 31.7137 180.541 31.6203C180.479 29.7103 180.536 27.4798 180.541 25.539Z" fill="#FEFE00"/>
<path d="M180.54 25.539L193.113 25.5083C192.964 27.5215 193.027 29.7353 193.039 31.7685C190.965 31.7174 188.888 31.7121 186.813 31.7528L180.579 31.7559C180.575 33.71 180.626 36.0027 180.559 37.9292L180.428 37.9719L174.415 38.0095C174.407 36.9878 174.276 32.5098 174.576 31.7538C176.565 31.7583 178.554 31.7137 180.54 31.6203C180.479 29.7103 180.536 27.4798 180.54 25.539Z" fill="#828101"/>
<path d="M180.579 31.7558L186.813 31.7527C186.818 33.8309 186.848 35.9643 186.803 38.0378C185.548 38.036 181.563 38.082 180.559 37.9291C180.626 36.0026 180.575 33.7099 180.579 31.7558Z" fill="#FEFEFE"/>
<path d="M174.415 38.0095L180.428 37.9719C180.778 39.0912 180.614 42.802 180.592 44.1964C179.371 44.205 175.412 44.309 174.419 44.051L174.415 38.0095Z" fill="#FEFEFE"/>
<path d="M180.657 44.2382L186.822 44.2178L186.818 50.3512C184.884 50.3602 182.55 50.3161 180.647 50.3948L180.657 44.2382Z" fill="#828101"/>
<path d="M168.236 56.6168L180.616 56.582C180.598 57.78 180.479 61.7993 180.663 62.7777C180.743 64.2728 180.81 67.6218 180.598 69.044C178.546 68.9941 176.494 68.9992 174.441 69.0593L174.421 75.2492L174.413 81.3925L168.144 81.4023L161.973 81.425C161.961 79.3538 161.926 77.3054 162.026 75.2355C162.049 74.7848 162.018 74.037 162.01 73.5625L161.971 69.2869C162.098 67.8506 162 64.1093 162.024 62.4428L162.032 56.6381C164.013 56.5438 166.237 56.6049 168.236 56.6168Z" fill="#FE0000"/>
<path d="M168.236 56.6168L180.616 56.582C180.598 57.78 180.479 61.7993 180.663 62.7777C180.743 64.2728 180.81 67.6218 180.598 69.044C180.391 67.3254 180.5 64.5627 180.524 62.7611C178.409 62.7245 176.518 62.6795 174.402 62.8057L168.219 62.7519C168.209 64.8064 168.183 66.855 168.25 68.9089L168.103 68.9686C166.999 68.9588 162.484 68.71 161.971 69.2869C162.098 67.8506 162 64.1093 162.024 62.4428L162.032 56.6381C164.013 56.5438 166.237 56.6049 168.236 56.6168Z" fill="#820000"/>
<path d="M162.032 56.6381C164.013 56.5439 166.237 56.605 168.236 56.6169V62.7814C166.877 62.7959 163.443 62.9149 162.257 62.7293L162.024 62.4429L162.032 56.6381Z" fill="#828101"/>
<path d="M161.971 69.2867C162.484 68.7098 166.999 68.9586 168.103 68.9684C168.356 70.0543 168.248 73.8763 168.254 75.2403L162.026 75.2354C162.049 74.7846 162.018 74.0368 162.01 73.5623L161.971 69.2867Z" fill="#FE00FE"/>
<path d="M168.22 62.752L174.403 62.8057L174.425 69.0005C172.823 69.0058 169.724 69.1019 168.25 68.9089C168.183 66.855 168.209 64.8065 168.22 62.752Z" fill="#FE00FE"/>
<path d="M75.2239 186.833C91.5358 186.876 108.534 187.087 124.797 186.825C124.697 188.679 124.763 191.1 124.763 193.001L75.2523 192.978L75.2239 186.833Z" fill="#818081"/>
<path d="M143.494 162.034L149.63 162.013C149.452 168.048 149.587 174.502 149.574 180.574L137.192 180.584L137.18 186.813C133.053 186.784 128.924 186.79 124.797 186.825L124.818 180.621L137.225 180.629L137.212 168.246L143.4 168.242C143.412 166.174 143.442 164.103 143.494 162.034Z" fill="#818081"/>
<path d="M168.205 44.214L174.37 44.188L174.388 50.3922C176.543 50.4357 178.49 50.4592 180.647 50.3949C180.559 52.5348 180.567 54.4791 180.59 56.6175L186.844 56.6273C186.818 58.6783 186.807 60.7295 186.816 62.7808L180.663 62.7777C180.479 61.7993 180.598 57.78 180.616 56.5821L168.236 56.6169L168.205 44.214Z" fill="#828101"/>
<path d="M174.441 69.0593C176.493 68.9992 178.546 68.9941 180.598 69.0439C180.581 71.0549 180.524 73.2069 180.606 75.2052C179.694 75.1899 175.005 75.0439 174.421 75.2492L174.441 69.0593Z" fill="#820000"/>
<path d="M38.0739 68.9934C39.9689 68.984 42.3346 68.9077 44.1921 68.9735L56.3288 68.9676C57.7857 68.9676 61.4189 68.8961 62.7746 69.0942L62.8026 75.208L68.9611 75.2035L68.9566 81.3885L68.9971 87.5651C71.0658 87.6125 73.1353 87.6232 75.2044 87.597L75.2285 93.8433C75.2271 95.6315 75.3017 98.3072 75.203 100.028C75.2212 102.07 75.2731 104.204 75.2263 106.238C75.2228 108.244 75.1787 110.402 75.2657 112.394C79.6218 112.437 83.9434 112.45 88.2977 112.454C91.8601 112.458 96.5273 112.1 100.012 112.433L100.004 118.603L81.415 118.621L81.4328 124.807L75.2347 124.805L75.2396 131.061L75.2095 137.2C69.3311 137.431 62.6571 137.147 56.6417 137.255L56.4925 137.235C52.608 137.077 48.1458 137.185 44.2193 137.192L44.2277 130.934C42.17 131.04 40.0707 130.993 38.0097 130.95L37.931 131.034C36.3639 131.028 33.1943 130.709 32.0172 131.374C31.7491 131.917 31.7948 132.136 31.7924 132.737C31.7192 131.997 31.8192 131.67 31.4445 131.171C29.6495 130.854 21.6351 131.044 19.3912 131.059C19.411 129.988 19.5531 125.821 19.1016 124.973C16.9667 124.916 15.2481 124.879 13.1046 124.991C13.2759 120.798 13.0373 116.454 13.1299 112.247C13.1735 110.274 13.1506 108.135 13.0245 106.173C15.1604 106.171 17.1298 106.182 19.2641 106.029C19.3291 104.02 19.38 102.01 19.4166 100C17.3088 100.01 15.2017 100.083 13.098 100.221C13.2748 96.0045 13.0367 91.6355 13.1308 87.4048C13.1745 85.4425 13.1545 83.3116 13.0228 81.3619C15.0645 81.357 17.3965 81.8409 18.9651 80.9821C19.4542 80.2723 19.3037 80.0728 19.343 79.1104C19.5198 78.1226 19.4458 76.2692 19.436 75.1994C23.2656 75.2918 27.9828 75.3205 31.7944 75.2117L32.0117 75.3352C31.7887 77.4001 31.888 79.2812 31.9408 81.3503L37.9621 81.357C37.8525 79.3802 37.9049 77.2523 37.9155 75.2616C38.0843 74.3678 37.9676 70.4407 38.0739 68.9934ZM62.7969 112.437C62.8392 110.354 62.8274 108.269 62.7609 106.186C60.7231 106.172 58.588 106.124 56.5583 106.182L56.597 112.419L62.7969 112.437ZM31.7828 87.5242C31.8222 85.4791 31.8228 83.4336 31.7844 81.3885C27.7692 81.3811 23.3342 81.2906 19.3495 81.3875C19.3289 83.4536 19.3434 85.52 19.3926 87.5858C23.4491 87.6189 27.7447 87.6735 31.7828 87.5242ZM19.3884 112.419L31.7905 112.458C31.8087 110.317 31.8206 108.324 31.7331 106.181C27.7431 106.171 23.3167 106.077 19.3587 106.175C19.3291 108.256 19.3391 110.337 19.3884 112.419Z" fill="#000082"/>
<path d="M62.8271 100.02C64.8478 100.104 66.9564 100.043 68.985 100.018L75.203 100.028C75.2212 102.07 75.2731 104.204 75.2263 106.238C75.2228 108.244 75.1786 110.402 75.2657 112.394C79.6218 112.437 83.9434 112.45 88.2977 112.454C91.8601 112.458 96.5273 112.1 100.012 112.433L100.004 118.603L81.415 118.621L81.4328 124.807L75.2346 124.805L75.2396 131.061L75.2095 137.2C69.3311 137.431 62.6571 137.147 56.6417 137.255L56.4925 137.235C52.6079 137.077 48.1457 137.185 44.2193 137.192L44.2277 130.934C42.17 131.04 40.0706 130.993 38.0097 130.95L37.931 131.034C36.3639 131.028 33.1943 130.709 32.0172 131.374C31.749 131.917 31.7948 132.136 31.7924 132.737C31.7192 131.997 31.8191 131.67 31.4445 131.171C29.6495 130.854 21.6351 131.044 19.3912 131.059C19.411 129.988 19.5531 125.821 19.1016 124.973C25.0912 124.726 31.9238 124.762 37.9658 124.713C37.9406 120.623 37.9625 116.534 38.0316 112.445L44.1851 112.403C44.121 110.714 44.4251 108.29 44.0341 106.645C43.9579 106.324 43.7784 106.365 43.3557 106.202C45.7498 106.165 48.1443 106.161 50.5386 106.188C52.5511 106.189 54.5634 106.172 56.5755 106.137L56.6004 100.031C58.1988 99.9704 61.5323 100.239 62.8271 100.02ZM56.5969 112.419L62.7969 112.437C62.8392 110.354 62.8274 108.269 62.7609 106.186C60.7231 106.172 58.588 106.124 56.5583 106.182L56.5969 112.419Z" fill="black"/>
<path d="M62.8272 100.02C64.8478 100.104 66.9564 100.043 68.985 100.018L75.203 100.028C75.2212 102.07 75.2731 104.204 75.2263 106.238C75.2228 108.244 75.1787 110.402 75.2658 112.394C74.978 115.285 75.1705 121.6 75.1791 124.703C67.0292 124.885 58.587 124.781 50.416 124.783C50.3684 122.078 50.0563 107.977 50.5386 106.188C52.5511 106.189 54.5634 106.172 56.5755 106.137L56.6004 100.031C58.1988 99.9704 61.5323 100.239 62.8272 100.02ZM56.597 112.419L62.7969 112.437C62.8392 110.354 62.8274 108.269 62.761 106.186C60.7231 106.172 58.588 106.124 56.5583 106.182L56.597 112.419Z" fill="#000082"/>
<path d="M56.5583 106.182C58.588 106.124 60.7231 106.172 62.761 106.187C62.8274 108.27 62.8393 110.354 62.797 112.438L56.597 112.419L56.5583 106.182Z" fill="#00FEFE" fill-opacity="0.988235"/>
<path d="M69.0025 106.201C69.2598 110.14 68.861 114.539 69.1157 118.652C64.9219 118.636 60.7279 118.64 56.534 118.666C56.5228 116.806 56.4329 114.216 56.597 112.419L62.797 112.437C62.8393 110.354 62.8274 108.27 62.761 106.186C64.4828 106.095 67.2491 106.113 69.0025 106.201Z" fill="#0101FE"/>
<path d="M75.2029 100.028C75.2211 102.07 75.273 104.204 75.2262 106.238L69.0024 106.201C68.9725 104.14 68.9668 102.079 68.985 100.018L75.2029 100.028Z" fill="black"/>
<path d="M38.0261 124.824C40.0588 124.822 42.1425 124.795 44.1705 124.84L44.1611 131.061C48.2979 131.034 52.4347 131.036 56.5712 131.065C56.5627 132.97 56.4858 135.397 56.6418 137.255L56.4926 137.235C52.608 137.077 48.1458 137.186 44.2193 137.192L44.2277 130.934C42.1701 131.041 40.0707 130.994 38.0098 130.951C38.0147 128.925 37.9953 126.846 38.0261 124.824Z" fill="#818081"/>
<path d="M44.1921 68.9736L56.3288 68.9677C57.7857 68.9677 61.4189 68.8961 62.7746 69.0942L62.8026 75.2081L68.9611 75.2036L68.9566 81.3885L68.9971 87.5652C71.0658 87.6126 73.1353 87.6232 75.2044 87.597L75.2285 93.8434C75.2271 95.6315 75.3017 98.3073 75.203 100.028L68.985 100.018C66.9564 100.043 64.8478 100.104 62.8271 100.02C61.5323 100.239 58.1988 99.9705 56.6004 100.031C52.4863 99.9392 48.3319 100.083 44.1915 100.006L44.2129 93.7653L38.0103 93.7927C38.1027 91.8353 38.0424 89.5363 38.0377 87.5535C37.9331 83.5743 38.0295 79.2478 38.0391 75.2291L44.1735 75.1913L44.1921 68.9736Z" fill="black"/>
<path d="M44.1921 68.9736L56.3288 68.9677C57.7857 68.9677 61.4189 68.8961 62.7746 69.0942L62.8026 75.2081L68.9611 75.2036L68.9566 81.3885C66.9132 81.3744 64.8699 81.3789 62.8265 81.4022C62.7493 83.5267 62.763 85.4871 62.7879 87.6075C58.1117 87.5263 48.2872 88.0597 44.1676 87.5899L38.0377 87.5535C37.9331 83.5743 38.0295 79.2478 38.0391 75.2291L44.1735 75.1913L44.1921 68.9736Z" fill="#FEFEFE"/>
<path d="M44.1921 68.9736L56.3288 68.9677C57.7857 68.9677 61.4189 68.8961 62.7746 69.0942L62.8026 75.2081L68.9611 75.2036L68.9566 81.3885C66.9132 81.3744 64.8699 81.3789 62.8265 81.4022C62.8251 79.4072 62.7758 77.1501 62.8327 75.1762C57.2996 75.2201 49.6133 75.3998 44.1651 75.1445C44.169 79.2185 44.2428 83.5342 44.1676 87.5899L38.0377 87.5535C37.9331 83.5743 38.0295 79.2478 38.0391 75.2291L44.1735 75.1913L44.1921 68.9736Z" fill="#C2C1C1"/>
<path d="M56.6139 81.4193L62.8266 81.4023C62.7493 83.5268 62.763 85.4872 62.7879 87.6076C58.1118 87.5264 48.2872 88.0598 44.1676 87.59C45.738 87.3432 54.4343 87.4767 56.6282 87.481L56.6139 81.4193Z" fill="#C2C1C1"/>
<path d="M44.1676 87.5899C48.2872 88.0596 58.1118 87.5263 62.788 87.6074L62.7628 93.765C57.0718 93.7842 49.8028 94.0046 44.213 93.7652L38.0104 93.7926C38.1028 91.8352 38.0425 89.5362 38.0378 87.5535L44.1676 87.5899Z" fill="#828101"/>
<path d="M68.9971 87.5652C71.0658 87.6126 73.1354 87.6232 75.2045 87.5971L75.2286 93.8434C75.2272 95.6315 75.3018 98.3073 75.203 100.028L68.9851 100.018C66.9564 100.044 64.8479 100.104 62.8272 100.02C62.7553 98.0011 62.8025 95.8313 62.8098 93.8009L69.0548 93.8796C68.9632 91.774 68.99 89.6726 68.9971 87.5652Z" fill="#0101FE"/>
<path d="M44.1916 100.006C48.332 100.083 52.4864 99.9392 56.6005 100.031L56.5755 106.137C54.5635 106.172 52.5512 106.189 50.5387 106.188C48.1444 106.161 45.7499 106.165 43.3558 106.202L38.0071 106.193L37.9897 100.045C40.057 100.018 42.1243 100.005 44.1916 100.006Z" fill="#828101"/>
<path d="M38.0103 93.7928L44.2129 93.7654L44.1915 100.006C42.1242 100.005 40.0569 100.018 37.9897 100.045C37.9349 97.9613 37.9416 95.8763 38.0103 93.7928Z" fill="#FEFE00"/>
<path d="M31.7331 106.181C33.6745 106.057 36.0904 106.16 38.069 106.192C38.0668 108.27 38.0449 110.386 38.0666 112.46C36.0146 112.468 33.8639 112.442 31.821 112.517C31.9355 114.555 31.7435 116.782 31.8972 118.654L25.6172 118.624C25.6278 120.553 25.5898 122.81 25.6619 124.713L19.3628 124.722C19.3436 121.502 19.1312 115.449 19.3884 112.419L31.7906 112.458C31.8087 110.317 31.8206 108.324 31.7331 106.181Z" fill="#0101FE"/>
<path d="M31.7828 87.5243C33.7499 87.5253 35.9339 87.5684 37.8834 87.5173C37.8706 89.616 37.8757 91.7502 37.8373 93.8458L19.3308 93.8804C19.3126 92.2376 19.2016 89.1233 19.3927 87.5858C23.4491 87.6189 27.7447 87.6735 31.7828 87.5243Z" fill="#0101FE"/>
<path d="M19.3496 81.3875C23.3343 81.2906 27.7693 81.3811 31.7844 81.3885C31.8229 83.4336 31.8223 85.4791 31.7828 87.5242C27.7447 87.6735 23.4491 87.6189 19.3927 87.5858C19.3434 85.52 19.3289 83.4536 19.3496 81.3875Z" fill="#00FEFE" fill-opacity="0.988235"/>
<path d="M19.3587 106.175C23.3166 106.077 27.743 106.171 31.7331 106.181C31.8205 108.324 31.8087 110.317 31.7905 112.458L19.3883 112.419C19.3391 110.337 19.329 108.256 19.3587 106.175Z" fill="#00FEFE" fill-opacity="0.988235"/>
<path d="M149.425 99.9819L149.634 99.8796C149.685 101.991 149.703 104.103 149.689 106.214C155.187 105.853 162.545 106.219 168.217 106.19C168.201 108.257 168.195 110.324 168.201 112.39C166.66 112.374 163.698 112.256 162.282 112.48C161.963 113.043 161.996 113.682 161.951 114.347L161.987 118.583L155.794 118.597C155.786 120.635 155.747 122.763 155.806 124.791C154.018 124.701 151.516 124.762 149.677 124.758L143.412 124.779C143.34 126.962 143.346 128.825 143.4 131.008C137.278 130.914 130.931 131.055 124.779 131.063C124.765 133.095 124.722 135.174 124.797 137.2C119.495 137.008 112.812 137.218 107.373 137.22L75.2095 137.2L75.2395 131.061L75.2346 124.805L81.4327 124.807L81.415 118.621L100.004 118.603L100.012 112.433C101.416 112.542 104.106 112.47 105.594 112.472L118.61 112.39C120.566 112.39 136.505 112.19 137.247 112.599L137.306 112.507C139.332 112.388 141.376 112.429 143.408 112.44C143.784 111.863 143.573 107.269 143.555 106.268C144.98 106.149 147.941 106.215 149.478 106.209C149.493 104.133 149.474 102.057 149.425 99.9819Z" fill="#C2C1C1"/>
<path d="M137.219 124.805C139.216 124.842 141.401 124.791 143.412 124.779C143.34 126.962 143.346 128.824 143.4 131.008C137.278 130.914 130.931 131.055 124.779 131.063C124.765 133.095 124.722 135.174 124.797 137.2C119.495 137.008 112.812 137.218 107.373 137.22L75.2095 137.2L75.2395 131.061L81.4115 131.016L81.3769 137.026C85.6116 137.177 90.4593 137.063 94.7314 137.059L118.651 137.071L118.614 131.04C124.425 131.139 131.205 130.809 137.241 130.828L137.219 124.805Z" fill="#818081"/>
<path d="M118.61 112.39C120.566 112.39 136.505 112.19 137.247 112.599C137.229 114.604 137.225 116.608 137.237 118.613C131.44 118.619 124.293 118.83 118.61 118.593V112.39Z" fill="black"/>
<path d="M100.012 112.433C101.417 112.542 104.106 112.47 105.594 112.472L118.61 112.39V118.593C113.406 118.834 105.278 118.707 100.004 118.603L100.012 112.433Z" fill="#FEFEFE"/>
<path d="M149.689 106.214C155.187 105.853 162.545 106.219 168.217 106.19C168.201 108.257 168.195 110.324 168.201 112.39C166.66 112.374 163.698 112.256 162.282 112.48C161.963 113.043 161.996 113.682 161.951 114.347C161.869 113.783 162.036 107.424 162.051 106.332C159.144 106.335 152.125 106.521 149.689 106.214Z" fill="#818081"/>
<path d="M149.638 118.615L155.794 118.597C155.786 120.635 155.747 122.763 155.806 124.791C154.018 124.701 151.516 124.762 149.677 124.758L149.638 118.615Z" fill="#818081"/>
<path d="M149.677 124.758C151.516 124.762 154.018 124.701 155.806 124.791L161.983 124.838L161.959 143.363L155.8 143.37L155.772 161.971C153.936 161.977 151.42 161.919 149.63 162.013L149.65 155.817L143.41 155.819C143.41 153.761 143.436 151.702 143.487 149.643L149.634 149.635L149.64 143.404L143.4 143.406C143.387 145.473 143.387 147.54 143.404 149.607L137.221 149.629L137.217 143.408L124.781 143.376L124.797 149.637L75.2326 149.631L75.2287 143.382C69.0601 143.412 62.8914 143.415 56.7227 143.384C56.7312 141.391 56.7883 139.23 56.6417 137.255C62.6571 137.147 69.3311 137.431 75.2095 137.2L107.373 137.22C112.812 137.218 119.495 137.008 124.797 137.2C124.722 135.174 124.765 133.095 124.779 131.063C130.931 131.055 137.278 130.914 143.4 131.008C143.346 128.824 143.34 126.962 143.412 124.779L149.677 124.758Z" fill="#818081"/>
<path d="M75.2095 137.2L107.373 137.22C112.812 137.218 119.495 137.008 124.797 137.2C124.885 138.985 124.812 141.583 124.81 143.415H75.1519C75.1604 141.344 75.1796 139.271 75.2095 137.2Z" fill="black"/>
<path d="M124.779 131.063C130.931 131.055 137.278 130.914 143.4 131.008L143.461 137.22C137.642 137.222 130.504 137.429 124.797 137.2C124.722 135.174 124.765 133.095 124.779 131.063Z" fill="black"/>
<path d="M149.677 124.758C151.516 124.762 154.018 124.701 155.806 124.791L155.849 131.045C151.933 131.047 147.254 131.159 143.4 131.008C143.346 128.824 143.34 126.962 143.412 124.779L149.677 124.758Z" fill="black"/>
<path d="M38.0097 130.95C40.0706 130.993 42.17 131.04 44.2277 130.934L44.2193 137.192C48.1457 137.186 52.6079 137.077 56.4925 137.235C56.5276 139.287 56.5411 141.342 56.533 143.394C54.4992 143.408 52.4129 143.449 50.3839 143.423L50.4035 149.625L56.6315 149.627L56.6102 155.815L50.3822 155.831L50.3849 162.017C52.4671 161.993 54.5495 161.985 56.6319 161.993C56.6362 166.09 56.5812 170.348 56.6472 174.432L62.8106 174.402L62.7889 180.618C66.937 180.637 71.0854 180.629 75.2334 180.59C75.2244 182.518 75.1517 184.942 75.2238 186.833C71.4247 186.68 66.6911 186.786 62.8357 186.774C62.8114 184.725 62.8274 182.64 62.8255 180.588C57.0762 180.539 49.869 180.42 44.1678 180.645C44.2736 174.59 44.1712 168.23 44.1694 162.15C42.0048 162.083 40.142 162.042 37.9719 162.107C38.1307 156.181 37.9835 149.523 37.9782 143.549C35.7989 143.476 33.9306 143.451 31.749 143.5L31.7924 132.737C31.7948 132.136 31.749 131.917 32.0172 131.374C33.1943 130.709 36.3639 131.028 37.931 131.034L38.0097 130.95Z" fill="#818081"/>
<path d="M38.0097 130.95C40.0707 130.993 42.17 131.04 44.2277 130.934L44.2193 137.192C48.1458 137.186 52.608 137.077 56.4925 137.235C56.5277 139.287 56.5412 141.342 56.533 143.394C54.4992 143.408 52.4129 143.449 50.3839 143.423L50.4035 149.625L56.6315 149.627L56.6102 155.815L50.3823 155.831L50.3849 162.017C52.4671 161.993 54.5495 161.985 56.6319 161.993C56.6362 166.09 56.5812 170.348 56.6472 174.432L50.3561 174.434L50.3586 162.044C48.2984 162.013 46.2379 162.028 44.1782 162.083L44.1817 143.427C42.1042 143.421 40.0269 143.437 37.95 143.476C38.0477 139.508 37.9406 135.039 37.931 131.034L38.0097 130.95Z" fill="#FEFEFE"/>
<path d="M137.213 155.819L143.402 155.811C143.359 157.841 143.396 159.949 143.404 161.987L137.225 162.001L137.213 155.819Z" fill="#818081"/>
<path d="M31.698 6.94407C35.7387 7.03463 40.217 6.92854 44.2904 6.91382C44.2827 8.47177 44.2659 10.0295 44.2406 11.5871C44.3334 12.5426 44.1621 12.4526 44.689 12.9549C46.5386 13.4664 48.3717 13.1162 50.4134 13.2251C50.3788 17.3466 50.3692 21.4683 50.3848 25.59C52.0555 25.5902 54.925 25.6749 56.4866 25.4367C56.4406 23.4147 56.551 21.4937 56.4788 19.3662C58.0601 19.4018 68.5616 19.0759 69.0556 19.5829C68.9334 21.6621 69.0071 23.551 68.9307 25.5614L68.9636 25.8083C69.1946 27.1052 69.0752 30.4338 69.0315 31.8161C68.8735 33.7001 68.944 36.0788 68.9503 38.0046L62.809 37.9992L62.8039 50.3878C64.8477 50.3864 66.9358 50.3625 68.9753 50.3864C68.9724 52.436 68.9401 54.5574 68.9965 56.6008C70.8163 56.5935 73.4573 56.6575 75.2061 56.5297C75.1213 58.7578 75.1595 60.5933 75.228 62.8161C75.2208 64.8606 75.1948 66.9335 75.2157 68.9751C72.1986 68.9819 65.5639 69.19 62.8233 68.9743L62.7747 69.0943C61.4189 68.8962 57.7858 68.9678 56.3288 68.9678L44.1921 68.9737C42.3346 68.9079 39.9689 68.9841 38.0739 68.9935C37.9677 70.4409 38.0844 74.3679 37.9155 75.2617C36.4265 75.2476 33.3818 75.148 32.0117 75.3353L31.7944 75.2118C27.9829 75.3206 23.2656 75.292 19.436 75.1996C19.4458 76.2693 19.5198 78.1227 19.343 79.1105L19.3117 75.185C15.5611 75.3705 10.8191 75.2451 6.99765 75.239C7.0091 73.8211 7.28175 70.7158 6.71537 69.5244C6.58026 69.24 5.96503 69.2078 5.56032 69.1188C4.33394 69.2313 2.26361 69.1403 0.734316 69.2439C0.659711 63.0412 0.860837 56.5166 0.659302 50.3613C2.75887 50.3516 4.79773 50.3607 6.89545 50.2251L7.00357 44.2609C4.83104 44.2703 2.9236 44.282 0.750048 44.4377C0.601656 38.1716 0.822811 31.8228 0.668696 25.5622C2.75906 25.552 4.82429 25.5722 6.90894 25.4056C6.81532 23.5525 6.94572 21.3616 6.86825 19.3596L19.4816 19.3061C19.4315 21.4426 19.502 23.4603 19.5685 25.5931C21.5552 25.5322 23.6595 25.5718 25.6554 25.5759C25.322 21.5286 25.7175 17.186 25.4461 13.146C27.5414 13.1522 29.6362 13.1154 31.7299 13.0352C31.6614 11.0993 31.7015 8.89882 31.698 6.94407ZM37.9771 44.1985C39.6654 44.2629 42.3513 44.2897 44.0572 44.1844C44.3824 43.2406 44.215 39.2373 44.1952 38.0271L50.3917 38.0422C50.4401 36.0578 50.4238 33.9657 50.4365 31.9723C48.5805 31.8006 46.0517 31.866 44.1421 31.8621C44.1224 33.9172 44.1402 35.9725 44.1952 38.0271C42.1909 37.9349 40.0474 37.9379 38.031 37.905C37.976 40.0024 37.958 42.1007 37.9771 44.1985ZM25.6554 75.1123C27.6975 75.1448 29.7401 75.1403 31.782 75.0984C31.6978 73.1739 31.6694 71.2471 31.6965 69.321C30.7719 68.6758 27.2542 69.1513 25.7603 69.0753C25.582 71.2408 25.6202 72.9447 25.6554 75.1123Z" fill="#820000"/>
<path d="M38.031 37.905C40.0474 37.9379 42.1909 37.9349 44.1952 38.0271C44.215 39.2373 44.3824 43.2406 44.0572 44.1845C42.3513 44.2898 39.6654 44.263 37.9771 44.1986C37.958 42.1007 37.976 40.0025 38.031 37.905Z" fill="#00FE00" fill-opacity="0.988235"/>
<path d="M44.142 31.8621C46.0517 31.866 48.5805 31.8006 50.4364 31.9723C50.4237 33.9657 50.4401 36.0578 50.3916 38.0422L44.1951 38.0271C44.1402 35.9726 44.1224 33.9172 44.142 31.8621Z" fill="#00FE00" fill-opacity="0.988235"/>
<path d="M44.2406 11.5869C44.3333 12.5424 44.1621 12.4525 44.689 12.9547C46.5386 13.4662 48.3716 13.116 50.4133 13.225C50.3788 17.3465 50.3692 21.4682 50.3847 25.5899C52.0555 25.5901 54.925 25.6747 56.4866 25.4365C56.4406 23.4145 56.551 21.4935 56.4788 19.366C58.06 19.4016 68.5615 19.0757 69.0555 19.5827C68.9333 21.662 69.0071 23.5509 68.9307 25.5612L68.9636 25.8082C69.1945 27.1051 69.0752 30.4336 69.0314 31.816C68.8734 33.7 68.9439 36.0787 68.9503 38.0044L62.809 37.9991L62.8039 50.3877C60.7384 50.3388 58.672 50.3493 56.6072 50.419C56.3601 49.3461 56.4443 45.4673 56.4463 44.1853L50.4172 44.1771L44.1919 44.2227L44.0572 44.1843C44.3824 43.2405 44.215 39.2371 44.1952 38.0269L50.3917 38.042C50.4401 36.0576 50.4238 33.9655 50.4364 31.9721C48.5805 31.8004 46.0517 31.8658 44.142 31.8619C44.1224 33.9171 44.1402 35.9724 44.1952 38.0269C42.1909 37.9347 40.0473 37.9378 38.031 37.9049L38.0365 33.3003C38.3288 31.7612 37.4865 26.9784 38.1847 25.6058L37.9975 25.5382C38.03 21.59 38.1037 17.0909 37.9543 13.1714C40.0845 13.0825 42.0625 13.0987 44.1899 13.1193L44.2406 11.5869Z" fill="#008200"/>
<path d="M56.4788 19.3663C58.06 19.4018 68.5615 19.076 69.0556 19.583C68.9333 21.6622 69.0071 23.5511 68.9307 25.5615L68.9636 25.8084C69.1945 27.1053 69.0752 30.4338 69.0314 31.8162C68.8734 33.7002 68.944 36.0789 68.9503 38.0046L62.809 37.9993C60.8159 38.0386 58.6334 37.9865 56.6256 37.9773C56.5833 35.9428 56.5818 33.9077 56.6219 31.8732L56.6264 31.7557L56.6243 31.5921C56.3735 30.283 56.4731 26.9058 56.4866 25.4368C56.4406 23.4148 56.551 21.4938 56.4788 19.3663Z" fill="#820000"/>
<path d="M68.9635 25.8083C69.1945 27.1052 69.0751 30.4338 69.0314 31.8161C68.8734 33.7001 68.9439 36.0788 68.9502 38.0046L62.8089 37.9992C60.8159 38.0385 58.6333 37.9864 56.6255 37.9772C56.5832 35.9427 56.5818 33.9076 56.6219 31.8731L56.6263 31.7556C58.3946 31.7533 61.1129 31.6767 62.8108 31.7928C63.9636 31.8899 67.5646 31.7631 68.8799 31.7482C68.8705 29.781 68.8256 27.767 68.9635 25.8083Z" fill="#820000"/>
<path d="M56.6219 31.873C58.666 31.8747 60.8214 31.91 62.8547 31.8704C62.8077 33.9128 62.7926 35.9561 62.8089 37.9991C60.8159 38.0384 58.6333 37.9863 56.6255 37.9771C56.5832 35.9426 56.5818 33.9075 56.6219 31.873Z" fill="black"/>
<path d="M62.778 25.5991C64.8767 25.474 66.8326 25.5263 68.9307 25.5613L68.9636 25.8082C68.8256 27.7668 68.8706 29.7809 68.88 31.7481C67.5647 31.763 63.9637 31.8898 62.8109 31.7927L62.778 25.5991Z" fill="#FE0000"/>
<path d="M56.6206 25.5398L62.7779 25.5993L62.8108 31.7929C61.1128 31.6767 58.3946 31.7534 56.6263 31.7557L56.6243 31.5921L56.6206 25.5398Z" fill="#FE00FE"/>
<path d="M44.2406 11.5869C44.3334 12.5424 44.1621 12.4525 44.689 12.9547C46.5386 13.4662 48.3716 13.116 50.4134 13.225C50.3788 17.3465 50.3692 21.4682 50.3847 25.5899C52.0555 25.5901 54.925 25.6747 56.4866 25.4365C56.4731 26.9056 56.3736 30.2827 56.6244 31.5919L56.6264 31.7554C52.5706 31.8701 48.2447 31.696 44.1461 31.6743C44.2328 29.7874 44.1868 27.5111 44.1942 25.5933L38.1847 25.6058L37.9975 25.5382C38.03 21.59 38.1038 17.0909 37.9543 13.1714C40.0846 13.0825 42.0625 13.0987 44.1899 13.1193L44.2406 11.5869Z" fill="black"/>
<path d="M37.9543 13.1716C40.0846 13.0827 42.0625 13.0988 44.1899 13.1195C44.186 17.25 44.1412 21.4714 44.1942 25.5935L38.1847 25.606L37.9975 25.5383C38.03 21.5902 38.1038 17.0911 37.9543 13.1716Z" fill="#FE0000"/>
<path d="M50.3684 37.9866L56.6156 38.0037C56.5747 41.6099 56.8697 47.1419 56.6072 50.4191C56.3601 49.3463 56.4443 45.4674 56.4464 44.1855L50.4173 44.1773L50.3684 37.9866Z" fill="#818081"/>
<path d="M50.4172 44.1772L56.4463 44.1854C56.4443 45.4674 56.3601 49.3462 56.6072 50.4191C58.672 50.3494 60.7385 50.3389 62.8039 50.3878C64.8477 50.3864 66.9358 50.3625 68.9753 50.3864C68.9724 52.436 68.9401 54.5573 68.9965 56.6008C70.8163 56.5934 73.4573 56.6574 75.2061 56.5297C75.1213 58.7577 75.1595 60.5933 75.228 62.816C75.2208 64.8605 75.1948 66.9334 75.2157 68.9751C72.1986 68.9818 65.5639 69.1899 62.8233 68.9743L62.7747 69.0942C61.4189 68.8962 57.7858 68.9677 56.3288 68.9677L44.1921 68.9736C42.3346 68.9078 39.9689 68.9841 38.0739 68.9935C37.9172 67.1577 37.9887 64.6923 37.9909 62.8071C38.0214 61.4635 38.1951 57.7153 37.8477 56.63L37.873 56.5031C38.0954 55.6637 38.0234 54.3981 38.0208 53.4933C38.0649 52.5231 38.0506 51.3684 38.0617 50.3831L44.1711 50.3665L44.1919 44.2228L50.4172 44.1772Z" fill="#828101"/>
<path d="M50.4172 44.1772L56.4463 44.1854C56.4443 45.4674 56.3601 49.3462 56.6072 50.4191C56.7249 52.4298 56.6961 54.5177 56.7006 56.5372L62.8035 56.6531L62.7955 62.8009L56.653 62.8373C54.552 62.8136 52.451 62.8117 50.35 62.8312L44.1664 62.8064L37.9909 62.8071C38.0214 61.4635 38.1951 57.7153 37.8477 56.63L37.873 56.5031C38.0954 55.6637 38.0234 54.3981 38.0208 53.4933C38.0649 52.5231 38.0506 51.3684 38.0617 50.3831L44.1711 50.3665L44.1919 44.2228L50.4172 44.1772Z" fill="#FEFEFE"/>
<path d="M50.4172 44.1772L56.4463 44.1854C56.4442 45.4674 56.36 49.3462 56.6071 50.4191C56.7249 52.4298 56.696 54.5177 56.7005 56.5372L62.8034 56.6531L62.7955 62.8009L56.6529 62.8373C56.6603 61.539 56.7923 57.6366 56.4252 56.7296L55.8858 56.5577L56.1632 56.489C56.7382 55.7307 56.4786 51.5804 56.4632 50.3643L44.171 50.3665L44.1919 44.2228L50.4172 44.1772Z" fill="#C2C1C1"/>
<path d="M38.0617 50.383L44.1711 50.3665L44.1664 62.8064L37.9909 62.807C38.0214 61.4635 38.1951 57.7153 37.8477 56.63L37.873 56.503C38.0954 55.6636 38.0234 54.398 38.0208 53.4932C38.0649 52.523 38.0506 51.3684 38.0617 50.383Z" fill="#C2C1C1"/>
<path d="M50.4289 56.5928C52.248 56.6255 54.0676 56.6136 55.8859 56.5576L56.4253 56.7295C56.7924 57.6366 56.6603 61.5389 56.653 62.8373C54.552 62.8135 52.451 62.8117 50.35 62.8311C50.352 60.7654 50.325 58.6522 50.4289 56.5928Z" fill="#FEFE00"/>
<path d="M68.9965 56.6009C70.8162 56.5936 73.4573 56.6576 75.2061 56.5298C75.1213 58.7579 75.1595 60.5934 75.2279 62.8162C75.2208 64.8607 75.1948 66.9336 75.2157 68.9752C72.1986 68.982 65.5639 69.1901 62.8233 68.9744C62.7346 67.0127 62.7918 64.7662 62.7965 62.7835L69.0268 62.7714C68.9121 60.8013 68.9797 58.591 68.9965 56.6009Z" fill="#FE0000"/>
<path d="M25.5501 56.5862C27.0909 56.5887 30.4203 56.4585 31.7891 56.6216L37.8476 56.63C38.1951 57.7153 38.0214 61.4635 37.9909 62.807C37.9887 64.6922 37.9171 67.1576 38.0739 68.9934C37.9676 70.4408 38.0843 74.3678 37.9155 75.2616C36.4265 75.2475 33.3818 75.148 32.0117 75.3352L31.7944 75.2117C27.9828 75.3205 23.2656 75.2919 19.436 75.1995C19.4458 76.2692 19.5198 78.1226 19.343 79.1104L19.3117 75.1849C15.561 75.3704 10.819 75.2451 6.99763 75.2389C7.00908 73.821 7.28173 70.7157 6.71535 69.5243C6.58024 69.24 5.96501 69.2077 5.5603 69.1187C8.02124 68.9662 10.7687 69.2694 13.2744 68.9773C17.3751 68.9503 21.4759 68.9442 25.5767 68.9591C25.4808 64.8914 25.5436 60.6656 25.5501 56.5862ZM25.6554 75.1122C27.6975 75.1447 29.74 75.1402 31.782 75.0983C31.6978 73.1738 31.6693 71.247 31.6965 69.3209C30.7718 68.6757 27.2542 69.1512 25.7602 69.0752C25.582 71.2407 25.6202 72.9446 25.6554 75.1122Z" fill="black"/>
<path d="M31.7891 56.6216L37.8476 56.63C38.1951 57.7153 38.0214 61.4635 37.9909 62.807C37.9886 64.6922 37.9171 67.1576 38.0739 68.9934C37.9676 70.4408 38.0843 74.3678 37.9155 75.2616C36.4264 75.2475 33.3817 75.1479 32.0117 75.3352L31.7944 75.2117L31.7819 75.0983C31.6977 73.1738 31.6693 71.247 31.6965 69.3209C31.8281 67.5626 31.7666 64.6252 31.7825 62.7786C31.7331 60.7592 31.7772 58.6481 31.7891 56.6216Z" fill="#008200"/>
<path d="M31.7891 56.6216L37.8476 56.63C38.1951 57.7153 38.0214 61.4635 37.9909 62.807C35.9214 62.818 33.8519 62.8086 31.7826 62.7786C31.7331 60.7592 31.7773 58.6481 31.7891 56.6216Z" fill="#FEFEFE"/>
<path d="M37.9974 25.5383L38.1847 25.606C37.4864 26.9785 38.3288 31.7613 38.0365 33.3005L38.031 37.905C37.976 40.0025 37.958 42.1007 37.977 44.1986C33.8461 44.2556 29.7147 44.263 25.5834 44.2207C25.5068 42.3798 25.5587 40.0857 25.5558 38.2103L25.6057 38.0083C25.492 36.1956 25.5783 33.5938 25.5891 31.7172C27.6026 31.7769 29.7263 31.7703 31.748 31.792L31.7141 25.5921C33.6528 25.5921 36.1004 25.6594 37.9974 25.5383Z" fill="#FEFE00"/>
<path d="M37.9974 25.5383L38.1847 25.606C37.4865 26.9785 38.3288 31.7613 38.0365 33.3005C37.9997 32.7185 38.0109 32.492 37.8213 31.9261C37.1656 31.5614 32.8141 31.7266 31.7263 31.7415L31.7239 37.9737C29.6844 37.9461 27.6448 37.9576 25.6057 38.0083C25.492 36.1956 25.5783 33.5938 25.5891 31.7172C27.6026 31.7769 29.7263 31.7703 31.748 31.792L31.7141 25.5921C33.6528 25.5921 36.1004 25.6594 37.9974 25.5383Z" fill="#828101"/>
<path d="M19.3511 50.3834C21.5128 50.2893 23.4904 50.3167 25.649 50.3478C25.6026 52.4446 25.5912 54.542 25.6147 56.6393C23.5576 56.6405 21.4726 56.624 19.4184 56.6513C19.419 58.6439 19.3749 60.8243 19.447 62.801C17.3785 62.7995 15.227 62.8288 13.1661 62.7948C13.1822 64.5719 13.1303 67.2823 13.2744 68.9774C11.6805 68.7797 8.67406 68.8923 6.97246 68.9071C6.93138 64.8175 6.93015 60.7274 6.96858 56.6378L19.3994 56.619C19.4104 54.5345 19.439 52.4669 19.3511 50.3834Z" fill="#FE0000"/>
<path d="M19.4123 31.7585C21.4714 31.7616 23.5302 31.7477 25.5891 31.717C25.5783 33.5937 25.4921 36.1955 25.6057 38.0081L25.5558 38.2101C24.4122 37.7649 9.32079 38.0259 6.96001 38.0357C6.92771 35.9655 6.92811 33.895 6.96082 31.8248C11.0069 31.7146 15.3112 31.8203 19.4123 31.7585Z" fill="#FE0000"/>
<path d="M37.977 44.1984C39.6654 44.2628 42.3513 44.2896 44.0572 44.1843L44.1919 44.2228L44.1711 50.3664L38.0617 50.383C38.0506 51.3684 38.0649 52.523 38.0208 53.4932C37.9313 52.644 37.9668 51.2228 37.9619 50.3282L31.7575 50.3679C29.6949 50.3687 27.6323 50.3826 25.5699 50.4098L25.5834 44.2205C29.7147 44.2628 33.8462 44.2555 37.977 44.1984Z" fill="#828101"/>
<path d="M31.757 13.115L37.9544 13.1716C38.1038 17.0911 38.03 21.5902 37.9975 25.5383C36.1005 25.6594 33.6528 25.5921 31.7141 25.5921C31.8482 21.6943 31.7411 17.0625 31.757 13.115Z" fill="#FE00FE"/>
<path d="M6.97453 25.5359C11.1219 25.5784 15.2696 25.5997 19.4174 25.5995L19.4123 31.7585C15.3113 31.8202 11.0069 31.7145 6.96083 31.8247C6.94612 29.7285 6.95062 27.6321 6.97453 25.5359Z" fill="#FE00FE"/>
<path d="M6.97941 50.3201C11.034 50.4051 15.2828 50.3671 19.3511 50.3832C19.439 52.4668 19.4104 54.5344 19.3994 56.6189L6.96858 56.6377C6.94283 54.5319 6.9465 52.4259 6.97941 50.3201Z" fill="#FE00FE"/>
<path d="M31.7574 50.368L37.9618 50.3284C37.9667 51.2229 37.9312 52.6441 38.0207 53.4933C38.0234 54.3981 38.0953 55.6638 37.8729 56.5031C35.8433 56.4935 33.8136 56.5052 31.7842 56.5385C31.7433 54.482 31.7345 52.4248 31.7574 50.368Z" fill="black"/>
<path d="M118.657 2.75049L118.837 6.97868C120.707 6.975 122.972 7.02918 124.81 6.90039C126.884 6.93412 128.961 6.93821 131.036 6.91245C135.117 6.96458 139.408 6.90939 143.457 7.01078C143.369 9.04873 143.418 11.0902 143.6 13.1218C145.554 13.149 147.729 13.1318 149.662 13.2086L149.628 19.2984C151.432 19.281 153.993 19.1831 155.741 19.254C155.714 17.2128 155.716 15.1712 155.747 13.13L168.291 13.0995L168.309 15.6099C168.457 16.8064 168.412 18.0483 168.41 19.2587C170.421 19.3542 172.434 19.4112 174.449 19.4298C174.435 21.1094 174.27 30.7936 174.576 31.7538C174.276 32.5098 174.407 36.9878 174.415 38.0095L174.419 44.051L174.37 44.188L168.205 44.2139L168.236 56.6168C166.237 56.605 164.013 56.5439 162.032 56.6381C161.981 54.5934 161.994 52.5477 162.073 50.504C160.642 50.477 157.092 50.3619 155.798 50.5829L155.796 62.8031L149.64 62.8164L143.489 62.7726L143.402 62.6863C142.159 62.9208 138.623 62.7986 137.208 62.7769C135.418 62.7888 132.761 62.8852 131.042 62.7423L130.923 62.793C128.924 62.7808 126.925 62.782 124.926 62.7971L124.767 62.7789C124.763 61.1151 124.701 58.2249 124.891 56.6692L124.767 56.6187C124.969 52.904 124.82 47.9624 124.787 44.1749C122.747 44.172 120.611 44.1354 118.582 44.19C118.576 46.1965 118.627 48.5638 118.553 50.5412C117.785 50.1966 113.578 50.366 112.474 50.3779C112.415 48.3131 112.413 46.247 112.466 44.1819C114.506 44.1921 116.546 44.1765 118.586 44.1355L118.592 31.8182L118.58 25.5915L112.448 25.5829C112.448 24.0861 112.532 20.8083 112.319 19.4664L112.417 19.4308C112.452 15.2779 112.45 11.1243 112.409 6.97133C114.396 6.88894 116.613 6.92963 118.614 6.98012C118.588 5.57017 118.602 4.15962 118.657 2.75049ZM137.204 19.3904C135.171 19.3622 133.033 19.2941 131.009 19.3863C130.991 21.4543 130.997 23.5227 131.027 25.5907C128.981 25.5639 126.794 25.492 124.761 25.6034C124.767 27.4455 124.822 29.6194 124.769 31.4372L124.71 31.6397C126.302 31.8773 129.323 31.7871 131.029 31.7855L131.027 25.5907L137.223 25.6099L137.204 19.3904Z" fill="black"/>
<path d="M131.009 19.3863C133.033 19.2941 135.171 19.3621 137.204 19.3903L137.223 25.6099L131.027 25.5907C130.997 23.5227 130.991 21.4543 131.009 19.3863Z" fill="#00FEFE" fill-opacity="0.988235"/>
<path d="M124.761 25.6033C126.794 25.4919 128.981 25.5638 131.028 25.5906L131.03 31.7854C129.323 31.787 126.302 31.8772 124.71 31.6397L124.769 31.4371C124.822 29.6193 124.767 27.4454 124.761 25.6033Z" fill="#00FEFE" fill-opacity="0.988235"/>
<path d="M168.291 13.0994L168.309 15.6098C168.457 16.8063 168.412 18.0482 168.41 19.2586C170.421 19.3541 172.434 19.4111 174.45 19.4297C174.435 21.1093 174.27 30.7935 174.576 31.7537C174.276 32.5097 174.407 36.9877 174.415 38.0094L174.419 44.0509L174.37 44.1879L168.205 44.2138L168.236 56.6167C166.237 56.6049 164.013 56.5438 162.032 56.638C161.981 54.5933 161.994 52.5476 162.073 50.5039C160.643 50.4769 157.092 50.3618 155.798 50.5828L155.796 62.803L149.64 62.8162L143.49 62.7725L143.402 62.6862C142.159 62.9207 138.623 62.7985 137.208 62.7768C137.231 58.6592 137.229 54.5416 137.204 50.4242C139.05 50.3173 141.529 50.3859 143.424 50.3878C143.387 48.7936 143.553 45.6091 143.289 44.2071L143.434 44.1803C143.379 42.115 143.434 40.0989 143.477 38.035C141.93 38.1411 138.709 38.1331 137.208 37.9963C138.878 37.7931 141.638 37.8633 143.393 37.8565C143.422 35.8472 143.41 33.7976 143.42 31.7846L149.638 31.7811L149.623 19.4426C151.293 19.4363 154.186 19.5109 155.741 19.2539C155.715 17.2127 155.717 15.1711 155.747 13.1298L168.291 13.0994Z" fill="#828101"/>
<path d="M155.802 44.2009C155.804 45.6928 155.896 49.0092 155.704 50.3486L155.798 50.5829L155.796 62.8031L149.64 62.8164L143.49 62.7726L143.402 62.6863C142.159 62.9208 138.623 62.7986 137.208 62.7769C137.231 58.6593 137.229 54.5417 137.204 50.4243C139.05 50.3174 141.529 50.3861 143.424 50.3879C143.387 48.7938 143.553 45.6092 143.289 44.2072L143.434 44.1804L149.64 44.1882C151.547 44.255 153.863 44.1978 155.802 44.2009Z" fill="#FE00FE"/>
<path d="M155.802 44.2009C155.804 45.6928 155.896 49.0092 155.704 50.3486C153.589 50.3108 151.704 50.2742 149.589 50.3777L143.402 50.3374C143.351 54.0962 143.246 58.9463 143.402 62.6863C142.159 62.9208 138.623 62.7986 137.208 62.7769C137.231 58.6593 137.229 54.5417 137.204 50.4243C139.05 50.3174 141.529 50.3861 143.424 50.3879C143.387 48.7938 143.553 45.6092 143.289 44.2072L143.434 44.1804L149.64 44.1882C151.547 44.255 153.863 44.1978 155.802 44.2009Z" fill="#820000"/>
<path d="M149.589 50.3776C151.704 50.2741 153.589 50.3107 155.704 50.3486L155.798 50.5828L155.796 62.803L149.64 62.8163C149.634 58.7346 149.73 54.4398 149.589 50.3776Z" fill="#FE0000"/>
<path d="M162.188 37.9963L168.217 38.0004L168.205 44.2138L168.236 56.6167C166.237 56.6048 164.013 56.5437 162.032 56.6379C161.981 54.5932 161.993 52.5475 162.073 50.5038C160.642 50.4768 157.092 50.3618 155.798 50.5827L155.704 50.3485C155.896 49.009 155.804 45.6926 155.802 44.2007L155.79 37.9519C157.871 37.9973 159.939 37.9754 162.041 38.0284L162.188 37.9963Z" fill="#820000"/>
<path d="M155.79 37.9519C157.871 37.9973 159.939 37.9754 162.041 38.0284C162.018 41.9685 161.946 46.365 162.049 50.2865C160.113 50.2773 157.589 50.1955 155.704 50.3485C155.896 49.009 155.804 45.6926 155.802 44.2007L155.79 37.9519Z" fill="#FE0000"/>
<path d="M168.309 15.6099C168.457 16.8064 168.412 18.0483 168.41 19.2587C170.421 19.3542 172.434 19.4112 174.45 19.4298C174.435 21.1094 174.27 30.7936 174.576 31.7538C174.276 32.5098 174.407 36.9878 174.415 38.0095L174.419 44.051L174.37 44.188L168.205 44.2139L168.217 38.0005L168.232 31.8511L168.252 19.4261C168.24 18.098 168.23 16.935 168.309 15.6099Z" fill="black"/>
<path d="M161.983 19.3754C164.072 19.2854 166.165 19.3024 168.252 19.4261L168.232 31.8511C166.441 31.8194 163.657 31.9161 161.977 31.7098C162.069 27.6613 161.998 23.4366 161.983 19.3754Z" fill="#FEFE00"/>
<path d="M155.788 19.3779L161.983 19.3752C161.998 23.4364 162.069 27.6611 161.977 31.7097C160.134 31.6868 157.585 31.596 155.8 31.7904L155.788 19.3779Z" fill="#FEFEFE"/>
<path d="M161.977 31.7099C163.657 31.9161 166.441 31.8194 168.232 31.8511L168.217 38.0005L162.188 37.9965C161.842 37.0203 161.981 33.1223 161.996 31.8732C160.209 31.8883 157.505 31.9901 155.8 31.7906C157.585 31.5962 160.133 31.687 161.977 31.7099Z" fill="#C2C1C1"/>
<path d="M143.477 38.035C145.529 37.9882 147.582 37.9897 149.634 38.0393L149.64 44.1881L143.434 44.1804C143.379 42.115 143.434 40.099 143.477 38.035Z" fill="#C2C1C1"/>
<path d="M124.769 31.437L124.71 31.6396C124.761 33.78 124.771 35.921 124.744 38.0617L131.007 38.0262C131.015 40.0144 131.074 42.2429 130.999 44.2112C133.096 44.1958 135.034 44.1889 137.133 44.2784C137.184 46.3266 137.208 48.3754 137.204 50.4242C137.229 54.5416 137.231 58.6592 137.208 62.7768C135.418 62.7886 132.761 62.8851 131.042 62.7422L130.923 62.7929C128.924 62.7806 126.925 62.7819 124.926 62.797L124.767 62.7788C124.763 61.115 124.701 58.2247 124.891 56.669L124.767 56.6185C124.969 52.9039 124.82 47.9622 124.787 44.1748C122.747 44.1719 120.611 44.1353 118.582 44.1899C118.576 46.1964 118.627 48.5636 118.553 50.5411C117.785 50.1964 113.578 50.3659 112.474 50.3777C112.415 48.313 112.413 46.2469 112.466 44.1817C114.506 44.1919 116.546 44.1764 118.586 44.1353L118.592 31.8181C120.483 31.6928 122.772 32.0204 124.481 31.8146L124.769 31.437Z" fill="#000082"/>
<path d="M124.787 44.1749C126.886 44.1415 128.985 44.1397 131.085 44.1695C131.058 48.2162 130.982 52.4483 131.123 56.4806C129.372 56.489 127.211 56.4373 125.507 56.6514L124.891 56.6691L124.767 56.6186C124.969 52.904 124.82 47.9623 124.787 44.1749Z" fill="#0101FE"/>
<path d="M125.507 56.6514C127.365 56.7055 129.225 56.7184 131.083 56.6902C131.038 58.5538 131.136 60.9922 131.042 62.7423L130.923 62.793C128.924 62.7807 126.925 62.782 124.926 62.7971L124.767 62.7789C124.763 61.1151 124.701 58.2249 124.891 56.6691L125.507 56.6514Z" fill="#820000"/>
<path d="M118.657 2.75049L118.837 6.97868C120.707 6.975 122.972 7.02918 124.81 6.90039C126.884 6.93412 128.961 6.93821 131.036 6.91245L131.04 13.196C131.025 15.125 131.058 17.3915 130.982 19.2937C128.936 19.3499 126.888 19.374 124.842 19.3665C124.754 21.4747 124.759 23.4959 124.761 25.6034C124.767 27.4455 124.822 29.6194 124.769 31.4372L124.481 31.8147C122.772 32.0206 120.483 31.6929 118.592 31.8182L118.58 25.5915L112.448 25.5829C112.448 24.0861 112.532 20.8083 112.319 19.4664L112.417 19.4308C112.452 15.2779 112.45 11.1243 112.409 6.97133C114.396 6.88894 116.613 6.92963 118.614 6.98012C118.588 5.57017 118.602 4.15962 118.657 2.75049Z" fill="black"/>
<path d="M124.81 6.90039C126.884 6.93412 128.961 6.93821 131.036 6.91245L131.04 13.196C131.025 15.125 131.058 17.3915 130.982 19.2937C128.936 19.3499 126.888 19.374 124.842 19.3665C124.591 16.4184 124.801 10.0674 124.81 6.90039Z" fill="#008200"/>
<path d="M112.409 6.97115C114.396 6.88877 116.613 6.92945 118.614 6.97994C118.61 10.9569 118.506 15.5531 118.627 19.484C116.795 19.4707 114.179 19.5315 112.417 19.4307C112.452 15.2777 112.45 11.1241 112.409 6.97115Z" fill="#0101FE"/>
<path d="M118.627 19.484L118.58 25.5913L112.448 25.5827C112.448 24.0859 112.532 20.8081 112.319 19.4662L112.417 19.4307C114.179 19.5314 116.795 19.4707 118.627 19.484Z" fill="#000082"/>
<path d="M137.204 19.3904C138.872 19.2072 141.525 19.3321 143.297 19.3387C143.304 21.4214 143.281 23.5805 143.322 25.6559C141.313 25.6443 139.263 25.6044 137.26 25.6943C137.384 27.6871 137.278 29.8763 137.227 31.8869L137.198 37.9359C135.134 37.9897 133.071 38.0198 131.007 38.0263L124.744 38.0619C124.771 35.9211 124.761 33.7801 124.71 31.6397C126.302 31.8773 129.323 31.7871 131.03 31.7855L131.028 25.5907L137.223 25.6099L137.204 19.3904Z" fill="#0101FE"/>
<path d="M131.04 13.196C134.4 13.1085 140.094 13.0564 143.383 13.2673L143.365 31.6804C142.533 31.689 137.728 31.6618 137.227 31.8869C137.278 29.8764 137.384 27.6871 137.26 25.6944C139.263 25.6044 141.313 25.6443 143.322 25.6559C143.281 23.5806 143.304 21.4214 143.297 19.3387C141.525 19.3321 138.872 19.2072 137.204 19.3904C135.171 19.3622 133.033 19.2941 131.009 19.3863C130.991 21.4543 130.997 23.5227 131.027 25.5907C128.981 25.5639 126.794 25.492 124.761 25.6034C124.759 23.4959 124.755 21.4747 124.842 19.3665C126.888 19.374 128.936 19.3499 130.982 19.2937C131.058 17.3915 131.025 15.125 131.04 13.196Z" fill="#000082"/>
<path d="M137.208 37.9963C138.709 38.1331 141.93 38.1411 143.477 38.035C143.434 40.0989 143.379 42.115 143.434 44.1803L143.289 44.2071L137.212 44.1752L137.208 37.9963Z" fill="#FEFE00"/>
<path d="M106.085 0.735837C110.248 0.807591 114.565 0.718051 118.739 0.685547L118.657 2.75048C118.602 4.15961 118.588 5.57017 118.614 6.98012C116.613 6.92962 114.396 6.88894 112.409 6.97133C110.412 6.95518 108.139 6.88383 106.163 6.97194C106.163 11.0305 106.087 15.3836 106.195 19.4163C108.19 19.4288 110.338 19.4059 112.319 19.4664C112.532 20.8083 112.448 24.0861 112.448 25.5829L118.58 25.5915L118.592 31.8182L118.586 44.1355C116.546 44.1765 114.506 44.1921 112.466 44.1819C112.413 46.247 112.415 48.3131 112.474 50.3779L106.128 50.3955L100.002 50.3613L100.024 56.4633L100.016 56.6518C100.016 60.6128 99.9284 65.0544 100.039 68.9809L93.8192 68.9637L93.763 62.7673C91.7992 62.8196 89.636 62.7841 87.657 62.7888L81.5004 62.8221L81.3563 62.8025C81.5399 61.7372 81.4193 57.8831 81.4017 56.6279L87.6045 56.6467L87.6928 50.5285C85.61 50.4764 83.4493 50.4836 81.3594 50.4629C81.3359 52.518 81.35 54.5734 81.4017 56.6279C79.3377 56.5396 77.2719 56.5069 75.206 56.5298C73.4572 56.6575 70.8162 56.5935 68.9964 56.6009C68.94 54.5574 68.9723 52.4361 68.9752 50.3865C66.9357 50.3626 64.8476 50.3865 62.8038 50.3879L62.8089 37.9993L68.9502 38.0046C68.9439 36.0789 68.8734 33.7002 69.0314 31.8162C69.0751 30.4338 69.1945 27.1053 68.9635 25.8084L68.9306 25.5615C69.0071 23.5511 68.9333 21.6622 69.0555 19.5829C69.0909 21.5626 69.1099 23.5425 69.1123 25.5226C71.1236 25.5467 73.1347 25.5891 75.1451 25.6498C75.129 23.7541 75.1324 21.8582 75.1553 19.9626L75.1917 19.5887C75.8065 19.3127 80.3118 19.2651 81.2592 19.2141C81.3461 17.1155 81.4505 15.2335 81.2502 13.134C85.3711 13.2019 89.7955 13.1025 93.9376 13.079C93.8213 14.9402 93.9126 17.4207 93.9284 19.3256C95.9345 19.3826 98.0173 19.3834 100.029 19.4098C99.7976 15.4647 100.225 10.7778 99.8201 6.94515C101.77 7.00137 104.157 6.9842 106.079 6.76873C106.146 4.63511 106.205 2.87457 106.085 0.735837ZM81.3999 25.5886C85.5434 25.6316 89.6871 25.615 93.83 25.5394C93.866 23.5086 93.8327 21.4208 93.8247 19.3853C89.6755 19.3321 85.526 19.3309 81.3768 19.3814C81.3714 21.4506 81.3792 23.5196 81.3999 25.5886Z" fill="#828101"/>
<path d="M81.3769 19.3812C85.5261 19.3307 89.6756 19.3319 93.8248 19.3851C93.8328 21.4206 93.8661 23.5084 93.8302 25.5392C89.6872 25.6148 85.5435 25.6314 81.4 25.5885C81.3793 23.5194 81.3716 21.4504 81.3769 19.3812Z" fill="#00FEFE" fill-opacity="0.988235"/>
<path d="M75.2467 31.7715C76.9477 31.776 79.641 31.7093 81.2607 31.8199L81.3917 31.9029L81.4164 37.9411C83.4874 37.9661 85.5585 37.9738 87.6295 37.9638C87.609 40.0365 87.6051 42.1094 87.6184 44.1821C89.4619 44.178 91.9958 44.0995 93.7791 44.1844L93.8253 50.3559C95.6668 50.355 98.2176 50.2763 100.002 50.3612L100.024 56.4632L100.016 56.6517C100.016 60.6127 99.9284 65.0543 100.039 68.9808L93.8192 68.9636L93.763 62.7672C91.7992 62.8195 89.636 62.7839 87.657 62.7886L81.5004 62.8219L81.3563 62.8023C81.5399 61.737 81.4193 57.8829 81.4017 56.6277L87.6045 56.6466L87.6928 50.5284C85.61 50.4763 83.4493 50.4834 81.3594 50.4628C81.3359 52.5179 81.35 54.5732 81.4017 56.6277C79.3377 56.5394 77.2719 56.5067 75.206 56.5296C73.4572 56.6574 70.8162 56.5934 68.9964 56.6008C68.94 54.5573 68.9723 52.4359 68.9752 50.3863C66.9357 50.3624 64.8476 50.3863 62.8038 50.3878L62.8089 37.9992L68.9502 38.0045C68.9439 36.0788 68.8734 33.7 69.0314 31.816L75.2467 31.7715Z" fill="#008200"/>
<path d="M75.2467 31.7715C76.9477 31.776 79.641 31.7093 81.2606 31.8199L81.3917 31.9029L81.4164 37.9411L81.4137 44.2064L75.2469 44.2232L75.206 56.5296C73.4572 56.6574 70.8162 56.5934 68.9964 56.6008C68.94 54.5573 68.9723 52.4359 68.9752 50.3863C66.9357 50.3624 64.8476 50.3863 62.8038 50.3878L62.8089 37.9992L68.9502 38.0045C68.9439 36.0788 68.8734 33.7 69.0314 31.816L75.2467 31.7715Z" fill="#C2C1C1"/>
<path d="M68.9379 37.9358C71.0317 37.9945 73.1266 37.9971 75.2204 37.9436L75.1987 39.1814C74.941 42.1914 75.0536 47.2712 75.0379 50.4364C73.1004 50.37 70.9046 50.4062 68.9462 50.3992C68.9716 46.2448 68.9687 42.0902 68.9379 37.9358Z" fill="#FEFEFE"/>
<path d="M75.2204 37.9436C77.0129 37.9557 79.7016 38.046 81.4165 37.9412L81.4138 44.2065L75.2469 44.2233C75.1398 42.8883 75.2044 40.5897 75.1987 39.1814L75.2204 37.9436Z" fill="#FEFE00"/>
<path d="M81.4165 37.9412C83.4874 37.9661 85.5586 37.9739 87.6295 37.9639C87.6091 40.0366 87.6052 42.1095 87.6185 44.1822C89.4619 44.1781 91.9958 44.0996 93.7792 44.1844L93.8254 50.3559C95.6668 50.3551 98.2177 50.2764 100.002 50.3612L100.025 56.4632L100.016 56.6517C98.0276 56.5812 95.8405 56.6006 93.8358 56.5789L93.8131 50.4091L81.3553 50.2758C81.4322 48.3654 81.4003 46.1418 81.4138 44.2065L81.4165 37.9412Z" fill="black"/>
<path d="M87.5817 56.5938L93.826 56.6068L93.7631 62.7673C91.7992 62.8196 89.6361 62.7841 87.6571 62.7888C87.5999 60.7242 87.5747 58.6591 87.5817 56.5938Z" fill="#818081"/>
<path d="M106.085 0.735837C110.248 0.807591 114.565 0.718051 118.739 0.685547L118.657 2.75048C118.602 4.15961 118.588 5.57017 118.614 6.98012C116.613 6.92962 114.396 6.88894 112.409 6.97133C110.412 6.95518 108.139 6.88383 106.163 6.97194C106.163 11.0305 106.087 15.3836 106.195 19.4163L106.146 25.595C104.121 25.5833 102.026 25.5964 100.006 25.5504C99.162 25.356 94.9181 25.5326 93.8301 25.5394C93.8661 23.5086 93.8327 21.4208 93.8248 19.3853C89.6755 19.3321 85.5261 19.3309 81.3768 19.3814C81.3715 21.4506 81.3792 23.5196 81.3999 25.5886C81.3954 26.8025 81.4424 30.9058 81.2607 31.82C79.6411 31.7094 76.9477 31.7761 75.2467 31.7716L69.0314 31.8162C69.0752 30.4338 69.1945 27.1053 68.9636 25.8084L68.9307 25.5615C69.0071 23.5511 68.9333 21.6622 69.0556 19.5829C69.0909 21.5626 69.1099 23.5425 69.1124 25.5226C71.1236 25.5467 73.1347 25.5891 75.1451 25.6498C75.129 23.7541 75.1325 21.8582 75.1554 19.9626L75.1918 19.5887C75.8066 19.3127 80.3119 19.2651 81.2593 19.2141C81.3461 17.1155 81.4506 15.2335 81.2503 13.134C85.3711 13.2019 89.7955 13.1025 93.9376 13.079C93.8213 14.9402 93.9127 17.4207 93.9284 19.3256C95.9345 19.3826 98.0174 19.3834 100.029 19.4098C99.7977 15.4647 100.225 10.7778 99.8201 6.94515C101.77 7.00137 104.157 6.9842 106.079 6.76873C106.146 4.63511 106.205 2.87457 106.085 0.735837Z" fill="#000082"/>
<path d="M68.9307 25.5613C69.0071 23.5509 68.9333 21.662 69.0556 19.5828C69.0909 21.5625 69.1099 23.5423 69.1124 25.5224C71.1236 25.5466 73.1347 25.5889 75.1451 25.6496C75.129 23.7539 75.1325 21.8581 75.1554 19.9624C75.4027 22.9718 75.2308 28.5647 75.2467 31.7714L69.0314 31.816C69.0752 30.4336 69.1945 27.1051 68.9636 25.8082L68.9307 25.5613Z" fill="black"/>
<path d="M93.8301 25.5392C94.9181 25.5324 99.162 25.3558 100.006 25.5502C100 27.4667 100.053 29.8559 99.9694 31.734L100.012 31.8621C99.9714 33.923 99.9673 35.9842 100.002 38.0453L99.9857 44.2041L93.7792 44.1843C91.9959 44.0995 89.462 44.1779 87.6185 44.182C87.6052 42.1093 87.6091 40.0364 87.6296 37.9637C85.5586 37.9737 83.4874 37.966 81.4165 37.941L81.3918 31.9028L81.2607 31.8198C81.4425 30.9056 81.3954 26.8023 81.3999 25.5884C85.5435 25.6314 89.6872 25.6148 93.8301 25.5392Z" fill="#000082"/>
<path d="M93.8301 25.5392C94.9181 25.5324 99.162 25.3558 100.006 25.5502C100 27.4667 100.053 29.8559 99.9694 31.734C93.9769 32.1494 87.2367 31.4848 81.3918 31.9028L81.2607 31.8198C81.4425 30.9056 81.3954 26.8023 81.3999 25.5884C85.5435 25.6314 89.6872 25.6148 93.8301 25.5392Z" fill="#0101FE"/>
<path d="M106.195 19.4163C108.19 19.4287 110.338 19.4058 112.319 19.4663C112.532 20.8082 112.448 24.086 112.448 25.5828C112.452 29.6851 112.503 33.925 112.438 38.0148L100.002 38.0454C99.9673 35.9844 99.9714 33.9231 100.012 31.8623L99.9694 31.7341C100.053 29.856 100 27.4669 100.006 25.5503C102.026 25.5963 104.121 25.5833 106.146 25.5949L106.195 19.4163Z" fill="#FEFE00"/>
<path d="M106.195 19.4163C108.19 19.4287 110.338 19.4058 112.319 19.4663C112.532 20.8082 112.448 24.086 112.448 25.5828L106.144 25.5624V31.7392C105.022 31.7356 100.903 31.662 100.012 31.8623L99.9694 31.7341C100.053 29.856 100 27.4669 100.006 25.5503C102.026 25.5963 104.121 25.5833 106.146 25.5949L106.195 19.4163Z" fill="#828101"/>
<path d="M106.169 44.1845L112.466 44.1816C112.413 46.2468 112.415 48.3129 112.474 50.3777L106.128 50.3952C106.255 49.1008 106.171 45.6398 106.169 44.1845Z" fill="black"/>
<path d="M155.798 50.5829C157.092 50.3619 160.642 50.477 162.073 50.504C161.994 52.5476 161.981 54.5934 162.032 56.6381L162.024 62.4428C162 64.1093 162.098 67.8506 161.971 69.2869L162.01 73.5625C161.953 74.5405 162.124 74.5016 161.615 75.0614C159.943 75.563 157.732 75.2149 155.813 75.2388C155.778 73.1798 155.798 71.0628 155.794 68.999L155.796 62.803L155.798 50.5829Z" fill="black"/>
<path d="M106.163 6.9719C108.139 6.88379 110.412 6.95514 112.409 6.97129C112.45 11.1243 112.452 15.2778 112.417 19.4308L112.319 19.4664C110.338 19.4059 108.19 19.4288 106.195 19.4163C106.087 15.3835 106.163 11.0304 106.163 6.9719Z" fill="#00FEFE" fill-opacity="0.988235"/>
<path d="M118.582 44.1899C120.611 44.1353 122.747 44.1719 124.787 44.1748C124.82 47.9623 124.969 52.9039 124.767 56.6186C122.7 56.5969 120.789 56.5781 118.721 56.6654C118.453 55.6214 118.547 51.8114 118.553 50.5411C118.627 48.5637 118.576 46.1964 118.582 44.1899Z" fill="#00FEFE" fill-opacity="0.988235"/>
<path d="M155.796 62.8029L155.794 68.999C154.241 68.9701 151.062 68.8659 149.621 69.0854L149.554 69.0139C147.731 68.87 145.313 68.9572 143.442 68.9734C143.291 67.9543 143.31 63.7954 143.489 62.7725L149.64 62.8162L155.796 62.8029Z" fill="#828101"/>
<path d="M155.796 62.803L155.794 68.999C154.241 68.9702 151.062 68.8659 149.621 69.0855L149.554 69.0139C149.691 67.3321 149.662 64.5136 149.64 62.8163L155.796 62.803Z" fill="#820000"/>
<path d="M75.206 56.5298C77.2719 56.5069 79.3377 56.5396 81.4017 56.6279C81.4193 57.8831 81.5399 61.7372 81.3563 62.8025C79.3136 62.8337 77.2706 62.8384 75.2279 62.8162C75.1594 60.5934 75.1212 58.7578 75.206 56.5298Z" fill="#00FE00" fill-opacity="0.988235"/>
<path d="M81.3594 50.4629C83.4494 50.4835 85.61 50.4764 87.6929 50.5285L87.6046 56.6467L81.4017 56.6278C81.35 54.5733 81.3359 52.518 81.3594 50.4629Z" fill="#00FE00" fill-opacity="0.988235"/>
</g>
<defs>
<clipPath id="clip0_1_9094">
<rect width="200" height="200" fill="white"/>
</clipPath>
</defs>
</svg>
