<svg width="144" height="200" viewBox="0 0 144 200" fill="none" xmlns="http://www.w3.org/2000/svg">
<g clip-path="url(#clip0_1_8740)">
<path d="M112.175 0.744374C114.259 0.720252 116.462 0.657698 118.536 0.706761C118.532 2.76863 118.487 4.91554 118.626 6.96596C120.655 6.92589 122.694 6.86416 124.723 6.92017C124.701 8.98327 124.723 11.0464 124.791 13.1084L130.941 13.1027C130.874 17.2432 130.884 21.3847 130.97 25.525L137.126 25.5156C137.075 29.6463 137.088 33.7776 137.163 37.9081L143.314 37.9069C143.263 44.1391 143.261 50.3715 143.308 56.6037C143.389 59.4729 143.242 62.9128 143.236 65.8654L143.224 87.6386C141.479 87.6525 138.831 87.7503 137.157 87.6082C137.041 91.746 137.002 95.8859 137.039 100.025C135.344 100.043 132.57 100.154 130.97 99.9863C130.782 104.099 130.839 108.314 130.843 112.437C128.865 112.458 126.761 112.513 124.795 112.493C124.67 114.537 124.621 116.585 124.644 118.634C122.629 118.679 120.614 118.691 118.601 118.675C118.497 120.729 118.446 122.786 118.446 124.842C116.785 124.863 113.968 124.975 112.406 124.803C112.306 126.884 112.251 128.966 112.243 131.047C108.205 131.065 104.03 131.137 100.005 131.067C99.9436 133.124 99.8926 135.178 99.8518 137.233L87.6099 137.267C87.5262 139.326 87.4813 141.387 87.4772 143.447C84.2989 143.458 78.0504 143.654 75.1129 143.337L75.1802 149.496C78.9057 149.756 83.6946 149.625 87.516 149.65C87.4834 151.676 87.5099 153.699 87.5936 155.723C93.7176 155.964 99.9702 155.719 106.098 155.838C106.066 157.943 106.104 159.818 106.176 161.917C110.177 162.042 114.633 161.868 118.487 162.061C118.469 164.072 118.495 166.082 118.569 168.091C120.598 168.197 122.629 168.259 124.662 168.273L124.646 186.858C122.737 186.886 120.363 186.991 118.499 186.811C118.483 188.716 118.53 191.177 118.436 193.036C115.56 193.064 108.546 193.285 106.092 192.986L106.068 199.252C86.5586 199.489 66.8781 199.093 47.3608 199.271C40.2743 199.334 32.5834 199.074 25.5702 199.271C25.5796 197.22 25.6084 195.278 25.4232 193.228C21.9715 192.888 16.7678 193.034 13.1754 193.066C13.1779 191.03 13.2142 189.041 13.035 187.013C10.8814 186.856 9.12462 186.852 6.97591 186.858C7.06982 181.571 6.47436 173.237 6.89262 168.187C8.946 168.216 10.9998 168.171 13.0499 168.048C13.0034 166.184 13.0924 163.868 13.1048 161.969C17.0125 161.989 21.6082 162.056 25.4665 161.858C25.3791 160.129 25.4838 157.586 25.4634 155.772C30.4745 155.78 39.1938 156.044 44.0255 155.627C43.9852 154.147 44.0018 151.003 44.1389 149.586C47.7497 149.298 52.587 149.662 56.4539 149.578C56.5604 147.618 56.5547 145.549 56.5807 143.576C50.8023 143.388 44.9859 143.502 39.1991 143.49C38.7219 143.568 38.708 143.541 38.2228 143.466C37.5052 142.593 37.8419 138.784 37.8843 137.4C35.1061 137.11 28.2733 137.157 25.52 137.443C25.4177 135.364 25.4806 133.277 25.5132 131.194C22.906 130.922 15.6583 130.973 13.1048 131.245C13.0438 129.135 13.0879 127.091 13.1244 124.981C11.0557 124.84 8.97928 124.848 6.91202 125.01C6.83384 122.81 6.85731 120.919 6.90855 118.724C4.73535 118.689 2.87815 118.652 0.703931 118.785C0.653714 116.683 0.689021 114.492 0.693104 112.382C2.75505 112.38 4.81679 112.333 6.8767 112.241C6.82342 110.347 6.88936 108.075 6.88936 106.15L12.126 106.147C12.4706 106.048 12.5867 105.983 12.9148 105.837C13.5802 104.414 13.005 101.979 13.0809 100.345L13.1001 99.989L19.3509 99.9906L19.3521 106.169C19.3237 108.266 19.3186 110.362 19.3362 112.458L25.5737 112.423L25.4957 118.574C27.4488 118.581 29.8372 118.65 31.7562 118.585C35.8877 118.56 40.0193 118.564 44.1508 118.597L50.3156 118.601L50.2885 106.287L56.4725 106.248L68.9521 106.224L75.1292 106.252C75.1578 104.172 75.1619 102.092 75.1415 100.013C75.0067 98.1308 75.1251 95.7455 75.1823 93.8322L81.3145 93.823C81.2287 95.9998 81.245 97.856 81.29 100.028C83.3742 100.047 85.4584 100.049 87.5426 100.034L87.518 93.8179C85.4604 93.7762 83.4007 93.7715 81.341 93.804C81.3451 89.7287 81.4104 85.4836 81.3002 81.4222L75.0925 81.3621L75.1149 75.153C75.1231 69.2433 75.2905 62.4951 75.07 56.652L75.1639 56.625C74.9802 55.3236 75.07 51.8573 75.0761 50.4193C76.65 50.458 79.8345 50.3746 81.2287 50.496L81.3246 50.5132C82.2779 50.2803 86.2871 50.4369 87.4772 50.4631C89.5226 50.469 91.5681 50.4614 93.6135 50.4402C95.4037 50.5097 98.035 50.3948 99.8885 50.3631C99.8171 52.5773 99.7905 54.4423 99.8518 56.6601C101.601 56.6466 104.243 56.5487 105.917 56.699C106.202 55.9867 106.147 51.4223 106.159 50.3897L112.265 50.3913C112.202 48.4495 112.247 46.1909 112.245 44.2284L112.253 37.9901C112.21 35.9073 112.208 33.8238 112.249 31.7411C112.206 29.6927 112.202 27.6439 112.239 25.5955L106.07 25.5841C104.557 25.5784 101.344 25.4792 99.9559 25.5878C97.9717 25.58 95.7609 25.6232 93.8013 25.4527C93.7237 23.4607 93.7543 21.4054 93.7584 19.4073C92.5214 19.2861 88.9143 19.358 87.5058 19.3378C87.565 17.3195 87.5364 15.2028 87.5385 13.1761C87.4793 11.5198 87.4058 8.55948 87.6405 6.96903C87.6344 8.97897 87.5813 11.1956 87.6671 13.1884C91.7314 13.0861 95.9038 13.2276 99.8885 13.1082C101.909 13.1491 103.93 13.1763 105.951 13.1896C105.906 11.7336 105.91 10.7935 106.008 9.34285C105.998 8.55866 106.004 7.73155 105.978 6.95247C107.813 6.92691 110.405 6.96678 112.175 6.79015C112.163 4.79942 112.212 2.7165 112.175 0.744374Z" fill="black"/>
<path d="M143.308 56.6037C143.389 59.4729 143.242 62.9128 143.236 65.8654L143.224 87.6387C141.479 87.6526 138.831 87.7503 137.157 87.6082C137.041 91.7461 137.002 95.886 137.039 100.025C135.344 100.043 132.57 100.154 130.97 99.9864C130.782 104.099 130.839 108.314 130.843 112.438C128.865 112.458 126.761 112.513 124.795 112.493C124.67 114.537 124.621 116.585 124.644 118.634C122.629 118.679 120.614 118.691 118.601 118.675C118.497 120.729 118.446 122.786 118.446 124.842C116.785 124.863 113.968 124.975 112.406 124.803C112.306 126.885 112.251 128.966 112.243 131.047C108.205 131.065 104.03 131.137 100.005 131.067C99.9436 133.124 99.8926 135.178 99.8517 137.233L87.6099 137.267C87.5262 139.326 87.4813 141.387 87.4772 143.447C84.2988 143.458 78.0503 143.654 75.1129 143.337L75.1802 149.496C78.9056 149.756 83.6946 149.625 87.516 149.65C87.4833 151.676 87.5099 153.699 87.5936 155.723C93.7175 155.964 99.9701 155.719 106.098 155.838C106.066 157.943 106.104 159.818 106.176 161.917C110.177 162.042 114.633 161.868 118.487 162.061C118.469 164.072 118.495 166.082 118.569 168.091C120.598 168.198 122.629 168.259 124.662 168.273L124.646 186.858C122.737 186.886 120.363 186.991 118.499 186.811C118.483 188.716 118.53 191.177 118.436 193.036C115.56 193.064 108.546 193.285 106.092 192.987L106.068 199.252C86.5586 199.489 66.8781 199.093 47.3608 199.271C40.2743 199.334 32.5834 199.074 25.5702 199.271C25.5795 197.22 25.6083 195.278 25.4232 193.228C21.9715 192.888 16.7677 193.034 13.1754 193.066C13.1779 191.03 13.2142 189.041 13.035 187.013C10.8814 186.856 9.12459 186.852 6.97588 186.858C7.06979 181.571 6.47433 173.237 6.89259 168.187C8.94597 168.216 10.9998 168.171 13.0499 168.048C13.0033 166.184 13.0923 163.868 13.1048 161.969C17.0125 161.989 21.6081 162.056 25.4665 161.858C25.3791 160.129 25.4838 157.586 25.4634 155.772C30.4745 155.781 39.1938 156.044 44.0254 155.627C43.9852 154.147 44.0017 151.003 44.1389 149.586C47.7496 149.298 52.587 149.662 56.4539 149.578C56.5604 147.618 56.5547 145.549 56.5806 143.576C50.8022 143.388 44.9859 143.503 39.1991 143.49C42.9051 143.088 52.3124 143.376 56.5035 143.4C56.4696 141.352 56.4877 139.248 56.4818 137.196L87.4609 137.192L87.4792 131.02L87.4915 124.846C91.3802 124.711 95.9385 124.808 99.8824 124.789L99.8946 118.628L106.074 118.613L106.068 112.452L112.265 112.431L112.253 106.239C114.288 106.189 116.433 106.21 118.479 106.199L118.469 100.02L124.64 100.001L124.646 87.634C126.665 87.58 128.8 87.5978 130.829 87.5829L137.02 87.5575L137.03 56.5888C139.123 56.5829 141.215 56.588 143.308 56.6037Z" fill="black"/>
<path d="M44.1118 161.915L44.2808 162.009L50.3001 162.052C53.9832 162.099 57.6668 162.087 61.3496 162.016C63.5069 161.975 66.874 161.782 68.9623 161.995C75.0537 161.981 81.3899 161.879 87.4629 161.997L87.4935 168.249L81.3797 168.236C81.3409 170.291 81.3369 172.345 81.3654 174.4L68.9011 174.449C68.9052 176.491 68.8929 178.533 68.8623 180.576C70.3586 180.829 74.0738 180.756 75.7028 180.751L87.5303 180.727L87.5262 186.735C84.85 186.735 77.2154 186.565 75.0639 186.862L25.4985 186.87C25.523 184.793 25.5175 182.716 25.4822 180.639C25.6357 178.877 25.5671 176.215 25.5742 174.383L25.5789 168.261L37.8882 168.257C37.9525 166.186 37.9112 164.066 37.8961 161.991C39.6206 161.866 42.2209 161.983 44.1118 161.915Z" fill="#FEFE00"/>
<path d="M38.0088 174.447L68.9011 174.449C68.9052 176.491 68.8929 178.533 68.8623 180.576H37.9592C37.9588 178.533 37.9754 176.489 38.0088 174.447Z" fill="#838100"/>
<path d="M68.9625 161.995C75.0538 161.981 81.3901 161.878 87.4631 161.997L87.4937 168.248L81.3799 168.236C80.5858 168.032 76.1275 168.097 75.1293 168.099C70.965 168.114 66.8599 168.177 62.6895 168.062L62.6982 162.146C64.196 162.14 67.6376 162.224 68.9625 161.995Z" fill="black"/>
<path d="M50.3003 162.052C53.9835 162.099 57.667 162.087 61.3498 162.016C63.5071 161.975 66.8743 161.782 68.9626 161.995C67.6377 162.224 64.196 162.14 62.6983 162.146L62.6895 168.063C66.86 168.177 70.9651 168.114 75.1294 168.099C76.1276 168.097 80.5859 168.032 81.38 168.236C79.0651 168.482 72.4798 168.326 69.8505 168.322L44.1814 168.199C44.1739 166.548 44.0816 163.526 44.281 162.009L50.3003 162.052Z" fill="#838100"/>
<path d="M25.5792 168.261L37.8884 168.257L37.8853 174.408C33.7818 174.377 29.6781 174.369 25.5745 174.384L25.5792 168.261Z" fill="#838100"/>
<path d="M44.1391 149.586C46.2152 149.678 48.2696 149.666 50.3466 149.668C50.3176 151.706 50.2589 153.726 50.3799 155.762L50.2362 155.813C50.395 157.739 50.3164 160.088 50.3003 162.052L44.281 162.009L44.112 161.915C42.2211 161.983 39.6209 161.866 37.8964 161.991C37.9115 164.066 37.9527 166.186 37.8884 168.257L25.5792 168.261L25.5745 174.383C25.5673 176.215 25.6359 178.877 25.4824 180.639C25.5177 182.716 25.5232 184.793 25.4987 186.87L75.0641 186.862L75.058 193.007L25.5551 192.997C25.5526 190.938 25.57 188.881 25.6067 186.823L13.1628 186.804L13.1669 180.616C11.1541 180.576 9.01704 180.606 6.99408 180.606C7.00082 177.773 7.16922 170.655 6.89282 168.187C8.9462 168.216 11 168.171 13.0501 168.048C13.0036 166.184 13.0925 163.868 13.105 161.968C17.0127 161.989 21.6084 162.056 25.4667 161.858C25.3793 160.129 25.484 157.585 25.4636 155.772C30.4747 155.78 39.194 156.044 44.0257 155.627C43.9854 154.147 44.002 151.003 44.1391 149.586Z" fill="#838100"/>
<path d="M25.5248 161.991H37.8962C37.9113 164.066 37.9526 166.186 37.8883 168.257L25.5791 168.261L25.5744 174.383C25.5672 176.215 25.6358 178.877 25.4823 180.639L13.1655 180.631L13.1318 174.435L19.3932 174.439C19.326 172.46 19.3671 170.193 19.3632 168.193L25.5405 168.244C25.4658 166.245 25.5199 164.007 25.5248 161.991Z" fill="#FEFEFE"/>
<path d="M13.1125 168.161C15.1273 168.218 17.3332 168.185 19.3631 168.193C19.3669 170.193 19.3259 172.46 19.3931 174.439L13.1317 174.435C13.0368 172.634 13.1111 170.021 13.1125 168.161Z" fill="#FEFE00"/>
<path d="M44.0955 155.799L50.236 155.813C50.3948 157.739 50.3162 160.088 50.3001 162.052L44.2808 162.009L44.1118 161.915L44.0955 155.799Z" fill="#FEFEFE"/>
<path d="M87.4629 161.997L106.066 162.03C106.057 164.078 106.025 166.176 106.041 168.218C110.183 168.269 114.327 168.281 118.471 168.253C118.43 172.364 118.42 176.475 118.438 180.588L106.045 180.592L106.039 186.825C100.023 186.782 94.0054 186.796 87.9896 186.862C85.3501 186.909 77.5155 187.132 75.0639 186.862C77.2154 186.565 84.85 186.735 87.5262 186.735L87.5303 180.727L75.7028 180.751C74.0738 180.755 70.3586 180.829 68.8623 180.576C68.8929 178.533 68.9052 176.491 68.9011 174.449L81.3655 174.4C81.3369 172.345 81.341 170.291 81.3797 168.236L87.4935 168.248L87.4629 161.997Z" fill="#838100"/>
<path d="M87.463 161.997L106.066 162.03C106.057 164.078 106.025 166.176 106.041 168.218C101.909 168.179 97.7778 168.179 93.6461 168.22L93.6482 174.406C90.1248 174.238 85.0032 174.396 81.3655 174.4C81.3369 172.345 81.341 170.291 81.3798 168.236L87.4936 168.248L87.463 161.997Z" fill="#838100"/>
<path d="M81.3655 174.4C85.0031 174.396 90.1248 174.238 93.6481 174.406C93.6706 176.481 93.6808 178.554 93.6808 180.627L76.2805 180.5C74.6046 180.5 70.3382 180.402 68.8623 180.576C68.8929 178.533 68.9052 176.491 68.9011 174.449L81.3655 174.4Z" fill="black"/>
<path d="M93.6462 168.22C97.7779 168.179 101.91 168.179 106.041 168.218C106.064 170.287 106.076 172.358 106.074 174.426C102.069 174.428 97.6187 174.514 93.6483 174.406L93.6462 168.22Z" fill="black"/>
<path d="M62.7262 143.419L68.9012 143.413C68.8951 145.483 68.8726 147.583 68.8951 149.65H75.0885C75.0619 151.708 75.0558 153.765 75.0721 155.823L87.4896 155.832C87.4794 157.874 87.4487 159.959 87.463 161.997C81.3901 161.879 75.0538 161.981 68.9624 161.995C66.8742 161.783 63.507 161.975 61.3497 162.016C57.6669 162.087 53.9833 162.099 50.3002 162.052C50.3163 160.088 50.3949 157.739 50.2361 155.813L50.3798 155.762C52.4152 155.819 54.4518 155.826 56.4877 155.778L56.5354 149.654L62.7403 149.642L62.7262 143.419Z" fill="#838100"/>
<path d="M56.4877 155.778L68.9808 155.793C68.9686 157.551 68.8747 160.298 68.9624 161.995C66.8742 161.782 63.507 161.975 61.3497 162.015C57.6669 162.087 53.9833 162.099 50.3002 162.052C50.3163 160.088 50.3949 157.739 50.2361 155.813L50.3798 155.762C52.4152 155.819 54.4518 155.825 56.4877 155.778Z" fill="#FEFE00"/>
<path d="M124.64 100.001L124.621 112.395L118.446 112.407V118.587L112.224 118.593V124.767C108.166 124.773 103.924 124.718 99.8826 124.789L99.8948 118.628L106.074 118.613L106.068 112.452L112.265 112.431L112.253 106.239C114.288 106.189 116.434 106.21 118.479 106.199L118.469 100.02L124.64 100.001Z" fill="#838100"/>
<path d="M99.8824 124.789L99.8599 131.002C95.7324 130.981 91.6068 130.987 87.4792 131.02L87.4915 124.846C91.3802 124.711 95.9385 124.807 99.8824 124.789Z" fill="#838100"/>
<path d="M130.829 87.5828C130.792 91.7149 130.782 95.8474 130.802 99.9797L124.64 100.001L124.646 87.6339C126.665 87.5799 128.8 87.5977 130.829 87.5828Z" fill="#838100"/>
<path d="M112.175 0.744374C114.259 0.720252 116.462 0.657698 118.536 0.706761C118.532 2.76863 118.487 4.91554 118.626 6.96596C120.655 6.9259 122.694 6.86416 124.723 6.92017C124.701 8.98327 124.723 11.0464 124.791 13.1084L130.941 13.1027C130.874 17.2432 130.884 21.3847 130.97 25.525L137.126 25.5156C137.075 29.6463 137.088 33.7776 137.163 37.9081L143.314 37.9069C143.263 44.1391 143.261 50.3715 143.308 56.6037C141.215 56.588 139.123 56.5829 137.031 56.5888L137.02 87.5575L130.829 87.5828L130.87 56.803C130.868 53.1482 130.525 47.4778 130.804 44.1215L130.798 37.9991L124.654 38.0442L124.64 31.8543C123.035 31.9549 120.153 31.8654 118.458 31.8597L118.391 31.7742C116.344 31.8067 114.296 31.7957 112.249 31.7411C112.206 29.6927 112.202 27.6439 112.239 25.5955L106.07 25.5841C104.557 25.5784 101.344 25.4792 99.9559 25.5878C97.9717 25.58 95.7609 25.6232 93.8013 25.4527C93.7237 23.4607 93.7543 21.4054 93.7584 19.4073C92.5213 19.2861 88.9143 19.358 87.5058 19.3378C87.565 17.3195 87.5364 15.2028 87.5385 13.1761C87.4793 11.5198 87.4058 8.55948 87.6405 6.96903C87.6344 8.97897 87.5813 11.1956 87.6671 13.1884C91.7314 13.0861 95.9038 13.2276 99.8885 13.1082C101.909 13.1491 103.93 13.1763 105.951 13.1896C105.906 11.7337 105.91 10.7935 106.008 9.34285C105.998 8.55866 106.004 7.73155 105.978 6.95247C107.813 6.92692 110.405 6.96678 112.175 6.79015C112.163 4.79942 112.212 2.7165 112.175 0.744374Z" fill="#838100"/>
<path d="M118.469 13.1342L124.687 13.1235L124.674 25.57L130.894 25.5434L130.851 38.0066C132.889 37.9825 135.065 37.9952 137.088 37.9259L137.065 50.3825C135.03 50.4291 132.993 50.4457 130.955 50.4324C130.955 49.1752 131.027 45.1673 130.804 44.1215L130.798 37.999L124.654 38.0442L124.64 31.8543C124.035 31.5454 119.628 31.6632 118.554 31.6716C118.554 27.6155 118.465 23.4828 118.42 19.4171C118.532 17.7383 118.463 14.897 118.469 13.1342Z" fill="#FEFE00"/>
<path d="M87.6405 6.96899C87.6344 8.97894 87.5813 11.1956 87.6671 13.1883C91.7314 13.0861 95.9038 13.2276 99.8885 13.1082L99.8824 19.3555C97.8574 19.3653 95.7793 19.3502 93.7584 19.4073C92.5213 19.286 88.9143 19.358 87.5058 19.3378C87.565 17.3194 87.5364 15.2028 87.5385 13.1761C87.4793 11.5198 87.4058 8.55945 87.6405 6.96899Z" fill="#007F82"/>
<path d="M112.216 6.96948L118.485 6.98931L118.469 13.1342C118.463 14.897 118.532 17.7384 118.42 19.4172L112.237 19.4104L112.216 6.96948Z" fill="#FEFEFE"/>
<path d="M99.8824 19.3555C101.942 19.4287 104.002 19.4456 106.061 19.4062C106.043 21.4629 106.008 23.5285 106.07 25.584C104.557 25.5783 101.344 25.4791 99.9559 25.5877C97.9717 25.5799 95.7609 25.6231 93.8013 25.4526C93.7237 23.4606 93.7543 21.4053 93.7584 19.4072C95.7793 19.3502 97.8574 19.3653 99.8824 19.3555Z" fill="#828181"/>
<path d="M105.951 13.1895C105.907 11.7336 105.911 10.7934 106.009 9.34277C106.076 12.6968 106.092 16.0515 106.062 19.4062C104.002 19.4456 101.942 19.4287 99.8826 19.3555L99.8887 13.1081C101.91 13.149 103.931 13.1762 105.951 13.1895Z" fill="black"/>
<path d="M106.061 19.4062C108.06 19.3921 110.281 19.328 112.261 19.4028L112.239 25.5955L106.07 25.5841C106.008 23.5286 106.043 21.463 106.061 19.4062Z" fill="black"/>
<path d="M112.239 25.5956L118.342 25.5359C118.356 27.5971 118.346 29.7193 118.391 31.7742C116.344 31.8067 114.296 31.7957 112.249 31.7411C112.206 29.6927 112.202 27.644 112.239 25.5956Z" fill="black"/>
<path d="M93.6135 50.4401C95.4037 50.5096 98.035 50.3947 99.8885 50.363C99.8171 52.5772 99.7905 54.4422 99.8518 56.6601C101.601 56.6466 104.243 56.5486 105.917 56.6989L106.029 56.7884C106.064 60.8643 106.074 64.9402 106.064 69.0163L106.07 75.2459C104.012 75.2228 101.952 75.2144 99.8946 75.2208C99.9007 76.6203 99.9824 80.2425 99.8211 81.4556L99.8722 81.5419C100.828 81.2976 104.888 81.3857 106.08 81.389L106.061 93.8317V99.993L99.9028 100.02L93.6706 99.9687L87.5425 100.034L87.518 93.8178C85.4604 93.7761 83.4007 93.7714 81.341 93.8039C81.3451 89.7286 81.4104 85.4835 81.3001 81.4221L75.0924 81.362L75.1149 75.1529C75.1231 69.2433 75.2905 62.4951 75.07 56.6519L75.1639 56.6249C74.9802 55.3235 75.07 51.8572 75.0761 50.4192C76.65 50.4579 79.8345 50.3745 81.2287 50.4959L81.3246 50.5131C82.2779 50.2802 86.2871 50.4368 87.4772 50.463C89.5226 50.4689 91.5681 50.4614 93.6135 50.4401Z" fill="#008100"/>
<path d="M93.6135 50.4401C95.4038 50.5096 98.0351 50.3947 99.8886 50.363C99.8171 52.5772 99.7906 54.4422 99.8518 56.6601C101.601 56.6466 104.243 56.5486 105.917 56.6989L106.029 56.7884C106.064 60.8643 106.074 64.9402 106.064 69.0163L106.07 75.2459C104.012 75.2228 101.952 75.2144 99.8947 75.2208L99.8437 74.9125L99.9172 68.9609L93.6748 68.9722C91.6559 69.0243 89.5268 68.9748 87.4997 68.9605C87.4834 66.9017 87.4814 64.8429 87.4956 62.7843C87.4507 60.7803 87.4997 58.6021 87.5079 56.5834L81.3227 56.5928C81.2594 54.6491 81.3165 52.4744 81.3247 50.5131C82.278 50.2802 86.2872 50.4368 87.4773 50.463C89.5227 50.4689 91.5681 50.4614 93.6135 50.4401Z" fill="#008100"/>
<path d="M93.6135 50.4401C95.4038 50.5096 98.035 50.3947 99.8886 50.363C99.8171 52.5772 99.7906 54.4422 99.8518 56.6601L99.8824 62.8113L93.7687 62.7553C93.5217 59.4558 93.6666 53.9234 93.6135 50.4401Z" fill="#828181"/>
<path d="M87.4956 62.7845L93.6952 62.7759C93.6829 64.8146 93.6421 66.9419 93.6747 68.9723C91.6559 69.0244 89.5268 68.975 87.4997 68.9607C87.4834 66.9019 87.4813 64.8431 87.4956 62.7845Z" fill="#FE01FE"/>
<path d="M99.8722 81.5419C100.828 81.2976 104.888 81.3857 106.08 81.389L106.062 93.8317V99.993L99.9028 100.02L93.6707 99.9687L93.6951 93.7962C95.6324 93.8595 97.9554 93.8007 99.9171 93.7941L99.8967 87.6825C99.909 85.6356 99.9008 83.5886 99.8722 81.5419Z" fill="#800080"/>
<path d="M99.9069 93.8132L106.062 93.8318V99.9931L99.9028 100.02L99.9069 93.8132Z" fill="#828181"/>
<path d="M93.6278 87.5632C95.7487 87.6315 97.7227 87.5724 99.8967 87.6826L99.9171 93.7942C97.9554 93.8008 95.6324 93.8596 93.6951 93.7963L93.6706 99.9688L87.5426 100.034L87.5181 93.8179C89.4369 93.7337 91.7416 93.8212 93.687 93.8455L93.6278 87.5632Z" fill="#007F82"/>
<path d="M93.6747 68.9722L99.9171 68.9609L99.8436 74.9125C99.368 75.4559 94.2096 75.3432 93.6482 75.0893L93.6747 68.9722Z" fill="#FE01FE"/>
<path d="M75.115 75.1528L81.3043 75.1994L81.3002 81.422L75.0925 81.3619L75.115 75.1528Z" fill="#FE01FE"/>
<path d="M99.8436 74.9126L99.8947 75.2209C99.9008 76.6204 99.9824 80.2427 99.8212 81.4557C98.4147 81.3333 95.1751 81.414 93.6543 81.4151L93.6482 75.0894C94.2096 75.3433 99.368 75.456 99.8436 74.9126Z" fill="#C2C1C2"/>
<path d="M87.4998 68.9607L87.4712 75.2385L81.3268 75.1792C81.2982 73.1022 81.288 71.0252 81.2962 68.948C83.3538 68.9742 85.438 68.9592 87.4998 68.9607Z" fill="#FE01FE"/>
<path d="M75.0761 50.4192C76.65 50.4578 79.8345 50.3744 81.2287 50.4959L81.3246 50.513C81.3165 52.4743 81.2593 54.649 81.3226 56.5927L75.1639 56.6248C74.9802 55.3234 75.07 51.8571 75.0761 50.4192Z" fill="#FE01FE"/>
<path d="M81.3227 56.5929L87.5079 56.5835C87.4997 58.6022 87.4507 60.7804 87.4957 62.7844L81.2737 62.8102L81.3227 56.5929Z" fill="#FE01FE"/>
<path d="M13.1001 99.989L19.3509 99.9906L19.3521 106.17C19.3237 108.266 19.3186 110.362 19.3362 112.458L25.5737 112.423L25.4957 118.574C27.4488 118.581 29.8372 118.65 31.7562 118.585L31.7473 124.816C35.4408 124.501 40.3072 124.842 44.1483 124.807L44.0926 130.861C45.2835 130.867 49.4778 130.852 50.3985 131.028L74.772 131.043C78.726 131.041 83.5946 131.169 87.4793 131.02L87.4609 137.192L56.4819 137.196C56.4878 139.248 56.4696 141.352 56.5035 143.4C52.3124 143.376 42.9052 143.088 39.1991 143.49C38.7219 143.568 38.708 143.541 38.2228 143.466C37.5052 142.593 37.8419 138.784 37.8843 137.4C35.1061 137.11 28.2733 137.157 25.52 137.443C25.4177 135.364 25.4806 133.277 25.5132 131.194C22.906 130.922 15.6583 130.973 13.1048 131.245C13.0438 129.135 13.0879 127.091 13.1244 124.981C11.0557 124.84 8.97928 124.848 6.91202 125.01C6.83384 122.81 6.85731 120.919 6.90855 118.724C4.73535 118.689 2.87815 118.652 0.703931 118.785C0.653714 116.683 0.689021 114.492 0.693104 112.382C2.75505 112.38 4.81679 112.333 6.8767 112.241C6.82342 110.347 6.88936 108.075 6.88936 106.15L12.126 106.147C12.4706 106.048 12.5867 105.983 12.9148 105.837C13.5802 104.414 13.005 101.979 13.0809 100.345L13.1001 99.989Z" fill="#838100"/>
<path d="M13.1552 112.388C14.9941 112.356 17.708 112.452 19.4346 112.344C19.3903 114.423 19.3711 116.504 19.377 118.585C21.3316 118.583 23.5623 118.632 25.4957 118.574C27.4488 118.581 29.8372 118.65 31.7563 118.585L31.7473 124.816C35.4409 124.501 40.3072 124.842 44.1484 124.808L44.0926 130.861C45.2835 130.867 49.4779 130.852 50.3985 131.028C50.3075 132.909 50.3497 135.299 50.335 137.216C46.2438 137.298 41.9878 137.241 37.8829 137.241L37.9058 131.02C33.82 131.094 29.5984 131.055 25.5012 131.063L25.5465 124.834C21.4165 124.871 17.2702 124.785 13.1401 124.875L13.142 118.624C13.1873 116.594 13.1534 114.429 13.1552 112.388Z" fill="#FEFE00"/>
<path d="M31.7473 124.816C35.4409 124.501 40.3072 124.842 44.1484 124.807L44.0927 130.861C45.2836 130.867 49.4779 130.852 50.3985 131.028C48.4646 131.288 40.5542 131.002 37.9434 131.028C37.947 128.986 37.9697 126.944 38.0113 124.904C36.1766 124.922 33.5033 125.03 31.7473 124.816Z" fill="#838100"/>
<path d="M13.1001 99.989L19.3509 99.9906L19.3521 106.17C16.9435 106.219 14.5341 106.211 12.126 106.147C12.4706 106.048 12.5867 105.983 12.9147 105.837C13.5802 104.414 13.005 101.979 13.0809 100.345L13.1001 99.989Z" fill="black"/>
<path d="M6.93854 112.403C9.01069 112.419 11.083 112.415 13.1552 112.388C13.1534 114.429 13.1872 116.594 13.1419 118.624H6.94772C6.93343 116.551 6.93037 114.478 6.93854 112.403Z" fill="#FEFEFE"/>
<path d="M75.1825 93.8322L81.3146 93.823C81.2289 95.9998 81.2452 97.856 81.2901 100.028C83.3743 100.047 85.4585 100.049 87.5427 100.034L93.6708 99.9687L99.903 100.02L106.062 99.9931C106.06 102.065 106.07 104.138 106.09 106.21C106.033 108.271 106.013 110.332 106.033 112.395C104.024 112.405 101.879 112.382 99.8805 112.44L99.8417 118.583C95.7979 118.581 91.5192 118.515 87.4937 118.597C83.3682 118.644 79.2427 118.642 75.1151 118.589C75.0232 116.614 75.0722 114.402 75.0743 112.409C73.0146 112.433 70.9569 112.429 68.8992 112.397C68.8952 110.34 68.9135 108.282 68.9523 106.224L75.1294 106.252C75.158 104.172 75.1621 102.092 75.1416 100.013C75.0069 98.1307 75.1253 95.7454 75.1825 93.8322Z" fill="#007F82"/>
<path d="M93.6707 99.9688L99.9029 100.02L106.062 99.9931C106.06 102.065 106.07 104.138 106.09 106.21C106.033 108.271 106.013 110.332 106.033 112.395C104.024 112.405 101.879 112.382 99.8804 112.44L93.6748 112.427C93.6625 110.357 93.6727 108.286 93.7095 106.216C89.5819 106.219 85.4523 106.197 81.3247 106.15L81.29 100.028C83.3742 100.047 85.4584 100.049 87.5426 100.034L93.6707 99.9688Z" fill="#800080"/>
<path d="M93.6707 99.9688L99.9029 100.02L106.062 99.9931C106.06 102.065 106.07 104.138 106.09 106.21C102.075 106.255 97.6921 106.298 93.6993 106.163C93.6013 104.141 93.6564 102.002 93.6707 99.9688Z" fill="#007F82"/>
<path d="M75.1824 93.8322L81.3146 93.823C81.2288 95.9998 81.2452 97.856 81.2901 100.028L75.1416 100.013C75.0069 98.1307 75.1253 95.7454 75.1824 93.8322Z" fill="#C2C1C2"/>
<path d="M75.2824 106.225C77.2829 106.227 79.2834 106.214 81.2839 106.188L81.2675 112.468C79.216 112.419 77.1624 112.384 75.1109 112.364C75.0925 111.309 74.9374 106.965 75.2824 106.225Z" fill="#800080"/>
<path d="M112.231 56.6055L118.446 56.5875C118.43 62.5975 118.287 69.2181 118.491 75.1792C120.537 75.2087 122.584 75.225 124.632 75.2285L124.609 87.5484L118.45 87.5686L118.477 81.4188C116.403 81.4284 114.329 81.4117 112.255 81.3683C110.173 81.4438 108.162 81.4125 106.08 81.389C104.888 81.3857 100.828 81.2976 99.8723 81.5419L99.8213 81.4556C99.9826 80.2425 99.9009 76.6203 99.8948 75.2207C101.952 75.2144 104.012 75.2228 106.07 75.2459L106.064 69.0163C106.074 64.9402 106.064 60.8643 106.029 56.7884C106.882 56.4738 111.102 56.5959 112.231 56.6055Z" fill="#800080"/>
<path d="M106.064 69.0164L112.239 68.9817C112.326 71.0174 112.288 73.1034 112.277 75.1446L118.483 75.219L118.477 81.4189C116.403 81.4285 114.329 81.4118 112.255 81.3684C110.173 81.4439 108.162 81.4126 106.08 81.3891C104.888 81.3858 100.828 81.2977 99.8723 81.542L99.8213 81.4557C99.9826 80.2426 99.9009 76.6204 99.8948 75.2209C101.952 75.2145 104.012 75.2229 106.07 75.246L106.064 69.0164Z" fill="#007F82"/>
<path d="M106.086 75.1915C108.003 75.2526 110.295 75.1948 112.236 75.1882C112.214 77.2483 112.22 79.3085 112.255 81.3683C110.173 81.4437 108.162 81.4125 106.08 81.389L106.086 75.1915Z" fill="#800080"/>
<path d="M106.029 56.7884C106.882 56.4738 111.102 56.5959 112.23 56.6055L112.239 68.9816L106.064 69.0163C106.074 64.9402 106.064 60.8643 106.029 56.7884Z" fill="#C2C1C2"/>
<path d="M50.2886 106.287L56.4726 106.247L68.9523 106.224C68.9135 108.281 68.8951 110.339 68.8992 112.396C70.9568 112.429 73.0145 112.433 75.0742 112.409C75.0722 114.402 75.0232 116.614 75.115 118.589C79.2426 118.642 83.3681 118.644 87.4937 118.597C87.4671 120.653 87.4528 122.708 87.4508 124.764L75.1048 124.779C75.0456 122.816 75.1048 120.6 75.1171 118.615L56.5116 118.58C54.5174 118.636 52.325 118.599 50.3157 118.601L50.2886 106.287Z" fill="#800080"/>
<path d="M50.2886 106.287L56.4726 106.248C56.4875 108.152 56.446 110.566 56.5389 112.429L56.5116 118.581C54.5174 118.636 52.325 118.599 50.3157 118.601L50.2886 106.287Z" fill="#007F82"/>
<path d="M56.4727 106.247L68.9523 106.224C68.9135 108.281 68.8952 110.339 68.8993 112.396C64.7799 112.445 60.6588 112.456 56.539 112.429C56.4461 110.565 56.4876 108.152 56.4727 106.247Z" fill="#C2C1C2"/>
<path d="M112.249 31.741C114.296 31.7955 116.344 31.8066 118.391 31.7741L118.458 31.8595C118.432 35.9655 118.438 40.0714 118.477 44.177L118.481 56.5374L124.623 56.6144L124.631 75.2285C122.584 75.225 120.537 75.2087 118.491 75.1792C118.287 69.2181 118.43 62.5974 118.446 56.5874L112.23 56.6054C111.101 56.5958 106.882 56.4738 106.029 56.7884L105.917 56.6989C106.202 55.9866 106.147 51.4221 106.159 50.3896L112.265 50.3912C112.202 48.4493 112.247 46.1908 112.245 44.2283L112.253 37.9899C112.21 35.9072 112.208 33.8237 112.249 31.741Z" fill="#007F82"/>
<path d="M112.255 81.3684C114.329 81.4117 116.403 81.4285 118.477 81.4189L118.45 87.5687C118.414 91.7009 118.405 95.8332 118.422 99.9655L112.265 99.979C112.2 102.037 112.181 104.097 112.212 106.156C110.338 106.168 107.923 106.119 106.09 106.21C106.07 104.138 106.059 102.065 106.062 99.9931V93.8318L106.08 81.3891C108.162 81.4126 110.173 81.4438 112.255 81.3684Z" fill="#828181"/>
<path d="M106.062 93.8318C108.138 93.8251 110.216 93.8067 112.292 93.7766C112.275 95.7906 112.218 97.9809 112.265 99.979C112.2 102.037 112.181 104.097 112.212 106.156C110.338 106.168 107.923 106.119 106.09 106.21C106.07 104.138 106.059 102.065 106.062 99.9931V93.8318Z" fill="#800080"/>
<path d="M56.5115 118.581L75.117 118.615C75.1047 120.6 75.0455 122.816 75.1047 124.779C68.9032 124.746 62.7022 124.748 56.5013 124.789C56.439 122.757 56.4923 120.621 56.5115 118.581Z" fill="#007F82"/>
<path d="M50.3157 118.601C52.325 118.599 54.5174 118.636 56.5115 118.581C56.4924 120.621 56.4391 122.757 56.5013 124.789L44.1648 124.769L44.1509 118.597L50.3157 118.601Z" fill="#800080"/>
<path d="M118.477 44.177L124.638 44.2087C124.593 48.3439 124.587 52.4793 124.623 56.6144L118.481 56.5374L118.477 44.177Z" fill="#800080"/>
<path d="M124.654 38.0442L130.798 37.999L130.805 44.1215C129.08 44.2247 126.457 44.1673 124.666 44.1777L124.654 38.0442Z" fill="#838100"/>
<path d="M13.182 62.6926C14.0275 62.712 18.7918 62.6294 19.2984 62.7927L19.3407 68.9777C19.3317 71.0087 19.2842 73.1589 19.3768 75.1785C21.4463 75.2218 23.5162 75.2222 25.5857 75.1801C25.5635 77.2086 25.5002 79.3623 25.5927 81.379C27.652 81.4084 29.7117 81.4019 31.771 81.3596C31.7508 83.4304 31.6973 85.5906 31.7465 87.6541C37.8978 87.6341 44.1808 87.6836 50.3201 87.5893C50.3083 89.6784 50.3073 91.7672 50.3175 93.8563C50.3136 95.4016 50.3851 98.5727 50.2548 99.9845L50.2885 106.287L50.3156 118.601L44.1508 118.597C40.0194 118.564 35.8877 118.56 31.7563 118.585C29.8372 118.65 27.4489 118.581 25.4957 118.574L25.5737 112.423L19.3362 112.458C19.3187 110.362 19.3238 108.265 19.3521 106.169L19.3509 99.9906L19.3493 93.8005C19.2844 91.8278 19.3446 89.7344 19.3685 87.7519C20.7313 87.722 24.5667 87.5352 25.5715 87.9665L25.569 87.5121C25.5811 85.477 25.5747 83.4421 25.5504 81.4072L19.3434 81.405L19.3713 75.2175H13.5431L13.3906 75.1584C12.9707 74.5686 13.1763 64.181 13.182 62.6926Z" fill="#828181"/>
<path d="M13.182 62.6926C14.0275 62.712 18.7918 62.6294 19.2984 62.7927L19.3407 68.9777C19.3317 71.0087 19.2842 73.1589 19.3768 75.1785C21.4463 75.2218 23.5162 75.2222 25.5857 75.1801C25.5635 77.2086 25.5002 79.3623 25.5927 81.379C27.652 81.4084 29.7117 81.4019 31.771 81.3596C31.7508 83.4304 31.6973 85.5906 31.7465 87.6541C37.8978 87.6341 44.1808 87.6836 50.3201 87.5893C50.3083 89.6784 50.3073 91.7672 50.3175 93.8563C50.3136 95.4016 50.3851 98.5727 50.2548 99.9845L44.2147 99.9965L37.9401 99.9896C35.9045 100.025 33.7878 99.9992 31.7455 100.001C31.732 97.9391 31.7391 95.8777 31.7671 93.8162L25.5561 93.8001L25.5715 87.9665L25.569 87.5121C25.5811 85.477 25.5747 83.4421 25.5504 81.4072L19.3434 81.405L19.3713 75.2175H13.5431L13.3906 75.1584C12.9707 74.5686 13.1763 64.181 13.182 62.6926Z" fill="#FE01FE"/>
<path d="M31.7466 87.6542C37.8979 87.6341 44.181 87.6836 50.3203 87.5894C50.3084 89.6784 50.3074 91.7673 50.3176 93.8563C50.3137 95.4016 50.3852 98.5727 50.2549 99.9845L44.2148 99.9965L37.9402 99.9896C37.8812 97.9784 37.9402 95.8166 37.9586 93.7942L31.7533 93.7864C31.7307 91.7552 31.7484 89.6884 31.7466 87.6542Z" fill="#008100"/>
<path d="M19.3684 87.7518C20.7312 87.722 24.5667 87.5351 25.5714 87.9665L25.5561 93.8L31.7671 93.8162C31.7391 95.8777 31.732 97.9391 31.7454 100.001C33.7878 99.9991 35.9044 100.024 37.9401 99.9895C37.9254 101.829 37.856 103.965 37.9423 105.781C37.5545 106.233 37.749 106.19 37.1382 106.216C35.3727 106.291 33.5206 106.229 31.7489 106.202L31.713 100.048C29.7427 99.9846 27.543 100.016 25.5571 100.007C25.5614 97.9573 25.5296 95.9079 25.4616 93.8593L19.3493 93.8005C19.2843 91.8277 19.3446 89.7344 19.3684 87.7518Z" fill="#008100"/>
<path d="M19.3523 106.169C21.432 106.155 23.5117 106.155 25.5914 106.169L25.5744 112.352L31.7689 112.374L31.7564 118.585C29.8374 118.65 27.449 118.581 25.4959 118.574L25.5738 112.423L19.3363 112.458C19.3188 110.362 19.3239 108.265 19.3523 106.169Z" fill="black"/>
<path d="M37.9402 99.9895L44.2148 99.9965C44.1869 101.791 44.2312 104.575 44.1077 106.29L38.0041 106.179L37.9424 105.781C37.8561 103.965 37.9255 101.829 37.9402 99.9895Z" fill="#FE01FE"/>
<path d="M38.0039 106.179L44.1075 106.29C44.1882 108.286 44.1531 110.422 44.1555 112.429H37.9098C37.8872 111.066 37.7753 107.419 38.0039 106.179Z" fill="#C2C1C2"/>
<path d="M25.5571 100.007C27.543 100.016 29.7427 99.9848 31.713 100.049L31.7489 106.202L25.5141 106.216C25.511 104.146 25.5253 102.076 25.5571 100.007Z" fill="#C2C1C2"/>
<path d="M50.3327 31.7442C54.3247 32.0179 58.6863 31.807 62.7009 31.8229C64.7717 31.799 66.8436 31.7898 68.9156 31.7953L68.9319 38.0067C70.9793 37.9713 73.0288 37.9568 75.0763 37.9627C75.0702 39.998 75.1049 42.2083 75.0518 44.2287C75.0314 46.2611 75.0396 48.2937 75.0783 50.3259C76.4154 50.3272 80.1857 50.2229 81.2289 50.496C79.8346 50.3746 76.6502 50.458 75.0763 50.4194C75.0702 51.8573 74.9804 55.3236 75.1641 56.625L75.0702 56.652C73.0227 56.6453 70.9753 56.6174 68.9278 56.5686L68.9156 50.3605C66.9008 50.4002 64.7614 50.3601 62.7354 50.3523C62.6448 52.2177 62.7199 54.6991 62.7295 56.6076C64.7757 56.6203 66.8763 56.5835 68.9278 56.5686C68.9176 58.5826 68.8666 60.8103 68.9196 62.8047C66.9089 62.799 64.7594 62.8288 62.7599 62.7787L62.7156 56.6011C60.6665 56.6285 58.5605 56.5894 56.5067 56.5764C56.4665 58.5998 56.5039 60.7573 56.5059 62.7926L50.3164 62.7779C50.3127 64.7952 50.3454 66.9683 50.2972 68.9743C48.2495 68.987 46.2017 68.9778 44.154 68.9467L44.171 62.757C42.1204 62.8061 39.9991 62.7732 37.9429 62.7689C37.9231 60.9932 37.9278 59.2174 37.9567 57.4417L38.0025 56.6522C39.7419 56.5447 42.3842 56.5978 44.1895 56.5843C44.1311 54.566 44.1544 52.4033 44.1438 50.3726C42.1074 50.4024 39.9952 50.3648 37.9522 50.3544L37.8992 44.1831L44.1761 44.1753C44.1316 46.2435 44.1248 48.3121 44.1554 50.3803C46.2254 50.3865 48.2953 50.3809 50.3652 50.364C50.3405 48.3058 50.3292 46.2474 50.3315 44.189C52.3883 44.2123 54.5021 44.1823 56.5639 44.1765C56.4794 42.1633 56.5257 39.9992 56.5324 37.9735L50.3705 37.968L50.3466 31.8756C48.3855 31.8758 46.4819 31.8906 44.521 31.7763C46.1112 31.6647 48.6705 31.7452 50.3327 31.7442Z" fill="#FEFEFE"/>
<path d="M50.3327 31.7442C54.3247 32.0179 58.6862 31.807 62.7009 31.8229C62.6793 33.8694 62.6731 35.9162 62.6823 37.9627L56.5324 37.9735L50.3704 37.968L50.3465 31.8756C48.3854 31.8758 46.4819 31.8906 44.521 31.7763C46.1112 31.6647 48.6704 31.7452 50.3327 31.7442Z" fill="#828181"/>
<path d="M68.9542 44.2131L75.0517 44.2287C75.0313 46.2611 75.0394 48.2937 75.0782 50.326C76.4153 50.3272 80.1856 50.2229 81.2287 50.496C79.8345 50.3746 76.65 50.458 75.0762 50.4194C73.1492 50.3164 70.8915 50.3683 68.9399 50.3654L68.9542 44.2131Z" fill="#828181"/>
<path d="M62.7758 38.031L68.889 38.0212L68.8768 44.1653L62.7556 44.1903L62.7758 38.031Z" fill="#828181"/>
<path d="M44.188 56.6265L50.3122 56.6252L50.2793 62.7452L44.168 62.7924L44.188 56.6265Z" fill="#828181"/>
<path d="M56.5892 44.2068H62.6991L62.6362 50.3047C60.7768 50.3918 58.4415 50.3515 56.5459 50.3713C56.5302 48.3164 56.5447 46.2613 56.5892 44.2068Z" fill="#828181"/>
<path d="M50.3797 50.4061L56.4894 50.4031L56.4315 56.5496C54.4052 56.5521 52.3788 56.5723 50.3528 56.6104L50.3797 50.4061Z" fill="#828181"/>
<path d="M91.5171 25.5642C92.2071 25.4759 93.091 25.4761 93.8014 25.4526C93.7891 27.4252 93.7259 29.672 93.8136 31.6227C95.8999 31.6534 97.9187 31.6918 100.007 31.6262C99.8662 29.6191 99.9295 27.6004 99.956 25.5878C101.344 25.4792 104.557 25.5784 106.07 25.5841L112.239 25.5955C112.202 27.6439 112.206 29.6927 112.249 31.7411C112.208 33.8238 112.21 35.9073 112.253 37.99L112.245 44.2284C112.247 46.1909 112.202 48.4494 112.265 50.3913L106.16 50.3897C104.01 50.312 102.036 50.3322 99.8886 50.3631C100.009 48.569 99.9233 46.0437 99.9131 44.1959C99.6518 42.8636 99.7804 39.6157 99.8335 38.1291L93.5381 38.1074L93.6075 31.9242L81.2533 31.894C81.2125 33.9252 81.2207 35.9572 81.2737 37.9882L75.0762 37.9627C73.0288 37.9567 70.9793 37.9712 68.9318 38.0066L68.9155 31.7952C71.1753 31.8938 79.5488 31.9525 81.3309 31.7014C81.286 29.7211 81.3227 27.5734 81.3248 25.5818C83.1885 25.5884 85.7157 25.6671 87.5284 25.5863L91.5171 25.5642ZM100.003 37.804C102.073 37.8564 104.145 37.8619 106.215 37.821C106.17 36.6306 106.178 32.7082 106.049 31.7652C104.067 31.7944 102.083 31.7717 100.101 31.6971C99.8396 33.217 99.9539 36.1768 100.003 37.804Z" fill="#828181"/>
<path d="M100.101 31.697C102.083 31.7716 104.067 31.7943 106.049 31.7651C106.178 32.7081 106.17 36.6305 106.215 37.8209C104.145 37.8618 102.073 37.8563 100.003 37.8039C99.954 36.1767 99.8397 33.2169 100.101 31.697Z" fill="#00FE00" fill-opacity="0.988235"/>
<path d="M99.9132 44.1958L106.086 44.2457C108.14 44.2142 110.191 44.2085 112.245 44.2283C112.247 46.1908 112.202 48.4494 112.265 50.3912L106.16 50.3896C104.01 50.3119 102.036 50.3321 99.8887 50.363C100.009 48.5689 99.9234 46.0436 99.9132 44.1958Z" fill="#828181"/>
<path d="M81.3247 25.5818C83.1884 25.5883 85.7156 25.667 87.5283 25.5863L91.5171 25.5642C92.4846 25.6153 92.7071 25.4561 93.3542 25.9825C93.9319 27.4439 93.5176 29.7634 93.5604 31.6752L81.3308 31.7014C81.2859 29.7211 81.3226 27.5733 81.3247 25.5818Z" fill="#FE01FE"/>
<path d="M106.131 38.0562C108.291 37.9423 110.095 37.956 112.253 37.9901L112.245 44.2285C110.191 44.2086 108.14 44.2144 106.086 44.2459C106.064 42.1826 106.078 40.119 106.131 38.0562Z" fill="#C2C1C2"/>
<path d="M99.956 25.5877C101.344 25.4791 104.557 25.5783 106.07 25.584C106.076 26.6693 106.164 30.9257 106.049 31.7651C104.067 31.7943 102.083 31.7716 100.101 31.697L100.007 31.6261C99.8662 29.619 99.9295 27.6003 99.956 25.5877Z" fill="#C2C1C2"/>
<path d="M100.007 38.0786C102.048 38.0823 104.09 38.0748 106.131 38.0562C106.078 40.119 106.064 42.1825 106.086 44.2458L99.9131 44.196C100.066 42.9101 100.001 39.5423 100.007 38.0786Z" fill="#FE01FE"/>
<path d="M93.8401 31.8787L99.7641 31.8701C99.7355 33.8686 99.7335 35.8673 99.758 37.866C97.7819 37.9128 95.7467 37.8936 93.7667 37.8995C93.7564 35.8923 93.7809 33.885 93.8401 31.8787Z" fill="#FE01FE"/>
<path d="M50.265 13.1553L56.5535 13.1909C56.5245 15.2423 56.5202 17.2942 56.5404 19.3458C62.7322 19.4386 68.9258 19.457 75.1171 19.4014C75.0947 21.4645 75.0845 23.5276 75.0865 25.5909C77.0564 25.5927 79.3794 25.6473 81.3248 25.5819C81.3228 27.5734 81.286 29.7212 81.3309 31.7015C79.5489 31.9525 71.1753 31.8938 68.9156 31.7953C66.8436 31.7898 64.7717 31.799 62.7009 31.8229C58.6863 31.807 54.3247 32.0179 50.3327 31.7442C50.2743 29.7314 50.3178 27.5796 50.3237 25.5557L56.4933 25.6209C56.4394 23.6284 56.4849 21.3927 56.4873 19.3812L50.3293 19.3908L50.3237 25.5557L44.1824 25.631C42.968 25.6148 38.5512 25.9086 37.9237 25.226C37.8741 23.3033 37.9284 21.2629 37.9472 19.3313C38.8898 19.2313 42.9796 19.3795 44.1426 19.4022C44.0999 17.305 44.0785 15.2075 44.0783 13.1101L50.265 13.1553Z" fill="#00FEFE" fill-opacity="0.988235"/>
<path d="M68.9277 56.5686C70.9752 56.6175 73.0226 56.6453 75.0701 56.652C75.2905 62.4952 75.1232 69.2434 75.115 75.153L75.0925 81.3621C73.0737 81.3793 70.9078 81.4341 68.9012 81.3981C68.9032 83.3972 68.9481 85.5809 68.8991 87.5647C66.8517 87.5999 64.8042 87.599 62.7562 87.5618C62.6617 85.5186 62.726 83.4271 62.7576 81.3785C60.6861 81.4047 58.6141 81.403 56.5426 81.3734C56.4464 79.3485 56.5134 77.2147 56.5407 75.1798C54.4767 75.2211 52.4121 75.2207 50.3482 75.1784C50.2834 73.151 50.3073 71.0113 50.2971 68.9744C50.3453 66.9683 50.3126 64.7952 50.3163 62.7779L56.5058 62.7926L56.523 69.0112L62.7413 68.985C62.7311 66.9505 62.6847 64.803 62.7599 62.7787C64.7593 62.8288 66.9088 62.799 68.9196 62.8047C68.8665 60.8103 68.9175 58.5826 68.9277 56.5686Z" fill="#00FEFE" fill-opacity="0.988235"/>
<path d="M43.9813 6.90175C46.2478 6.97616 48.6682 6.74434 50.8959 6.90809L50.4537 7.09494C50.1536 8.29575 50.3055 11.7357 50.2649 13.1552L44.0782 13.11C44.0784 15.2075 44.0999 17.3049 44.1425 19.4022C42.9796 19.3795 38.8898 19.2313 37.9471 19.3312C37.9283 21.2629 37.874 23.3033 37.9236 25.2259L37.8048 25.5544C35.9166 25.6616 33.6062 25.5876 31.687 25.5759C29.6195 25.5671 27.5522 25.5465 25.485 25.5144C25.5205 26.8548 25.6861 30.6339 25.436 31.7672L25.4425 31.9711L25.4946 37.8962C23.5855 37.885 21.2858 37.9254 19.4096 37.8406L19.4304 38.0573C19.1861 38.9347 19.2865 43.0595 19.2753 44.2147C17.2258 44.2031 15.1767 44.1714 13.1278 44.1194C13.129 46.0403 13.0508 48.651 13.1354 50.5166C12.4703 50.1517 7.94424 50.3339 6.8954 50.3496C6.77129 48.3446 7.01197 46.406 6.82642 44.1182C9.02432 44.1348 10.7839 44.1472 12.9835 43.9692C13.1968 41.4743 13.2378 34.1736 12.9998 31.6912C15.0081 31.7554 17.2362 31.6716 19.2606 31.6376C19.3004 29.5298 19.3261 27.6406 19.2461 25.5271C21.4027 25.5332 23.2785 25.5354 25.4374 25.3905C25.4913 23.3266 25.5746 21.3882 25.4288 19.3243L31.6484 19.2337C31.7029 17.2812 31.7837 15.0388 31.6027 13.116C35.4216 13.1736 40.2471 13.2137 44.0154 13.0176C44.057 11.1005 44.2009 8.76778 43.9813 6.90175Z" fill="#007F82"/>
<path d="M31.7338 19.2781C33.8241 19.3515 35.8575 19.339 37.9472 19.3312C37.9284 21.2629 37.8741 23.3033 37.9237 25.2259L37.8049 25.5545C35.9167 25.6616 33.6063 25.5876 31.687 25.5759C31.7389 23.5171 31.7199 21.3463 31.7338 19.2781Z" fill="#FE01FE"/>
<path d="M19.3238 31.6895C21.3384 31.7714 23.3748 31.6835 25.436 31.7671L25.4425 31.971L25.4946 37.8961C23.5855 37.8849 21.2857 37.9253 19.4096 37.8405C19.2095 36.8312 19.312 32.9072 19.3238 31.6895Z" fill="#FE01FE"/>
<path d="M37.9546 68.9648L44.1848 68.9969L44.1337 75.2112L50.3465 75.2185L50.3208 81.406L56.5336 81.4054L56.5069 87.594L62.7429 87.6059C62.7427 89.5954 62.7101 91.7033 62.7488 93.6825C61.57 94.0192 52.2133 93.8686 50.3175 93.8563C50.3073 91.7672 50.3084 89.6784 50.3202 87.5893C44.1809 87.6836 37.8979 87.6341 31.7465 87.6541C31.6973 85.5906 31.7508 83.4304 31.771 81.3596L37.9385 81.4027C37.8181 78.9982 37.7236 71.1255 37.9546 68.9648Z" fill="#00FEFE" fill-opacity="0.988235"/>
<path d="M55.9071 6.91509C59.1163 6.6567 64.2551 7.10583 67.6907 6.92327C68.6644 6.87155 75.0824 6.84334 75.5866 6.91469L75.1661 7.17268C74.9538 8.51128 75.062 11.5945 75.0517 13.1197C75.0599 15.0792 75.0089 17.4358 75.1211 19.3634C77.1911 19.4051 79.263 19.4071 81.3329 19.3695C81.3064 21.4289 81.2513 23.5264 81.3247 25.5817C79.3794 25.6471 77.0563 25.5925 75.0865 25.5907C75.0844 23.5274 75.0946 21.4643 75.1171 19.4012C68.9257 19.4568 62.7321 19.4384 56.5403 19.3456C56.5201 17.2939 56.5244 15.2421 56.5534 13.1906L50.2649 13.1551C50.3055 11.7355 50.1536 8.2956 50.4537 7.09479L50.8959 6.90794C52.5659 6.95864 54.2369 6.96109 55.9071 6.91509Z" fill="#FE01FE"/>
<path d="M55.907 6.91509C59.1162 6.6567 64.255 7.10583 67.6906 6.92327C68.6643 6.87155 75.0822 6.84334 75.5864 6.91469L75.1659 7.17268C74.9536 8.51128 75.0618 11.5945 75.0516 13.1197C68.8847 13.1696 62.7167 13.168 56.5494 13.1146C56.4579 11.6728 56.7382 8.05458 56.4063 7.06739L55.907 6.91509Z" fill="#007F82"/>
<path d="M37.9575 31.7231C39.9326 31.734 42.085 31.7832 44.0478 31.746L44.5209 31.7763C46.4819 31.8906 48.3854 31.8759 50.3465 31.8757L50.3704 37.968L56.5323 37.9736C56.5256 39.9992 56.4793 42.1633 56.5638 44.1765C54.502 44.1823 52.3882 44.2123 50.3314 44.189L50.3418 37.9766L44.1219 38.005L44.176 44.1753L37.8991 44.1831L37.9521 50.3544C39.9951 50.3648 42.1073 50.4024 44.1437 50.3726C44.1543 52.4034 44.131 54.566 44.1894 56.5843C42.3841 56.5978 39.7418 56.5447 38.0024 56.6522C37.7862 55.8445 37.8856 51.474 37.8923 50.401C35.9372 50.4161 33.6809 50.4924 31.7577 50.3186L31.7055 44.2297C31.722 43.2102 31.6295 38.7434 31.851 38.1124L33.1115 38.0032L37.9079 38.0359C37.8587 35.974 37.9266 33.7938 37.9575 31.7231Z" fill="#00FEFE" fill-opacity="0.988235"/>
<path d="M25.6633 50.3369C27.3054 50.3547 29.1559 50.4177 30.7812 50.3682L31.4883 50.5123C32.0731 51.4925 31.7475 55.1747 31.7757 56.553L31.7357 62.7954L37.9597 62.8009L37.9313 65.1447C37.9064 66.4291 37.8919 67.7138 37.8874 68.9982L31.7349 68.9916C31.7992 72.7012 31.9249 77.677 31.771 81.3596C29.7117 81.4019 27.652 81.4084 25.5927 81.379C25.5002 79.3623 25.5635 77.2087 25.5858 75.1801C23.5163 75.2222 21.4464 75.2218 19.3769 75.1785C19.2842 73.1589 19.3317 71.0087 19.3407 68.9777C21.3449 68.9358 23.5777 69.0035 25.6007 69.0262C25.5164 66.2116 25.8281 59.0405 25.4743 56.7122L25.4857 56.4886C25.6933 55.3992 25.5282 51.9118 25.6633 50.3369Z" fill="#00FEFE" fill-opacity="0.988235"/>
<path d="M31.7756 56.553C32.913 56.5553 37.2094 56.3036 37.8751 56.8754L37.9566 57.4417C37.9276 59.2173 37.9229 60.9932 37.9427 62.7689C39.9989 62.7732 42.1203 62.8061 44.1708 62.757L44.1538 68.9467C46.2015 68.9778 48.2494 68.987 50.297 68.9743C50.3072 71.0112 50.2833 73.151 50.348 75.1783C52.412 75.2206 54.4766 75.221 56.5406 75.1797C56.5133 77.2146 56.4463 79.3484 56.5425 81.3733C58.614 81.4029 60.686 81.4046 62.7575 81.3784C62.7259 83.427 62.6616 85.5185 62.7561 87.5618C64.8041 87.599 66.8516 87.5998 68.899 87.5646C68.895 89.6065 68.8541 91.7528 68.9256 93.7854C71.0098 93.8175 73.096 93.8332 75.1823 93.8322C75.1251 95.7455 75.0067 98.1307 75.1414 100.013L68.9052 100.012L68.9256 93.8232C67.1292 93.8441 65.3349 93.8306 63.5391 93.7827L62.7487 93.6826C62.7099 91.7033 62.7426 89.5954 62.7428 87.6059L56.5067 87.5941L56.5335 81.4054L50.3207 81.406L50.3464 75.2186L44.1336 75.2112L44.1846 68.997L37.9545 68.9649C38.0282 67.6823 37.9694 66.4283 37.9312 65.1447L37.9596 62.801L31.7356 62.7954L31.7756 56.553Z" fill="#FE01FE"/>
<path d="M81.2534 31.894L93.6075 31.9243L93.5381 38.1075L99.8336 38.1291C99.7805 39.6157 99.6519 42.8637 99.9132 44.196C99.9234 46.0438 100.009 48.5691 99.8887 50.3632C98.0351 50.3949 95.4039 50.5097 93.6136 50.4402C91.5682 50.4615 89.5228 50.4691 87.4774 50.4631L87.5141 44.217C85.4953 44.1504 83.3294 44.2017 81.2983 44.2133C81.3309 42.1384 81.3228 40.063 81.2738 37.9883C81.2207 35.9573 81.2125 33.9252 81.2534 31.894Z" fill="#00FE00" fill-opacity="0.988235"/>
<path d="M63.5393 93.7827C65.335 93.8306 67.1293 93.844 68.9257 93.8232L68.9053 100.012L75.1416 100.013C75.162 102.092 75.1579 104.172 75.1293 106.252L68.9522 106.224L56.4726 106.248L50.2886 106.287L50.2549 99.9845C54.309 99.9156 58.6399 99.9969 62.7127 100.012C62.6639 98.7749 62.3914 94.7302 62.9169 93.9039L63.5393 93.7827Z" fill="#00FEFE" fill-opacity="0.988235"/>
<path d="M25.4425 31.9709C25.6742 32.8668 25.6093 36.8178 25.6428 38.0143C26.7761 38.0143 30.8094 38.078 31.7543 37.9533C31.9795 37.9591 32.9526 37.9681 33.1116 38.003L31.8511 38.1122C31.6296 38.7433 31.722 43.21 31.7055 44.2295L31.7578 50.3184L30.7812 50.3681C29.1559 50.4176 27.3054 50.3546 25.6634 50.3368C25.5282 51.9117 25.6934 55.3991 25.4858 56.4885L25.4744 56.7121L19.2697 56.6874C19.2728 58.3302 19.1905 61.2601 19.2985 62.7927C18.7918 62.6293 14.0276 62.7119 13.1821 62.6925C13.1853 61.5093 13.3515 57.3358 12.9338 56.5846L13.0886 56.4505C14.0027 56.799 18.0298 56.6453 19.2183 56.633C19.3195 54.7656 19.2554 52.1595 19.2636 50.2369C21.2731 50.2966 23.4147 50.2548 25.435 50.2503C25.419 46.2621 25.5848 42.1644 25.6103 38.1408L19.4304 38.0572L19.4096 37.8405C21.2857 37.9253 23.5855 37.8849 25.4946 37.8961L25.4425 31.9709Z" fill="#828181"/>
<path d="M25.7015 44.0588C27.2209 44.1496 30.5529 43.9311 31.7055 44.2295L31.7577 50.3184L30.7812 50.3681C29.1559 50.4176 27.3054 50.3546 25.6633 50.3368L25.7015 44.0588Z" fill="#FE01FE"/>
<path d="M19.4669 50.4851C21.4674 50.4986 23.4681 50.4886 25.4686 50.4548C25.4647 52.1577 25.3843 54.8668 25.4857 56.4886L19.4718 56.4728C19.4626 54.5125 19.4168 52.4351 19.4669 50.4851Z" fill="#FE01FE"/>
<path d="M75.0925 81.3621L81.3002 81.4222C81.4104 85.4835 81.3451 89.7287 81.341 93.804C83.4007 93.7715 85.4604 93.7762 87.5181 93.8179L87.5426 100.034C85.4584 100.049 83.3742 100.047 81.29 100.028C81.2451 97.856 81.2287 95.9998 81.3145 93.823L75.1823 93.8322C73.0961 93.8332 71.0098 93.8175 68.9256 93.7854C68.8542 91.7528 68.895 89.6065 68.8991 87.5646L75.0659 87.6278C75.0129 85.5976 75.0741 83.4049 75.0925 81.3621Z" fill="#00FEFE" fill-opacity="0.988235"/>
<path d="M6.89533 50.3496C7.94416 50.3338 12.4702 50.1517 13.1353 50.5166C13.1443 52.2042 13.2365 54.8409 13.0885 56.4505L12.9338 56.5846C13.3514 57.3359 13.1853 61.5093 13.182 62.6926C13.1763 64.181 12.9707 74.5687 13.3906 75.1584L13.5431 75.2175L13.1183 75.2247C11.9793 75.1214 8.25527 75.0572 7.17398 75.2057C6.86676 75.7151 6.92044 76.1033 6.90268 76.7031C6.71835 69.6086 6.76652 60.293 6.90676 53.1646L6.89533 50.3496Z" fill="#007F82"/>
<path d="M6.89526 50.3496C7.9441 50.3338 12.4701 50.1517 13.1352 50.5166C13.1442 52.2042 13.2365 54.8409 13.0885 56.4505L12.9337 56.5846C10.9885 56.6826 8.90516 56.6184 6.94773 56.5957C6.98223 55.3836 6.95386 54.3766 6.9067 53.1646L6.89526 50.3496Z" fill="#FE01FE"/>
<path d="M19.4304 38.0574L25.6103 38.141C25.5848 42.1646 25.4191 46.2623 25.435 50.2505C23.4147 50.255 21.2731 50.2967 19.2636 50.237C19.2555 52.1597 19.3196 54.7657 19.2183 56.6332C18.0299 56.6455 14.0027 56.7992 13.0886 56.4506C13.2366 54.841 13.1444 52.2043 13.1354 50.5167C13.0509 48.6511 13.129 46.0403 13.1278 44.1195C15.1767 44.1714 17.2258 44.2031 19.2753 44.2148C19.2865 43.0596 19.1861 38.9348 19.4304 38.0574Z" fill="#00FE00" fill-opacity="0.988235"/>
<path d="M87.5386 13.1761C87.5366 15.2028 87.5651 17.3195 87.5059 19.3378C87.4896 21.0856 87.3794 23.9268 87.5284 25.5863C85.7157 25.6671 83.1885 25.5884 81.3248 25.5818C81.2513 23.5265 81.3064 21.4291 81.333 19.3697C79.2631 19.4073 77.1911 19.4052 75.1212 19.3635C75.0089 17.436 75.06 15.0793 75.0518 13.1199C79.2141 13.1951 83.3763 13.2139 87.5386 13.1761Z" fill="#00FEFE" fill-opacity="0.988235"/>
<path d="M75.0761 37.9626L81.2736 37.9882C81.3226 40.0629 81.3307 42.1383 81.2981 44.2133C83.3292 44.2016 85.4951 44.1503 87.514 44.2169L87.4772 50.4631C86.2871 50.4369 82.2779 50.2803 81.3246 50.5131L81.2287 50.496C80.1856 50.2228 76.4152 50.3271 75.0782 50.3259C75.0394 48.2937 75.0312 46.261 75.0516 44.2286C75.1047 42.2082 75.07 39.9979 75.0761 37.9626Z" fill="#00FEFE" fill-opacity="0.988235"/>
<path d="M25.485 25.5144C27.5523 25.5465 29.6195 25.5671 31.687 25.5759C33.6062 25.5876 35.9166 25.6616 37.8049 25.5545C38.1053 26.9462 37.9851 30.1764 37.9576 31.7231C35.9536 31.7517 33.7332 31.8313 31.7464 31.7781L31.7544 37.9535C30.8094 38.0782 26.7762 38.0144 25.6428 38.0144C25.6093 36.8179 25.6743 32.8669 25.4426 31.9711L25.436 31.7673C25.6861 30.6339 25.5205 26.8548 25.485 25.5144Z" fill="#00FEFE" fill-opacity="0.988235"/>
<path d="M13.5431 75.2175H19.3713L19.3433 81.405L25.5504 81.4072C25.5747 83.4421 25.581 85.477 25.569 87.5121C23.4354 87.5777 14.911 87.8443 13.0752 87.6029C13.3406 85.3443 13.1305 77.8083 13.1183 75.2247L13.5431 75.2175Z" fill="#00FEFE" fill-opacity="0.988235"/>
<path d="M6.9028 76.7032C6.92056 76.1034 6.86688 75.7152 7.1741 75.2058C8.25539 75.0573 11.9794 75.1215 13.1185 75.2248C13.1307 77.8083 13.3408 85.3444 13.0754 87.6029L12.9227 87.7143C10.8389 87.6874 8.94761 87.663 6.86157 87.7593C7.0704 84.6837 6.90954 79.9027 6.9028 76.7032Z" fill="#FE01FE"/>
<path d="M13.0753 87.6027C14.9111 87.8442 23.4355 87.5776 25.5691 87.512L25.5715 87.9664C24.5668 87.5351 20.7313 87.7219 19.3685 87.7518C19.3446 89.7343 19.2844 91.8277 19.3493 93.8004L19.351 99.9905L13.1002 99.9889C13.171 98.6969 13.2335 88.4452 12.9226 87.7141L13.0753 87.6027Z" fill="#007F82"/>
<path d="M75.5864 6.91479C79.6119 7.03663 83.6232 6.88617 87.6405 6.96897C87.4057 8.55942 87.4792 11.5197 87.5384 13.176C83.3762 13.2138 79.2139 13.195 75.0516 13.1198C75.0618 11.5946 74.9536 8.51138 75.1659 7.17278L75.5864 6.91479Z" fill="#FE01FE"/>
<path d="M25.4744 56.7122C25.8282 59.0405 25.5165 66.2116 25.6008 69.0262C23.5778 69.0035 21.345 68.9358 19.3408 68.9778L19.2986 62.7928C19.1906 61.2602 19.2729 58.3303 19.2698 56.6875L25.4744 56.7122Z" fill="#00FE00" fill-opacity="0.988235"/>
<path d="M37.9313 65.1448C37.9695 66.4284 38.0283 67.6823 37.9546 68.9649C37.7235 71.1255 37.818 78.9983 37.9385 81.4028L31.771 81.3597C31.9249 77.6771 31.7992 72.7013 31.7349 68.9917L37.8874 68.9983C37.8919 67.7138 37.9064 66.4292 37.9313 65.1448Z" fill="#828181"/>
<path d="M62.7489 93.6826L63.5393 93.7828L62.9169 93.904C62.3914 94.7303 62.6639 98.7749 62.7127 100.012C58.6399 99.997 54.309 99.9157 50.2549 99.9845C50.3851 98.5728 50.3137 95.4017 50.3176 93.8564C52.2133 93.8687 61.57 94.0193 62.7489 93.6826Z" fill="#828181"/>
<path d="M37.9235 25.2258C38.551 25.9084 42.9678 25.6147 44.1822 25.6308L50.3235 25.5556C50.3176 27.5794 50.2741 29.7312 50.3325 31.744C48.6703 31.7451 46.1111 31.6645 44.5209 31.7761L44.0477 31.7459C42.085 31.7831 39.9326 31.7338 37.9574 31.723C37.9849 30.1763 38.1052 26.9461 37.8047 25.5543L37.9235 25.2258Z" fill="#FE01FE"/>
<path d="M37.9235 25.2258C38.551 25.9084 42.9678 25.6147 44.1822 25.6308C43.9587 27.6316 44.19 29.7455 44.0477 31.7459C42.085 31.7831 39.9326 31.7338 37.9574 31.723C37.9849 30.1763 38.1052 26.9461 37.8047 25.5543L37.9235 25.2258Z" fill="#828181"/>
<path d="M99.8885 50.3631C102.036 50.3323 104.01 50.312 106.159 50.3897C106.147 51.4223 106.202 55.9868 105.917 56.699C104.243 56.5487 101.601 56.6467 99.8518 56.6602C99.7905 54.4423 99.8171 52.5773 99.8885 50.3631Z" fill="#00FEFE" fill-opacity="0.988235"/>
<path d="M62.7354 50.3523C64.7614 50.3601 66.9008 50.4001 68.9156 50.3605L68.9278 56.5686C66.8763 56.5835 64.7757 56.6203 62.7295 56.6076C62.7199 54.6991 62.6448 52.2177 62.7354 50.3523Z" fill="#00FEFE" fill-opacity="0.988235"/>
<path d="M56.5059 62.7925L62.7599 62.7786C62.6848 64.8028 62.7311 66.9503 62.7413 68.9848L56.523 69.011L56.5059 62.7925Z" fill="#FEFEFE"/>
<path d="M56.5066 56.5762C58.5604 56.5893 60.6664 56.6283 62.7155 56.6009L62.7598 62.7785L56.5058 62.7924C56.5037 60.7571 56.4664 58.5996 56.5066 56.5762Z" fill="#00FEFE" fill-opacity="0.988235"/>
<path d="M87.506 19.3378C88.9145 19.3581 92.5215 19.2861 93.7586 19.4073C93.7545 21.4054 93.7239 23.4608 93.8014 25.4527C93.091 25.4762 92.2072 25.476 91.5172 25.5643L87.5284 25.5864C87.3794 23.9269 87.4896 21.0857 87.506 19.3378Z" fill="#00FE00" fill-opacity="0.988235"/>
<path d="M44.1218 38.005L50.3418 37.9766L50.3314 44.1889C48.2796 44.1963 46.2277 44.1916 44.1759 44.1752L44.1218 38.005Z" fill="#FEFEFE"/>
<path d="M44.1759 44.1753C46.2276 44.1916 48.2796 44.1964 50.3313 44.189C50.3291 46.2474 50.3403 48.3058 50.365 50.364C48.2951 50.3809 46.2252 50.3865 44.1553 50.3803C44.1246 48.3121 44.1314 46.2435 44.1759 44.1753Z" fill="#00FEFE" fill-opacity="0.988235"/>
<path d="M31.7578 50.3186C33.681 50.4924 35.9372 50.4161 37.8924 50.401C37.8857 51.474 37.7863 55.8445 38.0025 56.6522L37.9567 57.4417L37.8753 56.8754C37.2096 56.3037 32.9132 56.5553 31.7758 56.5531C31.7476 55.1748 32.0732 51.4926 31.4884 50.5124L30.7812 50.3683L31.7578 50.3186Z" fill="#C2C1C2"/>
<path d="M75.0926 81.3621C75.0742 83.4049 75.0129 85.5976 75.066 87.6278L68.8992 87.5646C68.9482 85.5809 68.9033 83.3972 68.9012 81.398C70.9078 81.434 73.0737 81.3792 75.0926 81.3621Z" fill="#FE01FE"/>
<path d="M37.9575 31.7231C37.9267 33.7938 37.8587 35.974 37.9079 38.0359L33.1116 38.0032C32.9526 37.9682 31.9795 37.9592 31.7543 37.9535L31.7463 31.7781C33.7332 31.8313 35.9535 31.7518 37.9575 31.7231Z" fill="#FE01FE"/>
<path d="M50.3292 19.3907L56.4873 19.3811C56.4849 21.3927 56.4394 23.6283 56.4932 25.6209L50.3237 25.5557L50.3292 19.3907Z" fill="#FE01FE"/>
<path d="M93.8013 25.4526C95.761 25.6231 97.9718 25.58 99.9559 25.5878C99.9294 27.6004 99.8661 29.6191 100.007 31.6262C97.9187 31.6918 95.8998 31.6534 93.8136 31.6227C93.7258 29.672 93.7891 27.4252 93.8013 25.4526Z" fill="#00FE00" fill-opacity="0.988235"/>
</g>
<defs>
<clipPath id="clip0_1_8740">
<rect width="144" height="200" fill="white"/>
</clipPath>
</defs>
</svg>
