<svg width="540" height="500" viewBox="0 0 540 500" fill="none" xmlns="http://www.w3.org/2000/svg">
<path d="M254 122C264.56 122 275.12 122 286 122C286 127.28 286 132.56 286 138C291.28 138 296.56 138 302 138C302 143.28 302 148.56 302 154C307.28 154 312.56 154 318 154C318 175.12 318 196.24 318 218C312.72 218 307.44 218 302 218C302 223.28 302 228.56 302 234C296.72 234 291.44 234 286 234C286 239.28 286 244.56 286 250C280.72 250 275.44 250 270 250C270 255.28 270 260.56 270 266C264.72 266 259.44 266 254 266C254 271.28 254 276.56 254 282C248.72 282 243.44 282 238 282C238 292.56 238 303.12 238 314C243.28 314 248.56 314 254 314C254 319.28 254 324.56 254 330C259.28 330 264.56 330 270 330C270 335.28 270 340.56 270 346C275.28 346 280.56 346 286 346C286 351.28 286 356.56 286 362C275.44 362 264.88 362 254 362C254 356.72 254 351.44 254 346C248.72 346 243.44 346 238 346C238 340.72 238 335.44 238 330C232.72 330 227.44 330 222 330C222 308.88 222 287.76 222 266C227.28 266 232.56 266 238 266C238 260.72 238 255.44 238 250C243.28 250 248.56 250 254 250C254 244.72 254 239.44 254 234C259.28 234 264.56 234 270 234C270 228.72 270 223.44 270 218C275.28 218 280.56 218 286 218C286 212.72 286 207.44 286 202C291.28 202 296.56 202 302 202C302 191.44 302 180.88 302 170C296.72 170 291.44 170 286 170C286 164.72 286 159.44 286 154C280.72 154 275.44 154 270 154C270 148.72 270 143.44 270 138C264.72 138 259.44 138 254 138C254 132.72 254 127.44 254 122Z" fill="black"/>
</svg>
