<svg width="540" height="500" viewBox="0 0 540 500" fill="none" xmlns="http://www.w3.org/2000/svg">
<path d="M213.952 121.946C234.914 121.868 257.008 121.605 277.901 122.005C277.785 126.686 277.83 133.217 278.133 137.82C288.675 138.113 299.348 137.701 309.892 137.994C309.737 142.832 309.919 149.018 310.09 153.825C315.047 154.062 320.858 153.937 325.902 153.985C325.797 163.223 325.57 176.856 326.124 185.815C331.26 186.003 336.713 185.887 341.913 185.991L341.91 249.959C337.275 249.974 330.509 250.266 326.113 249.974C325.739 254.807 325.894 260.82 325.902 265.752C331.086 266.094 336.95 265.483 342.013 265.833C341.934 270.361 341.794 277.452 342.063 281.896C342 286.2 342.192 293.945 341.905 297.961C347.326 297.795 352.67 297.914 358.062 297.83C357.886 302.679 358.26 309.602 357.875 314.003C363.333 313.737 368.762 314.011 374.096 313.805C373.775 319.182 374.194 324.66 373.899 329.947C379.322 329.784 384.667 329.913 390.056 329.818C389.859 336.485 389.985 343.499 389.956 350.19C389.943 353.067 389.809 359.639 390.149 362.26C386.099 361.69 378.434 362.139 373.949 361.962C374.22 367.281 373.79 372.787 374.075 378.193C369.756 377.848 363.201 378.025 358.693 378.019C353.562 378.012 346.772 377.835 341.762 378.209C342.079 373.265 341.812 367.157 341.849 362.075C337.441 362.002 329.995 361.775 325.797 362.26C325.855 356.875 325.865 351.487 325.834 346.102C321.378 345.939 314.135 345.865 309.781 346.245C309.853 340.86 309.868 335.475 309.829 330.09C305.014 329.95 298.499 329.881 293.755 330.211C294.096 325.425 293.821 319.035 293.848 314.077C289.679 314.003 283.304 313.805 279.283 314.119C277.094 314.523 268.012 313.971 265.147 313.99L213.873 314.011C213.929 308.729 213.897 303.444 213.78 298.159C209.934 297.835 205.129 297.967 201.188 297.975L181.866 297.998C182.018 293.294 181.978 286.856 181.789 282.173C176.975 281.841 170.763 281.962 165.857 282.02C166.084 272.516 166.063 259.651 165.783 250.159C161.471 249.746 154.356 249.971 149.852 249.999C150.131 244.042 149.899 235.898 149.898 229.792L149.946 185.962C155.12 185.809 160.596 185.942 165.836 185.854C166.038 175.258 165.704 164.549 165.947 153.945C171.253 153.972 176.559 153.944 181.864 153.859L181.942 137.955C192.479 137.717 203.237 138.028 213.835 137.859C213.914 132.546 213.822 127.273 213.952 121.946Z" fill="black"/>
<path d="M213.951 137.961L254.887 137.931C262.33 137.931 270.473 137.776 277.869 138.009C277.869 143.257 277.798 148.718 277.88 153.951L293.924 153.964C299.142 153.965 304.65 153.887 309.845 153.998C309.818 159.316 309.821 164.633 309.85 169.951C309.842 175.174 309.75 180.739 309.863 185.932C314.802 185.94 320.995 185.796 325.863 186.011L325.839 249.903C323.432 249.884 311.564 249.673 310.029 250.091L309.826 281.875L293.919 281.938C288.603 281.983 283.288 281.994 277.972 281.965C277.938 284.533 278.249 296.342 277.727 297.919L261.84 297.911L213.932 297.874L213.891 281.87L197.83 281.864C198 276.83 197.883 271.034 197.921 265.941C194.452 265.968 185.492 266.255 182.45 265.881C181.97 265.161 182.006 264.159 181.939 263.258C181.801 259.07 181.923 254.144 181.917 249.895L165.931 249.877C165.87 246.658 165.879 243.357 165.911 240.138C166.088 222.109 165.612 203.979 165.947 185.965L181.926 185.934C181.824 180.704 181.902 175.173 181.893 169.92C181.87 164.607 181.897 159.294 181.977 153.982L197.831 153.939C203.132 153.934 208.591 153.994 213.879 153.915C213.901 149.038 213.74 142.739 213.951 137.961Z" fill="#C0C0BF"/>
<path d="M197.831 153.94C203.132 153.935 208.591 153.995 213.879 153.916L245.94 153.929L245.917 169.963L213.875 169.987C213.892 175.235 213.986 180.692 213.876 185.923C208.556 185.963 203.236 185.974 197.916 185.956C197.929 196.586 198.027 207.346 197.916 217.964C192.711 217.976 187.05 218.086 181.879 217.97L181.926 185.935C181.824 180.705 181.902 175.174 181.893 169.921C181.87 164.608 181.897 159.295 181.977 153.983L197.831 153.94Z" fill="#FEFEFE"/>
<path d="M181.977 153.982L197.831 153.939L197.862 169.903L181.893 169.92C181.87 164.607 181.897 159.294 181.977 153.982Z" fill="#818081"/>
<path d="M293.874 249.935C296.463 249.911 307.999 249.673 309.8 250.09L310.029 250.092L309.826 281.876L293.919 281.939C288.603 281.984 283.288 281.995 277.972 281.966C277.938 284.534 278.249 296.343 277.727 297.92L261.84 297.912V281.918L277.851 281.881L277.867 265.961L293.85 265.906L293.874 249.935Z" fill="#FEFEFE"/>
<path d="M309.801 250.09L310.03 250.092L309.827 281.876L293.92 281.939L293.986 265.984L309.732 265.979C309.709 260.683 309.732 255.386 309.801 250.09Z" fill="#818081"/>
<path d="M293.923 153.965C299.141 153.966 304.649 153.888 309.844 153.999C309.817 159.317 309.82 164.634 309.849 169.952L293.939 169.959C293.878 164.666 293.926 159.266 293.923 153.965Z" fill="#818081"/>
<path d="M325.915 281.906L342.063 281.898C342 286.202 342.192 293.947 341.905 297.963C347.326 297.797 352.67 297.916 358.062 297.832C357.886 302.681 358.26 309.604 357.875 314.005C363.333 313.739 368.762 314.013 374.096 313.807C373.775 319.184 374.194 324.662 373.899 329.949C379.322 329.786 384.667 329.915 390.056 329.82C389.859 336.487 389.985 343.501 389.956 350.192C389.943 353.069 389.809 359.641 390.149 362.262C386.099 361.692 378.434 362.141 373.949 361.964C374.22 367.283 373.79 372.789 374.075 378.195C369.756 377.85 363.201 378.027 358.693 378.021C353.562 378.014 346.772 377.837 341.762 378.211C342.079 373.267 341.812 367.159 341.849 362.077C337.441 362.004 329.995 361.777 325.797 362.262C325.855 356.877 325.865 351.489 325.834 346.104C321.378 345.941 314.135 345.867 309.781 346.247C309.853 340.862 309.868 335.477 309.829 330.092C305.014 329.952 298.499 329.883 293.755 330.213C294.096 325.427 293.821 319.037 293.848 314.079C289.679 314.005 283.304 313.807 279.283 314.121C278.592 314.042 278.46 314.124 277.977 313.668C277.595 310.279 277.932 301.919 277.861 297.969L277.727 297.921C278.249 296.344 277.938 284.535 277.972 281.967C283.288 281.996 288.603 281.985 293.919 281.94L309.826 281.877C313.871 281.961 321.945 282.193 325.915 281.906Z" fill="#0000C2"/>
<path d="M277.972 281.966C283.288 281.995 288.603 281.984 293.919 281.939C293.882 284.901 293.621 295.57 293.969 297.973L293.94 298.389C293.927 298.358 293.922 298.321 293.895 298.294C293.043 297.461 280.031 297.912 277.861 297.968L277.727 297.92C278.249 296.343 277.938 284.534 277.972 281.966Z" fill="#818081"/>
<path d="M293.97 297.973L309.877 297.949L309.843 313.954C304.678 313.843 299.117 313.935 293.92 313.93C293.888 308.751 293.896 303.571 293.941 298.389L293.97 297.973Z" fill="#C0C0BF"/>
<path d="M309.842 313.954L325.889 313.973L325.855 329.893L309.882 329.888C309.874 324.682 309.958 319.133 309.842 313.954Z" fill="#C0C0BF"/>
<path d="M325.865 329.94L341.915 329.932L341.876 345.926L325.889 345.913L325.865 329.94Z" fill="#C0C0BF"/>
<path d="M341.877 345.926L357.879 345.948L357.868 361.95L341.919 361.929C341.911 356.802 342.03 351.003 341.877 345.926Z" fill="#C0C0BF"/>
<path d="M325.889 266.005C329.76 266.005 338.767 266.222 342.013 265.834C341.934 270.362 341.794 277.453 342.063 281.897L325.915 281.905L325.889 266.005Z" fill="#818081"/>
<path d="M181.94 263.26C182.007 264.161 181.971 265.163 182.451 265.883C185.493 266.257 194.453 265.97 197.922 265.943C197.884 271.036 198.001 276.832 197.831 281.866L181.938 281.85C181.92 275.767 181.801 269.314 181.94 263.26Z" fill="#818081"/>
</svg>
