<svg width="175" height="200" viewBox="0 0 175 200" fill="none" xmlns="http://www.w3.org/2000/svg">
<g clip-path="url(#clip0_1_9300)">
<path d="M75.0742 37.9566L112.364 37.9153C112.319 39.9964 112.319 42.0781 112.366 44.1591L126.809 44.1422L131.046 43.9993C130.984 46.1049 130.988 48.2117 131.056 50.3169C134.837 50.3674 139.594 50.255 143.286 50.4249C143.243 52.6401 143.306 54.2747 143.437 56.4748C145.458 56.5708 147.483 56.6277 149.509 56.6452C149.452 58.7482 149.505 60.6146 149.574 62.7104L155.711 62.8302C155.66 64.858 155.683 66.8867 155.783 68.9128L161.859 69.0412C161.816 72.9022 161.783 77.4759 161.998 81.3231C164.025 81.3734 166.051 81.4101 168.076 81.4334C167.956 85.0798 168.019 90.0282 168.18 93.6926C170.203 93.7914 172.231 93.8427 174.258 93.8468C174.228 110.314 174.411 127.003 174.236 143.445C172.223 143.486 170.208 143.505 168.19 143.498C167.929 147.442 168.047 151.847 168.039 155.834C166.39 155.862 163.566 155.993 162.012 155.842C161.714 159.485 161.845 164.503 161.837 168.253C159.956 168.279 157.663 168.365 155.818 168.316C155.691 170.452 155.656 172.309 155.646 174.443C153.851 174.469 151.344 174.582 149.605 174.469C149.499 176.528 149.447 178.587 149.454 180.647C147.451 180.713 145.448 180.764 143.443 180.798C143.279 182.988 143.251 184.677 143.249 186.864L131.029 186.903C130.907 189.059 130.868 190.893 130.872 193.054C124.739 193.091 118.552 193.001 112.431 193.113C112.339 195.194 112.256 197.165 112.254 199.254L83.0634 199.279C78.5743 199.275 73.3334 199.134 68.9305 199.279L68.9144 193.283L62.5052 193.062C64.6588 193.015 66.8131 193.001 68.9671 193.021C75.1212 192.978 81.2757 192.978 87.4306 193.019L106.1 193.013L112.26 193.019L112.264 186.835C113.959 186.86 116.856 186.925 118.46 186.753L118.546 186.531C119.526 186.756 123.501 186.647 124.7 186.635L124.655 180.662C129.426 180.743 134.508 180.39 139.163 180.602L143.241 180.621C143.218 178.578 143.269 176.454 143.29 174.406C143.282 172.345 143.294 170.285 143.328 168.224C141.246 168.228 139.163 168.245 137.081 168.275C137.116 166.186 137.138 164.097 137.144 162.007C135.051 161.987 132.959 162.007 130.868 162.065C130.919 160.002 130.915 157.878 130.937 155.809C128.851 155.811 126.764 155.825 124.68 155.852L124.751 149.619L118.499 149.664C118.532 147.577 118.552 145.492 118.561 143.404C116.47 143.384 114.379 143.398 112.288 143.449C112.341 141.35 112.352 139.248 112.317 137.149C112.239 135.26 112.284 132.929 112.276 131.008C112.462 124.599 112.201 118.07 112.307 111.65C112.335 109.878 112.341 107.921 112.221 106.167C112.107 104.151 112.16 102.044 112.176 100.019L106.092 100.006V93.8079L93.7375 93.8648C91.9387 93.8106 82.4295 94.0995 81.4696 93.6632L81.3012 92.8884C81.4396 89.8001 81.3216 85.7588 81.3216 82.5597L81.3051 62.8008C79.2338 62.7795 77.1621 62.7998 75.0916 62.8615L75.1065 50.2624C73.0362 50.3364 70.9645 50.3648 68.8929 50.3478C68.9172 48.8645 68.6669 45.7954 69.12 44.4122C69.2043 44.1546 69.6024 44.1835 70.0028 44.1091C71.8616 44.1471 73.163 44.1589 75.0372 44.0032C75.0636 42.0662 75.1442 39.8735 75.0742 37.9566Z" fill="#C2C1C1"/>
<path d="M75.0742 37.9566L112.364 37.9153C112.319 39.9964 112.319 42.0781 112.366 44.1591L126.809 44.1422L130.86 44.1972C130.829 46.8807 131.048 51.7574 130.809 54.0968L130.854 56.6221C134.898 56.6254 139.21 56.5622 143.235 56.6512C143.224 57.6764 143.075 62.135 143.408 62.8045C143.057 63.8346 143.206 67.5928 143.228 68.9478L137.06 68.9774L137.038 75.172L130.827 75.2188L130.829 81.3748L124.651 81.4003L124.649 87.5559L118.477 87.5825L118.458 93.7705L112.241 93.8159C112.254 97.8569 112.243 102.133 112.37 106.17L112.221 106.167C112.107 104.151 112.16 102.044 112.176 100.019L106.092 100.006V93.8079L93.7374 93.8648C91.9387 93.8106 82.4294 94.0995 81.4696 93.6632L81.3012 92.8884C81.4396 89.8001 81.3216 85.7588 81.3216 82.5597L81.3051 62.8008C79.2337 62.7795 77.162 62.7998 75.0915 62.8615L75.1064 50.2624C73.0361 50.3364 70.9644 50.3648 68.8929 50.3478C68.9172 48.8645 68.6669 45.7954 69.1199 44.4122C69.2043 44.1546 69.6024 44.1835 70.0028 44.1091C71.8616 44.1471 73.1629 44.1589 75.0372 44.0032C75.0636 42.0662 75.1442 39.8735 75.0742 37.9566Z" fill="#C2C1C1"/>
<path d="M75.0764 44.1328C80.9504 44.3344 87.8083 44.1639 93.7599 44.1659C93.5088 58.3743 93.862 72.6721 93.7252 86.8899C93.7027 89.1999 93.7027 91.5543 93.7374 93.8648C91.9387 93.8106 82.4294 94.0995 81.4696 93.6632L81.3012 92.8884C81.4396 89.8001 81.3216 85.7588 81.3216 82.5597L81.3051 62.8008C79.2337 62.7796 77.162 62.7998 75.0915 62.8616L75.1064 50.2624C75.0209 48.4011 75.0774 46.034 75.0764 44.1328Z" fill="#FEFE00"/>
<path d="M75.0742 37.9566L112.364 37.9153C112.319 39.9964 112.319 42.0781 112.366 44.1591L126.809 44.1422L130.86 44.1972C130.829 46.8807 131.048 51.7574 130.809 54.0968C130.67 52.9827 130.719 51.5627 130.723 50.4094C124.892 50.2119 118.181 50.3681 112.299 50.3676C112.262 48.3142 112.323 46.2155 112.358 44.1585C106.255 44.281 99.8728 44.1861 93.7599 44.1659C87.8083 44.1638 80.9504 44.3343 75.0764 44.1328C75.0774 46.034 75.0209 48.401 75.1064 50.2624C73.0361 50.3364 70.9644 50.3648 68.8929 50.3478C68.9172 48.8645 68.6669 45.7954 69.1199 44.4122C69.2043 44.1546 69.6024 44.1835 70.0028 44.1091C71.8616 44.1471 73.1629 44.1589 75.0372 44.0032C75.0636 42.0662 75.1442 39.8735 75.0742 37.9566Z" fill="#818081"/>
<path d="M126.809 44.1422L131.046 43.9993C130.984 46.1049 130.988 48.2117 131.056 50.3169C134.837 50.3674 139.594 50.255 143.286 50.4249C143.243 52.6401 143.306 54.2747 143.437 56.4747C145.458 56.5708 147.483 56.6276 149.509 56.6452C149.452 58.7482 149.505 60.6146 149.574 62.7104L155.711 62.8302C155.66 64.8579 155.683 66.8867 155.783 68.9128L161.859 69.0412C161.816 72.9022 161.783 77.4759 161.998 81.323C164.025 81.3733 166.051 81.4101 168.076 81.4334C167.956 85.0798 168.019 90.0282 168.18 93.6926C170.203 93.7914 172.231 93.8427 174.258 93.8468C174.228 110.314 174.411 127.003 174.236 143.445C172.223 143.486 170.208 143.505 168.19 143.498C167.929 147.442 168.047 151.847 168.039 155.834C166.39 155.862 163.566 155.993 162.012 155.842C161.714 159.485 161.845 164.503 161.837 168.253C159.956 168.279 157.663 168.365 155.818 168.316C155.691 170.452 155.656 172.309 155.646 174.443C153.851 174.469 151.344 174.582 149.605 174.469C149.499 176.528 149.447 178.587 149.454 180.647C147.451 180.713 145.448 180.764 143.443 180.798C143.279 182.988 143.251 184.676 143.249 186.864L131.029 186.903C130.907 189.059 130.868 190.893 130.872 193.054C124.739 193.091 118.552 193.001 112.431 193.113C112.339 195.194 112.256 197.165 112.254 199.254L83.0634 199.279C78.5743 199.275 73.3334 199.134 68.9305 199.279L68.9144 193.283L62.5052 193.062C64.6588 193.015 66.8131 193.001 68.9671 193.021C75.1212 192.978 81.2757 192.978 87.4306 193.019L106.1 193.013L112.26 193.019L112.264 186.835C113.959 186.86 116.856 186.925 118.46 186.753L118.546 186.531C119.526 186.756 123.501 186.647 124.7 186.635L124.655 180.661C129.426 180.743 134.508 180.39 139.163 180.602L143.241 180.621C143.218 178.578 143.269 176.454 143.29 174.406L149.403 174.394L149.425 168.22L155.618 168.195L155.646 155.803L161.8 155.789L161.822 143.38C162.78 143.38 167.292 143.49 167.954 143.194C168.223 141.489 168.047 132.531 168.047 130.36C168.088 120.249 168.068 110.138 167.99 100.028L168 93.8607L161.977 93.8273L161.877 93.7511C161.737 91.9613 161.814 89.446 161.816 87.6004V81.4398L155.664 81.3921C155.542 77.7321 156.026 72.338 155.636 69.0794C154.368 68.8421 150.948 68.9338 149.517 68.9381C149.515 67.0977 149.584 64.5861 149.382 62.8098L143.408 62.8045C143.075 62.135 143.224 57.6764 143.235 56.6512C139.21 56.5622 134.898 56.6254 130.854 56.6221L130.809 54.0968C131.048 51.7573 130.829 46.8807 130.86 44.1972L126.809 44.1422Z" fill="black"/>
<path d="M124.655 180.662C129.426 180.743 134.508 180.39 139.163 180.602C136.399 180.668 133.632 180.694 130.868 180.682C130.823 182.72 130.803 184.76 130.805 186.801C129.222 186.805 119.416 186.993 118.46 186.754L118.546 186.531C119.526 186.756 123.501 186.647 124.7 186.635L124.655 180.662Z" fill="#818081"/>
<path d="M143.408 62.8044L149.382 62.8098C149.584 64.586 149.515 67.0976 149.517 68.9381C150.948 68.9338 154.368 68.842 155.636 69.0794C155.483 71.1376 155.573 73.1618 155.538 75.2172C153.662 75.0583 151.328 75.1321 149.411 75.1427L149.364 81.4017L143.335 81.4183C143.292 83.4573 143.269 85.4966 143.265 87.536C142.261 87.5254 137.71 87.3302 137.167 87.749L137.132 87.8891L137.081 93.6846C134.998 93.7509 132.914 93.7715 130.829 93.7466C130.807 95.7845 130.741 97.9829 130.799 100.008L124.749 100.023C124.71 102.063 124.688 104.103 124.682 106.143C121.837 106.103 114.99 105.933 112.37 106.17C112.243 102.133 112.254 97.8568 112.241 93.8159L118.458 93.7705L118.477 87.5824L124.649 87.5559L124.651 81.4003L130.829 81.3747L130.827 75.2188L137.038 75.172L137.06 68.9774L143.228 68.9477C143.206 67.5928 143.057 63.8346 143.408 62.8044Z" fill="#FEFEFE"/>
<path d="M149.382 62.8098C149.584 64.5861 149.515 67.0977 149.517 68.9382C150.948 68.9339 154.368 68.8421 155.636 69.0794C154.027 69.2749 151.136 69.1761 149.429 69.1675L149.398 75.1688L143.267 75.2141C143.255 73.1715 143.298 71.0589 143.318 69.0105L149.302 68.9615C149.286 66.9656 149.217 64.7842 149.382 62.8098Z" fill="#C2C1C1"/>
<path d="M137.134 75.2321L143.237 75.2144L143.222 81.3799L137.069 81.4061L137.134 75.2321Z" fill="#C2C1C1"/>
<path d="M130.946 81.4165L137.069 81.4062C136.995 83.3291 137.042 85.6085 137.036 87.5594C135.213 87.5718 132.63 87.6642 130.868 87.5027L130.946 81.4165Z" fill="#C2C1C1"/>
<path d="M118.552 93.8382L124.651 93.822L124.641 99.9823L118.516 99.9933C118.485 97.9658 118.532 95.8708 118.552 93.8382Z" fill="#C2C1C1"/>
<path d="M124.763 87.616L130.837 87.5986C130.841 89.6362 130.882 91.7612 130.76 93.7877C128.745 93.7777 126.695 93.8102 124.677 93.8245C124.665 91.7545 124.694 89.6846 124.763 87.616Z" fill="#C2C1C1"/>
<path d="M112.37 106.17C114.001 106.545 122.483 106.334 124.673 106.307V112.423L118.493 112.431C118.465 118.628 118.469 124.824 118.505 131.02L112.276 131.008C112.462 124.599 112.201 118.069 112.307 111.65C112.335 109.878 112.341 107.921 112.221 106.167L112.37 106.17Z" fill="#818081"/>
<path d="M167.99 100.027C168.068 110.138 168.088 120.249 168.047 130.36C168.047 132.531 168.223 141.489 167.953 143.194C167.684 140.892 167.855 133.894 167.857 131.173L167.876 106.201L161.83 106.194C161.843 104.135 161.867 102.075 161.902 100.016L167.99 100.027Z" fill="#818081"/>
<path d="M161.83 106.194L161.837 112.421L155.679 112.419C155.636 110.379 155.691 108.254 155.715 106.208L161.83 106.194Z" fill="#818081"/>
<path d="M155.664 81.3921L161.816 81.4397V87.6004C159.932 87.5305 157.582 87.5895 155.662 87.5912L155.664 81.3921Z" fill="#818081"/>
<path d="M161.877 93.751L161.977 93.8272C161.657 95.089 161.804 98.5538 161.832 99.994L155.664 100.008C155.662 97.9559 155.697 95.8875 155.72 93.8338C157.745 93.843 159.866 93.8943 161.877 93.751Z" fill="#818081"/>
<path d="M130.798 100.008C130.899 102.083 130.817 104.113 130.862 106.171C129.631 106.176 125.704 106.263 124.682 106.143C124.688 104.102 124.71 102.063 124.749 100.023L130.798 100.008Z" fill="#818081"/>
<path d="M149.364 81.4016C149.535 83.3586 149.403 85.5767 149.447 87.5668C148.437 87.57 144.068 87.6451 143.265 87.5359C143.269 85.4965 143.292 83.4571 143.335 81.4182L149.364 81.4016Z" fill="#818081"/>
<path d="M155.636 69.0793C156.026 72.3379 155.542 77.732 155.664 81.3921L149.578 81.3948L149.617 75.314C151.363 75.3152 153.878 75.4226 155.538 75.2171C155.573 73.1618 155.483 71.1375 155.636 69.0793Z" fill="#818081"/>
<path d="M149.531 100.011L155.664 100.008C155.646 102.061 155.646 104.114 155.662 106.167L149.445 106.193C149.454 104.132 149.482 102.072 149.531 100.011Z" fill="#818081"/>
<path d="M137.132 87.889C137.863 87.6206 142.265 87.7123 143.259 87.7048C143.253 89.7078 143.214 91.8007 143.257 93.7957C142.303 93.8062 137.712 93.9378 137.081 93.6845L137.132 87.889Z" fill="#818081"/>
<path d="M143.249 100.008L143.251 106.168L137.077 106.194L137.116 100L143.249 100.008Z" fill="#818081"/>
<path d="M130.966 106.213L137.079 106.186C137.085 108.242 137.124 110.372 137.032 112.419L130.884 112.413C130.839 110.346 130.866 108.278 130.966 106.213Z" fill="#818081"/>
<path d="M143.328 93.8298L149.441 93.8157C149.429 95.8467 149.384 97.9674 149.449 99.9904L143.249 100.008C143.267 97.9928 143.247 95.8316 143.328 93.8298Z" fill="#818081"/>
<path d="M149.556 87.603L155.666 87.5842C155.644 89.5827 155.74 91.8306 155.597 93.7972L149.447 93.8261C149.431 91.7511 149.468 89.6761 149.556 87.603Z" fill="#818081"/>
<path d="M143.326 106.208L149.445 106.187C149.403 108.22 149.439 110.376 149.443 112.421L143.265 112.415C143.241 110.346 143.261 108.277 143.326 106.208Z" fill="#818081"/>
<path d="M131.037 93.9175L137.089 93.9023C137.073 95.8624 137.007 98.0617 137.115 100L130.99 99.9992L131.037 93.9175Z" fill="#818081"/>
<path d="M25.5916 69.0081C27.6421 69.0138 29.6925 69.0013 31.7428 68.9705C31.7318 70.9452 31.7718 73.2042 31.6628 75.154L31.7516 81.4081L25.4491 81.3468C25.4656 83.3984 25.4429 85.5936 25.5264 87.6321C29.6597 87.6552 33.7929 87.6395 37.9257 87.5851C37.8716 89.6697 37.8679 91.7553 37.9143 93.8402C40.0081 93.848 42.0851 93.8709 44.178 93.7901C46.2053 93.8539 48.2335 93.8603 50.2609 93.8092L50.305 100.034L56.4936 100.025C56.462 102.095 56.4624 104.164 56.4946 106.234L62.7141 106.23C62.6773 108.34 62.6443 110.333 62.7063 112.446C64.7523 112.454 66.921 112.429 68.9574 112.483C68.9195 116.589 68.9078 120.694 68.9225 124.801L62.7996 124.805C62.7672 126.846 62.7488 128.888 62.7445 130.928C64.1327 130.895 67.7506 130.748 68.9438 131C70.9522 131.004 73.1252 131.051 75.1195 131.008L75.1158 137.222L81.3481 137.198C81.3328 139.263 81.3318 141.329 81.3453 143.396C85.2745 143.398 89.8092 143.498 93.6945 143.376L99.9177 143.382L106.018 143.419C106.037 145.434 106.014 147.634 106.084 149.633L99.8932 149.601C99.8911 157.798 99.7952 166.251 99.9177 174.428L106.139 174.404C106.047 180.606 106.033 186.811 106.1 193.013L87.4306 193.019C81.2757 192.978 75.1211 192.978 68.967 193.021C66.813 193.001 64.6588 193.015 62.5052 193.062C60.5072 193.042 58.509 193.068 56.5122 193.142L56.5079 186.954C52.5995 186.79 48.0436 186.829 44.1407 186.944L44.1372 180.772C41.9708 180.688 40.0805 180.629 37.9112 180.743L37.9096 174.578C35.7342 174.486 33.9042 174.473 31.7273 174.514L31.7232 168.353C29.6633 168.277 27.6016 168.263 25.5409 168.308C25.614 164.23 25.5697 159.975 25.5991 155.877C23.5068 155.852 21.4142 155.856 19.3221 155.891C19.4099 151.894 19.3341 147.571 19.3343 143.55C17.2177 143.453 15.2636 143.402 13.1441 143.511L13.1327 93.776C15.0858 93.8116 17.3886 93.7245 19.3674 93.6928C19.2725 89.5996 19.3854 85.4709 19.2988 81.355C21.3405 81.3531 23.5031 81.3993 25.5266 81.2147C25.7972 78.9053 25.583 71.6816 25.5916 69.0081Z" fill="#C2C1C1"/>
<path d="M68.9437 131C70.9522 131.004 73.1252 131.051 75.1195 131.008L75.1158 137.222L81.3481 137.198C81.3328 139.263 81.3318 141.329 81.3453 143.396C85.2745 143.398 89.8092 143.498 93.6945 143.376L99.9177 143.382L106.018 143.419C106.037 145.434 106.014 147.634 106.084 149.633L99.8932 149.6C99.8911 157.798 99.7952 166.251 99.9177 174.428L106.139 174.404C106.047 180.606 106.033 186.811 106.1 193.013L87.4306 193.019C81.2757 192.978 75.1211 192.978 68.967 193.021C68.8504 191.161 68.9244 188.728 68.9293 186.827L56.5036 186.866L56.5238 180.588C52.4112 180.676 48.276 180.555 44.1421 180.678C44.155 179.504 44.3694 175.125 43.8771 174.479C42.0038 174.396 39.7949 174.451 37.8967 174.451L37.8739 168.408L37.7438 168.326C36.0796 168.169 33.4564 168.259 31.7216 168.267C31.7106 166.178 31.7144 164.088 31.7334 161.999L37.9061 161.964C37.8718 159.955 37.8877 157.945 37.9537 155.936L38.0321 155.834C39.9962 155.784 41.961 155.774 43.9255 155.799L44.196 155.901C46.2083 155.778 48.3109 155.817 50.3332 155.819L50.3687 149.666L50.2846 149.408L50.3266 143.474C51.9482 143.541 54.9123 143.509 56.4848 143.365C56.462 141.573 56.4761 139.78 56.5277 137.987L56.6092 137.224C58.5294 137.204 60.5987 137.143 62.5065 137.194L62.7802 137.298C64.7891 137.169 66.898 137.212 68.9178 137.214L68.9437 131Z" fill="#C2C1C1"/>
<path d="M106.018 143.419C106.037 145.434 106.014 147.634 106.084 149.633L99.8931 149.601C99.8911 157.798 99.7951 166.251 99.9176 174.428L106.139 174.404C106.047 180.606 106.033 186.811 106.1 193.013L87.4305 193.019L87.4775 186.747C89.4375 186.837 91.6548 186.831 93.6394 186.87L93.6823 180.659C91.5773 180.614 89.5764 180.659 87.4734 180.709L87.4653 174.365L93.6435 174.447L93.6782 168.253C91.6099 168.24 89.5396 168.257 87.4714 168.302V161.946C89.5274 161.962 91.5834 161.993 93.6394 162.042L93.6802 155.848C91.612 155.821 89.5437 155.836 87.4755 155.893L87.4734 149.535C89.411 149.627 91.665 149.611 93.6394 149.656C93.6332 147.562 93.6516 145.469 93.6945 143.376L99.9176 143.382L106.018 143.419Z" fill="#FEFE00"/>
<path d="M106.018 143.419C106.037 145.434 106.014 147.634 106.084 149.633L99.8932 149.601C99.932 147.528 99.9401 145.455 99.9177 143.382L106.018 143.419Z" fill="#C2C1C1"/>
<path d="M68.9178 137.214L75.172 137.183C75.1387 139.256 75.1173 141.329 75.1079 143.402C73.0704 143.421 71.0328 143.429 68.9952 143.425L68.9215 149.635L62.8011 149.645L62.7421 155.815L56.6176 155.827L56.5106 162.011L50.4104 162.03L50.3391 168.238L44.2162 168.251C44.2197 169.414 44.3847 173.864 43.8771 174.479C42.0038 174.396 39.7949 174.451 37.8967 174.451L37.8739 168.408L37.7438 168.326C36.0796 168.169 33.4564 168.259 31.7216 168.267C31.7106 166.178 31.7144 164.088 31.7334 161.999L37.9061 161.964C37.8718 159.955 37.8877 157.945 37.9537 155.936L38.0321 155.834C39.9962 155.784 41.961 155.774 43.9255 155.799L44.196 155.901C46.2083 155.778 48.3109 155.817 50.3332 155.819L50.3687 149.666L50.2846 149.408L50.3266 143.474C51.9482 143.541 54.9123 143.508 56.4848 143.365C56.462 141.573 56.4761 139.78 56.5277 137.987L56.6092 137.224C58.5294 137.204 60.5987 137.143 62.5065 137.194L62.7802 137.298C64.7891 137.169 66.898 137.212 68.9178 137.214Z" fill="#FEFEFE"/>
<path d="M50.3687 149.666L56.4981 149.635L56.4954 155.789L50.3332 155.819L50.3687 149.666Z" fill="#C2C1C1"/>
<path d="M38.0078 162.038L44.1254 162.016L44.1278 168.185C43.022 168.185 38.6695 168.091 37.8739 168.408L37.7438 168.326C38.0791 167.337 37.9957 163.334 38.0078 162.038Z" fill="#C2C1C1"/>
<path d="M50.3332 155.819C50.2915 157.827 50.323 159.955 50.3201 161.973L44.1662 161.997L44.196 155.901C46.2083 155.778 48.3109 155.817 50.3332 155.819Z" fill="#C2C1C1"/>
<path d="M68.9178 137.214C68.8731 139.216 68.9056 141.354 68.9019 143.368L62.7516 143.39L62.7802 137.298C64.7891 137.169 66.8979 137.212 68.9178 137.214Z" fill="#C2C1C1"/>
<path d="M56.6278 143.419L62.7131 143.413L62.6943 149.58L56.5359 149.631C56.5283 147.501 56.5383 145.549 56.6278 143.419Z" fill="#C2C1C1"/>
<path d="M25.5916 69.0081C27.6421 69.0138 29.6925 69.0013 31.7428 68.9705C31.7318 70.9452 31.7718 73.2042 31.6628 75.154L31.7516 81.4081L25.4491 81.3468C25.4656 83.3984 25.4429 85.5936 25.5264 87.6321C25.5434 89.684 25.5395 91.7755 25.5808 93.8231C23.5344 93.8077 21.3938 93.8237 19.3562 93.7718C19.2996 101.978 19.2629 110.408 19.3462 118.611L25.5965 118.595C25.5807 120.613 25.5242 122.771 25.5838 124.779L19.3456 124.812C19.3366 126.868 19.3003 128.984 19.3464 131.034L25.5661 131.022C25.5585 133.062 25.5244 135.162 25.5771 137.198L19.3454 137.218L19.3309 143.474C21.4108 143.404 23.4917 143.38 25.5724 143.398C25.5254 145.479 25.524 147.56 25.5683 149.639L31.7612 149.637C31.7465 151.698 31.7451 153.757 31.7567 155.817C33.3047 155.811 36.55 155.707 37.9537 155.936C37.8877 157.945 37.8718 159.955 37.9061 161.964L31.7334 161.999C31.7144 164.089 31.7106 166.178 31.7216 168.267C33.4564 168.259 36.0796 168.169 37.7438 168.326L37.8739 168.408L37.8967 174.451C39.7949 174.451 42.0038 174.396 43.8771 174.48C44.3694 175.126 44.155 179.504 44.1421 180.678C48.276 180.555 52.4112 180.676 56.5238 180.588L56.5036 186.866L68.9293 186.827C68.9244 188.728 68.8504 191.161 68.967 193.021C66.813 193.001 64.6588 193.015 62.5052 193.062C60.5072 193.042 58.509 193.068 56.5122 193.142L56.5079 186.954C52.5995 186.79 48.0436 186.829 44.1407 186.944L44.1372 180.772C41.9708 180.688 40.0805 180.629 37.9112 180.743L37.9096 174.578C35.7342 174.486 33.9042 174.473 31.7273 174.514L31.7232 168.353C29.6633 168.277 27.6016 168.263 25.5409 168.308C25.614 164.23 25.5697 159.975 25.5991 155.877C23.5068 155.852 21.4142 155.856 19.3221 155.891C19.4099 151.894 19.3341 147.571 19.3343 143.55C17.2177 143.453 15.2636 143.402 13.1441 143.511L13.1327 93.776C15.0858 93.8116 17.3886 93.7245 19.3674 93.6928C19.2725 89.5996 19.3854 85.4709 19.2988 81.355C21.3405 81.3531 23.5031 81.3993 25.5266 81.2147C25.7972 78.9053 25.583 71.6816 25.5916 69.0081Z" fill="#818081"/>
<path d="M37.931 143.404C37.9272 145.422 37.8886 147.587 37.9312 149.592L31.7612 149.637C31.7616 147.564 31.7812 145.492 31.82 143.419L37.931 143.404Z" fill="#818081"/>
<path d="M56.513 124.799C56.5097 126.815 56.4709 128.986 56.5161 130.989L50.3423 131.03C50.345 128.957 50.366 126.884 50.405 124.812L56.513 124.799Z" fill="#818081"/>
<path d="M56.5259 118.611L62.7629 118.599C62.7486 120.641 62.7079 122.737 62.7418 124.775L56.513 124.799L56.5259 118.611Z" fill="#818081"/>
<path d="M44.2156 131.038L50.3424 131.03C50.3352 132.978 50.2691 135.286 50.3716 137.204L44.1544 137.214L44.2156 131.038Z" fill="#818081"/>
<path d="M44.2297 149.713L50.3687 149.666L50.3332 155.819C48.3109 155.817 46.2083 155.778 44.196 155.901L44.2297 149.713Z" fill="#FEFEFE"/>
<path d="M38.0245 137.22L44.1564 137.214C44.1243 139.267 44.125 141.321 44.1582 143.374L37.931 143.404C37.9531 141.384 37.9374 139.226 38.0245 137.22Z" fill="#818081"/>
<path d="M68.9438 131L68.9178 137.214C66.898 137.212 64.7891 137.169 62.7803 137.298L62.8121 131.108C64.7209 131.108 67.0779 131.169 68.9438 131Z" fill="#FEFEFE"/>
<path d="M44.2142 143.416C46.2347 143.404 48.3145 143.353 50.3267 143.474L50.2846 149.408C49.2909 149.541 45.3984 149.519 44.1664 149.533C44.1713 147.495 44.1874 145.457 44.2142 143.416Z" fill="#818081"/>
<path d="M50.3716 137.204C51.5999 137.198 55.7523 136.928 56.4305 137.568L56.5277 137.987C56.4761 139.78 56.462 141.573 56.4848 143.365C54.6677 143.196 52.221 143.296 50.3503 143.321L50.3716 137.204Z" fill="#818081"/>
<path d="M38.0176 149.644L44.0298 149.646C44.0261 150.823 44.0694 154.887 43.9255 155.799C41.9609 155.774 39.9962 155.785 38.0321 155.834C37.852 154.213 37.9484 151.326 38.0176 149.644Z" fill="#818081"/>
<path d="M56.6069 131.038L62.6145 131.04C62.6096 132.204 62.6473 136.339 62.5065 137.194C60.5987 137.143 58.5294 137.204 56.6092 137.224C56.4481 135.554 56.5292 132.764 56.6069 131.038Z" fill="#818081"/>
<path d="M31.7557 124.803L31.7577 130.993L25.5768 131.044C25.5819 128.967 25.6009 126.888 25.634 124.811L31.7557 124.803Z" fill="#818081"/>
<path d="M31.7598 137.216L31.7596 143.378L25.5681 143.417L25.6344 137.22L31.7598 137.216Z" fill="#818081"/>
<path d="M31.7636 118.611L37.9512 118.597C37.9394 120.613 37.8867 122.769 37.9392 124.773L31.7557 124.803L31.7636 118.611Z" fill="#818081"/>
<path d="M44.1607 118.611L50.3522 118.597C50.3289 120.641 50.3471 122.722 50.3452 124.771L44.1591 124.797L44.1607 118.611Z" fill="#818081"/>
<path d="M38.054 124.813L44.1556 124.797C44.1178 126.87 44.1701 128.92 44.1099 131.006L37.9382 131.032C37.9323 128.882 37.9455 126.968 38.054 124.813Z" fill="#818081"/>
<path d="M31.8204 131.038L37.9298 131.024C37.9255 133.021 37.8747 135.215 37.9425 137.196L31.7598 137.216C31.7747 135.205 31.7536 133.036 31.8204 131.038Z" fill="#818081"/>
<path d="M25.6056 0.788158C29.7191 0.742366 33.8329 0.758314 37.9459 0.836202C37.8916 2.76335 37.9463 4.98815 37.9535 6.9384C39.8715 6.87728 42.1921 6.98317 44.1382 7.0216L44.1688 13.1252C48.2896 13.105 52.4106 13.1397 56.5304 13.2293C56.4785 15.165 56.5353 17.3755 56.5457 19.3329C60.4772 19.2544 64.9714 19.385 68.9194 19.4368C68.9229 21.9696 68.7881 43.3431 69.116 43.9848L70.0028 44.1089C69.6024 44.1833 69.2042 44.1544 69.1199 44.412C68.6669 45.7952 68.9172 48.8643 68.8929 50.3476C68.9331 62.7123 68.7916 75.2867 68.9325 87.6266L62.7402 87.5402C62.7055 89.6351 62.7037 91.7305 62.7347 93.8253C60.7075 93.8717 58.5661 93.8222 56.5299 93.8083L50.2609 93.809C48.2335 93.8601 46.2052 93.8537 44.178 93.7899L44.1505 87.588L37.9633 87.5731L37.9371 75.1808C35.8456 75.218 33.7537 75.209 31.6628 75.1538C31.7718 73.204 31.7318 70.945 31.7428 68.9703C29.6925 69.0011 27.642 69.0136 25.5915 69.0079C25.583 71.6814 25.7972 78.9051 25.5266 81.2145C25.3894 80.0713 25.4521 76.5789 25.4462 75.2622L6.95077 75.2507C6.97568 73.2706 7.05408 71.0634 6.93525 69.1046C4.87538 69.0569 2.81508 69.0432 0.754791 69.0631C0.895669 63.0028 0.748669 56.5199 0.795628 50.4085L6.94586 50.3525C6.88604 48.5621 6.99405 46.0289 7.02427 44.1941L25.5368 44.1688C25.6898 29.7316 25.4092 15.2137 25.6056 0.788158ZM31.7553 62.6229C32.24 62.6356 33.7994 62.6368 34.1732 62.7446C35.3844 62.7781 36.6317 62.7043 37.8444 62.6554C37.9073 60.6242 37.9259 58.592 37.9004 56.56C39.9439 56.5741 41.9873 56.5422 44.0294 56.4639C44.138 54.4282 44.1692 52.3892 44.1233 50.3513L56.64 50.354C56.4524 48.733 56.492 45.8911 56.475 44.1569L59.4808 44.1446C60.5693 44.0954 61.6585 44.0645 62.748 44.0522L62.7769 38.078L50.3127 38.0355L50.3615 31.939C48.398 31.9053 46.048 31.8119 44.1102 31.8525L44.1701 25.7495C41.8062 25.7062 33.5299 25.8117 31.7771 25.5702C31.7506 37.6142 32.0393 50.6733 31.7553 62.6229ZM37.8726 62.7104C37.8565 64.1371 37.736 67.7934 38.0037 69.0355C39.9396 68.9255 42.1949 68.9778 44.1556 68.9766L44.1476 62.7971L56.5244 62.7967L62.7351 62.7949L62.7453 56.6264C61.6199 56.4651 57.7897 56.5708 56.5148 56.5855C52.4978 56.5954 48.0671 56.6937 44.0845 56.5095C44.0576 58.3643 43.9553 60.9959 44.1476 62.7971C42.149 62.7822 39.8455 62.8202 37.8726 62.7104Z" fill="black"/>
<path d="M44.0845 56.5095C48.0671 56.6937 52.4978 56.5954 56.5149 56.5856L56.5245 62.7967L44.1476 62.7971C43.9553 60.9959 44.0576 58.3643 44.0845 56.5095Z" fill="#00FE00" fill-opacity="0.988235"/>
<path d="M56.5149 56.5857C57.7897 56.5709 61.6199 56.4653 62.7453 56.6266L62.7351 62.795L56.5245 62.7968L56.5149 56.5857Z" fill="#00FEFE" fill-opacity="0.988235"/>
<path d="M37.8726 62.7104C39.8455 62.8202 42.149 62.7822 44.1476 62.7971L44.1556 68.9766C42.1949 68.9778 39.9396 68.9255 38.0037 69.0355C37.736 67.7934 37.8565 64.1372 37.8726 62.7104Z" fill="#00FE00" fill-opacity="0.988235"/>
<path d="M59.4808 44.1448L62.7286 44.2086C62.6112 48.3027 62.7196 52.5206 62.7453 56.6266C61.6199 56.4653 57.7897 56.571 56.5148 56.5857C52.4978 56.5955 48.0671 56.6938 44.0845 56.5096C44.0576 58.3644 43.9553 60.996 44.1476 62.7973C42.149 62.7823 39.8455 62.8204 37.8726 62.7106C37.8565 64.1373 37.736 67.7935 38.0037 69.0356L37.9175 69.1227C37.9041 71.142 37.9106 73.1616 37.9371 75.1809C35.8456 75.2182 33.7537 75.2092 31.6628 75.154C31.7718 73.2041 31.7318 70.9452 31.7428 68.9704C31.82 67.1034 31.7608 64.7044 31.76 62.8042C32.5646 62.7928 33.369 62.7729 34.1733 62.7447C35.3844 62.7782 36.6317 62.7045 37.8445 62.6556C37.9073 60.6244 37.9259 58.5922 37.9004 56.5601C39.9439 56.5742 41.9873 56.5424 44.0294 56.4641C44.138 54.4284 44.1693 52.3894 44.1233 50.3514L56.64 50.3541C56.4524 48.7332 56.492 45.8912 56.475 44.157L59.4808 44.1448Z" fill="#818081"/>
<path d="M31.7428 68.9703C32.9147 68.9674 36.9632 68.9045 37.9175 69.1226C37.9041 71.1419 37.9106 73.1615 37.9371 75.1808C35.8456 75.2181 33.7537 75.2091 31.6628 75.1539C31.7718 73.204 31.7318 70.9451 31.7428 68.9703Z" fill="#C2C1C1"/>
<path d="M7.01468 50.4204C8.9784 50.3454 11.1208 50.3889 13.0984 50.3899C13.4401 53.3356 13.1306 59.5441 13.1537 62.7636L7.02959 62.7626L6.99345 56.6391C6.96364 54.5662 6.97079 52.4929 7.01468 50.4204Z" fill="#C2C1C1"/>
<path d="M7.01468 50.4204C8.9784 50.3454 11.1208 50.3889 13.0984 50.3899C12.9754 52.4236 12.9983 54.5679 12.9855 56.613C11.0187 56.6209 8.95104 56.5964 6.99345 56.6391C6.96364 54.5662 6.97079 52.4929 7.01468 50.4204Z" fill="#FEFEFE"/>
<path d="M44.156 68.9975L50.3268 68.9949C50.3362 70.2251 50.3195 71.4734 50.3136 72.7055C50.3544 75.594 50.3571 78.4832 50.3211 81.3718L44.1991 81.3663L44.1629 75.2518L44.156 68.9975Z" fill="#C2C1C1"/>
<path d="M44.156 68.9975L50.3268 68.9949C50.3362 70.2251 50.3195 71.4734 50.3136 72.7055C50.2462 73.5408 50.1955 74.3771 50.1615 75.2144C48.299 75.222 45.9974 75.176 44.1629 75.2518L44.156 68.9975Z" fill="#FEFEFE"/>
<path d="M81.2889 93.8519L81.3012 92.8884L81.4696 93.6632C82.4294 94.0995 91.9387 93.8106 93.7374 93.8648L106.092 93.808V100.006L112.176 100.019C112.16 102.044 112.107 104.151 112.221 106.167C112.341 107.921 112.335 109.878 112.307 111.65C112.201 118.07 112.462 124.599 112.276 131.008C112.284 132.929 112.239 135.26 112.317 137.149L106.012 137.182C106.033 139.261 106.035 141.34 106.018 143.419L99.9177 143.382L93.6945 143.376C89.8092 143.498 85.2745 143.398 81.3453 143.396C81.3318 141.329 81.3328 139.263 81.3481 137.198L75.1158 137.222L75.1195 131.008C73.1252 131.051 70.9522 131.004 68.9437 131C67.7506 130.748 64.1327 130.895 62.7445 130.928C62.7488 128.888 62.7672 126.846 62.7996 124.805L68.9225 124.801C68.9078 120.694 68.9195 116.589 68.9574 112.483L69.0052 106.2C70.6186 106.104 73.4241 106.2 75.1234 106.205C75.1356 104.156 75.1164 102.106 75.0658 100.058C77.121 100.062 79.3485 100.104 81.3904 100.053C81.3914 98.1811 81.4637 95.6668 81.2889 93.8519ZM81.4414 130.924C87.2325 131.188 93.9457 131.039 99.8074 131.039L99.8095 116.637C99.8054 114.232 99.6951 110.553 99.9013 108.299L99.883 107.498L99.7482 106.532C98.6886 105.767 84.0985 106.513 81.4284 106.191C81.2064 113.707 81.185 123.417 81.4414 130.924Z" fill="black"/>
<path d="M81.3904 100.052C81.2867 102.144 81.264 104.068 81.2554 106.159L75.0826 106.167L75.0648 131.044L81.2977 131.077L81.2781 137.222L106.069 137.212L106.1 131.051C107.929 131.045 110.506 131.104 112.276 131.008C112.284 132.929 112.239 135.26 112.317 137.149L106.012 137.181C106.033 139.26 106.035 141.34 106.018 143.419L99.9177 143.382L93.6945 143.376C89.8092 143.498 85.2745 143.398 81.3453 143.396C81.3318 141.329 81.3328 139.263 81.3481 137.198L75.1158 137.222L75.1195 131.008C73.1252 131.051 70.9522 131.004 68.9437 131C67.7506 130.748 64.1327 130.895 62.7445 130.928C62.7488 128.888 62.7672 126.846 62.7996 124.805L68.9225 124.801C68.9078 120.694 68.9195 116.589 68.9574 112.482L69.0052 106.2C70.6186 106.103 73.4241 106.199 75.1234 106.204C75.1356 104.155 75.1164 102.106 75.0658 100.058C77.121 100.062 79.3485 100.104 81.3904 100.052Z" fill="#818081"/>
<path d="M81.2889 93.8519L81.3012 92.8884L81.4696 93.6632C82.4294 94.0995 91.9387 93.8106 93.7374 93.8648L106.092 93.808V100.006C99.9728 99.7826 93.6619 100.096 87.5286 99.9647C85.542 99.922 83.3717 99.9435 81.3904 100.053C81.3914 98.1811 81.4637 95.6668 81.2889 93.8519Z" fill="#818081"/>
<path d="M106.09 106.178C106.031 114.441 106.022 122.706 106.063 130.971C104.054 130.971 101.949 131.004 99.9483 130.967C99.9523 124.02 100.226 115.097 99.9013 108.299L99.8829 107.498C99.9156 107.018 99.934 106.967 100.067 106.501C101.004 105.925 104.746 106.198 106.09 106.178Z" fill="#818081"/>
<path d="M106.092 100.006L112.176 100.018C112.16 102.044 112.107 104.151 112.221 106.167C110.177 106.16 108.133 106.163 106.09 106.178L106.092 100.006Z" fill="#818081"/>
<path d="M106.012 137.181L112.317 137.149C112.352 139.248 112.341 141.35 112.288 143.449C114.379 143.398 116.47 143.384 118.56 143.404C118.552 145.491 118.532 147.577 118.499 149.664L124.751 149.619L124.679 155.852C126.764 155.825 128.851 155.811 130.937 155.809C130.915 157.878 130.919 160.002 130.868 162.064C132.959 162.007 135.051 161.987 137.144 162.007C137.138 164.096 137.115 166.186 137.081 168.275C139.163 168.244 141.246 168.228 143.328 168.224C143.294 170.285 143.281 172.345 143.29 174.406C143.269 176.454 143.218 178.578 143.241 180.62L139.163 180.602C134.508 180.389 129.426 180.743 124.655 180.661C124.604 178.584 124.624 176.507 124.716 174.432L118.467 174.43C118.387 170.383 118.348 166.067 118.54 162.032L112.256 162.024C112.172 157.894 112.19 153.763 112.309 149.635L106.084 149.633C106.014 147.634 106.037 145.434 106.018 143.419C106.035 141.339 106.033 139.26 106.012 137.181Z" fill="#00FEFE" fill-opacity="0.988235"/>
<path d="M68.8929 50.3477C70.9644 50.3646 73.0361 50.3362 75.1064 50.2622L75.0915 62.8614C77.162 62.7996 79.2337 62.7794 81.3051 62.8006L81.3216 82.5595C81.3216 85.7586 81.4396 89.8 81.3012 92.8883L81.2889 93.8517L75.1166 93.8407C75.0519 91.7829 75.1062 89.625 75.1258 87.5592L68.9325 87.6267C68.7916 75.2867 68.9331 62.7123 68.8929 50.3477Z" fill="#00FEFE" fill-opacity="0.988235"/>
<path d="M99.8931 149.601L106.084 149.633C106.131 153.769 106.135 157.904 106.092 162.042L112.299 161.999C112.333 166.147 112.327 170.293 112.28 174.441L118.509 174.414C118.52 178.38 118.46 182.585 118.546 186.531L118.46 186.753C116.856 186.925 113.958 186.86 112.264 186.835L112.26 193.019L106.1 193.013C106.033 186.811 106.047 180.606 106.139 174.404L99.9176 174.428C99.7951 166.251 99.8911 157.798 99.8931 149.601Z" fill="#00FE00" fill-opacity="0.988235"/>
<path d="M106.084 149.633L112.309 149.635C112.19 153.763 112.172 157.894 112.256 162.024L118.54 162.032C118.348 166.067 118.387 170.383 118.467 174.43L124.716 174.433C124.624 176.507 124.604 178.584 124.655 180.661L124.7 186.635C123.501 186.647 119.526 186.756 118.546 186.531C118.46 182.585 118.52 178.38 118.509 174.414L112.28 174.441C112.327 170.293 112.333 166.147 112.299 161.999L106.092 162.042C106.135 157.904 106.131 153.769 106.084 149.633Z" fill="#C2C1C1"/>
<path d="M37.9371 75.181L37.9633 87.5733L44.1505 87.5882L44.178 93.7902C42.0851 93.8709 40.008 93.848 37.9143 93.8403C37.8679 91.7553 37.8716 89.6697 37.9257 87.5852C33.7929 87.6395 29.6596 87.6553 25.5264 87.6322C25.4429 85.5936 25.4656 83.3985 25.449 81.3468L31.7516 81.4081L31.6628 75.1541C33.7537 75.2092 35.8456 75.2182 37.9371 75.181Z" fill="#00FEFE" fill-opacity="0.988235"/>
<path d="M68.9325 87.6268L75.1258 87.5593C75.1062 89.625 75.0519 91.783 75.1166 93.8408L81.2889 93.8518C81.4637 95.6667 81.3914 98.181 81.3904 100.053C79.3485 100.104 77.121 100.062 75.0658 100.058L68.9151 100.015C68.8808 97.9576 68.8855 95.8998 68.929 93.8428C66.8642 93.8181 64.7995 93.8122 62.7347 93.8254C62.7037 91.7307 62.7055 89.6353 62.7402 87.5403L68.9325 87.6268Z" fill="#00FE00" fill-opacity="0.988235"/>
<path d="M62.7347 93.8256C64.7995 93.8123 66.8643 93.8182 68.9291 93.8429C68.8856 95.8999 68.8809 97.9577 68.9152 100.015L75.0658 100.058C75.1164 102.106 75.1356 104.156 75.1234 106.205C73.4241 106.2 70.6186 106.104 69.0052 106.2L62.7794 106.165L62.7949 99.9962L56.5637 99.9803C56.5945 97.9687 56.5457 95.8308 56.53 93.8086C58.5662 93.8225 60.7075 93.872 62.7347 93.8256Z" fill="#C2C1C1"/>
<path d="M50.2609 93.8092L56.53 93.8086C56.5457 95.8308 56.5945 97.9687 56.5637 99.9803L62.7949 99.9962L62.7794 106.165L69.0052 106.2L68.9574 112.483C66.921 112.429 64.7523 112.454 62.7063 112.446C62.6443 110.333 62.6773 108.34 62.7141 106.23L56.4946 106.234C56.4624 104.164 56.462 102.095 56.4936 100.025L50.305 100.034L50.2609 93.8092Z" fill="#00FEFE" fill-opacity="0.988235"/>
</g>
<defs>
<clipPath id="clip0_1_9300">
<rect width="175" height="200" fill="white"/>
</clipPath>
</defs>
</svg>
