<svg width="540" height="500" viewBox="0 0 540 500" fill="none" xmlns="http://www.w3.org/2000/svg">
<path d="M270.291 138.002C280.492 137.908 291.922 137.769 302.06 138.067C301.915 147.885 301.865 160.167 302.263 169.893C312.81 170.218 323.497 169.848 334.081 170.079C334.036 175.354 334.102 180.63 334.278 185.902C339.536 186.01 344.791 185.945 350.07 186.064C349.914 191.012 350.101 196.906 350.067 201.953C355.404 201.955 360.738 201.989 366.072 202.056C365.98 207.234 366.072 212.751 366.067 217.965C371.042 217.826 377.075 218.009 382.082 218.074C382.066 222.853 381.963 229.226 382.354 233.904C387.543 234.044 392.848 233.959 398.074 234.062C397.757 244.013 398.074 255.941 398.066 266.041C393.017 266.057 387.163 266.27 382.238 266.11C381.982 271.205 382.085 276.901 382.072 282.043C377.117 282.046 371.037 282.286 366.262 282.109C365.964 287.346 366.061 292.772 366.067 298.033C361.555 298.038 354.336 298.354 350.241 298.085C349.972 303.246 350.067 308.839 350.062 314.039C345.345 314.111 338.774 314.277 334.236 314.105C333.983 319.185 334.086 324.907 334.073 330.034C329.292 330.089 322.854 330.282 318.263 330.108C317.962 335.326 318.065 340.788 318.068 346.033C307.542 346.239 296.616 346.038 286.04 346.078C286.245 341.41 286.108 335.014 285.939 330.391C281.402 329.884 274.715 330.018 270.043 330.089C270.132 324.846 270.074 319.424 270.111 314.158C264.753 314.103 259.395 314.076 254.036 314.082C254.109 308.789 254.035 303.496 254.117 298.169C249.092 297.974 243.085 298.048 238.037 298.074C238.25 293.393 238.095 287.025 237.94 282.386C233.305 281.89 226.792 282.011 222.043 282.091C222.188 277.149 222.073 271.476 222.076 266.481C222.079 261.194 222.181 255.609 221.933 250.354C212.849 249.344 199.707 250.496 190.244 250.057C189.986 254.727 190.096 260.068 190.095 264.791L190.076 362.043C184.837 362.162 179.277 362.096 174.029 362.091C174.225 357.193 174.067 351.176 174.125 346.168C168.876 346.046 163.282 346.054 158.03 346.081C158.323 335.748 157.977 324.641 158.108 314.163C152.746 314.103 147.385 314.074 142.023 314.079C142.193 310.656 142.076 306.067 142.075 302.576L142.073 281.677C142.071 255.402 141.702 228.214 142.132 202.006L158.001 201.975C158.049 196.645 158.009 191.346 158.12 186.011L174.006 185.959L174.114 170.018C190.1 169.95 206.086 169.967 222.071 170.069C221.998 174.913 222.001 181.126 222.308 185.891C227.56 186.019 232.814 186.035 238.066 185.941C237.916 180.882 238.086 175.131 238.123 170.018C243.42 170.07 248.717 170.046 254.014 169.945C254.007 164.635 254.041 159.326 254.116 154.016C259.428 154.034 264.74 154.014 270.051 153.957C270.056 151.241 269.813 140.002 270.291 138.002Z" fill="black"/>
<path d="M270.093 154.037C275.419 153.995 280.745 153.994 286.071 154.034L286.1 170.021C291.413 170.006 296.726 170.02 302.037 170.063L302.045 185.983C312.541 185.982 323.624 185.822 334.075 186.03L334.073 201.98C328.852 201.989 323.236 201.901 318.047 202.026L318.042 218.006L302.005 217.996L302.026 233.973L286.037 233.957L286.063 249.992L270.027 249.986L270.045 266.007L254.005 265.999L254.029 281.975L238.086 281.956C238.09 271.368 238.194 260.568 238.06 250C232.965 249.861 227.209 249.977 222.069 249.981L222.073 233.925L206.056 233.976L206.039 218.046C211.397 218.008 216.754 218.022 222.111 218.089L222.042 201.991C227.393 202.02 232.743 202.014 238.093 201.973C238.051 196.657 238.061 191.34 238.123 186.024C243.291 185.904 248.869 185.984 254.067 185.976C254.013 180.671 254.02 175.366 254.089 170.062C259.289 169.947 264.854 170.024 270.08 170.016C270.048 164.69 270.051 159.363 270.093 154.037Z" fill="#00BFBE"/>
<path d="M270.094 154.037C275.42 153.995 280.746 153.994 286.072 154.034L286.101 170.021C291.414 170.006 296.727 170.02 302.038 170.063L302.046 185.983L302.04 190.561C301.974 194.371 301.964 198.182 302.009 201.992C296.825 202.005 291.219 202.123 286.067 201.952C279.117 202.151 271.615 202.024 264.628 202.025C255.783 202.058 246.938 202.041 238.094 201.973C238.052 196.657 238.062 191.34 238.124 186.024C243.292 185.904 248.87 185.984 254.068 185.976C254.014 180.671 254.021 175.366 254.09 170.062C259.29 169.947 264.855 170.024 270.081 170.016C270.049 164.69 270.052 159.363 270.094 154.037Z" fill="#FEFEFE"/>
<path d="M302.045 185.983L302.039 190.561C301.973 194.371 301.963 198.182 302.008 201.992C296.824 202.005 291.218 202.123 286.066 201.952L286.106 185.997C291.419 185.962 296.732 185.957 302.045 185.983Z" fill="black"/>
<path d="M302.045 185.983C312.541 185.982 323.624 185.822 334.075 186.03L334.073 201.98C328.852 201.989 323.236 201.901 318.047 202.026L302.132 202.014C302.168 198.196 302.137 194.378 302.039 190.561L302.045 185.983Z" fill="#FEFEFE"/>
<path d="M238.027 233.96C243.332 233.949 248.76 233.997 254.055 233.924C254.071 239.077 253.953 244.971 254.123 250.064L238.061 250C238.059 244.84 238.169 239.08 238.027 233.96Z" fill="black"/>
<path d="M366.057 233.983C371.394 233.952 376.733 233.971 382.073 234.041L382.06 266.01C376.863 265.899 371.246 265.996 366.018 266.002C366.123 271.197 366.034 276.753 366.028 281.975C360.794 281.874 355.257 281.959 350.002 281.959C350.129 287.125 350.029 292.787 350.023 297.993C344.763 297.914 339.31 297.985 334.037 297.985C334.161 303.146 334.058 308.815 334.058 314.008C328.845 313.905 323.263 313.997 318.024 314.003C318.119 319.224 318.037 324.73 318.037 329.973C312.44 329.889 306.655 329.955 301.044 329.949L286.088 329.957L286.07 314.026C291.422 314.011 296.775 314.032 302.127 314.087C302.006 308.823 302.062 303.283 302.03 297.998C307.388 297.99 312.746 298.014 318.103 298.064L318.051 281.98C323.408 281.962 328.769 281.996 334.127 282.083L334.071 266.025C339.424 266.01 344.776 266.031 350.129 266.089L350.029 250.002C355.387 249.992 360.744 250.013 366.1 250.064L366.057 233.983Z" fill="#00BFBE"/>
<path d="M174.092 218.048L190.092 218.02C189.745 227.943 190.02 239.92 190.004 249.972L174.123 249.965L174.092 218.048Z" fill="#C1C0C0"/>
<path d="M206.056 202.002C206.007 207.322 205.993 212.642 206.014 217.963C200.707 217.934 195.399 217.954 190.092 218.02L190.103 202.024L206.056 202.002Z" fill="#C1C0C0"/>
<path d="M206.069 186.016C211.263 186.01 216.889 185.898 222.049 186.085L222.043 201.991C216.714 201.947 211.384 201.95 206.055 202.002L206.069 186.016Z" fill="#C1C0C0"/>
</svg>
