<svg width="256" height="256" viewBox="0 0 256 256" fill="none" xmlns="http://www.w3.org/2000/svg">
<g clip-path="url(#clip0_771_5748)">
<path d="M65 0C70.28 0 75.56 0 81 0C81 5.28 81 10.56 81 16C86.28 16 91.56 16 97 16C97 21.28 97 26.56 97 32C102.28 32 107.56 32 113 32C113 42.56 113 53.12 113 64C128.84 64 144.68 64 161 64C161 58.72 161 53.44 161 48C166.28 48 171.56 48 177 48C177 37.44 177 26.88 177 16C187.56 16 198.12 16 209 16C209 10.72 209 5.44 209 0C214.28 0 219.56 0 225 0C225 10.56 225 21.12 225 32C230.28 32 235.56 32 241 32C241 26.72 241 21.44 241 16C246.28 16 251.56 16 257 16C257 31.84 257 47.68 257 64C251.72 64 246.44 64 241 64C241 85.12 241 106.24 241 128C246.28 128 251.56 128 257 128C257 149.12 257 170.24 257 192C251.72 192 246.44 192 241 192C241 197.28 241 202.56 241 208C235.72 208 230.44 208 225 208C225 213.28 225 218.56 225 224C219.72 224 214.44 224 209 224C209 229.28 209 234.56 209 240C198.44 240 187.88 240 177 240C177 245.28 177 250.56 177 256C150.6 256 124.2 256 97 256C97 250.72 97 245.44 97 240C81.16 240 65.32 240 49 240C49 245.28 49 250.56 49 256C33.16 256 17.32 256 1 256C1 245.44 1 234.88 1 224C11.56 224 22.12 224 33 224C33 176.48 33 128.96 33 80C38.28 80 43.56 80 49 80C49 74.72 49 69.44 49 64C54.28 64 59.56 64 65 64C65 42.88 65 21.76 65 0ZM225 144C225 154.56 225 165.12 225 176C230.28 176 235.56 176 241 176C241 165.44 241 154.88 241 144C235.72 144 230.44 144 225 144Z" fill="#00FF00"/>
<path d="M65 0C70.28 0 75.56 0 81 0C81 5.28 81 10.56 81 16C86.28 16 91.56 16 97 16C97 21.28 97 26.56 97 32C102.28 32 107.56 32 113 32C113 42.56 113 53.12 113 64C128.84 64 144.68 64 161 64C161 58.72 161 53.44 161 48C166.28 48 171.56 48 177 48C177 37.44 177 26.88 177 16C187.56 16 198.12 16 209 16C209 10.72 209 5.44 209 0C214.28 0 219.56 0 225 0C225 10.56 225 21.12 225 32C230.28 32 235.56 32 241 32C241 26.72 241 21.44 241 16C246.28 16 251.56 16 257 16C257 31.84 257 47.68 257 64C251.72 64 246.44 64 241 64C241 85.12 241 106.24 241 128C246.28 128 251.56 128 257 128C257 149.12 257 170.24 257 192C251.72 192 246.44 192 241 192C241 197.28 241 202.56 241 208C235.72 208 230.44 208 225 208C225 213.28 225 218.56 225 224C219.72 224 214.44 224 209 224C209 218.72 209 213.44 209 208C193.16 208 177.32 208 161 208C161 202.72 161 197.44 161 192C176.84 192 192.68 192 209 192C209 170.88 209 149.76 209 128C166.76 128 124.52 128 81 128C81 122.72 81 117.44 81 112C70.44 112 59.88 112 49 112C49 96.16 49 80.32 49 64C54.28 64 59.56 64 65 64C65 42.88 65 21.76 65 0ZM225 144C225 154.56 225 165.12 225 176C230.28 176 235.56 176 241 176C241 165.44 241 154.88 241 144C235.72 144 230.44 144 225 144Z" fill="#FF0000"/>
<path d="M97 128C133.96 128 170.92 128 209 128C209 149.12 209 170.24 209 192C193.16 192 177.32 192 161 192C161 202.56 161 213.12 161 224C155.72 224 150.44 224 145 224C145 218.72 145 213.44 145 208C139.72 208 134.44 208 129 208C129 213.28 129 218.56 129 224C123.72 224 118.44 224 113 224C113 218.72 113 213.44 113 208C107.72 208 102.44 208 97 208C97 213.28 97 218.56 97 224C86.44 224 75.88 224 65 224C65 213.44 65 202.88 65 192C70.28 192 75.56 192 81 192C81 181.44 81 170.88 81 160C86.28 160 91.56 160 97 160C97 149.44 97 138.88 97 128Z" fill="#C0C0C0"/>
<path d="M193 64C208.84 64 224.68 64 241 64C241 85.12 241 106.24 241 128C246.28 128 251.56 128 257 128C257 149.12 257 170.24 257 192C251.72 192 246.44 192 241 192C241 197.28 241 202.56 241 208C235.72 208 230.44 208 225 208C225 213.28 225 218.56 225 224C219.72 224 214.44 224 209 224C209 218.72 209 213.44 209 208C193.16 208 177.32 208 161 208C161 202.72 161 197.44 161 192C176.84 192 192.68 192 209 192C209 170.88 209 149.76 209 128C187.88 128 166.76 128 145 128C145 122.72 145 117.44 145 112C150.28 112 155.56 112 161 112C161 106.72 161 101.44 161 96C166.28 96 171.56 96 177 96C177 90.72 177 85.44 177 80C182.28 80 187.56 80 193 80C193 74.72 193 69.44 193 64ZM225 144C225 154.56 225 165.12 225 176C230.28 176 235.56 176 241 176C241 165.44 241 154.88 241 144C235.72 144 230.44 144 225 144Z" fill="black"/>
<path d="M97 208C102.28 208 107.56 208 113 208C113 213.28 113 218.56 113 224C118.28 224 123.56 224 129 224C129 218.72 129 213.44 129 208C134.28 208 139.56 208 145 208C145 213.28 145 218.56 145 224C150.28 224 155.56 224 161 224C161 218.72 161 213.44 161 208C176.84 208 192.68 208 209 208C209 218.56 209 229.12 209 240C198.44 240 187.88 240 177 240C177 245.28 177 250.56 177 256C150.6 256 124.2 256 97 256C97 240.16 97 224.32 97 208Z" fill="#FFFF00"/>
<path d="M33 80C38.28 80 43.56 80 49 80C49 90.56 49 101.12 49 112C59.56 112 70.12 112 81 112C81 117.28 81 122.56 81 128C86.28 128 91.56 128 97 128C97 138.56 97 149.12 97 160C91.72 160 86.44 160 81 160C81 170.56 81 181.12 81 192C75.72 192 70.44 192 65 192C65 170.88 65 149.76 65 128C59.72 128 54.44 128 49 128C49 154.4 49 180.8 49 208C43.72 208 38.44 208 33 208C33 165.76 33 123.52 33 80Z" fill="#008000"/>
<path d="M65 0C70.28 0 75.56 0 81 0C81 5.28 81 10.56 81 16C86.28 16 91.56 16 97 16C97 21.28 97 26.56 97 32C102.28 32 107.56 32 113 32C113 47.84 113 63.68 113 80C118.28 80 123.56 80 129 80C129 85.28 129 90.56 129 96C123.72 96 118.44 96 113 96C113 101.28 113 106.56 113 112C107.72 112 102.44 112 97 112C97 101.44 97 90.88 97 80C81.16 80 65.32 80 49 80C49 74.72 49 69.44 49 64C54.28 64 59.56 64 65 64C65 42.88 65 21.76 65 0Z" fill="#00FF00"/>
<path d="M81 160C86.28 160 91.56 160 97 160C97 165.28 97 170.56 97 176C107.56 176 118.12 176 129 176C129 181.28 129 186.56 129 192C139.56 192 150.12 192 161 192C161 202.56 161 213.12 161 224C155.72 224 150.44 224 145 224C145 218.72 145 213.44 145 208C139.72 208 134.44 208 129 208C129 213.28 129 218.56 129 224C123.72 224 118.44 224 113 224C113 218.72 113 213.44 113 208C107.72 208 102.44 208 97 208C97 213.28 97 218.56 97 224C86.44 224 75.88 224 65 224C65 213.44 65 202.88 65 192C70.28 192 75.56 192 81 192C81 181.44 81 170.88 81 160Z" fill="white"/>
<path d="M193 64C198.28 64 203.56 64 209 64C209 74.56 209 85.12 209 96C214.28 96 219.56 96 225 96C225 101.28 225 106.56 225 112C219.72 112 214.44 112 209 112C209 117.28 209 122.56 209 128C187.88 128 166.76 128 145 128C145 122.72 145 117.44 145 112C150.28 112 155.56 112 161 112C161 106.72 161 101.44 161 96C166.28 96 171.56 96 177 96C177 90.72 177 85.44 177 80C182.28 80 187.56 80 193 80C193 74.72 193 69.44 193 64Z" fill="#0000FF"/>
<path d="M49 80C64.84 80 80.68 80 97 80C97 95.84 97 111.68 97 128C91.72 128 86.44 128 81 128C81 122.72 81 117.44 81 112C70.44 112 59.88 112 49 112C49 101.44 49 90.88 49 80Z" fill="#FF00FF"/>
<path d="M209 0C214.28 0 219.56 0 225 0C225 10.56 225 21.12 225 32C230.28 32 235.56 32 241 32C241 26.72 241 21.44 241 16C246.28 16 251.56 16 257 16C257 31.84 257 47.68 257 64C251.72 64 246.44 64 241 64C241 58.72 241 53.44 241 48C230.44 48 219.88 48 209 48C209 32.16 209 16.32 209 0Z" fill="black"/>
<path d="M65 0C70.28 0 75.56 0 81 0C81 5.28 81 10.56 81 16C86.28 16 91.56 16 97 16C97 21.28 97 26.56 97 32C91.72 32 86.44 32 81 32C81 47.84 81 63.68 81 80C70.44 80 59.88 80 49 80C49 74.72 49 69.44 49 64C54.28 64 59.56 64 65 64C65 42.88 65 21.76 65 0Z" fill="#008000"/>
<path d="M97 128C128.68 128 160.36 128 193 128C193 133.28 193 138.56 193 144C161.32 144 129.64 144 97 144C97 138.72 97 133.44 97 128Z" fill="white"/>
<path d="M97 240C123.4 240 149.8 240 177 240C177 245.28 177 250.56 177 256C150.6 256 124.2 256 97 256C97 250.72 97 245.44 97 240Z" fill="black"/>
<path d="M145 160C160.84 160 176.68 160 193 160C193 170.56 193 181.12 193 192C182.44 192 171.88 192 161 192C161 186.72 161 181.44 161 176C155.72 176 150.44 176 145 176C145 170.72 145 165.44 145 160Z" fill="white"/>
<path d="M49 128C54.28 128 59.56 128 65 128C65 154.4 65 180.8 65 208C59.72 208 54.44 208 49 208C49 181.6 49 155.2 49 128Z" fill="#00FF00"/>
<path d="M33 128C38.28 128 43.56 128 49 128C49 154.4 49 180.8 49 208C43.72 208 38.44 208 33 208C33 181.6 33 155.2 33 128Z" fill="#808000"/>
<path d="M49 208C54.28 208 59.56 208 65 208C65 213.28 65 218.56 65 224C75.56 224 86.12 224 97 224C97 229.28 97 234.56 97 240C81.16 240 65.32 240 49 240C49 229.44 49 218.88 49 208Z" fill="black"/>
<path d="M65 192C75.56 192 86.12 192 97 192C97 202.56 97 213.12 97 224C86.44 224 75.88 224 65 224C65 213.44 65 202.88 65 192Z" fill="#FFFF00"/>
<path d="M241 128C246.28 128 251.56 128 257 128C257 149.12 257 170.24 257 192C251.72 192 246.44 192 241 192C241 170.88 241 149.76 241 128Z" fill="black"/>
<path d="M193 128C198.28 128 203.56 128 209 128C209 149.12 209 170.24 209 192C203.72 192 198.44 192 193 192C193 170.88 193 149.76 193 128Z" fill="#808000"/>
<path d="M33 80C38.28 80 43.56 80 49 80C49 90.56 49 101.12 49 112C54.28 112 59.56 112 65 112C65 117.28 65 122.56 65 128C54.44 128 43.88 128 33 128C33 112.16 33 96.32 33 80Z" fill="black"/>
<path d="M209 64C219.56 64 230.12 64 241 64C241 74.56 241 85.12 241 96C230.44 96 219.88 96 209 96C209 85.44 209 74.88 209 64Z" fill="black"/>
<path d="M97 64C102.28 64 107.56 64 113 64C113 69.28 113 74.56 113 80C118.28 80 123.56 80 129 80C129 85.28 129 90.56 129 96C123.72 96 118.44 96 113 96C113 101.28 113 106.56 113 112C107.72 112 102.44 112 97 112C97 96.16 97 80.32 97 64Z" fill="black"/>
<path d="M177 16C187.56 16 198.12 16 209 16C209 26.56 209 37.12 209 48C198.44 48 187.88 48 177 48C177 37.44 177 26.88 177 16Z" fill="#808000"/>
<path d="M1 240C16.84 240 32.68 240 49 240C49 245.28 49 250.56 49 256C33.16 256 17.32 256 1 256C1 250.72 1 245.44 1 240Z" fill="#008000"/>
<path d="M241 16C246.28 16 251.56 16 257 16C257 31.84 257 47.68 257 64C251.72 64 246.44 64 241 64C241 48.16 241 32.32 241 16Z" fill="black"/>
<path d="M177 224C187.56 224 198.12 224 209 224C209 229.28 209 234.56 209 240C198.44 240 187.88 240 177 240C177 234.72 177 229.44 177 224Z" fill="black"/>
<path d="M49 208C54.28 208 59.56 208 65 208C65 218.56 65 229.12 65 240C59.72 240 54.44 240 49 240C49 229.44 49 218.88 49 208Z" fill="#008000"/>
<path d="M177 208C187.56 208 198.12 208 209 208C209 213.28 209 218.56 209 224C198.44 224 187.88 224 177 224C177 218.72 177 213.44 177 208Z" fill="#C0C0C0"/>
<path d="M129 176C139.56 176 150.12 176 161 176C161 181.28 161 186.56 161 192C150.44 192 139.88 192 129 192C129 186.72 129 181.44 129 176Z" fill="black"/>
<path d="M97 160C107.56 160 118.12 160 129 160C129 165.28 129 170.56 129 176C118.44 176 107.88 176 97 176C97 170.72 97 165.44 97 160Z" fill="black"/>
<path d="M49 80C54.28 80 59.56 80 65 80C65 90.56 65 101.12 65 112C59.72 112 54.44 112 49 112C49 101.44 49 90.88 49 80Z" fill="white"/>
<path d="M113 64C123.56 64 134.12 64 145 64C145 69.28 145 74.56 145 80C134.44 80 123.88 80 113 80C113 74.72 113 69.44 113 64Z" fill="#808000"/>
<path d="M49 64C59.56 64 70.12 64 81 64C81 69.28 81 74.56 81 80C70.44 80 59.88 80 49 80C49 74.72 49 69.44 49 64Z" fill="#808080"/>
<path d="M209 48C219.56 48 230.12 48 241 48C241 53.28 241 58.56 241 64C230.44 64 219.88 64 209 64C209 58.72 209 53.44 209 48Z" fill="#C0C0C0"/>
<path d="M177 48C187.56 48 198.12 48 209 48C209 53.28 209 58.56 209 64C198.44 64 187.88 64 177 64C177 58.72 177 53.44 177 48Z" fill="black"/>
<path d="M97 32C102.28 32 107.56 32 113 32C113 42.56 113 53.12 113 64C107.72 64 102.44 64 97 64C97 53.44 97 42.88 97 32Z" fill="#008000"/>
<path d="M145 208C150.28 208 155.56 208 161 208C161 213.28 161 218.56 161 224C155.72 224 150.44 224 145 224C145 218.72 145 213.44 145 208Z" fill="white"/>
<path d="M113 208C118.28 208 123.56 208 129 208C129 213.28 129 218.56 129 224C123.72 224 118.44 224 113 224C113 218.72 113 213.44 113 208Z" fill="white"/>
<path d="M81 208C86.28 208 91.56 208 97 208C97 213.28 97 218.56 97 224C91.72 224 86.44 224 81 224C81 218.72 81 213.44 81 208Z" fill="white"/>
<path d="M65 208C70.28 208 75.56 208 81 208C81 213.28 81 218.56 81 224C75.72 224 70.44 224 65 224C65 218.72 65 213.44 65 208Z" fill="#FFFF00"/>
<path d="M49 208C54.28 208 59.56 208 65 208C65 213.28 65 218.56 65 224C59.72 224 54.44 224 49 224C49 218.72 49 213.44 49 208Z" fill="black"/>
<path d="M145 192C150.28 192 155.56 192 161 192C161 197.28 161 202.56 161 208C155.72 208 150.44 208 145 208C145 202.72 145 197.44 145 192Z" fill="#FFFF00"/>
<path d="M129 192C134.28 192 139.56 192 145 192C145 197.28 145 202.56 145 208C139.72 208 134.44 208 129 208C129 202.72 129 197.44 129 192Z" fill="white"/>
<path d="M113 192C118.28 192 123.56 192 129 192C129 197.28 129 202.56 129 208C123.72 208 118.44 208 113 208C113 202.72 113 197.44 113 192Z" fill="#FFFF00"/>
<path d="M97 192C102.28 192 107.56 192 113 192C113 197.28 113 202.56 113 208C107.72 208 102.44 208 97 208C97 202.72 97 197.44 97 192Z" fill="white"/>
<path d="M65 192C70.28 192 75.56 192 81 192C81 197.28 81 202.56 81 208C75.72 208 70.44 208 65 208C65 202.72 65 197.44 65 192Z" fill="white"/>
<path d="M49 192C54.28 192 59.56 192 65 192C65 197.28 65 202.56 65 208C59.72 208 54.44 208 49 208C49 202.72 49 197.44 49 192Z" fill="#008000"/>
<path d="M225 176C230.28 176 235.56 176 241 176C241 181.28 241 186.56 241 192C235.72 192 230.44 192 225 192C225 186.72 225 181.44 225 176Z" fill="#808080"/>
<path d="M177 176C182.28 176 187.56 176 193 176C193 181.28 193 186.56 193 192C187.72 192 182.44 192 177 192C177 186.72 177 181.44 177 176Z" fill="white"/>
<path d="M161 176C166.28 176 171.56 176 177 176C177 181.28 177 186.56 177 192C171.72 192 166.44 192 161 192C161 186.72 161 181.44 161 176Z" fill="#808080"/>
<path d="M113 176C118.28 176 123.56 176 129 176C129 181.28 129 186.56 129 192C123.72 192 118.44 192 113 192C113 186.72 113 181.44 113 176Z" fill="white"/>
<path d="M97 176C102.28 176 107.56 176 113 176C113 181.28 113 186.56 113 192C107.72 192 102.44 192 97 192C97 186.72 97 181.44 97 176Z" fill="#FFFF00"/>
<path d="M177 160C182.28 160 187.56 160 193 160C193 165.28 193 170.56 193 176C187.72 176 182.44 176 177 176C177 170.72 177 165.44 177 160Z" fill="#FFFF00"/>
<path d="M145 160C150.28 160 155.56 160 161 160C161 165.28 161 170.56 161 176C155.72 176 150.44 176 145 176C145 170.72 145 165.44 145 160Z" fill="#FFFF00"/>
<path d="M129 160C134.28 160 139.56 160 145 160C145 165.28 145 170.56 145 176C139.72 176 134.44 176 129 176C129 170.72 129 165.44 129 160Z" fill="#808080"/>
<path d="M81 160C86.28 160 91.56 160 97 160C97 165.28 97 170.56 97 176C91.72 176 86.44 176 81 176C81 170.72 81 165.44 81 160Z" fill="#FFFF00"/>
<path d="M97 144C102.28 144 107.56 144 113 144C113 149.28 113 154.56 113 160C107.72 160 102.44 160 97 160C97 154.72 97 149.44 97 144Z" fill="#808080"/>
<path d="M81 144C86.28 144 91.56 144 97 144C97 149.28 97 154.56 97 160C91.72 160 86.44 160 81 160C81 154.72 81 149.44 81 144Z" fill="black"/>
<path d="M225 128C230.28 128 235.56 128 241 128C241 133.28 241 138.56 241 144C235.72 144 230.44 144 225 144C225 138.72 225 133.44 225 128Z" fill="#808080"/>
<path d="M81 128C86.28 128 91.56 128 97 128C97 133.28 97 138.56 97 144C91.72 144 86.44 144 81 144C81 138.72 81 133.44 81 128Z" fill="#808000"/>
<path d="M193 112C198.28 112 203.56 112 209 112C209 117.28 209 122.56 209 128C203.72 128 198.44 128 193 128C193 122.72 193 117.44 193 112Z" fill="white"/>
<path d="M177 112C182.28 112 187.56 112 193 112C193 117.28 193 122.56 193 128C187.72 128 182.44 128 177 128C177 122.72 177 117.44 177 112Z" fill="black"/>
<path d="M129 112C134.28 112 139.56 112 145 112C145 117.28 145 122.56 145 128C139.72 128 134.44 128 129 128C129 122.72 129 117.44 129 112Z" fill="#800000"/>
<path d="M65 112C70.28 112 75.56 112 81 112C81 117.28 81 122.56 81 128C75.72 128 70.44 128 65 128C65 122.72 65 117.44 65 112Z" fill="#00FF00"/>
<path d="M49 112C54.28 112 59.56 112 65 112C65 117.28 65 122.56 65 128C59.72 128 54.44 128 49 128C49 122.72 49 117.44 49 112Z" fill="#808000"/>
<path d="M209 96C214.28 96 219.56 96 225 96C225 101.28 225 106.56 225 112C219.72 112 214.44 112 209 112C209 106.72 209 101.44 209 96Z" fill="#C0C0C0"/>
<path d="M193 96C198.28 96 203.56 96 209 96C209 101.28 209 106.56 209 112C203.72 112 198.44 112 193 112C193 106.72 193 101.44 193 96Z" fill="black"/>
<path d="M145 96C150.28 96 155.56 96 161 96C161 101.28 161 106.56 161 112C155.72 112 150.44 112 145 112C145 106.72 145 101.44 145 96Z" fill="#800000"/>
<path d="M225 80C230.28 80 235.56 80 241 80C241 85.28 241 90.56 241 96C235.72 96 230.44 96 225 96C225 90.72 225 85.44 225 80Z" fill="#808080"/>
<path d="M161 80C166.28 80 171.56 80 177 80C177 85.28 177 90.56 177 96C171.72 96 166.44 96 161 96C161 90.72 161 85.44 161 80Z" fill="#800000"/>
<path d="M33 80C38.28 80 43.56 80 49 80C49 85.28 49 90.56 49 96C43.72 96 38.44 96 33 96C33 90.72 33 85.44 33 80Z" fill="#808000"/>
<path d="M193 64C198.28 64 203.56 64 209 64C209 69.28 209 74.56 209 80C203.72 80 198.44 80 193 80C193 74.72 193 69.44 193 64Z" fill="#00FFFF"/>
<path d="M177 64C182.28 64 187.56 64 193 64C193 69.28 193 74.56 193 80C187.72 80 182.44 80 177 80C177 74.72 177 69.44 177 64Z" fill="#800000"/>
<path d="M81 64C86.28 64 91.56 64 97 64C97 69.28 97 74.56 97 80C91.72 80 86.44 80 81 80C81 74.72 81 69.44 81 64Z" fill="#008000"/>
<path d="M49 64C54.28 64 59.56 64 65 64C65 69.28 65 74.56 65 80C59.72 80 54.44 80 49 80C49 74.72 49 69.44 49 64Z" fill="#808000"/>
<path d="M209 48C214.28 48 219.56 48 225 48C225 53.28 225 58.56 225 64C219.72 64 214.44 64 209 64C209 58.72 209 53.44 209 48Z" fill="#808080"/>
<path d="M225 32C230.28 32 235.56 32 241 32C241 37.28 241 42.56 241 48C235.72 48 230.44 48 225 48C225 42.72 225 37.44 225 32Z" fill="#808000"/>
<path d="M193 32C198.28 32 203.56 32 209 32C209 37.28 209 42.56 209 48C203.72 48 198.44 48 193 48C193 42.72 193 37.44 193 32Z" fill="white"/>
</g>
<defs>
<clipPath id="clip0_771_5748">
<rect width="256" height="256" fill="white"/>
</clipPath>
</defs>
</svg>
