<svg width="256" height="256" viewBox="0 0 256 256" fill="none" xmlns="http://www.w3.org/2000/svg">
<path d="M140 0C150.56 0 161.12 0 172 0C172 23.76 172 47.52 172 72C174.64 72 177.28 72 180 72C180 69.36 180 66.72 180 64C182.64 64 185.28 64 188 64C188 61.36 188 58.72 188 56C190.64 56 193.28 56 196 56C196 53.36 196 50.72 196 48C201.28 48 206.56 48 212 48C212 50.64 212 53.28 212 56C214.64 56 217.28 56 220 56C220 61.28 220 66.56 220 72C222.64 72 225.28 72 228 72C228 66.72 228 61.44 228 56C233.28 56 238.56 56 244 56C244 58.64 244 61.28 244 64C246.64 64 249.28 64 252 64C252 69.28 252 74.56 252 80C249.36 80 246.72 80 244 80C244 82.64 244 85.28 244 88C241.36 88 238.72 88 236 88C236 90.64 236 93.28 236 96C233.36 96 230.72 96 228 96C228 98.64 228 101.28 228 104C225.36 104 222.72 104 220 104C220 106.64 220 109.28 220 112C217.36 112 214.72 112 212 112C212 117.28 212 122.56 212 128C214.64 128 217.28 128 220 128C220 138.56 220 149.12 220 160C217.36 160 214.72 160 212 160C212 189.04 212 218.08 212 248C209.36 248 206.72 248 204 248C204 250.64 204 253.28 204 256C156.48 256 108.96 256 60 256C60 253.36 60 250.72 60 248C57.36 248 54.72 248 52 248C52 218.96 52 189.92 52 160C49.36 160 46.72 160 44 160C44 149.44 44 138.88 44 128C46.64 128 49.28 128 52 128C52 125.36 52 122.72 52 120C54.64 120 57.28 120 60 120C60 117.36 60 114.72 60 112C57.36 112 54.72 112 52 112C52 109.36 52 106.72 52 104C49.36 104 46.72 104 44 104C44 101.36 44 98.72 44 96C41.36 96 38.72 96 36 96C36 93.36 36 90.72 36 88C33.36 88 30.72 88 28 88C28 85.36 28 82.72 28 80C25.36 80 22.72 80 20 80C20 77.36 20 74.72 20 72C17.36 72 14.72 72 12 72C12 69.36 12 66.72 12 64C9.36 64 6.72 64 4 64C4 61.36 4 58.72 4 56C6.64 56 9.28 56 12 56C12 53.36 12 50.72 12 48C14.64 48 17.28 48 20 48C20 45.36 20 42.72 20 40C17.36 40 14.72 40 12 40C12 37.36 12 34.72 12 32C9.36 32 6.72 32 4 32C4 29.36 4 26.72 4 24C6.64 24 9.28 24 12 24C12 21.36 12 18.72 12 16C17.28 16 22.56 16 28 16C28 18.64 28 21.28 28 24C30.64 24 33.28 24 36 24C36 26.64 36 29.28 36 32C38.64 32 41.28 32 44 32C44 34.64 44 37.28 44 40C46.64 40 49.28 40 52 40C52 42.64 52 45.28 52 48C54.64 48 57.28 48 60 48C60 50.64 60 53.28 60 56C62.64 56 65.28 56 68 56C68 58.64 68 61.28 68 64C70.64 64 73.28 64 76 64C76 66.64 76 69.28 76 72C78.64 72 81.28 72 84 72C84 74.64 84 77.28 84 80C86.64 80 89.28 80 92 80C92 82.64 92 85.28 92 88C94.64 88 97.28 88 100 88C100 61.6 100 35.2 100 8C110.56 8 121.12 8 132 8C132 42.32 132 76.64 132 112C134.64 112 137.28 112 140 112C140 75.04 140 38.08 140 0ZM212 72C212 74.64 212 77.28 212 80C214.64 80 217.28 80 220 80C220 77.36 220 74.72 220 72C217.36 72 214.72 72 212 72ZM204 80C204 82.64 204 85.28 204 88C206.64 88 209.28 88 212 88C212 85.36 212 82.72 212 80C209.36 80 206.72 80 204 80ZM196 88C196 90.64 196 93.28 196 96C198.64 96 201.28 96 204 96C204 93.36 204 90.72 204 88C201.36 88 198.72 88 196 88ZM188 96C188 98.64 188 101.28 188 104C190.64 104 193.28 104 196 104C196 101.36 196 98.72 196 96C193.36 96 190.72 96 188 96ZM180 104C180 106.64 180 109.28 180 112C182.64 112 185.28 112 188 112C188 109.36 188 106.72 188 104C185.36 104 182.72 104 180 104ZM172 112C172 114.64 172 117.28 172 120C174.64 120 177.28 120 180 120C180 117.36 180 114.72 180 112C177.36 112 174.72 112 172 112Z" fill="#868686"/>
<path d="M100 8C110.56 8 121.12 8 132 8C132 44.96 132 81.92 132 120C108.24 120 84.48 120 60 120C60 117.36 60 114.72 60 112C57.36 112 54.72 112 52 112C52 109.36 52 106.72 52 104C49.36 104 46.72 104 44 104C44 101.36 44 98.72 44 96C41.36 96 38.72 96 36 96C36 93.36 36 90.72 36 88C33.36 88 30.72 88 28 88C28 85.36 28 82.72 28 80C25.36 80 22.72 80 20 80C20 77.36 20 74.72 20 72C17.36 72 14.72 72 12 72C12 69.36 12 66.72 12 64C9.36 64 6.72 64 4 64C4 61.36 4 58.72 4 56C6.64 56 9.28 56 12 56C12 53.36 12 50.72 12 48C14.64 48 17.28 48 20 48C20 45.36 20 42.72 20 40C17.36 40 14.72 40 12 40C12 37.36 12 34.72 12 32C9.36 32 6.72 32 4 32C4 29.36 4 26.72 4 24C6.64 24 9.28 24 12 24C12 21.36 12 18.72 12 16C17.28 16 22.56 16 28 16C28 18.64 28 21.28 28 24C30.64 24 33.28 24 36 24C36 26.64 36 29.28 36 32C38.64 32 41.28 32 44 32C44 34.64 44 37.28 44 40C46.64 40 49.28 40 52 40C52 42.64 52 45.28 52 48C54.64 48 57.28 48 60 48C60 50.64 60 53.28 60 56C62.64 56 65.28 56 68 56C68 58.64 68 61.28 68 64C70.64 64 73.28 64 76 64C76 66.64 76 69.28 76 72C78.64 72 81.28 72 84 72C84 74.64 84 77.28 84 80C86.64 80 89.28 80 92 80C92 82.64 92 85.28 92 88C94.64 88 97.28 88 100 88C100 61.6 100 35.2 100 8Z" fill="#800080"/>
<path d="M60 160C81.12 160 102.24 160 124 160C124 162.64 124 165.28 124 168C126.64 168 129.28 168 132 168C132 170.64 132 173.28 132 176C134.64 176 137.28 176 140 176C140 178.64 140 181.28 140 184C137.36 184 134.72 184 132 184C132 202.48 132 220.96 132 240C108.24 240 84.48 240 60 240C60 213.6 60 187.2 60 160Z" fill="#E4E4E4"/>
<path d="M140 0C150.56 0 161.12 0 172 0C172 23.76 172 47.52 172 72C174.64 72 177.28 72 180 72C180 69.36 180 66.72 180 64C182.64 64 185.28 64 188 64C188 61.36 188 58.72 188 56C190.64 56 193.28 56 196 56C196 53.36 196 50.72 196 48C201.28 48 206.56 48 212 48C212 50.64 212 53.28 212 56C214.64 56 217.28 56 220 56C220 61.28 220 66.56 220 72C217.36 72 214.72 72 212 72C212 74.64 212 77.28 212 80C209.36 80 206.72 80 204 80C204 82.64 204 85.28 204 88C201.36 88 198.72 88 196 88C196 90.64 196 93.28 196 96C193.36 96 190.72 96 188 96C188 98.64 188 101.28 188 104C185.36 104 182.72 104 180 104C180 106.64 180 109.28 180 112C177.36 112 174.72 112 172 112C172 114.64 172 117.28 172 120C169.36 120 166.72 120 164 120C164 114.72 164 109.44 164 104C158.72 104 153.44 104 148 104C148 106.64 148 109.28 148 112C145.36 112 142.72 112 140 112C140 75.04 140 38.08 140 0Z" fill="#008080"/>
<path d="M212 128C214.64 128 217.28 128 220 128C220 138.56 220 149.12 220 160C217.36 160 214.72 160 212 160C212 189.04 212 218.08 212 248C209.36 248 206.72 248 204 248C204 250.64 204 253.28 204 256C156.48 256 108.96 256 60 256C60 253.36 60 250.72 60 248C83.76 248 107.52 248 132 248C132 245.36 132 242.72 132 240C150.48 240 168.96 240 188 240C188 213.6 188 187.2 188 160C190.64 160 193.28 160 196 160C196 157.36 196 154.72 196 152C201.28 152 206.56 152 212 152C212 144.08 212 136.16 212 128Z" fill="#5F5F5F"/>
<path d="M100 8C110.56 8 121.12 8 132 8C132 44.96 132 81.92 132 120C124.08 120 116.16 120 108 120C108 98.88 108 77.76 108 56C105.36 56 102.72 56 100 56C100 40.16 100 24.32 100 8Z" fill="#FF0000"/>
<path d="M124 160C131.92 160 139.84 160 148 160C148 162.64 148 165.28 148 168C150.64 168 153.28 168 156 168C156 170.64 156 173.28 156 176C158.64 176 161.28 176 164 176C164 181.28 164 186.56 164 192C166.64 192 169.28 192 172 192C172 207.84 172 223.68 172 240C158.8 240 145.6 240 132 240C132 221.52 132 203.04 132 184C134.64 184 137.28 184 140 184C140 181.36 140 178.72 140 176C137.36 176 134.72 176 132 176C132 173.36 132 170.72 132 168C129.36 168 126.72 168 124 168C124 165.36 124 162.72 124 160Z" fill="#B2B2B2"/>
<path d="M84 152C120.96 152 157.92 152 196 152C196 154.64 196 157.28 196 160C193.36 160 190.72 160 188 160C188 186.4 188 212.8 188 240C182.72 240 177.44 240 172 240C172 224.16 172 208.32 172 192C169.36 192 166.72 192 164 192C164 186.72 164 181.44 164 176C161.36 176 158.72 176 156 176C156 173.36 156 170.72 156 168C153.36 168 150.72 168 148 168C148 165.36 148 162.72 148 160C126.88 160 105.76 160 84 160C84 157.36 84 154.72 84 152Z" fill="#7F7F7F"/>
<path d="M68 176C81.2 176 94.4 176 108 176C108 197.12 108 218.24 108 240C94.8 240 81.6 240 68 240C68 218.88 68 197.76 68 176Z" fill="#F8F8F8"/>
<path d="M60 128C89.04 128 118.08 128 148 128C148 130.64 148 133.28 148 136C150.64 136 153.28 136 156 136C156 141.28 156 146.56 156 152C124.32 152 92.64 152 60 152C60 144.08 60 136.16 60 128Z" fill="#F8F8F8"/>
<path d="M228 56C233.28 56 238.56 56 244 56C244 58.64 244 61.28 244 64C246.64 64 249.28 64 252 64C252 69.28 252 74.56 252 80C249.36 80 246.72 80 244 80C244 82.64 244 85.28 244 88C241.36 88 238.72 88 236 88C236 90.64 236 93.28 236 96C233.36 96 230.72 96 228 96C228 98.64 228 101.28 228 104C225.36 104 222.72 104 220 104C220 106.64 220 109.28 220 112C217.36 112 214.72 112 212 112C212 114.64 212 117.28 212 120C201.44 120 190.88 120 180 120C180 117.36 180 114.72 180 112C182.64 112 185.28 112 188 112C188 109.36 188 106.72 188 104C190.64 104 193.28 104 196 104C196 101.36 196 98.72 196 96C198.64 96 201.28 96 204 96C204 93.36 204 90.72 204 88C206.64 88 209.28 88 212 88C212 85.36 212 82.72 212 80C214.64 80 217.28 80 220 80C220 77.36 220 74.72 220 72C222.64 72 225.28 72 228 72C228 66.72 228 61.44 228 56Z" fill="#C0C0C0"/>
<path d="M100 8C110.56 8 121.12 8 132 8C132 44.96 132 81.92 132 120C126.72 120 121.44 120 116 120C116 117.36 116 114.72 116 112C118.64 112 121.28 112 124 112C124 85.6 124 59.2 124 32C116.08 32 108.16 32 100 32C100 24.08 100 16.16 100 8Z" fill="black"/>
<path d="M124 160C131.92 160 139.84 160 148 160C148 162.64 148 165.28 148 168C150.64 168 153.28 168 156 168C156 170.64 156 173.28 156 176C158.64 176 161.28 176 164 176C164 181.28 164 186.56 164 192C166.64 192 169.28 192 172 192C172 207.84 172 223.68 172 240C166.72 240 161.44 240 156 240C156 221.52 156 203.04 156 184C153.36 184 150.72 184 148 184C148 181.36 148 178.72 148 176C142.72 176 137.44 176 132 176C132 173.36 132 170.72 132 168C129.36 168 126.72 168 124 168C124 165.36 124 162.72 124 160Z" fill="#A0A0A4"/>
<path d="M52 160C54.64 160 57.28 160 60 160C60 186.4 60 212.8 60 240C83.76 240 107.52 240 132 240C132 242.64 132 245.28 132 248C105.6 248 79.2 248 52 248C52 218.96 52 189.92 52 160Z" fill="#868686"/>
<path d="M84 152C120.96 152 157.92 152 196 152C196 154.64 196 157.28 196 160C193.36 160 190.72 160 188 160C188 173.2 188 186.4 188 200C185.36 200 182.72 200 180 200C180 186.8 180 173.6 180 160C148.32 160 116.64 160 84 160C84 157.36 84 154.72 84 152Z" fill="#666666"/>
<path d="M44 72C46.64 72 49.28 72 52 72C52 74.64 52 77.28 52 80C54.64 80 57.28 80 60 80C60 82.64 60 85.28 60 88C62.64 88 65.28 88 68 88C68 90.64 68 93.28 68 96C70.64 96 73.28 96 76 96C76 98.64 76 101.28 76 104C78.64 104 81.28 104 84 104C84 106.64 84 109.28 84 112C86.64 112 89.28 112 92 112C92 114.64 92 117.28 92 120C81.44 120 70.88 120 60 120C60 117.36 60 114.72 60 112C57.36 112 54.72 112 52 112C52 109.36 52 106.72 52 104C49.36 104 46.72 104 44 104C44 101.36 44 98.72 44 96C41.36 96 38.72 96 36 96C36 93.36 36 90.72 36 88C38.64 88 41.28 88 44 88C44 82.72 44 77.44 44 72Z" fill="#000095"/>
<path d="M60 248C107.52 248 155.04 248 204 248C204 250.64 204 253.28 204 256C156.48 256 108.96 256 60 256C60 253.36 60 250.72 60 248Z" fill="black"/>
<path d="M212 128C214.64 128 217.28 128 220 128C220 138.56 220 149.12 220 160C217.36 160 214.72 160 212 160C212 189.04 212 218.08 212 248C209.36 248 206.72 248 204 248C204 218.96 204 189.92 204 160C201.36 160 198.72 160 196 160C196 157.36 196 154.72 196 152C201.28 152 206.56 152 212 152C212 144.08 212 136.16 212 128Z" fill="black"/>
<path d="M140 0C150.56 0 161.12 0 172 0C172 15.84 172 31.68 172 48C169.36 48 166.72 48 164 48C164 40.08 164 32.16 164 24C156.08 24 148.16 24 140 24C140 16.08 140 8.16 140 0Z" fill="black"/>
<path d="M204 88C206.64 88 209.28 88 212 88C212 90.64 212 93.28 212 96C217.28 96 222.56 96 228 96C228 98.64 228 101.28 228 104C225.36 104 222.72 104 220 104C220 106.64 220 109.28 220 112C217.36 112 214.72 112 212 112C212 114.64 212 117.28 212 120C201.44 120 190.88 120 180 120C180 117.36 180 114.72 180 112C182.64 112 185.28 112 188 112C188 109.36 188 106.72 188 104C190.64 104 193.28 104 196 104C196 101.36 196 98.72 196 96C198.64 96 201.28 96 204 96C204 93.36 204 90.72 204 88Z" fill="#008080"/>
<path d="M164 80C166.64 80 169.28 80 172 80C172 82.64 172 85.28 172 88C179.92 88 187.84 88 196 88C196 90.64 196 93.28 196 96C193.36 96 190.72 96 188 96C188 98.64 188 101.28 188 104C185.36 104 182.72 104 180 104C180 106.64 180 109.28 180 112C177.36 112 174.72 112 172 112C172 114.64 172 117.28 172 120C169.36 120 166.72 120 164 120C164 114.72 164 109.44 164 104C161.36 104 158.72 104 156 104C156 98.72 156 93.44 156 88C158.64 88 161.28 88 164 88C164 85.36 164 82.72 164 80Z" fill="#FFFF00"/>
<path d="M196 48C201.28 48 206.56 48 212 48C212 50.64 212 53.28 212 56C214.64 56 217.28 56 220 56C220 61.28 220 66.56 220 72C217.36 72 214.72 72 212 72C212 74.64 212 77.28 212 80C209.36 80 206.72 80 204 80C204 82.64 204 85.28 204 88C201.36 88 198.72 88 196 88C196 82.72 196 77.44 196 72C193.36 72 190.72 72 188 72C188 66.72 188 61.44 188 56C190.64 56 193.28 56 196 56C196 53.36 196 50.72 196 48Z" fill="black"/>
<path d="M124 128C131.92 128 139.84 128 148 128C148 130.64 148 133.28 148 136C150.64 136 153.28 136 156 136C156 141.28 156 146.56 156 152C142.8 152 129.6 152 116 152C116 149.36 116 146.72 116 144C118.64 144 121.28 144 124 144C124 138.72 124 133.44 124 128Z" fill="#C0C0C0"/>
<path d="M92 128C102.56 128 113.12 128 124 128C124 133.28 124 138.56 124 144C121.36 144 118.72 144 116 144C116 146.64 116 149.28 116 152C108.08 152 100.16 152 92 152C92 144.08 92 136.16 92 128Z" fill="#E0E0E0"/>
<path d="M44 128C49.28 128 54.56 128 60 128C60 135.92 60 143.84 60 152C67.92 152 75.84 152 84 152C84 154.64 84 157.28 84 160C70.8 160 57.6 160 44 160C44 149.44 44 138.88 44 128Z" fill="#CCCCCC"/>
<path d="M140 48C145.28 48 150.56 48 156 48C156 50.64 156 53.28 156 56C153.36 56 150.72 56 148 56C148 66.56 148 77.12 148 88C150.64 88 153.28 88 156 88C156 93.28 156 98.56 156 104C153.36 104 150.72 104 148 104C148 106.64 148 109.28 148 112C145.36 112 142.72 112 140 112C140 90.88 140 69.76 140 48Z" fill="#008080"/>
<path d="M132 192C134.64 192 137.28 192 140 192C140 194.64 140 197.28 140 200C142.64 200 145.28 200 148 200C148 205.28 148 210.56 148 216C145.36 216 142.72 216 140 216C140 218.64 140 221.28 140 224C142.64 224 145.28 224 148 224C148 229.28 148 234.56 148 240C142.72 240 137.44 240 132 240C132 224.16 132 208.32 132 192Z" fill="#CCCCCC"/>
<path d="M196 160C198.64 160 201.28 160 204 160C204 186.4 204 212.8 204 240C201.36 240 198.72 240 196 240C196 213.6 196 187.2 196 160Z" fill="#4D4D4D"/>
<path d="M60 160C62.64 160 65.28 160 68 160C68 186.4 68 212.8 68 240C65.36 240 62.72 240 60 240C60 213.6 60 187.2 60 160Z" fill="#CCCCCC"/>
<path d="M148 128C158.56 128 169.12 128 180 128C180 135.92 180 143.84 180 152C172.08 152 164.16 152 156 152C156 146.72 156 141.44 156 136C153.36 136 150.72 136 148 136C148 133.36 148 130.72 148 128Z" fill="#979797"/>
<path d="M12 48C14.64 48 17.28 48 20 48C20 53.28 20 58.56 20 64C22.64 64 25.28 64 28 64C28 66.64 28 69.28 28 72C33.28 72 38.56 72 44 72C44 77.28 44 82.56 44 88C38.72 88 33.44 88 28 88C28 85.36 28 82.72 28 80C25.36 80 22.72 80 20 80C20 77.36 20 74.72 20 72C17.36 72 14.72 72 12 72C12 69.36 12 66.72 12 64C9.36 64 6.72 64 4 64C4 61.36 4 58.72 4 56C6.64 56 9.28 56 12 56C12 53.36 12 50.72 12 48Z" fill="#949494"/>
<path d="M100 56C102.64 56 105.28 56 108 56C108 77.12 108 98.24 108 120C102.72 120 97.44 120 92 120C92 117.36 92 114.72 92 112C94.64 112 97.28 112 100 112C100 106.72 100 101.44 100 96C97.36 96 94.72 96 92 96C92 93.36 92 90.72 92 88C94.64 88 97.28 88 100 88C100 77.44 100 66.88 100 56Z" fill="#800000"/>
<path d="M100 32C107.92 32 115.84 32 124 32C124 39.92 124 47.84 124 56C121.36 56 118.72 56 116 56C116 58.64 116 61.28 116 64C113.36 64 110.72 64 108 64C108 61.36 108 58.72 108 56C105.36 56 102.72 56 100 56C100 48.08 100 40.16 100 32Z" fill="#868686"/>
<path d="M12 16C17.28 16 22.56 16 28 16C28 18.64 28 21.28 28 24C30.64 24 33.28 24 36 24C36 26.64 36 29.28 36 32C38.64 32 41.28 32 44 32C44 34.64 44 37.28 44 40C33.44 40 22.88 40 12 40C12 37.36 12 34.72 12 32C9.36 32 6.72 32 4 32C4 29.36 4 26.72 4 24C6.64 24 9.28 24 12 24C12 21.36 12 18.72 12 16Z" fill="black"/>
<path d="M132 240C155.76 240 179.52 240 204 240C204 242.64 204 245.28 204 248C180.24 248 156.48 248 132 248C132 245.36 132 242.72 132 240Z" fill="#666666"/>
<path d="M140 24C147.92 24 155.84 24 164 24C164 31.92 164 39.84 164 48C156.08 48 148.16 48 140 48C140 40.08 140 32.16 140 24Z" fill="#868686"/>
<path d="M108 176C110.64 176 113.28 176 116 176C116 197.12 116 218.24 116 240C113.36 240 110.72 240 108 240C108 218.88 108 197.76 108 176Z" fill="#F1F1F1"/>
<path d="M124 160C131.92 160 139.84 160 148 160C148 162.64 148 165.28 148 168C150.64 168 153.28 168 156 168C156 170.64 156 173.28 156 176C158.64 176 161.28 176 164 176C164 178.64 164 181.28 164 184C158.72 184 153.44 184 148 184C148 181.36 148 178.72 148 176C142.72 176 137.44 176 132 176C132 173.36 132 170.72 132 168C129.36 168 126.72 168 124 168C124 165.36 124 162.72 124 160Z" fill="#999999"/>
<path d="M180 64C182.64 64 185.28 64 188 64C188 66.64 188 69.28 188 72C190.64 72 193.28 72 196 72C196 77.28 196 82.56 196 88C188.08 88 180.16 88 172 88C172 82.72 172 77.44 172 72C174.64 72 177.28 72 180 72C180 69.36 180 66.72 180 64Z" fill="#F8F8F8"/>
<path d="M116 56C118.64 56 121.28 56 124 56C124 74.48 124 92.96 124 112C121.36 112 118.72 112 116 112C116 93.52 116 75.04 116 56Z" fill="#800000"/>
<path d="M164 192C166.64 192 169.28 192 172 192C172 207.84 172 223.68 172 240C169.36 240 166.72 240 164 240C164 224.16 164 208.32 164 192Z" fill="#999999"/>
<path d="M108 160C113.28 160 118.56 160 124 160C124 162.64 124 165.28 124 168C126.64 168 129.28 168 132 168C132 170.64 132 173.28 132 176C134.64 176 137.28 176 140 176C140 178.64 140 181.28 140 184C134.72 184 129.44 184 124 184C124 181.36 124 178.72 124 176C121.36 176 118.72 176 116 176C116 173.36 116 170.72 116 168C113.36 168 110.72 168 108 168C108 165.36 108 162.72 108 160Z" fill="#D7D7D7"/>
<path d="M196 128C201.28 128 206.56 128 212 128C212 135.92 212 143.84 212 152C206.72 152 201.44 152 196 152C196 144.08 196 136.16 196 128Z" fill="#4D4D4D"/>
<path d="M212 96C217.28 96 222.56 96 228 96C228 98.64 228 101.28 228 104C225.36 104 222.72 104 220 104C220 106.64 220 109.28 220 112C217.36 112 214.72 112 212 112C212 114.64 212 117.28 212 120C206.72 120 201.44 120 196 120C196 117.36 196 114.72 196 112C198.64 112 201.28 112 204 112C204 109.36 204 106.72 204 104C206.64 104 209.28 104 212 104C212 101.36 212 98.72 212 96Z" fill="#000080"/>
<path d="M84 88C86.64 88 89.28 88 92 88C92 90.64 92 93.28 92 96C94.64 96 97.28 96 100 96C100 101.28 100 106.56 100 112C94.72 112 89.44 112 84 112C84 109.36 84 106.72 84 104C81.36 104 78.72 104 76 104C76 101.36 76 98.72 76 96C78.64 96 81.28 96 84 96C84 93.36 84 90.72 84 88Z" fill="#800080"/>
<path d="M36 88C41.28 88 46.56 88 52 88C52 90.64 52 93.28 52 96C54.64 96 57.28 96 60 96C60 98.64 60 101.28 60 104C62.64 104 65.28 104 68 104C68 106.64 68 109.28 68 112C62.72 112 57.44 112 52 112C52 109.36 52 106.72 52 104C49.36 104 46.72 104 44 104C44 101.36 44 98.72 44 96C41.36 96 38.72 96 36 96C36 93.36 36 90.72 36 88Z" fill="#008080"/>
<path d="M20 40C27.92 40 35.84 40 44 40C44 47.92 44 55.84 44 64C41.36 64 38.72 64 36 64C36 61.36 36 58.72 36 56C33.36 56 30.72 56 28 56C28 53.36 28 50.72 28 48C25.36 48 22.72 48 20 48C20 45.36 20 42.72 20 40Z" fill="#F8F8F8"/>
<path d="M140 128C142.64 128 145.28 128 148 128C148 130.64 148 133.28 148 136C150.64 136 153.28 136 156 136C156 141.28 156 146.56 156 152C150.72 152 145.44 152 140 152C140 144.08 140 136.16 140 128Z" fill="#B2B2B2"/>
<path d="M20 48C22.64 48 25.28 48 28 48C28 50.64 28 53.28 28 56C30.64 56 33.28 56 36 56C36 58.64 36 61.28 36 64C38.64 64 41.28 64 44 64C44 66.64 44 69.28 44 72C38.72 72 33.44 72 28 72C28 69.36 28 66.72 28 64C25.36 64 22.72 64 20 64C20 58.72 20 53.44 20 48Z" fill="black"/>
<path d="M148 128C153.28 128 158.56 128 164 128C164 135.92 164 143.84 164 152C161.36 152 158.72 152 156 152C156 146.72 156 141.44 156 136C153.36 136 150.72 136 148 136C148 133.36 148 130.72 148 128Z" fill="#A0A0A4"/>
<path d="M44 128C46.64 128 49.28 128 52 128C52 138.56 52 149.12 52 160C49.36 160 46.72 160 44 160C44 149.44 44 138.88 44 128Z" fill="#868686"/>
<path d="M148 104C153.28 104 158.56 104 164 104C164 106.64 164 109.28 164 112C161.36 112 158.72 112 156 112C156 114.64 156 117.28 156 120C150.72 120 145.44 120 140 120C140 117.36 140 114.72 140 112C142.64 112 145.28 112 148 112C148 109.36 148 106.72 148 104Z" fill="#C0C0C0"/>
<path d="M212 80C214.64 80 217.28 80 220 80C220 82.64 220 85.28 220 88C225.28 88 230.56 88 236 88C236 90.64 236 93.28 236 96C228.08 96 220.16 96 212 96C212 90.72 212 85.44 212 80Z" fill="#008080"/>
<path d="M172 88C179.92 88 187.84 88 196 88C196 90.64 196 93.28 196 96C193.36 96 190.72 96 188 96C188 98.64 188 101.28 188 104C185.36 104 182.72 104 180 104C180 101.36 180 98.72 180 96C177.36 96 174.72 96 172 96C172 93.36 172 90.72 172 88Z" fill="#777777"/>
<path d="M244 64C246.64 64 249.28 64 252 64C252 69.28 252 74.56 252 80C249.36 80 246.72 80 244 80C244 82.64 244 85.28 244 88C241.36 88 238.72 88 236 88C236 82.72 236 77.44 236 72C238.64 72 241.28 72 244 72C244 69.36 244 66.72 244 64Z" fill="black"/>
<path d="M228 56C233.28 56 238.56 56 244 56C244 61.28 244 66.56 244 72C238.72 72 233.44 72 228 72C228 66.72 228 61.44 228 56Z" fill="#666666"/>
<path d="M148 56C150.64 56 153.28 56 156 56C156 66.56 156 77.12 156 88C153.36 88 150.72 88 148 88C148 77.44 148 66.88 148 56Z" fill="#00CCFF"/>
<path d="M164 48C166.64 48 169.28 48 172 48C172 58.56 172 69.12 172 80C169.36 80 166.72 80 164 80C164 69.44 164 58.88 164 48Z" fill="#000080"/>
<path d="M12 16C14.64 16 17.28 16 20 16C20 23.92 20 31.84 20 40C17.36 40 14.72 40 12 40C12 37.36 12 34.72 12 32C9.36 32 6.72 32 4 32C4 29.36 4 26.72 4 24C6.64 24 9.28 24 12 24C12 21.36 12 18.72 12 16Z" fill="#C0C0C0"/>
<path d="M100 8C107.92 8 115.84 8 124 8C124 10.64 124 13.28 124 16C118.72 16 113.44 16 108 16C108 18.64 108 21.28 108 24C105.36 24 102.72 24 100 24C100 18.72 100 13.44 100 8Z" fill="#555555"/>
<path d="M140 0C147.92 0 155.84 0 164 0C164 2.64 164 5.28 164 8C158.72 8 153.44 8 148 8C148 10.64 148 13.28 148 16C145.36 16 142.72 16 140 16C140 10.72 140 5.44 140 0Z" fill="#5F5F5F"/>
<path d="M140 176C142.64 176 145.28 176 148 176C148 181.28 148 186.56 148 192C142.72 192 137.44 192 132 192C132 189.36 132 186.72 132 184C134.64 184 137.28 184 140 184C140 181.36 140 178.72 140 176Z" fill="#C0C0C0"/>
<path d="M148 160C153.28 160 158.56 160 164 160C164 165.28 164 170.56 164 176C161.36 176 158.72 176 156 176C156 173.36 156 170.72 156 168C153.36 168 150.72 168 148 168C148 165.36 148 162.72 148 160Z" fill="#868686"/>
<path d="M124 160C129.28 160 134.56 160 140 160C140 165.28 140 170.56 140 176C137.36 176 134.72 176 132 176C132 173.36 132 170.72 132 168C129.36 168 126.72 168 124 168C124 165.36 124 162.72 124 160Z" fill="#B2B2B2"/>
<path d="M60 152C67.92 152 75.84 152 84 152C84 154.64 84 157.28 84 160C76.08 160 68.16 160 60 160C60 157.36 60 154.72 60 152Z" fill="#A0A0A4"/>
<path d="M124 136C126.64 136 129.28 136 132 136C132 141.28 132 146.56 132 152C126.72 152 121.44 152 116 152C116 149.36 116 146.72 116 144C118.64 144 121.28 144 124 144C124 141.36 124 138.72 124 136Z" fill="#CCCCCC"/>
<path d="M196 128C198.64 128 201.28 128 204 128C204 135.92 204 143.84 204 152C201.36 152 198.72 152 196 152C196 144.08 196 136.16 196 128Z" fill="#666666"/>
<path d="M188 128C190.64 128 193.28 128 196 128C196 135.92 196 143.84 196 152C193.36 152 190.72 152 188 152C188 144.08 188 136.16 188 128Z" fill="#777777"/>
<path d="M92 128C94.64 128 97.28 128 100 128C100 135.92 100 143.84 100 152C97.36 152 94.72 152 92 152C92 144.08 92 136.16 92 128Z" fill="#EAEAEA"/>
<path d="M204 88C206.64 88 209.28 88 212 88C212 93.28 212 98.56 212 104C206.72 104 201.44 104 196 104C196 101.36 196 98.72 196 96C198.64 96 201.28 96 204 96C204 93.36 204 90.72 204 88Z" fill="#008080"/>
<path d="M76 72C78.64 72 81.28 72 84 72C84 74.64 84 77.28 84 80C86.64 80 89.28 80 92 80C92 82.64 92 85.28 92 88C86.72 88 81.44 88 76 88C76 82.72 76 77.44 76 72Z" fill="#800080"/>
<path d="M60 56C62.64 56 65.28 56 68 56C68 58.64 68 61.28 68 64C70.64 64 73.28 64 76 64C76 66.64 76 69.28 76 72C70.72 72 65.44 72 60 72C60 66.72 60 61.44 60 56Z" fill="#800080"/>
<path d="M196 48C201.28 48 206.56 48 212 48C212 53.28 212 58.56 212 64C209.36 64 206.72 64 204 64C204 61.36 204 58.72 204 56C201.36 56 198.72 56 196 56C196 53.36 196 50.72 196 48Z" fill="#666666"/>
<path d="M108 40C110.64 40 113.28 40 116 40C116 47.92 116 55.84 116 64C113.36 64 110.72 64 108 64C108 56.08 108 48.16 108 40Z" fill="#C0C0C0"/>
<path d="M44 40C46.64 40 49.28 40 52 40C52 42.64 52 45.28 52 48C54.64 48 57.28 48 60 48C60 50.64 60 53.28 60 56C54.72 56 49.44 56 44 56C44 50.72 44 45.44 44 40Z" fill="black"/>
<path d="M140 224C142.64 224 145.28 224 148 224C148 229.28 148 234.56 148 240C145.36 240 142.72 240 140 240C140 234.72 140 229.44 140 224Z" fill="#C0C0C0"/>
<path d="M180 200C182.64 200 185.28 200 188 200C188 205.28 188 210.56 188 216C185.36 216 182.72 216 180 216C180 210.72 180 205.44 180 200Z" fill="#777777"/>
<path d="M140 200C142.64 200 145.28 200 148 200C148 205.28 148 210.56 148 216C145.36 216 142.72 216 140 216C140 210.72 140 205.44 140 200Z" fill="#C0C0C0"/>
<path d="M116 176C118.64 176 121.28 176 124 176C124 181.28 124 186.56 124 192C121.36 192 118.72 192 116 192C116 186.72 116 181.44 116 176Z" fill="#EAEAEA"/>
<path d="M164 176C166.64 176 169.28 176 172 176C172 181.28 172 186.56 172 192C169.36 192 166.72 192 164 192C164 186.72 164 181.44 164 176Z" fill="#868686"/>
<path d="M140 160C142.64 160 145.28 160 148 160C148 165.28 148 170.56 148 176C145.36 176 142.72 176 140 176C140 170.72 140 165.44 140 160Z" fill="#A0A0A4"/>
<path d="M116 128C118.64 128 121.28 128 124 128C124 133.28 124 138.56 124 144C121.36 144 118.72 144 116 144C116 138.72 116 133.44 116 128Z" fill="#D7D7D7"/>
<path d="M148 104C153.28 104 158.56 104 164 104C164 106.64 164 109.28 164 112C158.72 112 153.44 112 148 112C148 109.36 148 106.72 148 104Z" fill="#C0C0C0"/>
<path d="M172 80C177.28 80 182.56 80 188 80C188 82.64 188 85.28 188 88C182.72 88 177.44 88 172 88C172 85.36 172 82.72 172 80Z" fill="#C0C0C0"/>
<path d="M188 72C190.64 72 193.28 72 196 72C196 77.28 196 82.56 196 88C193.36 88 190.72 88 188 88C188 82.72 188 77.44 188 72Z" fill="#868686"/>
<path d="M44 72C46.64 72 49.28 72 52 72C52 77.28 52 82.56 52 88C49.36 88 46.72 88 44 88C44 82.72 44 77.44 44 72Z" fill="black"/>
<path d="M148 32C150.64 32 153.28 32 156 32C156 37.28 156 42.56 156 48C153.36 48 150.72 48 148 48C148 42.72 148 37.44 148 32Z" fill="#C0C0C0"/>
<path d="M108 8C113.28 8 118.56 8 124 8C124 10.64 124 13.28 124 16C118.72 16 113.44 16 108 16C108 13.36 108 10.72 108 8Z" fill="#666666"/>
<path d="M148 0C153.28 0 158.56 0 164 0C164 2.64 164 5.28 164 8C158.72 8 153.44 8 148 8C148 5.36 148 2.72 148 0Z" fill="#666666"/>
<path d="M124 240C126.64 240 129.28 240 132 240C132 242.64 132 245.28 132 248C129.36 248 126.72 248 124 248C124 245.36 124 242.72 124 240Z" fill="#777777"/>
<path d="M60 240C62.64 240 65.28 240 68 240C68 242.64 68 245.28 68 248C65.36 248 62.72 248 60 248C60 245.36 60 242.72 60 240Z" fill="#777777"/>
<path d="M180 232C182.64 232 185.28 232 188 232C188 234.64 188 237.28 188 240C185.36 240 182.72 240 180 240C180 237.36 180 234.72 180 232Z" fill="#777777"/>
<path d="M124 224C126.64 224 129.28 224 132 224C132 226.64 132 229.28 132 232C129.36 232 126.72 232 124 232C124 229.36 124 226.72 124 224Z" fill="#D7D7D7"/>
<path d="M140 176C142.64 176 145.28 176 148 176C148 178.64 148 181.28 148 184C145.36 184 142.72 184 140 184C140 181.36 140 178.72 140 176Z" fill="#B2B2B2"/>
<path d="M132 176C134.64 176 137.28 176 140 176C140 178.64 140 181.28 140 184C137.36 184 134.72 184 132 184C132 181.36 132 178.72 132 176Z" fill="#CCCCCC"/>
<path d="M116 176C118.64 176 121.28 176 124 176C124 178.64 124 181.28 124 184C121.36 184 118.72 184 116 184C116 181.36 116 178.72 116 176Z" fill="#E3E3E3"/>
<path d="M124 168C126.64 168 129.28 168 132 168C132 170.64 132 173.28 132 176C129.36 176 126.72 176 124 176C124 173.36 124 170.72 124 168Z" fill="#CCCCCC"/>
<path d="M84 152C86.64 152 89.28 152 92 152C92 154.64 92 157.28 92 160C89.36 160 86.72 160 84 160C84 157.36 84 154.72 84 152Z" fill="#777777"/>
<path d="M60 152C62.64 152 65.28 152 68 152C68 154.64 68 157.28 68 160C65.36 160 62.72 160 60 160C60 157.36 60 154.72 60 152Z" fill="#B2B2B2"/>
<path d="M52 152C54.64 152 57.28 152 60 152C60 154.64 60 157.28 60 160C57.36 160 54.72 160 52 160C52 157.36 52 154.72 52 152Z" fill="#C0C0C0"/>
<path d="M196 112C198.64 112 201.28 112 204 112C204 114.64 204 117.28 204 120C201.36 120 198.72 120 196 120C196 117.36 196 114.72 196 112Z" fill="#0000FF"/>
<path d="M180 112C182.64 112 185.28 112 188 112C188 114.64 188 117.28 188 120C185.36 120 182.72 120 180 120C180 117.36 180 114.72 180 112Z" fill="#000080"/>
<path d="M164 112C166.64 112 169.28 112 172 112C172 114.64 172 117.28 172 120C169.36 120 166.72 120 164 120C164 117.36 164 114.72 164 112Z" fill="black"/>
<path d="M156 112C158.64 112 161.28 112 164 112C164 114.64 164 117.28 164 120C161.36 120 158.72 120 156 120C156 117.36 156 114.72 156 112Z" fill="#808000"/>
<path d="M132 112C134.64 112 137.28 112 140 112C140 114.64 140 117.28 140 120C137.36 120 134.72 120 132 120C132 117.36 132 114.72 132 112Z" fill="#808000"/>
<path d="M92 112C94.64 112 97.28 112 100 112C100 114.64 100 117.28 100 120C97.36 120 94.72 120 92 120C92 117.36 92 114.72 92 112Z" fill="black"/>
<path d="M204 104C206.64 104 209.28 104 212 104C212 106.64 212 109.28 212 112C209.36 112 206.72 112 204 112C204 109.36 204 106.72 204 104Z" fill="#0000FF"/>
<path d="M188 104C190.64 104 193.28 104 196 104C196 106.64 196 109.28 196 112C193.36 112 190.72 112 188 112C188 109.36 188 106.72 188 104Z" fill="#000080"/>
<path d="M172 104C174.64 104 177.28 104 180 104C180 106.64 180 109.28 180 112C177.36 112 174.72 112 172 112C172 109.36 172 106.72 172 104Z" fill="black"/>
<path d="M164 104C166.64 104 169.28 104 172 104C172 106.64 172 109.28 172 112C169.36 112 166.72 112 164 112C164 109.36 164 106.72 164 104Z" fill="#808000"/>
<path d="M148 104C150.64 104 153.28 104 156 104C156 106.64 156 109.28 156 112C153.36 112 150.72 112 148 112C148 109.36 148 106.72 148 104Z" fill="#FFFF00"/>
<path d="M140 104C142.64 104 145.28 104 148 104C148 106.64 148 109.28 148 112C145.36 112 142.72 112 140 112C140 109.36 140 106.72 140 104Z" fill="#808000"/>
<path d="M68 104C70.64 104 73.28 104 76 104C76 106.64 76 109.28 76 112C73.36 112 70.72 112 68 112C68 109.36 68 106.72 68 104Z" fill="#0000FF"/>
<path d="M60 104C62.64 104 65.28 104 68 104C68 106.64 68 109.28 68 112C65.36 112 62.72 112 60 112C60 109.36 60 106.72 60 104Z" fill="#008080"/>
<path d="M52 104C54.64 104 57.28 104 60 104C60 106.64 60 109.28 60 112C57.36 112 54.72 112 52 112C52 109.36 52 106.72 52 104Z" fill="#000080"/>
<path d="M212 96C214.64 96 217.28 96 220 96C220 98.64 220 101.28 220 104C217.36 104 214.72 104 212 104C212 101.36 212 98.72 212 96Z" fill="#0000FF"/>
<path d="M196 96C198.64 96 201.28 96 204 96C204 98.64 204 101.28 204 104C201.36 104 198.72 104 196 104C196 101.36 196 98.72 196 96Z" fill="#000080"/>
<path d="M180 96C182.64 96 185.28 96 188 96C188 98.64 188 101.28 188 104C185.36 104 182.72 104 180 104C180 101.36 180 98.72 180 96Z" fill="black"/>
<path d="M172 96C174.64 96 177.28 96 180 96C180 98.64 180 101.28 180 104C177.36 104 174.72 104 172 104C172 101.36 172 98.72 172 96Z" fill="#808000"/>
<path d="M164 96C166.64 96 169.28 96 172 96C172 98.64 172 101.28 172 104C169.36 104 166.72 104 164 104C164 101.36 164 98.72 164 96Z" fill="#B2B2B2"/>
<path d="M156 96C158.64 96 161.28 96 164 96C164 98.64 164 101.28 164 104C161.36 104 158.72 104 156 104C156 101.36 156 98.72 156 96Z" fill="#FFFF00"/>
<path d="M148 96C150.64 96 153.28 96 156 96C156 98.64 156 101.28 156 104C153.36 104 150.72 104 148 104C148 101.36 148 98.72 148 96Z" fill="#808000"/>
<path d="M68 96C70.64 96 73.28 96 76 96C76 98.64 76 101.28 76 104C73.36 104 70.72 104 68 104C68 101.36 68 98.72 68 96Z" fill="#000080"/>
<path d="M60 96C62.64 96 65.28 96 68 96C68 98.64 68 101.28 68 104C65.36 104 62.72 104 60 104C60 101.36 60 98.72 60 96Z" fill="#0000FF"/>
<path d="M52 96C54.64 96 57.28 96 60 96C60 98.64 60 101.28 60 104C57.36 104 54.72 104 52 104C52 101.36 52 98.72 52 96Z" fill="#008080"/>
<path d="M44 96C46.64 96 49.28 96 52 96C52 98.64 52 101.28 52 104C49.36 104 46.72 104 44 104C44 101.36 44 98.72 44 96Z" fill="#000080"/>
<path d="M228 88C230.64 88 233.28 88 236 88C236 90.64 236 93.28 236 96C233.36 96 230.72 96 228 96C228 93.36 228 90.72 228 88Z" fill="black"/>
<path d="M220 88C222.64 88 225.28 88 228 88C228 90.64 228 93.28 228 96C225.36 96 222.72 96 220 96C220 93.36 220 90.72 220 88Z" fill="#868686"/>
<path d="M204 88C206.64 88 209.28 88 212 88C212 90.64 212 93.28 212 96C209.36 96 206.72 96 204 96C204 93.36 204 90.72 204 88Z" fill="#000080"/>
<path d="M188 88C190.64 88 193.28 88 196 88C196 90.64 196 93.28 196 96C193.36 96 190.72 96 188 96C188 93.36 188 90.72 188 88Z" fill="black"/>
<path d="M172 88C174.64 88 177.28 88 180 88C180 90.64 180 93.28 180 96C177.36 96 174.72 96 172 96C172 93.36 172 90.72 172 88Z" fill="#868686"/>
<path d="M156 88C158.64 88 161.28 88 164 88C164 90.64 164 93.28 164 96C161.36 96 158.72 96 156 96C156 93.36 156 90.72 156 88Z" fill="#808000"/>
<path d="M148 88C150.64 88 153.28 88 156 88C156 90.64 156 93.28 156 96C153.36 96 150.72 96 148 96C148 93.36 148 90.72 148 88Z" fill="#868686"/>
<path d="M92 88C94.64 88 97.28 88 100 88C100 90.64 100 93.28 100 96C97.36 96 94.72 96 92 96C92 93.36 92 90.72 92 88Z" fill="black"/>
<path d="M76 88C78.64 88 81.28 88 84 88C84 90.64 84 93.28 84 96C81.36 96 78.72 96 76 96C76 93.36 76 90.72 76 88Z" fill="#FF00FF"/>
<path d="M68 88C70.64 88 73.28 88 76 88C76 90.64 76 93.28 76 96C73.36 96 70.72 96 68 96C68 93.36 68 90.72 68 88Z" fill="#800080"/>
<path d="M60 88C62.64 88 65.28 88 68 88C68 90.64 68 93.28 68 96C65.36 96 62.72 96 60 96C60 93.36 60 90.72 60 88Z" fill="#000080"/>
<path d="M36 88C38.64 88 41.28 88 44 88C44 90.64 44 93.28 44 96C41.36 96 38.72 96 36 96C36 93.36 36 90.72 36 88Z" fill="#000080"/>
<path d="M228 80C230.64 80 233.28 80 236 80C236 82.64 236 85.28 236 88C233.36 88 230.72 88 228 88C228 85.36 228 82.72 228 80Z" fill="#868686"/>
<path d="M212 80C214.64 80 217.28 80 220 80C220 82.64 220 85.28 220 88C217.36 88 214.72 88 212 88C212 85.36 212 82.72 212 80Z" fill="#868686"/>
<path d="M164 80C166.64 80 169.28 80 172 80C172 82.64 172 85.28 172 88C169.36 88 166.72 88 164 88C164 85.36 164 82.72 164 80Z" fill="#808000"/>
<path d="M84 80C86.64 80 89.28 80 92 80C92 82.64 92 85.28 92 88C89.36 88 86.72 88 84 88C84 85.36 84 82.72 84 80Z" fill="black"/>
<path d="M68 80C70.64 80 73.28 80 76 80C76 82.64 76 85.28 76 88C73.36 88 70.72 88 68 88C68 85.36 68 82.72 68 80Z" fill="#FF00FF"/>
<path d="M60 80C62.64 80 65.28 80 68 80C68 82.64 68 85.28 68 88C65.36 88 62.72 88 60 88C60 85.36 60 82.72 60 80Z" fill="#800080"/>
<path d="M52 80C54.64 80 57.28 80 60 80C60 82.64 60 85.28 60 88C57.36 88 54.72 88 52 88C52 85.36 52 82.72 52 80Z" fill="#000080"/>
<path d="M36 80C38.64 80 41.28 80 44 80C44 82.64 44 85.28 44 88C41.36 88 38.72 88 36 88C36 85.36 36 82.72 36 80Z" fill="#C0C0C0"/>
<path d="M28 80C30.64 80 33.28 80 36 80C36 82.64 36 85.28 36 88C33.36 88 30.72 88 28 88C28 85.36 28 82.72 28 80Z" fill="#868686"/>
<path d="M228 72C230.64 72 233.28 72 236 72C236 74.64 236 77.28 236 80C233.36 80 230.72 80 228 80C228 77.36 228 74.72 228 72Z" fill="#F8F8F8"/>
<path d="M220 72C222.64 72 225.28 72 228 72C228 74.64 228 77.28 228 80C225.36 80 222.72 80 220 80C220 77.36 220 74.72 220 72Z" fill="#868686"/>
<path d="M172 72C174.64 72 177.28 72 180 72C180 74.64 180 77.28 180 80C177.36 80 174.72 80 172 80C172 77.36 172 74.72 172 72Z" fill="#868686"/>
<path d="M76 72C78.64 72 81.28 72 84 72C84 74.64 84 77.28 84 80C81.36 80 78.72 80 76 80C76 77.36 76 74.72 76 72Z" fill="black"/>
<path d="M68 72C70.64 72 73.28 72 76 72C76 74.64 76 77.28 76 80C73.36 80 70.72 80 68 80C68 77.36 68 74.72 68 72Z" fill="#800080"/>
<path d="M60 72C62.64 72 65.28 72 68 72C68 74.64 68 77.28 68 80C65.36 80 62.72 80 60 80C60 77.36 60 74.72 60 72Z" fill="#FF00FF"/>
<path d="M52 72C54.64 72 57.28 72 60 72C60 74.64 60 77.28 60 80C57.36 80 54.72 80 52 80C52 77.36 52 74.72 52 72Z" fill="#800080"/>
<path d="M36 72C38.64 72 41.28 72 44 72C44 74.64 44 77.28 44 80C41.36 80 38.72 80 36 80C36 77.36 36 74.72 36 72Z" fill="#868686"/>
<path d="M28 72C30.64 72 33.28 72 36 72C36 74.64 36 77.28 36 80C33.36 80 30.72 80 28 80C28 77.36 28 74.72 28 72Z" fill="#F8F8F8"/>
<path d="M236 64C238.64 64 241.28 64 244 64C244 66.64 244 69.28 244 72C241.36 72 238.72 72 236 72C236 69.36 236 66.72 236 64Z" fill="#868686"/>
<path d="M228 64C230.64 64 233.28 64 236 64C236 66.64 236 69.28 236 72C233.36 72 230.72 72 228 72C228 69.36 228 66.72 228 64Z" fill="#555555"/>
<path d="M180 64C182.64 64 185.28 64 188 64C188 66.64 188 69.28 188 72C185.36 72 182.72 72 180 72C180 69.36 180 66.72 180 64Z" fill="#868686"/>
<path d="M68 64C70.64 64 73.28 64 76 64C76 66.64 76 69.28 76 72C73.36 72 70.72 72 68 72C68 69.36 68 66.72 68 64Z" fill="black"/>
<path d="M52 64C54.64 64 57.28 64 60 64C60 66.64 60 69.28 60 72C57.36 72 54.72 72 52 72C52 69.36 52 66.72 52 64Z" fill="#FF00FF"/>
<path d="M44 64C46.64 64 49.28 64 52 64C52 66.64 52 69.28 52 72C49.36 72 46.72 72 44 72C44 69.36 44 66.72 44 64Z" fill="#800080"/>
<path d="M204 56C206.64 56 209.28 56 212 56C212 58.64 212 61.28 212 64C209.36 64 206.72 64 204 64C204 61.36 204 58.72 204 56Z" fill="#777777"/>
<path d="M188 56C190.64 56 193.28 56 196 56C196 58.64 196 61.28 196 64C193.36 64 190.72 64 188 64C188 61.36 188 58.72 188 56Z" fill="#666666"/>
<path d="M108 56C110.64 56 113.28 56 116 56C116 58.64 116 61.28 116 64C113.36 64 110.72 64 108 64C108 61.36 108 58.72 108 56Z" fill="#868686"/>
<path d="M60 56C62.64 56 65.28 56 68 56C68 58.64 68 61.28 68 64C65.36 64 62.72 64 60 64C60 61.36 60 58.72 60 56Z" fill="black"/>
<path d="M44 56C46.64 56 49.28 56 52 56C52 58.64 52 61.28 52 64C49.36 64 46.72 64 44 64C44 61.36 44 58.72 44 56Z" fill="#FF00FF"/>
<path d="M36 56C38.64 56 41.28 56 44 56C44 58.64 44 61.28 44 64C41.36 64 38.72 64 36 64C36 61.36 36 58.72 36 56Z" fill="#800080"/>
<path d="M4 56C6.64 56 9.28 56 12 56C12 58.64 12 61.28 12 64C9.36 64 6.72 64 4 64C4 61.36 4 58.72 4 56Z" fill="#868686"/>
<path d="M148 48C150.64 48 153.28 48 156 48C156 50.64 156 53.28 156 56C153.36 56 150.72 56 148 56C148 53.36 148 50.72 148 48Z" fill="#777777"/>
<path d="M36 48C38.64 48 41.28 48 44 48C44 50.64 44 53.28 44 56C41.36 56 38.72 56 36 56C36 53.36 36 50.72 36 48Z" fill="#C0C0C0"/>
<path d="M28 48C30.64 48 33.28 48 36 48C36 50.64 36 53.28 36 56C33.36 56 30.72 56 28 56C28 53.36 28 50.72 28 48Z" fill="#868686"/>
<path d="M12 48C14.64 48 17.28 48 20 48C20 50.64 20 53.28 20 56C17.36 56 14.72 56 12 56C12 53.36 12 50.72 12 48Z" fill="#868686"/>
<path d="M108 40C110.64 40 113.28 40 116 40C116 42.64 116 45.28 116 48C113.36 48 110.72 48 108 48C108 45.36 108 42.72 108 40Z" fill="#F8F8F8"/>
<path d="M36 40C38.64 40 41.28 40 44 40C44 42.64 44 45.28 44 48C41.36 48 38.72 48 36 48C36 45.36 36 42.72 36 40Z" fill="#868686"/>
<path d="M20 40C22.64 40 25.28 40 28 40C28 42.64 28 45.28 28 48C25.36 48 22.72 48 20 48C20 45.36 20 42.72 20 40Z" fill="#868686"/>
<path d="M148 32C150.64 32 153.28 32 156 32C156 34.64 156 37.28 156 40C153.36 40 150.72 40 148 40C148 37.36 148 34.72 148 32Z" fill="#F8F8F8"/>
<path d="M116 32C118.64 32 121.28 32 124 32C124 34.64 124 37.28 124 40C121.36 40 118.72 40 116 40C116 37.36 116 34.72 116 32Z" fill="#777777"/>
<path d="M12 32C14.64 32 17.28 32 20 32C20 34.64 20 37.28 20 40C17.36 40 14.72 40 12 40C12 37.36 12 34.72 12 32Z" fill="#868686"/>
<path d="M156 24C158.64 24 161.28 24 164 24C164 26.64 164 29.28 164 32C161.36 32 158.72 32 156 32C156 29.36 156 26.72 156 24Z" fill="#777777"/>
<path d="M4 24C6.64 24 9.28 24 12 24C12 26.64 12 29.28 12 32C9.36 32 6.72 32 4 32C4 29.36 4 26.72 4 24Z" fill="#868686"/>
<path d="M12 16C14.64 16 17.28 16 20 16C20 18.64 20 21.28 20 24C17.36 24 14.72 24 12 24C12 21.36 12 18.72 12 16Z" fill="#868686"/>
<path d="M108 8C110.64 8 113.28 8 116 8C116 10.64 116 13.28 116 16C113.36 16 110.72 16 108 16C108 13.36 108 10.72 108 8Z" fill="#868686"/>
<path d="M100 8C102.64 8 105.28 8 108 8C108 10.64 108 13.28 108 16C105.36 16 102.72 16 100 16C100 13.36 100 10.72 100 8Z" fill="#666666"/>
<path d="M148 0C150.64 0 153.28 0 156 0C156 2.64 156 5.28 156 8C153.36 8 150.72 8 148 8C148 5.36 148 2.72 148 0Z" fill="#868686"/>
<path d="M140 0C142.64 0 145.28 0 148 0C148 2.64 148 5.28 148 8C145.36 8 142.72 8 140 8C140 5.36 140 2.72 140 0Z" fill="#666666"/>
</svg>
