<svg width="540" height="500" viewBox="0 0 540 500" fill="none" xmlns="http://www.w3.org/2000/svg">
<path d="M254 122C264.56 122 275.12 122 286 122C286 127.28 286 132.56 286 138C291.28 138 296.56 138 302 138C302 169.68 302 201.36 302 234C307.28 234 312.56 234 318 234C318 239.28 318 244.56 318 250C323.28 250 328.56 250 334 250C334 292.24 334 334.48 334 378C286.48 378 238.96 378 190 378C190 372.72 190 367.44 190 362C195.28 362 200.56 362 206 362C206 325.04 206 288.08 206 250C211.28 250 216.56 250 222 250C222 244.72 222 239.44 222 234C227.28 234 232.56 234 238 234C238 202.32 238 170.64 238 138C243.28 138 248.56 138 254 138C254 132.72 254 127.44 254 122Z" fill="black"/>
<path d="M254 122C264.56 122 275.12 122 286 122C286 127.28 286 132.56 286 138C291.28 138 296.56 138 302 138C302 169.68 302 201.36 302 234C307.28 234 312.56 234 318 234C318 244.56 318 255.12 318 266C286.32 266 254.64 266 222 266C222 255.44 222 244.88 222 234C227.28 234 232.56 234 238 234C238 202.32 238 170.64 238 138C243.28 138 248.56 138 254 138C254 132.72 254 127.44 254 122Z" fill="#BFBF00"/>
<path d="M222 298C253.68 298 285.36 298 318 298C318 319.12 318 340.24 318 362C286.32 362 254.64 362 222 362C222 340.88 222 319.76 222 298Z" fill="white"/>
<path d="M286 138C291.28 138 296.56 138 302 138C302 169.68 302 201.36 302 234C296.72 234 291.44 234 286 234C286 202.32 286 170.64 286 138Z" fill="black"/>
<path d="M238 138C243.28 138 248.56 138 254 138C254 169.68 254 201.36 254 234C248.72 234 243.44 234 238 234C238 202.32 238 170.64 238 138Z" fill="black"/>
<path d="M270 314C275.28 314 280.56 314 286 314C286 329.84 286 345.68 286 362C280.72 362 275.44 362 270 362C270 346.16 270 330.32 270 314Z" fill="#808080"/>
<path d="M238 314C243.28 314 248.56 314 254 314C254 329.84 254 345.68 254 362C248.72 362 243.44 362 238 362C238 346.16 238 330.32 238 314Z" fill="#808080"/>
<path d="M254 122C264.56 122 275.12 122 286 122C286 127.28 286 132.56 286 138C275.44 138 264.88 138 254 138C254 132.72 254 127.44 254 122Z" fill="black"/>
<path d="M302 234C307.28 234 312.56 234 318 234C318 239.28 318 244.56 318 250C312.72 250 307.44 250 302 250C302 244.72 302 239.44 302 234Z" fill="black"/>
<path d="M222 234C227.28 234 232.56 234 238 234C238 239.28 238 244.56 238 250C232.72 250 227.44 250 222 250C222 244.72 222 239.44 222 234Z" fill="black"/>
</svg>
