<svg width="540" height="500" viewBox="0 0 540 500" fill="none" xmlns="http://www.w3.org/2000/svg">
<path d="M286 122C301.84 122 317.68 122 334 122C334 127.28 334 132.56 334 138C339.28 138 344.56 138 350 138C350 148.56 350 159.12 350 170C344.72 170 339.44 170 334 170C334 180.56 334 191.12 334 202C328.72 202 323.44 202 318 202C318 212.56 318 223.12 318 234C312.72 234 307.44 234 302 234C302 244.56 302 255.12 302 266C296.72 266 291.44 266 286 266C286 276.56 286 287.12 286 298C280.72 298 275.44 298 270 298C270 303.28 270 308.56 270 314C264.72 314 259.44 314 254 314C254 319.28 254 324.56 254 330C248.72 330 243.44 330 238 330C238 335.28 238 340.56 238 346C232.72 346 227.44 346 222 346C222 351.28 222 356.56 222 362C216.72 362 211.44 362 206 362C206 330.32 206 298.64 206 266C211.28 266 216.56 266 222 266C222 255.44 222 244.88 222 234C227.28 234 232.56 234 238 234C238 223.44 238 212.88 238 202C243.28 202 248.56 202 254 202C254 191.44 254 180.88 254 170C259.28 170 264.56 170 270 170C270 159.44 270 148.88 270 138C275.28 138 280.56 138 286 138C286 132.72 286 127.44 286 122Z" fill="black"/>
<path d="M270 186C275.28 186 280.56 186 286 186C286 191.28 286 196.56 286 202C291.28 202 296.56 202 302 202C302 207.28 302 212.56 302 218C296.72 218 291.44 218 286 218C286 228.56 286 239.12 286 250C280.72 250 275.44 250 270 250C270 260.56 270 271.12 270 282C264.72 282 259.44 282 254 282C254 287.28 254 292.56 254 298C248.72 298 243.44 298 238 298C238 292.72 238 287.44 238 282C232.72 282 227.44 282 222 282C222 266.16 222 250.32 222 234C227.28 234 232.56 234 238 234C238 223.44 238 212.88 238 202C248.56 202 259.12 202 270 202C270 196.72 270 191.44 270 186Z" fill="white"/>
<path d="M286 122C301.84 122 317.68 122 334 122C334 127.28 334 132.56 334 138C339.28 138 344.56 138 350 138C350 148.56 350 159.12 350 170C339.44 170 328.88 170 318 170C318 175.28 318 180.56 318 186C302.16 186 286.32 186 270 186C270 191.28 270 196.56 270 202C264.72 202 259.44 202 254 202C254 191.44 254 180.88 254 170C259.28 170 264.56 170 270 170C270 159.44 270 148.88 270 138C275.28 138 280.56 138 286 138C286 132.72 286 127.44 286 122Z" fill="#BF0000"/>
<path d="M222 234C227.28 234 232.56 234 238 234C238 244.56 238 255.12 238 266C243.28 266 248.56 266 254 266C254 276.56 254 287.12 254 298C248.72 298 243.44 298 238 298C238 292.72 238 287.44 238 282C232.72 282 227.44 282 222 282C222 266.16 222 250.32 222 234Z" fill="white"/>
<path d="M238 234C248.56 234 259.12 234 270 234C270 249.84 270 265.68 270 282C264.72 282 259.44 282 254 282C254 276.72 254 271.44 254 266C248.72 266 243.44 266 238 266C238 255.44 238 244.88 238 234Z" fill="#FFFF00"/>
<path d="M270 138C275.28 138 280.56 138 286 138C286 153.84 286 169.68 286 186C280.72 186 275.44 186 270 186C270 191.28 270 196.56 270 202C264.72 202 259.44 202 254 202C254 191.44 254 180.88 254 170C259.28 170 264.56 170 270 170C270 159.44 270 148.88 270 138Z" fill="black"/>
<path d="M302 154C312.56 154 323.12 154 334 154C334 159.28 334 164.56 334 170C328.72 170 323.44 170 318 170C318 175.28 318 180.56 318 186C312.72 186 307.44 186 302 186C302 175.44 302 164.88 302 154Z" fill="white"/>
<path d="M286 122C301.84 122 317.68 122 334 122C334 127.28 334 132.56 334 138C318.16 138 302.32 138 286 138C286 132.72 286 127.44 286 122Z" fill="black"/>
<path d="M222 234C227.28 234 232.56 234 238 234C238 244.56 238 255.12 238 266C232.72 266 227.44 266 222 266C222 255.44 222 244.88 222 234Z" fill="black"/>
<path d="M238 202C243.28 202 248.56 202 254 202C254 212.56 254 223.12 254 234C248.72 234 243.44 234 238 234C238 223.44 238 212.88 238 202Z" fill="black"/>
<path d="M334 138C339.28 138 344.56 138 350 138C350 148.56 350 159.12 350 170C344.72 170 339.44 170 334 170C334 159.44 334 148.88 334 138Z" fill="black"/>
<path d="M238 282C243.28 282 248.56 282 254 282C254 287.28 254 292.56 254 298C248.72 298 243.44 298 238 298C238 292.72 238 287.44 238 282Z" fill="#FFFF00"/>
<path d="M254 266C259.28 266 264.56 266 270 266C270 271.28 270 276.56 270 282C264.72 282 259.44 282 254 282C254 276.72 254 271.44 254 266Z" fill="#C0C0C0"/>
<path d="M222 266C227.28 266 232.56 266 238 266C238 271.28 238 276.56 238 282C232.72 282 227.44 282 222 282C222 276.72 222 271.44 222 266Z" fill="#FFFF00"/>
<path d="M254 250C259.28 250 264.56 250 270 250C270 255.28 270 260.56 270 266C264.72 266 259.44 266 254 266C254 260.72 254 255.44 254 250Z" fill="white"/>
<path d="M238 250C243.28 250 248.56 250 254 250C254 255.28 254 260.56 254 266C248.72 266 243.44 266 238 266C238 260.72 238 255.44 238 250Z" fill="#FFFF00"/>
<path d="M270 234C275.28 234 280.56 234 286 234C286 239.28 286 244.56 286 250C280.72 250 275.44 250 270 250C270 244.72 270 239.44 270 234Z" fill="#C0C0C0"/>
<path d="M238 234C243.28 234 248.56 234 254 234C254 239.28 254 244.56 254 250C248.72 250 243.44 250 238 250C238 244.72 238 239.44 238 234Z" fill="white"/>
<path d="M270 218C275.28 218 280.56 218 286 218C286 223.28 286 228.56 286 234C280.72 234 275.44 234 270 234C270 228.72 270 223.44 270 218Z" fill="#FFFF00"/>
<path d="M254 218C259.28 218 264.56 218 270 218C270 223.28 270 228.56 270 234C264.72 234 259.44 234 254 234C254 228.72 254 223.44 254 218Z" fill="white"/>
<path d="M286 202C291.28 202 296.56 202 302 202C302 207.28 302 212.56 302 218C296.72 218 291.44 218 286 218C286 212.72 286 207.44 286 202Z" fill="#C0C0C0"/>
<path d="M254 202C259.28 202 264.56 202 270 202C270 207.28 270 212.56 270 218C264.72 218 259.44 218 254 218C254 212.72 254 207.44 254 202Z" fill="#FFFF00"/>
<path d="M270 186C275.28 186 280.56 186 286 186C286 191.28 286 196.56 286 202C280.72 202 275.44 202 270 202C270 196.72 270 191.44 270 186Z" fill="#FFFF00"/>
</svg>
