<svg width="540" height="500" viewBox="0 0 540 500" fill="none" xmlns="http://www.w3.org/2000/svg">
<path d="M222 154C269.52 154 317.04 154 366 154C366 159.28 366 164.56 366 170C360.72 170 355.44 170 350 170C350 180.56 350 191.12 350 202C344.72 202 339.44 202 334 202C334 212.56 334 223.12 334 234C328.72 234 323.44 234 318 234C318 244.56 318 255.12 318 266C312.72 266 307.44 266 302 266C302 271.28 302 276.56 302 282C328.4 282 354.8 282 382 282C382 308.4 382 334.8 382 362C308.08 362 234.16 362 158 362C158 346.16 158 330.32 158 314C163.28 314 168.56 314 174 314C174 298.16 174 282.32 174 266C179.28 266 184.56 266 190 266C190 255.44 190 244.88 190 234C195.28 234 200.56 234 206 234C206 223.44 206 212.88 206 202C211.28 202 216.56 202 222 202C222 186.16 222 170.32 222 154Z" fill="#C0C0C0"/>
<path d="M286 266C291.28 266 296.56 266 302 266C302 271.28 302 276.56 302 282C328.4 282 354.8 282 382 282C382 308.4 382 334.8 382 362C308.08 362 234.16 362 158 362C158 346.16 158 330.32 158 314C163.28 314 168.56 314 174 314C174 324.56 174 335.12 174 346C237.36 346 300.72 346 366 346C366 330.16 366 314.32 366 298C334.32 298 302.64 298 270 298C270 292.72 270 287.44 270 282C275.28 282 280.56 282 286 282C286 276.72 286 271.44 286 266Z" fill="black"/>
<path d="M222 154C269.52 154 317.04 154 366 154C366 159.28 366 164.56 366 170C360.72 170 355.44 170 350 170C350 180.56 350 191.12 350 202C344.72 202 339.44 202 334 202C334 191.44 334 180.88 334 170C302.32 170 270.64 170 238 170C238 180.56 238 191.12 238 202C232.72 202 227.44 202 222 202C222 186.16 222 170.32 222 154Z" fill="black"/>
<path d="M174 266C179.28 266 184.56 266 190 266C190 281.84 190 297.68 190 314C184.72 314 179.44 314 174 314C174 298.16 174 282.32 174 266Z" fill="black"/>
<path d="M302 234C307.28 234 312.56 234 318 234C318 244.56 318 255.12 318 266C312.72 266 307.44 266 302 266C302 255.44 302 244.88 302 234Z" fill="black"/>
<path d="M190 234C195.28 234 200.56 234 206 234C206 244.56 206 255.12 206 266C200.72 266 195.44 266 190 266C190 255.44 190 244.88 190 234Z" fill="black"/>
<path d="M318 202C323.28 202 328.56 202 334 202C334 212.56 334 223.12 334 234C328.72 234 323.44 234 318 234C318 223.44 318 212.88 318 202Z" fill="black"/>
<path d="M206 202C211.28 202 216.56 202 222 202C222 212.56 222 223.12 222 234C216.72 234 211.44 234 206 234C206 223.44 206 212.88 206 202Z" fill="black"/>
</svg>
