<svg width="540" height="500" viewBox="0 0 540 500" fill="none" xmlns="http://www.w3.org/2000/svg">
<path d="M410.376 245.338C412.082 245.544 415.486 245.458 417.35 245.459L429.943 245.458C430.175 249.357 430.32 286.799 429.719 288.611C423.726 289.028 415.278 288.334 410.047 288.872C409.991 284.415 409.714 246.688 410.376 245.338Z" fill="black"/>
<path d="M410.241 159.334C411.891 159.54 415.427 159.461 417.204 159.462L429.95 159.458C430.153 163.44 430.338 200.782 429.718 202.603C423.403 203.067 415.841 202.357 410.046 202.86L409.996 173.232C409.993 170.697 409.827 161.259 410.241 159.334Z" fill="black"/>
<path d="M62.3607 245.332C64.1853 245.542 67.3662 245.457 69.3197 245.459L81.9604 245.463C82.0198 249.859 82.3575 286.94 81.6828 288.612C75.939 289 66.9114 288.332 62.0485 288.873C61.9704 284.369 61.7012 246.753 62.3607 245.332Z" fill="black"/>
<path d="M62.2229 159.32C63.8068 159.54 67.5778 159.463 69.2927 159.465L81.9643 159.466C82.0151 163.774 82.3368 201.095 81.6718 202.601C75.6991 203.04 67.2284 202.323 62.0496 202.865C61.8759 193.121 62.0628 183.187 61.9861 173.424C61.9669 170.961 61.8355 161.211 62.2229 159.32Z" fill="black"/>
<path d="M264.663 95.0811C266.464 94.9846 268.463 94.9521 270.266 94.9785C280.555 95.1288 291.02 94.6945 301.287 95.094C301.04 97.9165 301.656 113.951 300.807 115.02C289.127 115.349 276.017 115.115 264.268 115.042C264.476 112.244 263.957 96.3551 264.663 95.0811Z" fill="black"/>
<path d="M191.419 95.0732C202.64 94.6797 216.336 94.8762 227.654 95.0455C227.497 98.0969 227.997 113.14 227.314 114.84L226.56 115.072C214.586 115.137 202.612 115.12 190.639 115.021C191.288 110.092 190.343 101.229 190.835 95.9468C190.897 95.2823 190.835 95.5249 191.419 95.0732Z" fill="black"/>
<path d="M190.871 333.151C194.509 332.83 200.659 332.993 204.433 332.993C212.174 332.969 219.915 332.993 227.656 333.064C227.319 338.982 227.933 345.947 227.563 351.975C227.511 352.822 227.547 352.619 226.973 353.064C215.2 353.304 202.41 353.151 190.6 353.043C191.358 347.758 190.207 338.594 190.871 333.151Z" fill="black"/>
<path d="M117.391 95.051C128.685 94.7343 142.698 94.7884 154.011 95.0574C153.883 100.06 154.448 110.535 153.88 115.015C142.52 115.446 128.653 115.109 117.145 115.046C117.591 108.882 116.801 101.417 117.391 95.051Z" fill="black"/>
<path d="M117.304 333.07C128.913 332.793 142.38 332.851 154.009 333.075C153.896 337.252 154.42 349.597 153.848 353.038C142.248 353.402 128.853 353.115 117.148 353.059C117.504 347.537 117.217 338.985 117.304 333.07Z" fill="black"/>
<path d="M265.989 332.967C277.652 333.164 289.709 332.719 301.295 333.104C300.973 338.101 301.092 347.787 301.182 353.067C290.176 353.088 277.9 353.378 266.978 353.064C266.24 352.616 265.744 351.759 265.842 350.931C266.396 346.123 265.143 337.365 265.989 332.967Z" fill="black"/>
<path d="M338.058 95.0285C348.731 94.74 360.657 94.9407 371.402 95.0034C372.169 95.4267 373.213 95.3518 373.208 95.7956C373.161 101.641 374.039 108.66 372.741 114.322C368.884 114.325 339.88 114.743 338.751 114.072C338.374 113.175 338.293 112.859 338.063 111.905C337.76 107.364 338.011 99.8007 338.058 95.0285Z" fill="black"/>
<path d="M338.055 333.02L371.604 333.027L372.825 333.486C373.585 335.388 373.706 350.781 372.783 352.094C371.852 352.046 371.093 351.994 370.186 352.278C369.007 352.65 367.779 352.265 366.587 352.218C357.374 351.833 348.314 352.893 339.112 352.176C338.337 351.566 338.427 351.16 338.063 350.04C337.728 346.775 338.023 336.748 338.055 333.02Z" fill="black"/>
<path d="M410.214 95.0069C416.682 94.9626 423.587 94.8574 430.026 95.0697C429.944 98.4463 430.39 114.486 429.739 116.586C423.526 117.107 415.598 116.308 410.05 116.87C410.026 113.352 409.752 97.3896 410.214 95.0069Z" fill="black"/>
<path d="M62.1846 94.9958C68.7319 94.9763 75.4906 94.8803 82.0133 95.0625C81.9424 98.1271 82.3809 115.023 81.6861 116.594C75.3854 117.1 67.7832 116.336 62.0502 116.865C61.9481 112.607 62.0167 108.151 61.9661 103.876C61.9415 101.814 61.8553 96.8705 62.1846 94.9958Z" fill="black"/>
<path d="M410.103 331.334C414.161 331.759 425.354 331.458 429.936 331.458C430.037 332.606 430.039 334.146 430.016 335.319C429.894 341.113 430.34 347.292 429.929 353.054C423.382 353.186 416.545 353.091 409.971 353.096C410.227 345.986 409.818 338.542 410.103 331.334Z" fill="black"/>
<path d="M62.1057 331.34C66.408 331.762 77.2022 331.464 81.9841 331.466C82.024 338.086 82.271 346.532 81.9306 353.054C75.3768 353.188 68.5509 353.086 61.9688 353.099C62.0761 346.108 61.7705 338.217 62.1057 331.34Z" fill="black"/>
<path d="M371.604 333.027C372.68 333.012 373.64 332.856 374.536 333.362C375.022 335.092 374.608 349.963 374.803 353.03C371.422 353.112 339.078 353.515 338.137 352.711C337.915 351.545 337.978 351.247 338.063 350.04C338.427 351.16 338.337 351.566 339.112 352.176C348.314 352.893 357.374 351.833 366.587 352.218C367.779 352.265 369.007 352.65 370.186 352.278C371.093 351.994 371.852 352.046 372.783 352.094C373.706 350.781 373.585 335.388 372.825 333.486L371.604 333.027Z" fill="black" fill-opacity="0.972549"/>
<path d="M371.404 95.0031C372.451 94.9862 373.482 94.853 374.41 95.2578C375.119 96.2191 374.608 112.262 374.816 115.036C370.476 115.101 339.813 115.48 338.173 114.828C337.891 113.667 337.994 113.076 338.065 111.905C338.295 112.859 338.376 113.175 338.753 114.072C339.882 114.744 368.886 114.325 372.743 114.322C374.041 108.66 373.163 101.641 373.21 95.7953C373.215 95.3514 372.171 95.4263 371.404 95.0031Z" fill="black" fill-opacity="0.972549"/>
<path d="M266.978 353.064C265.786 353.07 265.296 353.223 264.426 352.65C264.123 350.119 264.294 336.527 264.434 333.576C265.03 332.927 264.877 333.133 265.989 332.967C265.143 337.366 266.395 346.123 265.842 350.931C265.744 351.759 266.24 352.616 266.978 353.064Z" fill="black" fill-opacity="0.984314"/>
</svg>
