<svg width="200" height="200" viewBox="0 0 200 200" fill="none" xmlns="http://www.w3.org/2000/svg">
<g clip-path="url(#clip0_1_8339)">
<path d="M69.5079 0.898275C71.6982 0.535104 82.802 0.864126 85.9508 0.859354L130.591 0.859093C130.543 3.41008 130.563 5.96207 130.649 8.51205L145.826 8.48719C145.796 11.0625 145.776 13.6381 145.771 16.2137C150.869 16.1188 155.969 16.0799 161.069 16.0964L161.026 23.885C163.721 23.7049 165.981 23.7057 168.675 23.7195L168.635 31.4461C171.196 31.3725 173.748 31.2612 176.309 31.3689L176.261 39.0668C178.815 38.9561 181.369 38.9164 183.925 38.9478C183.89 44.0668 183.88 49.1859 183.898 54.3049C186.525 54.2221 188.94 54.1507 191.572 54.2085C191.409 59.3557 191.63 64.5112 191.499 69.595C194.189 69.4084 196.494 69.4165 199.181 69.428C198.965 82.1925 199.138 95.4168 199.131 108.209C199.128 113.974 198.809 125.349 199.269 130.797C196.893 130.485 193.882 130.588 191.439 130.598C191.479 134.127 191.348 142.799 191.682 146.012C188.812 145.725 186.434 145.981 183.835 145.786C183.878 149.528 183.717 157.836 184.074 161.294C181.409 160.91 178.878 161.136 176.211 161.061C176.254 163.477 176.229 166.528 176.41 168.887C173.517 168.518 171.252 168.854 168.59 168.648C168.625 170.838 168.585 174.415 168.826 176.487C166.121 176.163 163.668 176.371 160.994 176.313C161.016 178.918 161.014 181.54 161.149 184.137C157.912 183.63 149.422 183.883 145.738 183.918C145.766 186.224 145.718 189.547 145.967 191.772C141.859 191.106 134.88 191.634 130.491 191.513C130.536 193.904 130.506 197.044 130.689 199.352C127.517 198.925 122.071 199.058 118.703 199.058L99.8518 199.068L81.0545 199.066C77.8862 199.068 72.5048 198.97 69.4705 199.317C69.4258 196.474 69.4128 194.321 69.6086 191.478C65.1523 191.463 58.5053 191.282 54.2172 191.709C54.2037 189.077 54.1617 186.505 54.3197 183.876C49.9859 183.868 43.0978 183.672 38.9491 184.079L38.9682 176.293C36.7057 176.301 33.5235 176.404 31.3363 176.208C31.2728 173.727 31.3905 171.079 31.4558 168.585C28.9607 168.681 26.2447 168.661 23.732 168.683C23.6745 165.996 23.7667 163.658 23.8827 160.978C21.3153 161.046 18.6986 161.063 16.1265 161.101C16.072 155.972 16.0991 150.844 16.2076 145.715C13.7609 145.843 10.9999 145.803 8.52894 145.823C8.45661 140.695 8.48072 135.566 8.601 130.437C6.27391 130.623 3.30497 130.588 0.929165 130.626C0.680812 110.365 0.855073 89.7297 0.887216 69.4443C3.57617 69.4097 5.92687 69.4765 8.61029 69.5885C8.48373 64.4609 8.4516 59.3318 8.51362 54.2032C11.0843 54.1982 13.655 54.2286 16.2246 54.2941C16.0411 49.2203 16.1071 44.0209 16.1134 38.9352L23.8902 39.052C23.664 36.3928 23.725 34.0146 23.7561 31.3524C26.2929 31.3134 28.9243 31.3966 31.4681 31.442C31.3016 28.7926 31.3514 26.3579 31.3838 23.7084C33.9504 23.6997 36.5168 23.7557 39.0805 23.8762C38.9009 21.3393 38.9735 18.6384 38.9901 16.0834C43.7979 16.1472 49.6103 15.9435 54.3197 16.2667C54.162 13.6434 54.2172 11.118 54.2454 8.49396C59.3654 8.49346 64.4856 8.52686 69.6054 8.59392C69.3862 5.83071 69.4356 3.64416 69.5079 0.898275Z" fill="#FEFE00"/>
<path d="M69.508 0.898275C71.6982 0.535104 82.8021 0.864126 85.9508 0.859354L130.591 0.859093C130.543 3.41008 130.563 5.96207 130.649 8.51205L145.826 8.48719C145.796 11.0625 145.776 13.6381 145.771 16.2137C150.869 16.1188 155.969 16.0799 161.069 16.0964L161.026 23.885C163.721 23.7049 165.981 23.7057 168.675 23.7195L168.635 31.4461C171.196 31.3725 173.748 31.2612 176.309 31.3689L176.261 39.0668C178.815 38.9561 181.369 38.9164 183.925 38.9478C183.89 44.0668 183.88 49.1859 183.898 54.3049C186.525 54.2221 188.94 54.1507 191.572 54.2085C191.409 59.3557 191.63 64.5112 191.499 69.595C194.189 69.4084 196.494 69.4165 199.181 69.428C198.965 82.1925 199.138 95.4168 199.131 108.209C199.128 113.974 198.809 125.349 199.269 130.797C196.893 130.485 193.882 130.588 191.439 130.598C191.479 134.127 191.348 142.799 191.682 146.012C188.812 145.725 186.434 145.981 183.835 145.786C183.878 149.528 183.717 157.836 184.074 161.294C181.409 160.91 178.878 161.136 176.211 161.061C176.254 163.477 176.229 166.528 176.41 168.887C173.517 168.518 171.252 168.854 168.59 168.648C168.625 170.838 168.585 174.415 168.826 176.487C166.121 176.163 163.668 176.371 160.994 176.313C161.016 178.918 161.014 181.54 161.149 184.137C157.912 183.63 149.422 183.883 145.738 183.918C145.766 186.224 145.718 189.547 145.967 191.772C141.859 191.106 134.88 191.634 130.491 191.513C130.536 193.904 130.506 197.044 130.689 199.352C127.517 198.925 122.071 199.058 118.703 199.058L99.8518 199.068L81.0545 199.066C77.8862 199.068 72.5048 198.97 69.4706 199.317C69.4259 196.474 69.4128 194.321 69.6087 191.478C65.1524 191.463 58.5053 191.282 54.2173 191.709C54.2037 189.077 54.1618 186.505 54.3197 183.876C49.986 183.868 43.0978 183.672 38.9492 184.079L38.9682 176.293C45.7971 175.984 54.8644 176.236 61.8695 176.238L61.8444 183.848C69.0311 184.019 76.7655 183.878 83.9861 183.881L122.872 183.851C122.894 181.324 122.897 178.795 122.879 176.266C127.964 176.281 133.049 176.261 138.134 176.203L138.145 168.631L145.726 168.585C145.786 166.096 145.743 163.525 145.736 161.028L153.362 160.988C153.397 158.464 153.392 155.937 153.35 153.413L160.989 153.343C161.019 150.836 160.996 148.285 160.996 145.775L168.582 145.728C168.633 140.672 168.633 135.614 168.585 130.558C171.129 130.55 173.675 130.523 176.219 130.48C176.513 110.261 176.118 89.753 176.284 69.4803L168.625 69.5192C168.592 61.8858 168.602 54.2525 168.653 46.6193L161.014 46.6548C161.009 44.101 161.024 41.5473 161.056 38.9938L153.387 39.0018C153.342 36.5056 153.41 33.9061 153.44 31.4023L145.748 31.4099C145.736 28.8637 145.758 26.3172 145.816 23.7715L138.155 23.7994C138.155 21.2461 138.17 18.6926 138.197 16.1396L130.543 16.1512L130.548 8.52813L115.298 8.55425L115.323 1.08614L84.368 1.09418C81.4146 1.09418 71.8785 1.27024 69.508 0.898275Z" fill="#838100"/>
<path d="M107.611 54.3175L122.844 54.3057L122.834 61.8961L130.438 61.8989L130.435 77.1334L122.842 77.1395L122.839 84.7223L107.614 84.7487L107.641 77.1435L100.015 77.1538L100.013 61.9315L107.591 61.8913L107.611 54.3175Z" fill="black"/>
<path d="M61.8962 54.3177L77.1354 54.3057L77.1248 61.8963L84.7244 61.8978C84.7753 66.9463 84.7276 72.0777 84.7216 77.1334L77.1309 77.1395L77.1279 84.7228L61.8984 84.7477L61.924 77.1432L54.3062 77.1535L54.3036 61.931L61.8778 61.8921L61.8962 54.3177Z" fill="black"/>
<path d="M77.1686 153.333L115.225 153.305C115.283 155.814 115.228 158.429 115.208 160.948L77.157 160.98C77.1389 158.431 77.1429 155.882 77.1686 153.333Z" fill="black"/>
<path d="M23.835 84.7908C26.3511 84.7767 28.9068 84.7403 31.4197 84.7536C31.4177 92.2142 31.263 100.201 31.4202 107.614L23.8525 107.612L23.835 84.7908Z" fill="black"/>
<path d="M161.001 84.7911C163.49 84.7452 166.056 84.7623 168.552 84.7517L168.55 107.586L160.968 107.621L161.001 84.7911Z" fill="black"/>
<path d="M61.8695 145.728L77.1404 145.725L77.0979 153.333L61.9004 153.323L61.8695 145.728Z" fill="black"/>
<path d="M39.0129 122.87L46.6599 122.86C46.6587 127.64 46.793 133.406 46.6004 138.1L39.0501 138.125L39.0129 122.87Z" fill="black"/>
<path d="M145.718 122.893L153.299 122.86L153.302 138.098L145.698 138.12L145.718 122.893Z" fill="black"/>
<path d="M130.473 138.145L145.698 138.12L145.683 145.695L130.443 145.718L130.473 138.145Z" fill="black"/>
<path d="M153.327 107.654C155.841 107.632 158.427 107.578 160.936 107.593L160.953 122.843L153.299 122.86L153.327 107.654Z" fill="black"/>
<path d="M115.27 145.74L130.443 145.718L130.428 153.293L115.253 153.338L115.27 145.74Z" fill="black"/>
<path d="M31.4202 107.614L39.013 107.608C39.0117 112.553 38.9005 117.963 39.013 122.87L31.4481 122.865L31.4202 107.614Z" fill="black"/>
<path d="M46.7034 138.128H61.8788L61.8695 145.728L46.7061 145.718C46.6943 143.312 46.6147 140.499 46.7034 138.128Z" fill="black"/>
</g>
<defs>
<clipPath id="clip0_1_8339">
<rect width="200" height="200" fill="white"/>
</clipPath>
</defs>
</svg>
