<svg width="200" height="200" viewBox="0 0 200 200" fill="none" xmlns="http://www.w3.org/2000/svg">
<g clip-path="url(#clip0_1_7842)">
<path d="M93.5096 13.1236C97.1957 13.1213 102.686 13.0021 106.224 13.2188C106.175 15.3224 106.224 17.1471 106.299 19.2409C107.262 19.244 111.916 19.1552 112.474 19.3963L112.482 25.5567L118.688 25.5271C118.651 29.6762 118.649 33.8257 118.684 37.975C120.756 37.9455 122.829 37.9269 124.902 37.9187C124.761 46.1002 124.871 54.5594 124.891 62.7611L131.101 62.7331L131.074 113.27V132.134C131.076 135.779 130.991 139.907 131.164 143.509C128.99 143.437 127.068 143.451 124.898 143.494L124.867 158.97C124.865 161.719 124.771 165.632 124.981 168.31C122.89 168.265 120.799 168.263 118.71 168.302C118.68 171.697 118.488 177.542 118.768 180.725C116.607 180.633 114.657 180.657 112.501 180.69C112.491 182.61 112.413 185.049 112.54 186.929L107.599 186.848L106.661 187.089C105.95 187.968 106.191 191.682 106.203 193.056C100.176 193.183 93.6811 193.054 87.6203 193.062C87.6336 191.046 87.5864 189.033 87.4791 187.021C85.2971 186.837 83.5871 186.85 81.4072 186.866C81.4103 184.84 81.4498 182.826 81.2676 180.809C79.0882 180.627 77.3884 180.627 75.2177 180.643C75.2343 178.609 75.2381 176.659 75.0695 174.627C72.8633 174.408 71.2242 174.431 69.0147 174.445C69.0224 172.433 68.9793 170.424 68.8853 168.414C66.7508 168.22 64.9349 168.247 62.8016 168.263C62.8059 166.237 62.8474 164.223 62.663 162.204C60.4893 162.024 58.7772 162.026 56.6121 162.04C56.6284 159.973 56.6272 158.084 56.4665 156.022C54.2619 155.805 52.6171 155.825 50.4123 155.84C50.4176 153.824 50.3743 151.81 50.2819 149.797C48.1245 149.625 46.3554 149.637 44.1991 149.652C44.2034 147.609 44.2442 145.612 44.0584 143.576C41.8783 143.423 40.1872 143.413 38.0081 143.425C38.022 141.36 38.0312 139.445 37.8585 137.384C35.188 137.122 31.2924 137.227 28.5265 137.229L13.1739 137.257C13.2076 135.264 13.1882 133.273 13.1158 131.282L10.6582 131.104C9.28748 131.065 8.29881 131.139 6.92751 131.245C6.82347 128.959 6.84738 127.224 6.92076 124.94C4.77357 124.904 2.88842 124.857 0.741026 124.998C0.479602 110.661 1.09771 95.5511 0.673584 81.3623C2.77233 81.349 4.80014 81.3551 6.89643 81.2098C6.78115 79.7598 6.90522 76.7381 6.92669 75.1699C8.98864 75.171 11.0506 75.1246 13.1105 75.0305C13.05 73.0506 13.0938 70.9372 13.1068 68.9467C20.5761 68.9475 30.7021 69.2552 37.8795 68.8279C37.8462 66.8438 37.9245 64.7833 37.8997 62.7603C39.9993 62.7536 42.0453 62.7801 44.1386 62.5929C43.9867 61.288 44.1187 58.0194 44.139 56.57C46.2003 56.5722 48.2614 56.5244 50.3205 56.4263C50.2555 54.4572 50.3001 52.3381 50.3126 50.3568C52.3692 50.3637 54.4258 50.319 56.4802 50.2227C56.5197 48.2009 56.5268 46.1785 56.5015 44.1565C58.6053 44.1481 60.6497 44.172 62.7477 43.9852C62.6081 42.8203 62.715 39.3559 62.7284 37.9586C64.7949 37.9668 66.8609 37.9216 68.9251 37.8231C68.8622 35.854 68.9051 33.7337 68.9163 31.7517C70.974 31.7585 73.0315 31.7139 75.0869 31.618C75.1265 29.596 75.1319 27.5734 75.1024 25.5512C77.2089 25.5426 79.2525 25.5657 81.3533 25.3801C81.2143 24.1519 81.3187 20.789 81.3306 19.3539C83.3954 19.3621 85.46 19.3172 87.5224 19.2192C87.4733 17.2673 87.5181 15.093 87.5122 13.1174L93.5096 13.1236Z" fill="#FEFEFE"/>
<path d="M87.5122 13.1174L93.5096 13.1236C94.2237 14.0948 93.7479 23.5881 93.9035 25.6344L93.8372 25.8268L93.7972 25.6456C91.8331 25.4854 89.5799 25.5667 87.5884 25.589C87.5559 29.6882 87.5496 33.7878 87.5694 37.8873C86.4704 38.1395 82.7134 38.0066 81.4843 37.9741C81.452 40.0045 81.3766 42.1666 81.4637 44.1849L81.3981 44.3255C80.148 44.106 76.5569 44.1867 75.2676 44.226L75.2478 44.3327C75.1997 46.3494 75.1973 48.3667 75.2402 50.3836L72.9164 50.392L75.2308 50.4901C75.2379 51.8548 75.3381 55.3896 75.2245 56.6238C75.231 58.288 75.1625 61.2473 75.2817 62.8081L75.2367 62.9382C75.1791 73.0529 75.0507 83.7558 75.2341 93.8331L75.2187 100.081L75.2357 106.223L75.2089 112.487C75.1821 114.529 75.1887 116.571 75.2285 118.611L75.2087 124.871C75.1815 126.923 75.1885 128.976 75.2298 131.028L75.2142 132.349C75.081 133.903 75.2543 135.949 75.09 137.286C74.9878 138.948 74.952 141.718 75.1445 143.386C75.2939 144.498 75.3232 148.603 75.1276 149.648L75.2265 149.684C77.2429 149.613 79.2607 149.601 81.2779 149.65C81.2728 151.177 81.1935 153.599 81.3672 155.053L81.3878 155.832C81.388 157.657 81.3212 160.237 81.4163 162.011C81.3795 164.099 81.3833 166.188 81.4281 168.277L87.5935 168.189L93.7056 168.22C93.7038 169.686 93.6187 173.333 93.8117 174.653L93.8313 180.578C95.8794 180.584 97.9683 180.57 100.012 180.6L100.041 186.747C102.142 187.042 105.396 186.786 107.599 186.848L106.661 187.089C105.95 187.968 106.191 191.682 106.203 193.056C100.176 193.183 93.6811 193.054 87.6203 193.062C87.6336 191.047 87.5864 189.033 87.4791 187.021C85.2971 186.837 83.5871 186.85 81.4073 186.866C81.4103 184.84 81.4498 182.826 81.2677 180.809C79.0882 180.627 77.3884 180.627 75.2177 180.643C75.2343 178.609 75.2381 176.659 75.0695 174.627C72.8633 174.408 71.2242 174.431 69.0147 174.445C69.0224 172.433 68.9793 170.424 68.8853 168.414C66.7508 168.22 64.9349 168.247 62.8016 168.263C62.8059 166.237 62.8474 164.223 62.663 162.204C60.4893 162.024 58.7773 162.026 56.6121 162.04C56.6284 159.973 56.6272 158.084 56.4666 156.022C54.2619 155.805 52.6171 155.825 50.4123 155.84C50.4176 153.824 50.3743 151.81 50.2819 149.797C48.1245 149.625 46.3555 149.637 44.1991 149.652C44.2034 147.609 44.2442 145.612 44.0584 143.576C41.8783 143.423 40.1872 143.413 38.0081 143.425C38.022 141.36 38.0312 139.445 37.8585 137.384C35.188 137.122 31.2924 137.227 28.5265 137.229L13.1739 137.257C13.2076 135.264 13.1882 133.273 13.1158 131.282L10.6582 131.104C9.28748 131.065 8.29881 131.139 6.92751 131.245C6.82347 128.959 6.84738 127.224 6.92076 124.94C4.77357 124.904 2.88842 124.857 0.741026 124.998C0.479602 110.661 1.09771 95.5511 0.673584 81.3623C2.77233 81.349 4.80014 81.3551 6.89643 81.2098C6.78115 79.7598 6.90523 76.7381 6.92669 75.1699C8.98864 75.171 11.0506 75.1246 13.1105 75.0305C13.05 73.0506 13.0938 70.9372 13.1068 68.9467C20.5761 68.9475 30.7021 69.2552 37.8795 68.828C37.8462 66.8438 37.9245 64.7833 37.8998 62.7603C39.9993 62.7536 42.0453 62.7801 44.1386 62.5929C43.9867 61.288 44.1187 58.0194 44.139 56.57C46.2003 56.5722 48.2614 56.5244 50.3205 56.4263C50.2555 54.4572 50.3001 52.3381 50.3126 50.3568C52.3692 50.3637 54.4258 50.319 56.4802 50.2227C56.5197 48.2009 56.5268 46.1785 56.5015 44.1565C58.6054 44.1481 60.6497 44.172 62.7477 43.9852C62.6081 42.8203 62.715 39.3559 62.7285 37.9586C64.7949 37.9668 66.8609 37.9216 68.9252 37.8231C68.8622 35.854 68.9051 33.7337 68.9164 31.7517C70.974 31.7585 73.0315 31.7139 75.0869 31.618C75.1266 29.596 75.1319 27.5734 75.1024 25.5512C77.2089 25.5426 79.2525 25.5657 81.3533 25.3801C81.2143 24.1519 81.3188 20.789 81.3306 19.3539C83.3954 19.3621 85.46 19.3171 87.5224 19.2192C87.4733 17.2673 87.5181 15.093 87.5122 13.1174Z" fill="#838100"/>
<path d="M62.8229 62.7929L68.9722 62.7785C70.406 62.7775 73.9639 62.7031 75.2367 62.938C75.1791 73.0527 75.0507 83.7556 75.2341 93.8329L75.2187 100.08L75.2357 106.223L75.2089 112.486C75.1822 114.529 75.1887 116.571 75.2286 118.611L75.2087 124.871C75.1815 126.923 75.1885 128.976 75.2298 131.028L75.2142 132.349C75.081 133.902 75.2543 135.949 75.09 137.286C73.3784 137.171 70.7756 137.226 68.994 137.216C66.9728 137.163 64.8734 137.204 62.8458 137.216L62.7996 131.02C60.7763 130.973 58.6884 131.008 56.6599 131.014L56.5992 124.803C54.551 124.744 52.5033 124.789 50.4544 124.816C50.3753 122.796 50.4013 120.641 50.39 118.609C48.3686 118.558 46.2704 118.601 44.2426 118.615L44.196 112.413C42.1502 112.392 40.1044 112.39 38.0586 112.409C38.051 111.219 38.1655 106.936 37.7403 106.226C35.7869 106.186 33.7039 106.216 31.7405 106.214L31.7366 100.013C31.7049 97.9472 31.708 95.8809 31.7462 93.8151C31.7221 89.673 31.7284 85.5307 31.7646 81.3887C33.7736 81.3965 35.8914 81.3705 37.8904 81.4171C38.0711 77.6148 37.9306 72.8193 37.9182 68.9357C40.0012 68.9615 42.0844 68.9725 44.1674 68.9689L50.3645 68.9658L50.3706 62.7763C51.7556 62.755 55.5977 62.614 56.6444 62.9533L56.6669 62.8325C58.7184 62.7837 60.7707 62.7704 62.8229 62.7929Z" fill="#FEFEFE"/>
<path d="M44.1821 93.7856L50.4111 93.8028C50.3976 95.7925 50.3312 98.0427 50.4434 100.009L56.5876 99.9962C56.598 102.025 56.5692 104.201 56.665 106.216C58.4302 106.207 60.8317 106.258 62.5474 106.164L62.7726 106.147L62.8252 100.006L68.9771 99.9868C71.0578 99.9925 73.1386 100.024 75.2188 100.08L75.2357 106.223L75.2089 112.486C75.1822 114.529 75.1887 116.571 75.2286 118.611L75.2087 124.871C75.1816 126.923 75.1885 128.976 75.2298 131.028L75.2143 132.349C75.081 133.902 75.2543 135.949 75.09 137.286C73.3784 137.171 70.7756 137.226 68.9941 137.216C66.9728 137.163 64.8734 137.204 62.8458 137.216L62.7996 131.02C60.7763 130.973 58.6884 131.008 56.6599 131.014L56.5992 124.803C54.551 124.744 52.5033 124.789 50.4545 124.815C50.3753 122.796 50.4013 120.641 50.3901 118.609C48.3686 118.558 46.2705 118.601 44.2426 118.615L44.196 112.413C42.1502 112.392 40.1044 112.39 38.0586 112.409C38.051 111.219 38.1655 106.936 37.7404 106.226C38.0138 105.504 37.957 102.196 37.9916 101.124L38.0298 100.004L44.1836 99.9809L44.1821 93.7856Z" fill="#FEFE00"/>
<path d="M62.8251 100.006L68.977 99.9868C71.0578 99.9925 73.1386 100.024 75.2187 100.08L75.2357 106.223L75.2089 112.486C73.2438 112.405 70.9848 112.435 68.9954 112.419C68.9219 110.499 68.9738 108.175 68.9674 106.224C66.8595 106.233 64.882 106.24 62.7726 106.147L62.8251 100.006Z" fill="#FEFE00"/>
<path d="M68.9771 99.9868C71.0578 99.9925 73.1386 100.024 75.2187 100.08L75.2357 106.223L69.0635 106.21C68.9366 104.198 68.9785 102.015 68.9771 99.9868Z" fill="#FEFEFE"/>
<path d="M37.7404 106.227C38.0138 105.504 37.957 102.196 37.9916 101.124L38.0085 106.193L44.1729 106.231L44.196 112.413C42.1502 112.392 40.1044 112.39 38.0586 112.409C38.051 111.219 38.1655 106.936 37.7404 106.227Z" fill="#C1C0C1"/>
<path d="M50.39 118.609L56.58 118.621L56.5992 124.803C54.5509 124.744 52.5033 124.789 50.4544 124.816C50.3753 122.796 50.4013 120.641 50.39 118.609Z" fill="#C1C0C1"/>
<path d="M50.0659 106.185L50.3322 106.112C52.2233 106.306 54.6338 106.233 56.5717 106.229C56.5815 108.193 56.5363 110.477 56.606 112.415C54.5759 112.362 52.4956 112.405 50.4612 112.421C50.4048 111.141 50.6151 106.924 50.0659 106.185Z" fill="#C1C0C1"/>
<path d="M75.2088 124.871C75.1816 126.923 75.1885 128.976 75.2298 131.028C73.1748 130.991 71.1192 130.989 69.064 131.02C68.9773 128.978 69.0098 126.868 69.0129 124.818C70.9557 124.775 73.2406 124.848 75.2088 124.871Z" fill="#C1C0C1"/>
<path d="M56.5992 124.803L62.7841 124.838L62.7996 131.02C60.7763 130.973 58.6884 131.008 56.6599 131.014L56.5992 124.803Z" fill="#C1C0C1"/>
<path d="M62.5474 106.164L62.7726 106.147C64.882 106.24 66.8595 106.233 68.9675 106.224C68.9738 108.175 68.9219 110.499 68.9955 112.419C66.9762 112.36 64.8775 112.405 62.8517 112.417C62.8489 111.25 62.9733 106.806 62.5474 106.164Z" fill="#C1C0C1"/>
<path d="M68.9955 112.419C70.9849 112.435 73.2439 112.405 75.2089 112.486C75.1822 114.529 75.1887 116.571 75.2286 118.611C73.1713 118.582 71.1136 118.585 69.0566 118.613C68.9941 116.575 69.0088 114.465 68.9955 112.419Z" fill="#C1C0C1"/>
<path d="M56.606 112.415L62.7851 112.433L62.7996 118.609C60.7769 118.562 58.6863 118.601 56.6583 118.613L56.606 112.415Z" fill="#C1C0C1"/>
<path d="M44.1835 99.981L50.3849 100.009C50.3735 101.878 50.4225 104.285 50.3322 106.112L50.0659 106.185L44.2461 106.218C44.16 104.202 44.1927 102.011 44.1835 99.981Z" fill="#FEFEFE"/>
<path d="M62.7996 118.609L68.9707 118.621L68.9705 124.801C66.9382 124.785 64.8768 124.746 62.848 124.816L62.7996 118.609Z" fill="#C1C0C1"/>
<path d="M62.7996 131.02L68.9711 131.028C68.9772 133.003 68.9308 135.264 68.994 137.216C66.9727 137.163 64.8734 137.204 62.8457 137.216L62.7996 131.02Z" fill="#C1C0C1"/>
<path d="M44.196 112.413L50.3692 112.427C50.3733 114.392 50.3228 116.673 50.39 118.609C48.3685 118.558 46.2704 118.601 44.2426 118.615L44.196 112.413Z" fill="#C1C0C1"/>
<path d="M44.1674 68.9689L50.3645 68.9658C50.3796 70.9872 50.3526 73.2353 50.4303 75.2357C48.4293 75.2252 46.1413 75.2612 44.1643 75.1878L44.2426 81.4151L37.8904 81.4172C38.0711 77.6148 37.9306 72.8193 37.9182 68.9358C40.0012 68.9615 42.0844 68.9726 44.1674 68.9689Z" fill="#FEFE00"/>
<path d="M50.3706 62.7763C51.7556 62.755 55.5977 62.614 56.6444 62.9533C56.5949 65.07 56.5882 66.87 56.6589 68.9905L62.7902 68.9774C62.8037 71.0279 62.7867 73.1895 62.8401 75.2313C60.7597 75.2189 58.6792 75.2205 56.5988 75.236L56.6033 68.9918L50.3645 68.9658L50.3706 62.7763Z" fill="#FEFE00"/>
<path d="M31.7462 93.8151L38.0263 93.7998C38.011 95.8678 38.012 97.9358 38.0298 100.004L37.9915 101.124C37.957 102.196 38.0138 105.504 37.7403 106.226C35.7869 106.186 33.7039 106.216 31.7405 106.214L31.7366 100.013C31.7049 97.9473 31.708 95.8809 31.7462 93.8151Z" fill="#FEFE00"/>
<path d="M31.7366 100.013L38.0297 100.004L37.9915 101.124C37.957 102.196 38.0138 105.504 37.7403 106.226C35.7869 106.186 33.7039 106.216 31.7405 106.214L31.7366 100.013Z" fill="#FEFEFE"/>
<path d="M69.0468 93.8052L75.234 93.833L75.2187 100.081C73.1386 100.024 71.0578 99.9926 68.9771 99.9869C68.9681 98.0771 68.8922 95.6708 69.0468 93.8052Z" fill="#FEFE00"/>
<path d="M62.8229 62.7929L68.9722 62.7786C68.9706 64.8572 68.9937 66.9358 69.0415 69.0139L62.7831 68.9454L62.8229 62.7929Z" fill="#FEFE00"/>
<path d="M56.5848 93.7786C58.6638 93.8027 60.7427 93.8092 62.8216 93.7984C62.8104 95.8676 62.8116 97.9371 62.8251 100.006L56.5867 99.9646L56.5848 93.7786Z" fill="#FEFE00"/>
<path d="M13.1718 81.3789L19.3273 81.3793C19.3174 83.164 19.2249 85.9262 19.3499 87.626C21.4507 87.607 23.529 87.5606 25.6272 87.6837L25.6188 93.8368C25.6272 95.6654 25.7138 98.2966 25.628 100.062C25.6233 102.101 25.5973 104.187 25.6192 106.22L25.6214 112.491C25.6055 114.529 25.6041 116.567 25.617 118.605C25.6188 120.653 25.6468 122.765 25.6086 124.807C23.508 124.858 21.4066 124.871 19.3056 124.842C15.858 124.724 9.98755 125.188 6.98618 124.809C6.65629 110.781 6.94838 95.518 6.95941 81.3857L13.1718 81.3789Z" fill="#FEFEFE"/>
<path d="M13.1728 112.341C15.2464 112.401 17.3209 112.425 19.3953 112.417C21.3039 112.431 23.7508 112.39 25.6214 112.491C25.6055 114.529 25.604 116.567 25.6169 118.605C25.6188 120.653 25.6468 122.765 25.6085 124.807C23.5079 124.858 21.4065 124.871 19.3055 124.842C15.858 124.724 9.98751 125.188 6.98615 124.809C8.38769 124.605 11.6433 124.691 13.19 124.693L13.1734 118.656C13.1342 116.6 13.172 114.408 13.1728 112.341Z" fill="#FEFE00"/>
<path d="M13.1734 118.656L19.3734 118.625C19.3526 120.686 19.3493 122.784 19.3055 124.842C15.858 124.724 9.98751 125.188 6.98615 124.809C8.38769 124.605 11.6433 124.691 13.19 124.693L13.1734 118.656Z" fill="#C1C0C1"/>
<path d="M19.3953 112.417C21.304 112.431 23.7508 112.39 25.6215 112.491C25.6055 114.529 25.6041 116.567 25.617 118.605C23.5624 118.587 21.5078 118.589 19.4532 118.613L19.3953 112.417Z" fill="#C1C0C1"/>
<path d="M13.1571 99.9802L19.3781 99.9984C19.3837 102.043 19.354 104.183 19.4595 106.217L25.6192 106.22L25.6214 112.491C23.7508 112.39 21.304 112.431 19.3953 112.417C17.3209 112.425 15.2465 112.401 13.1728 112.341C13.2716 110.8 13.1741 107.877 13.163 106.252L13.1571 99.9802Z" fill="#FEFE00"/>
<path d="M13.163 106.252C15.2115 106.245 17.3227 106.211 19.3652 106.233C19.372 108.156 19.3158 110.53 19.3953 112.417C17.3209 112.425 15.2464 112.401 13.1728 112.341C13.2716 110.8 13.1741 107.877 13.163 106.252Z" fill="#C1C0C1"/>
<path d="M25.6188 93.8369C25.6272 95.6656 25.7138 98.2968 25.628 100.063L19.3732 99.9682L19.3696 93.7793C21.4184 93.831 23.5617 93.8187 25.6188 93.8369Z" fill="#FEFE00"/>
<path d="M10.6581 131.104C18.9356 130.676 29.6262 130.989 38.0418 131.002C38.0007 133.062 37.9827 135.123 37.9876 137.183L44.2317 137.194C44.1994 139.252 44.1845 141.311 44.1872 143.372L50.4248 143.38C50.3763 145.451 50.3579 147.521 50.3692 149.592L56.619 149.598L56.5906 155.786L62.809 155.789L62.7885 161.977L68.9956 161.97L68.9695 168.197L75.2261 168.199L75.1968 174.392H81.4101L81.3913 180.586L87.5565 180.567C87.5569 176.585 87.4707 172.133 87.5935 168.189L93.7056 168.22C93.7037 169.686 93.6187 173.333 93.8117 174.653L93.8313 180.578C95.8793 180.584 97.9683 180.569 100.012 180.6L100.041 186.747C102.142 187.042 105.396 186.786 107.599 186.847L106.661 187.089C105.95 187.968 106.191 191.682 106.203 193.056C100.176 193.183 93.681 193.054 87.6203 193.062C87.6336 191.046 87.5863 189.033 87.479 187.021C85.2971 186.837 83.5871 186.849 81.4072 186.866C81.4103 184.84 81.4497 182.826 81.2676 180.809C79.0881 180.627 77.3884 180.627 75.2177 180.643C75.2342 178.609 75.2381 176.659 75.0695 174.627C72.8632 174.408 71.2242 174.43 69.0147 174.445C69.0224 172.433 68.9793 170.424 68.8853 168.414C66.7508 168.22 64.9349 168.246 62.8016 168.263C62.8059 166.237 62.8474 164.223 62.663 162.203C60.4893 162.024 58.7772 162.026 56.6121 162.04C56.6284 159.973 56.6272 158.084 56.4665 156.022C54.2619 155.805 52.6171 155.825 50.4123 155.84C50.4176 153.824 50.3743 151.81 50.2819 149.797C48.1245 149.625 46.3554 149.637 44.199 149.652C44.2033 147.609 44.2442 145.612 44.0584 143.576C41.8783 143.423 40.1871 143.412 38.0081 143.425C38.022 141.36 38.0312 139.444 37.8584 137.384C35.188 137.122 31.2924 137.226 28.5265 137.228L13.1739 137.257C13.2076 135.264 13.1882 133.273 13.1158 131.282L10.6581 131.104Z" fill="black"/>
<path d="M87.5857 180.651C89.6673 180.614 91.7493 180.59 93.8313 180.578C93.7677 182.628 93.791 184.766 93.783 186.823C91.7141 186.827 89.6452 186.819 87.5765 186.798L87.5857 180.651Z" fill="#838100"/>
<path d="M31.7405 106.214C33.7039 106.216 35.7869 106.186 37.7403 106.226C38.1655 106.936 38.051 111.219 38.0586 112.409C40.1044 112.39 42.1502 112.392 44.196 112.413L44.2426 118.615C46.2704 118.601 48.3685 118.558 50.39 118.609C50.4013 120.641 50.3753 122.796 50.4544 124.816C52.5033 124.789 54.5509 124.744 56.5992 124.803L56.6599 131.014C58.6883 131.008 60.7762 130.973 62.7996 131.02L62.8458 137.216C64.8734 137.204 66.9727 137.163 68.994 137.216C70.7755 137.226 73.3783 137.171 75.09 137.286C74.9878 138.948 74.952 141.718 75.1445 143.386C75.2939 144.498 75.3232 148.603 75.1276 149.648C73.0766 149.674 70.9748 149.652 68.9194 149.654L62.801 149.662C62.7434 147.62 62.7816 145.479 62.7867 143.427C60.7401 143.419 58.6934 143.425 56.6468 143.451L56.6072 137.212L56.5804 131.03L50.3937 131.022C50.3166 129.125 50.3722 126.766 50.3684 124.83L44.1945 124.803C42.1475 124.746 40.0909 124.789 38.0426 124.814C38.0052 122.761 38.0116 120.664 37.9985 118.607L31.7445 118.587L31.7431 112.462C31.7227 110.379 31.7219 108.297 31.7405 106.214Z" fill="#FEFE00"/>
<path d="M56.6072 137.212L62.7838 137.226L62.7442 143.453C64.7833 143.443 66.9488 143.398 68.9767 143.431L68.9194 149.654L62.801 149.662C62.7434 147.62 62.7816 145.479 62.7867 143.427C60.7401 143.419 58.6934 143.425 56.6468 143.451L56.6072 137.212Z" fill="#C1C0C1"/>
<path d="M31.7431 112.462L37.9743 112.429L37.9985 118.607L31.7445 118.587L31.7431 112.462Z" fill="#C1C0C1"/>
<path d="M37.9985 118.607L44.1794 118.624L44.1946 124.803C42.1475 124.746 40.0909 124.789 38.0426 124.814C38.0052 122.761 38.0116 120.664 37.9985 118.607Z" fill="#C1C0C1"/>
<path d="M68.994 137.216C70.7755 137.226 73.3783 137.171 75.09 137.286C74.9878 138.948 74.952 141.718 75.1445 143.386C73.1181 143.384 71.0919 143.392 69.066 143.412C68.9832 141.399 69.0077 139.242 68.994 137.216Z" fill="#C1C0C1"/>
<path d="M31.7445 118.587L37.9985 118.607C38.0115 120.664 38.0052 122.761 38.0426 124.814C40.0909 124.789 42.1475 124.746 44.1945 124.803L50.3683 124.83C50.3722 126.766 50.3166 129.125 50.3937 131.022L56.5804 131.03L56.6071 137.212L56.6468 143.451C54.5421 143.427 52.437 143.437 50.3328 143.482L50.3493 137.237L44.1463 137.235L44.1649 131.051H37.9302L37.9565 124.834C35.8858 124.871 33.8147 124.861 31.7445 124.807C31.7296 122.735 31.7296 120.66 31.7445 118.587Z" fill="#FEFE00"/>
<path d="M50.3937 131.022L56.5804 131.03L56.6071 137.212C54.5446 137.186 52.4818 137.19 50.4194 137.222C50.3824 135.176 50.399 133.074 50.3937 131.022Z" fill="#C1C0C1"/>
<path d="M44.1946 124.803L50.3684 124.83C50.3723 126.766 50.3167 129.125 50.3937 131.022C48.344 130.967 46.2794 131.012 44.2279 131.036L44.1946 124.803Z" fill="#C1C0C1"/>
<path d="M81.3715 25.5671L87.5884 25.589C87.5559 29.6882 87.5496 33.7878 87.5694 37.8872C86.4704 38.1395 82.7134 38.0066 81.4843 37.9741C81.452 40.0045 81.3766 42.1665 81.4637 44.1849L81.3981 44.3255C80.148 44.106 76.5569 44.1867 75.2676 44.226C75.0875 42.8424 75.194 39.4859 75.2057 37.9796L75.1738 31.7574L81.4122 31.7881L81.3715 25.5671Z" fill="#C1C0C1"/>
<path d="M75.2057 37.9795C76.9199 37.9709 79.8653 37.8721 81.4843 37.9739C81.452 40.0043 81.3766 42.1664 81.4637 44.1847L81.3981 44.3253C80.148 44.1058 76.5569 44.1865 75.2676 44.2258C75.0875 42.8422 75.194 39.4857 75.2057 37.9795Z" fill="#FEFE00"/>
<path d="M62.7881 50.364L68.9701 50.3695L72.9164 50.3918L75.2307 50.4899C75.2379 51.8547 75.338 55.3895 75.2244 56.6236C75.2309 58.2879 75.1625 61.2472 75.2816 62.808L75.2367 62.938C73.9639 62.7031 70.406 62.7775 68.9721 62.7786L62.8228 62.7929C62.7958 60.7537 62.7934 58.7143 62.8155 56.6751L62.9412 56.632C62.6325 55.7529 62.7758 51.5254 62.7881 50.364Z" fill="#FEFE00"/>
<path d="M68.97 50.3696L72.9163 50.3919L75.2307 50.49C75.2379 51.8548 75.338 55.3896 75.2244 56.6237L69.0504 56.6041C68.9357 54.6637 68.9809 52.3399 68.97 50.3696Z" fill="#FEFEFE"/>
<path d="M62.9413 56.6321C64.9572 56.602 66.9734 56.5922 68.9896 56.6027L68.9722 62.7787L62.8229 62.793C62.7959 60.7538 62.7935 58.7144 62.8156 56.6752L62.9413 56.6321Z" fill="#FEFEFE"/>
<path d="M13.1385 75.1817C19.148 75.2211 25.8798 75.0486 31.7785 75.2618L31.7646 81.3889C29.7284 81.3985 27.692 81.393 25.6558 81.3724L25.6271 87.6839C23.529 87.5608 21.4507 87.6072 19.3499 87.6263C19.2248 85.9264 19.3174 83.1642 19.3272 81.3795L13.1718 81.3791L13.1385 75.1817Z" fill="#C1C0C1"/>
<path d="M19.4163 81.3645L25.6558 81.3723L25.6271 87.6838C23.529 87.5607 21.4507 87.6071 19.3499 87.6262C19.4715 86.0623 19.4065 83.0181 19.4163 81.3645Z" fill="#FEFE00"/>
<path d="M68.9793 44.1713C70.1822 44.1519 74.3842 44.0194 75.2477 44.3326C75.1997 46.3493 75.1973 48.3666 75.2402 50.3835L72.9164 50.3918L68.9701 50.3696L68.9793 44.1713Z" fill="#FEFE00"/>
<path d="M56.5973 56.5864C58.5189 56.5696 60.9436 56.4786 62.8155 56.6751C62.7934 58.7143 62.7959 60.7537 62.8228 62.7928C60.7707 62.7704 58.7184 62.7836 56.6668 62.8325C56.4796 61.8453 56.5853 57.7749 56.5973 56.5864Z" fill="#FEFE00"/>
<path d="M62.7881 50.3642C62.7758 51.5255 62.6325 55.7531 62.9412 56.6321L62.8155 56.6753C60.9436 56.4788 58.5189 56.5698 56.5973 56.5866L56.5573 50.3599C58.6341 50.3789 60.711 50.3801 62.7881 50.3642Z" fill="#C1C0C1"/>
<path d="M68.9498 37.9707C71.0349 38.0149 73.1205 38.0177 75.2056 37.9797C75.194 39.4859 75.0875 42.8424 75.2675 44.226L75.2477 44.3327C74.3841 44.0195 70.1821 44.152 68.9793 44.1714L68.9498 37.9707Z" fill="#C1C0C1"/>
<path d="M50.3459 56.5757C52.4296 56.6172 54.5136 56.6209 56.5974 56.5865C56.5854 57.7751 56.4797 61.8455 56.6669 62.8326L56.6444 62.9535C55.5977 62.6141 51.7557 62.7552 50.3707 62.7764L50.3459 56.5757Z" fill="#C1C0C1"/>
<path d="M44.1633 62.7764C46.2324 62.7991 48.3015 62.7991 50.3706 62.7764L50.3645 68.9659L44.1674 68.9689L44.1633 62.7764Z" fill="#C1C0C1"/>
<path d="M62.7675 44.172C64.838 44.1965 66.9087 44.1963 68.9793 44.1714L68.9701 50.3697L62.7881 50.3642L62.7675 44.172Z" fill="#C1C0C1"/>
<path d="M87.5578 19.373C89.6012 19.3998 91.6913 19.4041 93.7296 19.4567C93.7285 21.3037 93.6519 23.8537 93.7972 25.6455C91.8332 25.4853 89.5799 25.5666 87.5884 25.5889C87.558 23.517 87.5478 21.4451 87.5578 19.373Z" fill="#C1C0C1"/>
<path d="M75.2265 149.684C77.2429 149.613 79.2607 149.601 81.2779 149.65C81.2728 151.177 81.1935 153.599 81.3672 155.053L81.3878 155.832C79.3557 155.809 77.2545 155.84 75.2167 155.846C75.1284 153.791 75.1905 151.739 75.2265 149.684Z" fill="#C1C0C1"/>
<path d="M87.5884 25.589C89.5798 25.5668 91.8331 25.4854 93.7972 25.6457L93.8372 25.8268L93.8092 31.6326L93.903 31.839C93.903 33.6707 93.9772 36.5881 93.8458 38.3364C93.9917 41.3161 93.8372 44.9513 93.8014 47.9672C93.7681 52.2543 93.761 56.5416 93.7804 60.8289L93.7945 74.2723C93.7959 76.2273 93.8893 79.5441 93.7203 81.4167L99.9938 81.4181L99.9836 87.4943C101.75 87.4872 104.585 87.3929 106.259 87.5951C106.091 89.2917 106.15 91.0283 106.138 92.7351C106.071 101.355 106.232 109.995 106.152 118.613C104.192 118.609 101.942 118.66 100.004 118.597L100.02 124.852C93.8188 124.81 87.6162 124.797 81.4136 124.818L81.4056 143.388C81.3627 147.145 81.5399 151.414 81.3672 155.053C81.1934 153.599 81.2727 151.177 81.2779 149.65C79.2607 149.601 77.2428 149.613 75.2265 149.684L75.1275 149.648C75.3232 148.603 75.2939 144.498 75.1445 143.386C74.952 141.718 74.9877 138.948 75.0899 137.286C75.2543 135.949 75.0809 133.903 75.2142 132.349L75.2297 131.028C75.1885 128.976 75.1815 126.923 75.2087 124.871L75.2285 118.611C75.1887 116.571 75.1821 114.529 75.2089 112.487L75.2357 106.223L75.2187 100.081L75.234 93.8331C75.0507 83.7558 75.1791 73.0529 75.2367 62.9382L75.2817 62.8081C75.1625 61.2473 75.231 58.288 75.2244 56.6238C75.3381 55.3896 75.2379 51.8549 75.2308 50.4901L72.9164 50.392L75.2402 50.3836C75.1972 48.3667 75.1997 46.3494 75.2477 44.3327L75.2676 44.226C76.5569 44.1867 80.1479 44.106 81.398 44.3255L81.4636 44.1849C81.3766 42.1666 81.452 40.0045 81.4843 37.9741C82.7133 38.0066 86.4703 38.1395 87.5694 37.8873C87.5496 33.7879 87.5559 29.6882 87.5884 25.589Z" fill="#828182"/>
<path d="M75.2817 62.8081C77.3083 62.783 79.3727 62.7323 81.3956 62.7899C81.4138 68.905 81.323 75.2728 81.4393 81.3586L87.6213 81.3782L87.5935 87.5998L81.4128 87.6078C81.4146 97.8278 81.2795 108.37 81.4375 118.562C87.2524 118.566 94.3006 118.374 100.004 118.597L100.02 124.852C93.8188 124.81 87.6162 124.797 81.4136 124.818L81.4056 143.388C81.3627 147.145 81.5399 151.414 81.3672 155.053C81.1934 153.599 81.2727 151.177 81.2779 149.65C79.2607 149.601 77.2429 149.613 75.2265 149.684L75.1275 149.648C75.3232 148.603 75.2939 144.498 75.1445 143.386C74.952 141.718 74.9878 138.948 75.0899 137.286C75.2543 135.949 75.0809 133.903 75.2142 132.349L75.2297 131.028C75.1885 128.976 75.1815 126.923 75.2087 124.871L75.2285 118.611C75.1887 116.571 75.1821 114.529 75.2089 112.487L75.2357 106.223L75.2187 100.081L75.234 93.833C75.0507 83.7557 75.1791 73.0529 75.2367 62.9381L75.2817 62.8081Z" fill="black"/>
<path d="M75.0899 137.286C75.2543 135.949 75.0809 133.903 75.2142 132.349C75.3706 136.014 75.1723 139.729 75.2994 143.398C77.0156 143.404 79.7557 143.486 81.4056 143.388C81.3627 147.145 81.5399 151.414 81.3672 155.053C81.1934 153.599 81.2727 151.177 81.2779 149.65C79.2607 149.601 77.2429 149.613 75.2265 149.684L75.1275 149.648C75.3232 148.603 75.2939 144.498 75.1445 143.386C74.952 141.718 74.9878 138.948 75.0899 137.286Z" fill="#828182"/>
<path d="M93.8458 38.3364C93.9918 41.3162 93.8373 44.9513 93.8015 47.9673C93.7682 52.2543 93.761 56.5416 93.7804 60.8289L93.7945 74.2723C93.796 76.2273 93.8894 79.5441 93.7203 81.4167L87.558 81.41L87.7734 44.178L93.6607 44.1733C93.667 43.2628 93.5709 38.8816 93.8458 38.3364Z" fill="#C1C0C1"/>
<path d="M99.9938 87.6929C101.993 87.6939 104.288 87.7516 106.259 87.595C106.091 89.2915 106.15 91.0281 106.138 92.7349C106.071 101.355 106.232 109.995 106.152 118.613C104.192 118.609 101.942 118.66 100.004 118.597C99.7547 108.874 99.9162 97.464 99.9938 87.6929Z" fill="black"/>
<path d="M75.2676 44.2259C76.5569 44.1866 80.1479 44.1059 81.398 44.3254L81.4103 49.88C81.3694 54.0617 81.302 58.6136 81.3956 62.7898C79.3727 62.7322 77.3083 62.7829 75.2817 62.808C75.1625 61.2472 75.231 58.2879 75.2244 56.6237C75.3381 55.3895 75.2379 51.8547 75.2308 50.49L72.9164 50.3918L75.2402 50.3835C75.1972 48.3666 75.1997 46.3493 75.2477 44.3326L75.2676 44.2259Z" fill="#C1C0C1"/>
<path d="M75.2675 44.2259C76.5569 44.1866 80.1479 44.1059 81.398 44.3254L81.4103 49.88C81.0303 50.3649 81.1742 50.3855 80.44 50.4143C78.7498 50.4806 76.9321 50.4133 75.2401 50.3835C75.1972 48.3666 75.1997 46.3493 75.2477 44.3326L75.2675 44.2259Z" fill="#FEFEFE"/>
<path d="M81.4637 44.1848L87.5533 44.1421C87.5525 50.3173 87.6269 56.6476 87.5433 62.8089C85.5899 62.8066 83.325 62.8551 81.3957 62.7899C81.302 58.6136 81.3695 54.0618 81.4104 49.88L81.3981 44.3255L81.4637 44.1848Z" fill="black"/>
<path d="M87.5884 25.589C89.5798 25.5668 91.8331 25.4854 93.7971 25.6457L93.8372 25.8268L93.8092 31.6326C93.6052 33.2935 93.6999 36.2443 93.705 38.005C92.5673 38.0246 88.4377 38.1794 87.5694 37.8873C87.5496 33.7879 87.5559 29.6882 87.5884 25.589Z" fill="black"/>
<path d="M91.7368 87.545C92.4313 87.5037 93.1813 87.3753 93.7834 87.6658C94.0528 88.9909 93.9353 93.9518 93.9253 95.6185C93.8405 101.222 93.8059 106.825 93.8216 112.429L87.5839 112.431L87.5215 100.462C87.5031 99.1355 87.3437 94.4696 87.5505 93.3103L87.5508 87.5427L91.7368 87.545Z" fill="#C1C0C1"/>
<path d="M87.5507 87.5427L91.7368 87.545C92.3201 87.5983 93.2191 87.5973 93.6432 87.9181C93.9345 89.9123 93.7491 97.5753 93.7321 100.04L87.6687 100.019C87.6703 99.1392 87.7063 93.8003 87.5505 93.3103L87.5507 87.5427Z" fill="#FEFEFE"/>
<path d="M106.234 19.4083C108.11 19.4071 110.653 19.4817 112.474 19.3962L112.483 25.5567L118.688 25.5271C118.651 29.6762 118.649 33.8256 118.684 37.9749C120.757 37.9455 122.829 37.9269 124.902 37.9187C124.761 46.1002 124.871 54.5594 124.891 62.7611L131.101 62.7331L131.074 113.27V132.134C131.077 135.779 130.991 139.907 131.164 143.509C128.99 143.437 127.068 143.451 124.898 143.494L124.867 158.97C124.865 161.719 124.771 165.632 124.981 168.31C122.89 168.265 120.799 168.263 118.711 168.302C118.68 171.697 118.488 177.542 118.768 180.725C116.607 180.633 114.657 180.657 112.501 180.69C112.491 182.61 112.413 185.049 112.54 186.929L107.6 186.848C105.396 186.786 102.142 187.042 100.041 186.747C101.494 186.559 104.597 186.641 106.177 186.639L106.22 180.657L106.199 174.437L112.348 174.453C112.344 172.439 112.292 170.256 112.429 168.261L118.643 168.277L118.623 143.435L124.861 143.478C124.708 134.24 124.844 124.583 124.844 115.318L124.863 62.754L118.641 62.7813L118.645 37.9226C116.848 37.9747 114.529 38.2231 112.846 37.8625C112.341 37.4119 112.499 37.59 112.446 36.6735C112.689 33.7071 112.452 28.7734 112.474 25.5498C110.449 25.6107 108.247 25.5849 106.21 25.5992L106.234 19.4083Z" fill="#828182"/>
<path d="M112.348 174.453C112.344 172.439 112.292 170.256 112.429 168.261C112.72 172.039 112.393 176.771 112.454 180.68C110.375 180.621 108.296 180.612 106.22 180.657L106.199 174.437L112.348 174.453Z" fill="#C1C0C1"/>
<path d="M100.02 124.852L99.9898 131.022L93.824 131.036C93.7899 133.093 93.7776 135.15 93.7874 137.208L87.5786 137.214C87.5267 145.291 87.7955 153.838 87.7902 162.05L93.6854 162.02C93.6772 162.901 93.5405 167.321 93.8338 167.813C93.9092 170.027 93.9395 172.241 93.9241 174.453L93.8117 174.653C93.6188 173.333 93.7038 169.686 93.7056 168.22L87.5936 168.189L81.4281 168.277C81.3834 166.188 81.3795 164.099 81.4163 162.012C81.3212 160.237 81.3881 157.657 81.3879 155.832L81.3672 155.053C81.54 151.414 81.3627 147.145 81.4057 143.388L81.4136 124.818C87.6163 124.797 93.8189 124.81 100.02 124.852Z" fill="#828182"/>
<path d="M81.4057 143.388L87.5333 143.374L87.5607 162.017C85.5187 162.017 83.4562 162.034 81.4163 162.011C81.3212 160.237 81.3881 157.657 81.3879 155.831L81.3672 155.053C81.54 151.414 81.3627 147.145 81.4057 143.388Z" fill="black"/>
<path d="M106.259 87.595C106.596 89.7779 106.369 96.9621 106.371 99.5755L106.175 131.012L99.9856 131.01L99.9897 137.2H93.7757L93.801 158.109C93.809 160.218 94.0314 166.041 93.8337 167.813C93.5404 167.32 93.6772 162.901 93.6853 162.02L87.7901 162.05C87.7954 153.838 87.5266 145.291 87.5786 137.214L93.7873 137.208C93.7775 135.149 93.7898 133.093 93.8239 131.036L99.9897 131.022L100.02 124.852L100.004 118.597C101.942 118.66 104.192 118.609 106.152 118.613C106.232 109.995 106.071 101.355 106.138 92.7349C106.15 91.0281 106.091 89.2915 106.259 87.595Z" fill="#C1C0C1"/>
<path d="M93.5095 13.1236C97.1956 13.1213 102.686 13.0021 106.224 13.2188C106.175 15.3224 106.224 17.1471 106.299 19.2409C107.262 19.244 111.916 19.1552 112.474 19.3963C110.653 19.4817 108.11 19.4071 106.234 19.4083L100.016 19.4167L100.006 25.5937C98.2973 25.5992 95.5318 25.5306 93.9034 25.6344C93.7478 23.5881 94.2237 14.0948 93.5095 13.1236Z" fill="black"/>
<path d="M100.016 19.4166L106.234 19.4082L106.21 25.5991C108.247 25.5848 110.449 25.6106 112.474 25.5496C112.452 28.7733 112.689 33.707 112.446 36.6734C112.292 35.4626 112.36 33.055 112.36 31.7512L106.23 31.759C106.193 29.6899 106.203 27.6205 106.261 25.5519C104.272 25.6126 101.989 25.5623 99.9816 25.5586L99.9877 31.7565C98.3832 31.7465 95.3847 31.6437 93.903 31.8389L93.8092 31.6324L93.8372 25.8267L93.9034 25.6343C95.5319 25.5304 98.2974 25.5991 100.006 25.5936L100.016 19.4166Z" fill="#C1C0C1"/>
<path d="M93.9241 174.453L100.004 174.408L99.9836 180.676C102.066 180.592 104.137 180.635 106.22 180.657L106.177 186.639C104.597 186.641 101.494 186.559 100.041 186.747L100.012 180.6C97.9683 180.569 95.8793 180.584 93.8313 180.578L93.8116 174.653L93.9241 174.453Z" fill="#C1C0C1"/>
<path d="M151.52 0.752306L155.917 0.712646C155.688 5.77042 155.984 11.0394 155.87 16.1192C155.798 19.2184 155.825 22.517 156.064 25.6002C158.055 25.5203 160.125 25.5434 162.122 25.5373C161.985 28.8952 162.077 32.8094 162.077 36.1982L162.075 55.8718L162.077 70.8785C162.077 74.3119 161.996 77.9906 162.253 81.389L168.322 81.3506C168.185 84.851 168.285 88.9625 168.285 92.4965L168.279 113.46L168.275 127.643C168.273 130.754 168.177 134.131 168.495 137.208C170.505 137.179 172.512 137.165 174.521 137.163C174.268 143.351 174.529 150.751 174.474 157.04C174.431 162.093 174.268 169.659 174.672 174.43L180.669 174.236C180.749 172.568 180.661 170.583 180.62 168.895C180.369 158.413 180.974 147.634 180.555 137.184C182.664 137.182 184.772 137.126 186.877 137.02C186.971 133.618 186.83 129.338 186.83 125.866C186.858 119.302 186.844 112.74 186.793 106.176C188.886 106.166 190.979 106.114 193.072 106.018C193.135 103.616 193.013 100.663 193.011 98.1777L192.982 81.3649L199.331 81.3436C199.09 87.0509 199.412 92.9603 199.286 98.6863C199.231 101.161 199.251 103.85 199.396 106.32C197.534 106.17 195.063 106.3 193.15 106.348C192.862 110.299 193.086 116.992 193.074 121.136C193.062 125.723 192.864 132.88 193.205 137.304C191.32 137.198 188.884 137.294 186.957 137.318C186.478 145.398 187.134 154.123 186.881 162.265C186.762 166.122 186.797 170.661 186.975 174.508C185.097 174.404 182.664 174.52 180.745 174.559C180.585 177.239 180.684 180.798 180.684 183.546C180.677 188.36 180.502 194.669 180.788 199.361C178.799 199.15 176.414 199.275 174.398 199.363L174.419 174.606C172.203 174.477 170.427 174.469 168.207 174.494C168.428 162.357 168.23 149.578 168.234 137.39C166.014 137.269 164.205 137.259 161.985 137.286C162.212 118.789 161.883 100.103 162.041 81.575C159.858 81.4467 157.971 81.4497 155.788 81.464L155.817 25.7556C153.795 25.6536 151.768 25.6785 149.742 25.6816C149.576 28.276 149.675 31.8594 149.672 34.5151L149.67 50.647L149.675 69.9451C149.677 73.6718 149.593 77.7839 149.767 81.482C147.849 81.39 145.488 81.4802 143.537 81.5043C143.205 87.0349 143.631 92.9358 143.469 98.5013C143.395 100.994 143.428 103.853 143.581 106.339C141.748 106.107 139.093 106.25 137.198 106.324C137.229 98.0052 137.217 89.686 137.161 81.3669C139.267 81.3631 141.372 81.3093 143.475 81.2059C143.62 68.9183 143.234 56.4859 143.402 44.1746C143.483 38.0554 143.528 31.666 143.353 25.5616C145.458 25.5487 147.561 25.4843 149.662 25.3688C149.867 19.9529 149.421 13.633 149.605 8.1424C149.679 5.93151 149.45 3.1844 149.711 1.02502C150.28 0.672377 150.77 0.778677 151.52 0.752306Z" fill="#828182"/>
</g>
<defs>
<clipPath id="clip0_1_7842">
<rect width="200" height="200" fill="white"/>
</clipPath>
</defs>
</svg>
