<svg width="540" height="500" viewBox="0 0 540 500" fill="none" xmlns="http://www.w3.org/2000/svg">
<path d="M270.271 145.795C270.258 151.052 270.131 156.713 270.295 161.931C285.617 161.777 302.837 161.595 318.096 161.955L318.101 177.851C323.243 177.859 329.012 177.786 334.114 177.963C334.109 181.049 333.927 191.264 334.388 193.855C336.466 193.84 349.072 193.531 350.132 194.119L350.198 194.6C350.438 199.445 350.145 204.882 350.327 209.938C355.587 209.876 360.848 209.877 366.108 209.941C366.055 215.184 365.992 220.624 366.416 225.844L382.107 225.965C382.102 230.788 381.949 237.096 382.448 241.832C387.666 241.824 392.881 241.866 398.099 241.957C397.775 251.903 398.097 263.844 398.089 273.937C392.828 273.94 387.568 273.998 382.308 274.109C381.915 278.536 382.105 285.34 382.1 289.937C378.073 290.024 369.831 290.256 366.108 289.866L366.089 305.928C362.074 305.973 353.784 306.295 350.103 305.862L350.087 321.936C339.669 322.189 328.535 321.983 318.054 321.989C318.217 316.965 318.083 311.171 318.138 306.066C312.872 305.947 307.314 305.957 302.046 305.973C302.22 300.923 302.059 295.224 302.144 290.066C296.886 289.945 291.317 289.976 286.054 289.982C286.273 285.256 286.097 278.969 286.157 274.101C281.909 273.795 274.429 273.98 270.052 273.99C270.224 269 270.089 263.136 270.137 258.062C264.863 257.944 259.322 257.961 254.047 257.972C254.211 252.889 254.057 247.241 254.141 242.058C248.901 241.939 243.306 241.966 238.058 241.982C238.525 226.892 237.819 211.369 238.118 196.236C238.229 190.648 238.34 184.145 238.041 178.596C237.391 178.014 237.049 178.162 235.986 178.009C246.634 177.488 259.13 178.052 270.097 177.813L270.065 157.612C270.063 154.294 269.905 148.904 270.271 145.795Z" fill="black"/>
<path d="M334.388 193.854C336.466 193.839 349.072 193.53 350.132 194.118L350.198 194.599C349.9 196.773 350.04 202.871 350.043 205.309L350.119 225.932C355.435 225.878 360.748 225.899 366.061 225.996L366.111 241.909C370.833 241.791 377.425 241.766 382.081 242.002C382.274 252.492 382.055 263.38 382.113 273.931L350.23 273.923C349.955 269.062 350.064 262.793 350.106 257.901L334.222 257.904C333.966 253.057 334.101 246.819 334.133 241.888L318.228 241.897C317.904 237.177 318.085 230.761 318.104 225.914C312.873 225.981 307.475 225.914 302.231 225.913C301.957 220.806 302.067 215.021 302.054 209.862L318.162 209.987C318.001 204.818 318.088 199.054 318.067 193.839C323.507 193.898 328.949 193.902 334.388 193.854Z" fill="#0001DA"/>
<path d="M270.097 177.93L302.06 177.951V193.851L286.129 193.894C286.034 199.129 286.102 204.626 286.097 209.877L270.103 209.909C270.034 215.189 270.084 220.595 270.079 225.885C264.787 225.944 259.401 225.9 254.103 225.903C253.884 215.501 254.062 204.339 254.068 193.901C259.372 193.834 264.787 193.88 270.1 193.873L270.097 177.93Z" fill="#FEFEFE"/>
<path d="M318.112 257.879C323.248 257.902 329.015 257.804 334.096 258.01L334.106 273.859C328.772 273.941 323.438 273.964 318.101 273.935C318.07 268.584 318.072 263.231 318.112 257.879Z" fill="#0001DA"/>
<path d="M302.121 241.886C307.442 241.861 312.763 241.901 318.081 242.008C318.06 247.298 318.071 252.587 318.113 257.877L302.097 257.914C302.06 253.023 301.907 246.746 302.121 241.886Z" fill="#0001DA"/>
<path d="M286.083 225.869L302.067 226C302.175 231.154 302.088 236.658 302.098 241.841C296.83 241.951 291.401 241.897 286.122 241.907C286.038 236.626 286.093 231.163 286.083 225.869Z" fill="#0001DA"/>
<path d="M334.142 273.9L350.057 273.998C350.281 278.587 350.057 285.074 350.088 289.818C347.982 290.121 337.034 289.918 334.123 289.908C334.078 284.573 334.084 279.235 334.142 273.9Z" fill="#0001DA"/>
<path d="M253.931 145.821C259.249 145.919 264.927 145.81 270.272 145.795C269.906 148.904 270.064 154.294 270.066 157.612L270.098 177.813C259.131 178.052 246.635 177.488 235.987 178.009C232.249 178.19 226.121 177.989 222.219 178C222.214 182.838 221.974 189.407 222.307 194.077C217.586 193.824 211.011 193.974 206.217 193.987C206.242 199.157 205.997 205.062 206.292 210.137C202.483 209.778 194.196 209.926 190.207 210.013C190.181 215.29 190.269 220.619 190.186 225.883C195.306 225.989 201.123 225.824 206.286 225.789C206.038 229.655 206.031 238.274 206.313 242.091C201.495 241.813 195.139 241.984 190.224 241.981C190.202 247.014 190.008 253.187 190.291 258.118C186.431 257.773 178.26 257.934 174.228 258.007C174.232 262.752 174.415 269.389 174.164 273.9L190.247 273.776C190.11 277.371 189.99 286.672 190.333 290.095C185.917 289.802 178.724 289.979 174.219 289.995C174.217 294.916 173.983 301.361 174.313 306.126C170.962 305.804 161.758 305.912 158.289 306.05C158.158 311.332 158.136 316.617 158.223 321.899L174.302 321.775C174.05 325.604 174.027 334.285 174.326 338.075C169.675 337.851 162.969 337.914 158.307 338.035C158.134 341.925 157.952 350.554 158.358 354.177C155.208 353.821 145.129 353.958 141.959 354.206C142.226 351.16 142.127 340.92 141.9 337.811C146.615 337.896 153.536 337.998 158.085 337.584L157.976 322.054C154.795 321.812 144.989 321.92 141.961 322.234C142.238 319.077 142.116 309.069 141.91 305.823C146.649 305.918 153.45 305.963 158.086 305.599C158.029 300.419 158.009 295.237 158.028 290.058C153.307 289.916 146.607 289.85 141.956 290.174C142.239 287.215 142.109 276.904 141.909 273.824C146.312 274.045 153.564 273.908 157.985 273.726C158.126 268.716 158.026 263.109 158.03 258.057C153.491 257.854 146.354 257.842 141.96 258.208C142.227 255.171 142.128 244.915 141.901 241.815C146.834 241.961 153.07 241.892 157.991 241.735C158.108 236.65 158.024 231.164 158.028 226.049C153.841 225.904 145.983 225.802 141.962 226.23C142.24 223.068 142.116 213.081 141.912 209.825C146.565 209.975 153.389 209.948 157.992 209.711C158.104 204.628 158.024 199.17 158.029 194.061C153.349 193.892 146.562 193.859 141.956 194.175C142.239 191.228 142.108 180.902 141.91 177.832C146.637 178.005 153.266 177.914 157.984 177.729C158.125 173.046 158.137 166.453 157.931 161.819C162.297 161.993 169.691 161.951 174 161.701C174.089 157.621 174.256 149.68 173.884 145.812C179.06 145.96 185.032 145.811 190.264 145.793C190.036 151.169 190.324 156.515 190.179 161.882C195.304 161.875 200.909 161.976 205.991 161.709C206.108 156.888 206.135 150.596 205.936 145.82C211.246 145.927 216.96 145.817 222.3 145.805C221.819 150.797 222.493 156.784 222.157 161.883C232.806 161.8 243.456 161.809 254.104 161.909C253.791 156.887 254.151 151.067 253.931 145.821Z" fill="#0001DA"/>
<path d="M206.078 161.912L222.091 161.916L222.078 177.904L206.066 177.923L206.078 161.912Z" fill="#C1C0C1"/>
<path d="M158.079 241.9L174.098 241.889L174.082 257.89L158.078 257.894L158.079 241.9Z" fill="#C1C0C1"/>
<path d="M174.097 209.908L174.072 225.915L158.08 225.891V209.911L174.097 209.908Z" fill="#C1C0C1"/>
<path d="M174.104 161.912L190.102 161.918L190.06 177.89L174.096 177.925L174.104 161.912Z" fill="#C1C0C1"/>
<path d="M158.078 177.933L174.096 177.926L174.072 193.881C168.912 193.756 163.276 193.859 158.08 193.854L158.078 177.933Z" fill="#C1C0C1"/>
<path d="M174.072 193.881L190.107 193.888L190.083 209.893C184.792 209.897 179.377 209.842 174.097 209.908L174.072 193.881Z" fill="#C1C0C1"/>
<path d="M158.08 273.932L174.092 273.945L174.079 289.865L158.078 289.852L158.08 273.932Z" fill="#C1C0C1"/>
<path d="M174.072 225.914L190.096 225.941L190.08 241.867C184.863 241.87 179.287 241.777 174.098 241.888L174.072 225.914Z" fill="#C1C0C1"/>
<path d="M190.086 177.937L206.068 177.924L206.057 193.867C200.837 193.871 195.302 193.783 190.108 193.888L190.086 177.937Z" fill="#C1C0C1"/>
</svg>
