<svg width="540" height="500" viewBox="0 0 540 500" fill="none" xmlns="http://www.w3.org/2000/svg">
<path d="M366 266C371.28 266 376.56 266 382 266C382 271.28 382 276.56 382 282C387.28 282 392.56 282 398 282C398 287.28 398 292.56 398 298C376.88 298 355.76 298 334 298C334 292.72 334 287.44 334 282C344.56 282 355.12 282 366 282C366 276.72 366 271.44 366 266Z" fill="black"/>
<path d="M206 330C211.28 330 216.56 330 222 330C222 335.28 222 340.56 222 346C227.28 346 232.56 346 238 346C238 351.28 238 356.56 238 362C232.72 362 227.44 362 222 362C222 367.28 222 372.56 222 378C216.72 378 211.44 378 206 378C206 362.16 206 346.32 206 330Z" fill="black"/>
<path d="M206 122C211.28 122 216.56 122 222 122C222 127.28 222 132.56 222 138C227.28 138 232.56 138 238 138C238 143.28 238 148.56 238 154C232.72 154 227.44 154 222 154C222 159.28 222 164.56 222 170C216.72 170 211.44 170 206 170C206 154.16 206 138.32 206 122Z" fill="black"/>
<path d="M190 282C200.56 282 211.12 282 222 282C222 292.56 222 303.12 222 314C216.72 314 211.44 314 206 314C206 308.72 206 303.44 206 298C200.72 298 195.44 298 190 298C190 292.72 190 287.44 190 282Z" fill="black"/>
<path d="M158 266C163.28 266 168.56 266 174 266C174 276.56 174 287.12 174 298C163.44 298 152.88 298 142 298C142 292.72 142 287.44 142 282C147.28 282 152.56 282 158 282C158 276.72 158 271.44 158 266Z" fill="black"/>
<path d="M334 138C339.28 138 344.56 138 350 138C350 148.56 350 159.12 350 170C339.44 170 328.88 170 318 170C318 164.72 318 159.44 318 154C323.28 154 328.56 154 334 154C334 148.72 334 143.44 334 138Z" fill="black"/>
<path d="M286 282C296.56 282 307.12 282 318 282C318 287.28 318 292.56 318 298C307.44 298 296.88 298 286 298C286 292.72 286 287.44 286 282Z" fill="black"/>
<path d="M334 186C339.28 186 344.56 186 350 186C350 196.56 350 207.12 350 218C344.72 218 339.44 218 334 218C334 207.44 334 196.88 334 186Z" fill="black"/>
<path d="M206 186C211.28 186 216.56 186 222 186C222 196.56 222 207.12 222 218C216.72 218 211.44 218 206 218C206 207.44 206 196.88 206 186Z" fill="black"/>
<path d="M238 330C243.28 330 248.56 330 254 330C254 335.28 254 340.56 254 346C248.72 346 243.44 346 238 346C238 340.72 238 335.44 238 330Z" fill="black"/>
<path d="M270 298C275.28 298 280.56 298 286 298C286 303.28 286 308.56 286 314C280.72 314 275.44 314 270 314C270 308.72 270 303.44 270 298Z" fill="black"/>
<path d="M350 250C355.28 250 360.56 250 366 250C366 255.28 366 260.56 366 266C360.72 266 355.44 266 350 266C350 260.72 350 255.44 350 250Z" fill="black"/>
<path d="M174 250C179.28 250 184.56 250 190 250C190 255.28 190 260.56 190 266C184.72 266 179.44 266 174 266C174 260.72 174 255.44 174 250Z" fill="black"/>
<path d="M334 234C339.28 234 344.56 234 350 234C350 239.28 350 244.56 350 250C344.72 250 339.44 250 334 250C334 244.72 334 239.44 334 234Z" fill="black"/>
<path d="M190 234C195.28 234 200.56 234 206 234C206 239.28 206 244.56 206 250C200.72 250 195.44 250 190 250C190 244.72 190 239.44 190 234Z" fill="black"/>
<path d="M270 186C275.28 186 280.56 186 286 186C286 191.28 286 196.56 286 202C280.72 202 275.44 202 270 202C270 196.72 270 191.44 270 186Z" fill="black"/>
<path d="M302 170C307.28 170 312.56 170 318 170C318 175.28 318 180.56 318 186C312.72 186 307.44 186 302 186C302 180.72 302 175.44 302 170Z" fill="black"/>
<path d="M254 170C259.28 170 264.56 170 270 170C270 175.28 270 180.56 270 186C264.72 186 259.44 186 254 186C254 180.72 254 175.44 254 170Z" fill="black"/>
</svg>
