<svg width="540" height="500" viewBox="0 0 540 500" fill="none" xmlns="http://www.w3.org/2000/svg">
<path d="M254 154C259.28 154 264.56 154 270 154C270 159.28 270 164.56 270 170C275.28 170 280.56 170 286 170C286 180.56 286 191.12 286 202C291.28 202 296.56 202 302 202C302 212.56 302 223.12 302 234C307.28 234 312.56 234 318 234C318 244.56 318 255.12 318 266C323.28 266 328.56 266 334 266C334 276.56 334 287.12 334 298C339.28 298 344.56 298 350 298C350 308.56 350 319.12 350 330C360.56 330 371.12 330 382 330C382 335.28 382 340.56 382 346C345.04 346 308.08 346 270 346C270 340.72 270 335.44 270 330C280.56 330 291.12 330 302 330C302 324.72 302 319.44 302 314C296.72 314 291.44 314 286 314C286 308.72 286 303.44 286 298C259.6 298 233.2 298 206 298C206 282.16 206 266.32 206 250C211.28 250 216.56 250 222 250C222 260.56 222 271.12 222 282C237.84 282 253.68 282 270 282C270 271.44 270 260.88 270 250C264.72 250 259.44 250 254 250C254 239.44 254 228.88 254 218C248.72 218 243.44 218 238 218C238 202.16 238 186.32 238 170C243.28 170 248.56 170 254 170C254 164.72 254 159.44 254 154Z" fill="black"/>
<path d="M190 298C195.28 298 200.56 298 206 298C206 308.56 206 319.12 206 330C211.28 330 216.56 330 222 330C222 335.28 222 340.56 222 346C200.88 346 179.76 346 158 346C158 340.72 158 335.44 158 330C168.56 330 179.12 330 190 330C190 319.44 190 308.88 190 298Z" fill="black"/>
<path d="M222 218C227.28 218 232.56 218 238 218C238 228.56 238 239.12 238 250C232.72 250 227.44 250 222 250C222 239.44 222 228.88 222 218Z" fill="black"/>
</svg>
