<svg width="540" height="500" viewBox="0 0 540 500" fill="none" xmlns="http://www.w3.org/2000/svg">
<path d="M212.432 129.905C217.12 129.799 222.795 129.778 227.449 129.947C233.581 129.73 241.229 129.805 247.425 129.878C247.442 131.503 247.504 133.34 247.461 134.945C252.452 134.883 257.444 134.863 262.435 134.885L262.473 139.951C267.462 139.886 272.454 139.864 277.442 139.888L277.477 144.957C282.468 144.886 287.457 144.864 292.448 144.891L292.474 149.964C297.465 149.888 302.459 149.864 307.451 149.891C307.461 151.123 307.546 153.734 307.403 154.84C311.058 155.237 318.33 154.789 322.448 154.895C322.459 156.074 322.546 158.792 322.396 159.829C322.796 161.166 322.601 163.337 322.63 164.843C325.053 164.829 335.967 164.436 337.227 165.397C337.697 166.655 337.599 168.439 337.602 169.831C337.596 171.191 337.523 173.493 337.649 174.765C341.578 175.144 348.101 174.661 352.483 174.789C352.394 177.98 352.191 181.962 352.317 185.084L351.98 185.011L352.444 185.028C354.084 184.998 355.726 184.988 357.366 184.997L357.509 185.049L362.281 184.974C362.418 184.351 362.44 180.98 362.49 180.012L367.386 179.99L367.531 180.046L372.356 179.967C372.47 178.558 372.464 176.56 372.509 175.104C370.774 175.125 369.269 175.166 367.539 175.006C370.587 174.568 378.948 174.826 382.489 174.868C382.481 183.5 382.117 196.76 382.661 205.136C380.857 205.063 379.204 205.074 377.398 205.096C377.572 211.56 377.247 218.846 377.648 225.11C375.86 225.055 374.202 225.075 372.412 225.106C372.536 231.335 372.232 239.165 372.662 245.131C370.845 245.049 369.224 245.072 367.404 245.104C367.557 251.4 367.225 259.055 367.658 265.08L362.4 265.085C362.566 271.433 362.231 278.999 362.656 285.093C360.902 285.072 359.152 285.075 357.398 285.101C357.58 291.52 357.237 298.917 357.649 305.096C355.9 305.077 354.155 305.077 352.407 305.096C352.56 311.459 352.246 318.967 352.641 325.09C350.893 325.075 349.145 325.077 347.397 325.098C347.534 329.811 347.331 335.586 347.64 340.098C345.894 340.064 344.151 340.067 342.406 340.109C342.477 342.952 342.374 347.583 342.617 350.191C339.387 349.713 335.774 350.257 332.449 349.948C332.489 351.644 332.497 353.495 332.589 355.175C329.082 354.761 325.707 355.272 322.454 354.956C322.493 356.652 322.496 358.5 322.586 360.18C319.076 359.756 315.696 360.278 312.461 359.956C312.497 361.652 312.497 363.506 312.584 365.185C309.125 364.771 305.845 365.191 302.459 364.959C302.494 366.66 302.494 368.508 302.578 370.196C299.506 369.824 294.547 369.964 291.317 369.985C286.858 370.014 281.832 369.906 277.411 370.106L277.326 365.228C274.08 365.061 270.658 364.906 267.407 365.096L267.323 360.228C264.035 360.056 260.693 359.919 257.402 360.088L257.316 355.225C254.152 355.064 250.562 354.885 247.399 355.098L247.314 350.222C244.014 350.027 240.707 349.974 237.403 350.064L237.311 345.22C234.248 345.075 230.44 344.853 227.403 345.119L227.307 340.22C224.024 340.064 220.693 339.906 217.407 340.104L217.305 335.22C214.028 335.067 210.7 334.909 207.421 335.096L207.304 330.217C204.018 330.064 200.716 329.922 197.427 330.093C197.397 328.466 197.355 326.839 197.302 325.212C194.195 325.064 190.466 324.853 187.38 325.106C187.385 320.523 187.48 314.74 187.257 310.228L187.232 310.085C185.575 309.998 184.098 309.969 182.437 309.967C182.421 303.258 182.257 295.726 182.486 289.078C182.364 288.118 182.441 286.383 182.294 285.046L177.429 284.966C177.415 278.363 177.262 271.1 177.483 264.55C177.31 263.156 177.56 261.809 177.274 260.028L172.424 259.967C172.411 253.315 172.27 246.104 172.478 239.498C172.368 238.566 172.403 236.3 172.308 235.051C170.707 234.975 169.03 234.977 167.422 234.955C167.409 228.352 167.28 221.27 167.474 214.707C167.355 213.604 167.447 211.372 167.467 210.163C165.668 209.931 164.238 209.953 162.42 209.949C162.407 203.395 162.288 196.437 162.469 189.918C162.348 188.735 162.439 186.392 162.456 185.124C160.645 184.983 159.239 184.96 157.419 184.966C157.403 176.696 157.226 167.812 157.458 159.59C157.313 158.224 157.272 151.403 157.647 150.322L157.794 149.948C159.107 149.634 161.047 149.805 162.44 149.864L162.433 144.916C168.962 144.785 175.855 144.891 182.413 144.886C182.403 143.422 182.299 141.267 182.62 139.909L197.409 139.889C197.403 138.537 197.293 136.119 197.627 134.909C202.479 134.893 207.542 134.955 212.37 134.864L212.586 133.877C212.44 132.822 212.456 131.023 212.432 129.905Z" fill="#C3C2C1"/>
<path d="M312.497 205.042C314.056 204.995 315.596 204.921 317.151 205.008L317.431 205.048C317.433 206.215 317.502 208.913 317.333 209.93C315.817 209.925 313.987 209.869 312.511 210.033L312.424 209.802C312.434 208.215 312.461 206.628 312.497 205.042Z" fill="#9A9A67"/>
<path d="M367.54 175.006C370.588 174.568 378.949 174.826 382.49 174.868C382.482 183.5 382.118 196.76 382.662 205.136C380.858 205.063 379.205 205.074 377.399 205.096C377.573 211.56 377.248 218.846 377.649 225.11C375.861 225.055 374.203 225.075 372.413 225.106C372.537 231.335 372.233 239.165 372.663 245.131C370.846 245.049 369.225 245.072 367.405 245.104C367.558 251.4 367.226 259.055 367.659 265.08L362.401 265.085C362.567 271.433 362.232 278.999 362.657 285.093C360.903 285.072 359.153 285.075 357.399 285.101C357.581 291.52 357.238 298.917 357.65 305.096C355.901 305.077 354.156 305.077 352.408 305.096C352.561 311.459 352.247 318.967 352.642 325.09C350.894 325.075 349.146 325.077 347.398 325.098C347.535 329.811 347.332 335.586 347.641 340.098C345.895 340.064 344.152 340.067 342.407 340.109C342.478 342.952 342.375 347.583 342.618 350.191C339.388 349.713 335.775 350.257 332.45 349.948C332.49 351.644 332.498 353.495 332.59 355.175C329.083 354.761 325.708 355.272 322.455 354.956C322.494 356.652 322.497 358.5 322.587 360.18C319.077 359.756 315.697 360.278 312.462 359.956C312.498 361.652 312.498 363.506 312.585 365.185C309.126 364.771 305.846 365.191 302.46 364.959C302.495 366.66 302.495 368.508 302.579 370.196C299.507 369.824 294.548 369.964 291.318 369.985C286.859 370.014 281.833 369.906 277.412 370.106L277.327 365.228C274.081 365.061 270.659 364.906 267.408 365.096L267.324 360.228C264.036 360.056 260.694 359.919 257.403 360.088L257.317 355.225C254.153 355.064 250.563 354.885 247.4 355.098L247.315 350.222C244.015 350.027 240.708 349.974 237.404 350.064L237.312 345.22C234.249 345.075 230.441 344.853 227.404 345.119L227.308 340.22C224.025 340.064 220.694 339.906 217.408 340.104L217.306 335.22C214.029 335.067 210.701 334.909 207.422 335.096L207.305 330.217C204.019 330.064 200.717 329.922 197.428 330.093C197.398 328.466 197.356 326.839 197.303 325.212C194.196 325.064 190.467 324.853 187.381 325.106C187.386 320.523 187.481 314.74 187.258 310.228L187.532 310.291L187.584 314.792C188.561 315.28 195.834 314.924 197.473 314.879L197.416 319.99L207.455 319.879L207.408 324.993C210.748 324.927 214.088 324.887 217.428 324.871L217.408 329.969L227.416 329.879L227.389 334.94L237.411 334.879L237.393 339.929L247.415 339.885L247.388 344.94L257.42 344.885L257.398 349.937L267.424 349.89L267.405 354.937L277.438 354.895L277.417 359.935L287.431 359.977L287.447 355.016C288.805 354.879 291.025 354.916 292.457 354.903L292.449 349.94C292.394 344.995 292.438 339.977 292.441 335.027L292.444 325.019C294.099 324.903 295.798 324.919 297.459 324.906V320.003C297.403 315.13 297.643 309.972 297.422 305.135L297.485 304.863L297.48 295.032C299.067 294.953 300.849 294.961 302.455 294.932L302.461 289.979C302.392 285.238 302.695 279.581 302.405 274.977C302.613 272.408 302.482 267.743 302.487 265.019C302.495 263.277 302.471 261.768 302.379 260.03C302.495 258.76 302.432 256.386 302.437 255.03L302.429 249.958L307.222 249.965C307.294 248.431 307.257 246.539 307.267 244.976C307.489 241.834 307.188 238.339 307.436 235.007C308.968 234.895 310.898 234.926 312.467 234.911L312.462 229.988L312.499 215.003L312.512 210.033C313.988 209.869 315.818 209.925 317.334 209.93C317.503 208.913 317.434 206.215 317.432 205.048L317.152 205.008C317.622 204.419 317.463 201.028 317.458 200.059L322.223 200.03L322.471 200.032C324.145 199.972 325.511 199.956 327.185 200.006C327.586 199.209 327.486 196.138 327.499 195.057L327.699 195.015C329.5 195.111 330.658 195.126 332.458 195.044C334.122 195.001 335.662 194.951 337.326 195.019C337.458 194.256 337.481 190.977 337.503 190.059L337.748 190.017C339.501 190.1 340.711 190.127 342.46 190.048C344.108 190.014 345.755 189.965 347.401 190L347.451 184.998L351.981 185.011L352.445 185.028C354.085 184.998 355.727 184.988 357.367 184.997L357.51 185.049L362.282 184.974C362.419 184.351 362.441 180.98 362.491 180.012L367.387 179.99L367.532 180.046L372.357 179.967C372.471 178.558 372.465 176.56 372.51 175.104C370.775 175.125 369.27 175.166 367.54 175.006Z" fill="#676767"/>
<path d="M217.408 329.969L227.416 329.879L227.389 334.94L237.411 334.879L237.393 339.929L247.415 339.885L247.388 344.94L257.42 344.885L257.398 349.937L267.424 349.89L267.405 354.937L277.438 354.895L277.417 359.935L287.431 359.977L287.442 364.901C284.091 364.98 280.737 365.009 277.383 364.99L277.438 359.943C274.084 359.924 270.728 359.943 267.374 359.993L267.429 354.94C264.073 354.916 260.717 354.937 257.361 354.995L257.419 349.932C254.127 349.882 250.658 349.961 247.353 349.988L247.417 344.932C244.045 344.927 240.716 344.908 237.346 345.032L237.413 339.932C234.056 339.929 230.692 339.893 227.339 340.04L227.414 334.932C224.053 334.93 220.695 334.9 217.336 335.038L217.408 329.969Z" fill="#A1A0A3"/>
<path d="M362.28 184.974L362.462 185.008C362.28 186.674 362.37 188.253 362.417 189.925C359.169 189.999 355.638 190.143 352.414 190.109C352.406 191.652 352.358 193.396 352.408 194.921C349.089 195.017 345.766 195.083 342.444 195.118C342.42 196.703 342.365 198.318 342.444 199.898C339.219 199.982 335.623 200.15 332.427 200.117C332.433 201.669 332.401 203.359 332.456 204.897C329.113 205.009 325.77 205.084 322.426 205.121L322.45 209.894C320.942 209.915 318.867 209.886 317.414 210.031L317.332 209.93C317.501 208.913 317.432 206.215 317.43 205.048L317.15 205.008C317.62 204.419 317.461 201.028 317.456 200.059L322.221 200.03L322.469 200.032C324.143 199.972 325.509 199.956 327.183 200.006C327.584 199.209 327.484 196.138 327.497 195.057L327.697 195.015C329.498 195.111 330.656 195.126 332.456 195.044C334.12 195.001 335.66 194.951 337.324 195.019C337.456 194.256 337.479 190.977 337.501 190.059L337.746 190.017C339.499 190.1 340.709 190.127 342.458 190.048C344.106 190.014 345.753 189.965 347.399 190L347.449 184.998L351.979 185.011L352.443 185.028C354.083 184.998 355.725 184.988 357.365 184.997L357.508 185.049L362.28 184.974Z" fill="#777777"/>
<path d="M322.221 200.03L322.469 200.032L322.445 204.95C320.934 204.971 318.896 204.94 317.43 205.048L317.15 205.008C317.62 204.419 317.461 201.028 317.456 200.059L322.221 200.03Z" fill="#A1A0A3"/>
<path d="M347.45 184.998L351.98 185.011L352.444 185.028L352.394 189.951L347.4 190L347.45 184.998Z" fill="#A1A0A3"/>
<path d="M337.501 190.059L337.746 190.017C339.499 190.1 340.709 190.127 342.458 190.048L342.407 194.952C340.886 194.981 338.948 194.964 337.463 195.075L337.324 195.019C337.456 194.256 337.479 190.977 337.501 190.059Z" fill="#A1A0A3"/>
<path d="M327.498 195.057L327.698 195.015C329.499 195.111 330.657 195.126 332.457 195.044L332.428 199.944L327.416 200.042L327.184 200.006C327.585 199.209 327.485 196.138 327.498 195.057Z" fill="#A1A0A3"/>
<path d="M332.457 195.044C334.121 195.001 335.661 194.951 337.325 195.019L337.464 195.075C337.42 196.739 337.43 198.21 337.473 199.875L332.428 199.944L332.457 195.044Z" fill="#9A9A67"/>
<path d="M352.445 185.028C354.085 184.998 355.727 184.988 357.367 184.997L357.51 185.049C357.331 186.776 357.412 188.157 357.47 189.887L352.395 189.951L352.445 185.028Z" fill="#9A9A67"/>
<path d="M342.459 190.048C344.107 190.014 345.754 189.965 347.4 190C347.426 191.55 347.408 193.356 347.484 194.882C345.807 194.904 344.08 194.904 342.408 194.952L342.459 190.048Z" fill="#9A9A67"/>
<path d="M322.469 200.032C324.143 199.972 325.509 199.956 327.183 200.006L327.415 200.042L327.473 204.876C325.841 204.895 324.064 204.88 322.445 204.95L322.469 200.032Z" fill="#9A9A67"/>
<path d="M187.582 314.792C188.559 315.28 195.832 314.924 197.471 314.879L197.414 319.99L207.453 319.879L207.406 324.993C210.746 324.927 214.086 324.887 217.426 324.871L217.406 329.969C214.629 329.811 210.144 329.932 207.343 330.04L207.45 324.943C204.081 324.914 200.711 324.943 197.343 325.035L197.456 319.94C194.177 319.916 190.897 319.945 187.618 320.027L187.582 314.792Z" fill="#A1A0A3"/>
<path d="M307.436 235.007C307.628 238.164 307.536 241.789 307.518 244.986C307.494 249.956 307.417 255.022 307.462 259.983L307.47 264.927C305.893 264.956 304.035 264.937 302.487 265.019C302.495 263.277 302.471 261.768 302.379 260.03C302.495 258.76 302.432 256.386 302.437 255.03L302.429 249.958L307.222 249.965C307.294 248.431 307.257 246.539 307.267 244.976C307.489 241.834 307.188 238.339 307.436 235.007Z" fill="#9A9999"/>
<path d="M302.379 260.03C304.248 259.906 305.58 259.925 307.462 259.983L307.47 264.927C305.893 264.956 304.035 264.937 302.487 265.019C302.495 263.277 302.471 261.768 302.379 260.03Z" fill="#9A9A67"/>
<path d="M302.428 249.958L307.221 249.965C307.174 251.656 307.15 253.347 307.15 255.038C305.576 254.984 304.002 254.885 302.436 255.03L302.428 249.958Z" fill="#A1A0A3"/>
<path d="M372.356 179.967L372.52 180.016C372.267 181.613 372.383 183.308 372.425 184.932C369.959 184.993 365.622 185.205 363.32 185.018L362.463 185.008L362.281 184.974C362.418 184.351 362.44 180.98 362.49 180.012L367.386 179.99L367.531 180.046L372.356 179.967Z" fill="#777777"/>
<path d="M362.49 180.012L367.386 179.99L367.531 180.046C367.415 181.809 367.402 183.128 367.431 184.897C366.466 184.908 364.156 184.887 363.32 185.018L362.463 185.008L362.281 184.974C362.418 184.351 362.44 180.98 362.49 180.012Z" fill="#9A9A67"/>
<path d="M287.446 355.016C288.804 354.879 291.024 354.916 292.456 354.903C292.451 358.205 292.392 361.664 292.453 364.956C291.211 364.958 288.559 365.035 287.441 364.901L287.43 359.977L287.446 355.016Z" fill="#828041"/>
<path d="M297.457 324.906C297.454 328.22 297.407 331.652 297.462 334.956C295.848 334.966 294.029 334.935 292.439 335.027L292.442 325.019C294.097 324.903 295.796 324.919 297.457 324.906Z" fill="#828041"/>
<path d="M302.486 265.019C304.034 264.937 305.892 264.956 307.469 264.927C307.461 268.213 307.395 271.72 307.469 274.985L302.404 274.977C302.612 272.408 302.481 267.743 302.486 265.019Z" fill="#828041"/>
<path d="M302.454 294.932C302.436 298.279 302.436 301.625 302.46 304.974C301.41 304.977 298.333 305.053 297.484 304.863L297.479 295.032C299.066 294.953 300.848 294.961 302.454 294.932Z" fill="#828041"/>
<path d="M307.436 235.007C308.968 234.895 310.898 234.926 312.467 234.911L312.469 244.949L307.518 244.986C307.536 241.789 307.628 238.164 307.436 235.007Z" fill="#828041"/>
<path d="M317.333 209.93L317.415 210.031L317.465 214.948C315.809 214.978 314.153 214.996 312.498 215.003L312.511 210.033C313.987 209.869 315.817 209.925 317.333 209.93Z" fill="#828041"/>
<path d="M372.508 175.104L377.426 175.115L377.389 179.974L372.519 180.016L372.355 179.967C372.469 178.558 372.463 176.56 372.508 175.104Z" fill="#9A9A67"/>
<path d="M227.449 129.947C233.581 129.73 241.229 129.805 247.425 129.878C247.442 131.503 247.504 133.34 247.461 134.945C252.452 134.883 257.444 134.863 262.435 134.885L262.473 139.951C267.462 139.886 272.454 139.864 277.442 139.888L277.477 144.957C282.468 144.886 287.457 144.864 292.448 144.891L292.474 149.964C297.465 149.888 302.459 149.864 307.451 149.891C307.461 151.123 307.546 153.734 307.403 154.84C311.058 155.237 318.33 154.789 322.448 154.895C322.459 156.074 322.546 158.792 322.396 159.829C322.796 161.166 322.601 163.337 322.63 164.843C325.053 164.829 335.967 164.436 337.227 165.397C337.697 166.655 337.599 168.439 337.602 169.831C337.596 171.191 337.523 173.493 337.649 174.765C341.578 175.144 348.101 174.661 352.483 174.789C352.394 177.98 352.191 181.962 352.317 185.084L351.98 185.011L347.45 184.998L347.4 190C345.754 189.965 344.107 190.014 342.459 190.048C340.71 190.127 339.5 190.1 337.747 190.017L337.502 190.059C337.48 190.977 337.457 194.256 337.325 195.019C335.661 194.951 334.121 195.001 332.457 195.044C330.657 195.126 329.499 195.111 327.698 195.015L327.498 195.057C327.485 196.138 327.585 199.209 327.184 200.006C325.51 199.956 324.144 199.972 322.47 200.032L322.222 200.03L322.293 199.852C319.614 199.634 315.219 199.797 312.511 199.845C307.49 199.951 302.467 199.994 297.444 199.972L297.434 194.884C296.29 194.935 293.181 195.2 292.39 194.656L292.06 194.829C290.847 194.683 288.501 194.763 287.19 194.772C285.606 194.764 284.024 194.793 282.439 194.858V190.251L282.326 190.058C281.366 189.427 273.896 189.738 272.309 189.764C270.779 189.793 269.16 189.759 267.621 189.753L267.399 189.804L267.386 184.896L252.579 184.982L252.412 184.962L252.372 179.84C250.837 179.554 244.125 179.735 242.289 179.759C240.774 179.797 239.152 179.755 237.629 179.74L237.383 179.788L237.349 174.868C235.664 174.925 233.978 174.959 232.292 174.969L232.319 174.741C232.643 169.125 232.381 160.798 232.379 154.977C232.343 148.302 232.355 141.627 232.415 134.953L222.556 134.925C222.291 133.812 222.396 131.435 222.407 130.193C224.243 130.17 225.63 130.138 227.449 129.947Z" fill="#FEFBF3"/>
<path d="M232.416 134.953L237.348 134.941C237.329 136.359 237.227 138.644 237.457 139.966C238.659 139.938 241.309 139.719 242.247 140.266L242.438 140.94C242.394 142.302 242.343 143.603 242.384 144.969L247.38 145.001L247.384 149.984L252.395 149.976L252.38 154.985L257.396 154.977L257.382 159.987L262.4 159.976L262.387 164.986L267.405 164.979L267.395 169.988L272.41 169.978L272.399 174.988L277.414 174.978L277.404 179.989L282.419 179.974L282.405 184.983L287.418 184.968L287.394 189.971L292.425 189.975L292.391 194.656L292.061 194.829C290.848 194.683 288.502 194.763 287.191 194.772C285.607 194.764 284.025 194.793 282.44 194.858V190.251L282.327 190.058C281.367 189.427 273.897 189.738 272.31 189.764C270.78 189.793 269.161 189.759 267.622 189.753L267.4 189.804L267.387 184.896L252.58 184.982L252.413 184.962L252.373 179.84C250.838 179.554 244.126 179.735 242.29 179.759C240.775 179.797 239.153 179.755 237.63 179.74L237.384 179.788L237.35 174.868C235.665 174.925 233.979 174.959 232.293 174.969L232.32 174.741C232.644 169.125 232.382 160.798 232.38 154.977C232.344 148.302 232.356 141.627 232.416 134.953Z" fill="#B3B2B2"/>
<path d="M282.439 190.251C283.428 189.566 286.183 189.942 287.425 190.07C287.375 191.624 287.364 193.232 287.19 194.772C285.606 194.764 284.024 194.793 282.439 194.858V190.251Z" fill="#A1A0A3"/>
<path d="M267.57 184.865L272.411 184.921C272.385 186.508 272.388 188.186 272.309 189.764C270.779 189.793 269.16 189.759 267.621 189.753L267.57 184.865Z" fill="#A1A0A3"/>
<path d="M237.634 174.884L242.409 174.934L242.289 179.759C240.774 179.797 239.152 179.755 237.629 179.74L237.634 174.884Z" fill="#A1A0A3"/>
<path d="M252.677 179.877L257.408 179.915C257.413 181.472 257.338 183.146 257.295 184.713L252.644 184.727C252.628 183.11 252.639 181.493 252.677 179.877Z" fill="#A1A0A3"/>
<path d="M227.449 129.947C233.581 129.73 241.229 129.805 247.425 129.878C247.442 131.503 247.504 133.34 247.461 134.945C252.452 134.883 257.444 134.863 262.435 134.885L262.473 139.951C267.462 139.886 272.454 139.864 277.442 139.888L277.477 144.957C282.468 144.886 287.457 144.864 292.448 144.891L292.474 149.964C297.465 149.888 302.459 149.864 307.451 149.891C307.461 151.123 307.546 153.734 307.403 154.84C311.058 155.237 318.33 154.789 322.448 154.895C322.459 156.074 322.546 158.792 322.396 159.829C322.796 161.166 322.601 163.337 322.63 164.843C325.053 164.829 335.967 164.436 337.227 165.397C337.697 166.655 337.599 168.439 337.602 169.831C332.845 170.04 327.311 169.953 322.488 169.975L322.477 164.823C319.01 165.144 311.258 164.96 307.485 164.978L307.469 159.835C303.519 160.133 296.622 159.961 292.472 159.986L292.461 154.851C287.881 155.077 282.122 154.956 277.458 154.986L277.445 149.891L262.471 149.981C262.405 148.353 262.441 146.567 262.444 144.924C257.51 144.844 252.343 144.969 247.394 145.015L247.454 139.895C245.964 139.931 243.949 139.654 242.679 140.194L242.437 140.94L242.246 140.266C241.308 139.719 238.658 139.938 237.456 139.966C237.226 138.644 237.328 136.359 237.347 134.941L232.415 134.953L222.556 134.925C222.291 133.812 222.396 131.435 222.407 130.193C224.243 130.17 225.63 130.138 227.449 129.947Z" fill="#E4E3E4"/>
<path d="M227.449 129.947C233.581 129.73 241.229 129.805 247.425 129.878C247.442 131.503 247.504 133.34 247.461 134.945C252.452 134.883 257.444 134.863 262.435 134.885L262.473 139.951C267.462 139.886 272.454 139.864 277.442 139.888L277.477 144.957C282.468 144.886 287.457 144.864 292.448 144.891L292.474 149.964C297.465 149.888 302.459 149.864 307.451 149.891C307.461 151.123 307.546 153.734 307.403 154.84C302.726 154.978 297.402 154.841 292.659 154.851C292.654 153.395 292.741 151.708 292.337 150.333C291.385 149.435 279.844 149.842 277.645 149.871C277.651 148.191 277.888 146.361 276.96 145.025C275.697 144.55 264.706 144.854 262.627 144.891C262.629 143.589 262.73 141.528 262.394 140.365C260.741 139.395 250.038 139.837 247.631 139.862C247.551 138.096 247.594 136.618 247.652 134.849C244.307 134.807 240.963 134.795 237.618 134.812C237.598 136.579 237.579 138.204 237.456 139.966C237.226 138.644 237.328 136.359 237.347 134.941L232.415 134.953L222.556 134.925C222.291 133.812 222.396 131.435 222.407 130.193C224.243 130.17 225.63 130.138 227.449 129.947Z" fill="#C3C2C1"/>
<path d="M307.402 154.84C311.057 155.237 318.329 154.789 322.447 154.895C322.458 156.074 322.545 158.792 322.395 159.829C317.591 159.922 312.507 159.834 307.674 159.83C307.595 158.173 307.782 156.402 307.402 154.84Z" fill="#C3C2C1"/>
<path d="M342.428 184.947L347.449 184.998L347.399 190C345.753 189.965 344.106 190.014 342.458 190.048C340.709 190.127 339.499 190.1 337.746 190.017C338.893 189.893 341.223 189.94 342.463 189.929L342.428 184.947Z" fill="#CDCC99"/>
<path d="M332.438 189.944C334.228 189.934 335.718 189.947 337.501 190.059C337.479 190.977 337.456 194.256 337.324 195.019C335.66 194.951 334.12 195.001 332.456 195.044C330.656 195.126 329.498 195.111 327.697 195.015C328.823 194.884 331.23 194.93 332.462 194.919L332.438 189.944Z" fill="#CDCC99"/>
<path d="M322.442 194.945C324.248 194.929 325.703 194.928 327.499 195.057C327.486 196.138 327.586 199.209 327.185 200.006C325.511 199.956 324.145 199.972 322.471 200.032L322.223 200.03L322.294 199.852C322.568 198.673 322.457 196.252 322.442 194.945Z" fill="#CDCC99"/>
<path d="M212.431 129.905C217.119 129.799 222.794 129.778 227.448 129.947C225.629 130.138 224.242 130.17 222.406 130.193C222.395 131.435 222.29 133.812 222.555 134.925L232.414 134.953C232.354 141.627 232.342 148.302 232.378 154.977C232.38 160.798 232.642 169.125 232.318 174.741L227.389 174.772L227.381 169.982C222.391 169.808 217.397 169.738 212.404 169.77L212.412 164.98C207.341 164.909 202.543 164.77 197.439 164.769L197.428 159.982C195.807 159.939 194.185 159.933 192.564 159.963L192.316 160.063L177.456 159.956L177.476 155.042L162.409 154.967L157.72 154.972L157.646 150.322L157.793 149.948C159.106 149.634 161.046 149.805 162.439 149.864L162.432 144.916C168.961 144.785 175.854 144.891 182.412 144.886C182.402 143.422 182.298 141.267 182.619 139.909L197.408 139.889C197.402 138.537 197.292 136.119 197.626 134.909C202.478 134.893 207.541 134.955 212.369 134.864L212.585 133.877C212.439 132.822 212.455 131.023 212.431 129.905Z" fill="#676767"/>
<path d="M157.793 149.948C159.106 149.634 161.046 149.805 162.439 149.864C164.213 150.121 170.244 149.967 172.454 149.98L172.427 154.76C175.763 154.858 179.1 154.928 182.437 154.971L182.433 159.772C184.485 159.753 190.81 159.606 192.564 159.963L192.316 160.063L177.456 159.956L177.476 155.042L162.409 154.967L157.72 154.972L157.646 150.322L157.793 149.948Z" fill="#A1A0A3"/>
<path d="M157.646 150.322L157.793 149.948C159.504 150.102 160.673 150.112 162.398 150.097L162.409 154.967L157.72 154.972L157.646 150.322Z" fill="#E4E3E4"/>
<path d="M222.557 134.925L232.416 134.953C232.356 141.627 232.344 148.302 232.38 154.977L227.384 154.983C227.38 148.564 227.244 141.476 227.483 135.115C225.107 135.177 223.497 135.177 221.135 134.999L222.557 134.925Z" fill="#777777"/>
<path d="M162.434 144.916C168.963 144.785 175.856 144.891 182.414 144.886L182.48 149.819C180.133 149.818 176.464 149.708 174.225 149.952L172.456 149.98C170.246 149.967 164.215 150.121 162.441 149.864L162.434 144.916Z" fill="#C3C2C1"/>
<path d="M197.627 134.909C202.479 134.893 207.542 134.955 212.37 134.864L212.48 139.97L202.464 139.968L197.764 139.964C197.769 138.3 197.829 136.553 197.627 134.909Z" fill="#C3C2C1"/>
<path d="M182.619 139.909L197.408 139.889C197.433 141.081 197.604 144.001 197.274 144.967L187.468 144.97L182.764 144.972C182.77 143.305 182.832 141.557 182.619 139.909Z" fill="#C3C2C1"/>
<path d="M212.432 129.905C217.12 129.799 222.795 129.778 227.449 129.947C225.63 130.138 224.243 130.17 222.407 130.193C222.396 131.435 222.291 133.812 222.556 134.925L221.134 134.999L217.472 134.969C215.959 134.923 214.22 135.249 212.894 134.702L212.586 133.877C212.44 132.822 212.456 131.023 212.432 129.905Z" fill="#C3C2C1"/>
<path d="M182.414 144.886C182.404 143.422 182.3 141.267 182.621 139.909C182.834 141.557 182.772 143.305 182.766 144.972L187.47 144.97L187.448 149.974C183.164 150.011 178.473 150.14 174.225 149.952C176.464 149.708 180.133 149.818 182.48 149.819L182.414 144.886Z" fill="#A1A0A3"/>
<path d="M197.409 139.889C197.403 138.537 197.293 136.119 197.627 134.909C197.829 136.553 197.769 138.3 197.764 139.964L202.464 139.968C202.455 141.627 202.428 143.316 202.442 144.971L197.275 144.967C197.605 144.001 197.434 141.081 197.409 139.889Z" fill="#A1A0A3"/>
<path d="M212.585 133.877L212.893 134.702C214.219 135.249 215.958 134.923 217.471 134.969C217.447 136.595 217.388 138.354 217.421 139.967L212.479 139.97L212.369 134.864L212.585 133.877Z" fill="#A1A0A3"/>
<path d="M167.451 209.958C169.249 209.819 170.679 209.838 172.487 209.863C172.257 218.101 172.506 226.611 172.532 234.872L177.501 234.893C177.18 242.764 177.471 252.013 177.552 259.953C179.243 259.891 180.8 259.898 182.492 259.917C182.235 268.068 182.481 276.754 182.556 284.943C184.249 284.892 185.801 284.898 187.496 284.924C187.145 293.01 187.536 302.121 187.53 310.291L187.256 310.228L187.231 310.085C185.574 309.998 184.097 309.969 182.436 309.967C182.42 303.258 182.256 295.726 182.485 289.078C182.363 288.118 182.44 286.383 182.293 285.046L177.428 284.966C177.414 278.363 177.261 271.1 177.482 264.55C177.309 263.156 177.559 261.809 177.273 260.028L172.423 259.967C172.41 253.315 172.269 246.104 172.477 239.498C172.367 238.566 172.402 236.3 172.307 235.051C170.706 234.975 169.029 234.977 167.421 234.955C167.408 228.352 167.279 221.27 167.473 214.707C167.354 213.604 167.446 211.372 167.466 210.163L167.451 209.958Z" fill="#B3B2B2"/>
<path d="M167.473 214.707C168.018 216.595 167.785 222.738 167.83 225.018C169.341 224.946 170.852 224.897 172.363 224.872C172.239 228.263 172.22 231.658 172.307 235.051C170.706 234.975 169.029 234.977 167.421 234.955C167.408 228.352 167.279 221.27 167.473 214.707Z" fill="#A1A0A3"/>
<path d="M182.486 289.078C183.053 291.153 182.769 297.567 182.859 300.043L187.308 299.887C187.249 303.286 187.224 306.686 187.232 310.085C185.575 309.998 184.098 309.969 182.437 309.967C182.421 303.258 182.257 295.726 182.486 289.078Z" fill="#A1A0A3"/>
<path d="M172.478 239.498C173.04 241.492 172.764 247.609 172.843 250.001L177.341 249.905C177.236 253.368 177.308 256.595 177.274 260.028L172.424 259.967C172.411 253.315 172.27 246.104 172.478 239.498Z" fill="#A1A0A3"/>
<path d="M177.484 264.55C178.046 266.53 177.775 272.651 177.851 275.022L182.321 274.919C182.253 278.134 182.157 281.842 182.295 285.046L177.43 284.966C177.416 278.363 177.263 271.1 177.484 264.55Z" fill="#A1A0A3"/>
<path d="M197.44 164.769C202.544 164.77 207.342 164.909 212.413 164.98L212.405 169.77C217.398 169.738 222.392 169.808 227.382 169.982L227.39 174.772L232.319 174.741L232.292 174.969C233.978 174.959 235.664 174.925 237.349 174.868L237.383 179.788C235.859 180.161 224.651 179.989 222.39 179.974L222.399 174.935C217.404 174.999 212.407 175.015 207.411 174.982C207.368 173.35 207.405 171.588 207.409 169.945C202.419 169.993 197.428 170.007 192.438 169.987C192.389 168.406 192.43 166.65 192.434 165.054L197.507 165.035L197.44 164.769Z" fill="#E4E3E4"/>
<path d="M197.439 164.769C202.543 164.77 207.341 164.909 212.412 164.98L212.404 169.77C217.397 169.738 222.391 169.808 227.381 169.982L227.389 174.772L232.318 174.741L232.291 174.969C229.905 175.165 225.1 174.955 222.431 174.958L222.457 170.054L207.448 169.958L207.455 165.046L197.506 165.035L197.439 164.769Z" fill="#A1A0A3"/>
<path d="M292.391 194.656C293.182 195.2 296.291 194.935 297.435 194.884L297.445 199.972C302.468 199.994 307.491 199.951 312.512 199.845C315.22 199.797 319.615 199.634 322.294 199.852L322.223 200.03L317.458 200.059C317.463 201.028 317.622 204.419 317.152 205.008C315.597 204.921 314.057 204.995 312.498 205.042L312.451 204.899C311.251 205.108 299.325 204.93 297.432 204.903L297.456 199.947C292.47 199.858 287.455 200.043 282.424 199.934L282.427 195.055C284.412 195.072 290.395 195.187 292.061 194.829L292.391 194.656Z" fill="#E4E3E4"/>
<path d="M312.46 200.001L317.456 200.059C317.461 201.028 317.62 204.419 317.15 205.008C315.595 204.921 314.055 204.995 312.496 205.042L312.449 204.899L312.46 200.001Z" fill="#CDCC99"/>
<path d="M157.458 159.59C157.313 158.224 157.272 151.403 157.647 150.322L157.721 154.972L162.41 154.967C162.421 156.614 162.401 158.363 162.447 159.999C162.415 164.968 162.409 169.937 162.428 174.906C162.372 178.251 162.384 181.597 162.463 184.941L162.456 185.124C160.645 184.983 159.239 184.96 157.419 184.966C157.403 176.696 157.226 167.812 157.458 159.59Z" fill="#B3B2B2"/>
<path d="M157.458 159.59C158.081 161.749 157.732 172.156 157.822 175.046L162.428 174.906C162.372 178.251 162.384 181.597 162.463 184.941L162.456 185.124C160.645 184.983 159.239 184.96 157.419 184.966C157.403 176.696 157.226 167.812 157.458 159.59Z" fill="#A1A0A3"/>
<path d="M162.41 154.967L177.477 155.042L177.457 159.956L192.317 160.063L192.331 164.948C187.368 164.995 182.405 165.007 177.442 164.982L177.44 159.952L162.447 159.999C162.401 158.363 162.421 156.614 162.41 154.967Z" fill="#E4E3E4"/>
<path d="M162.463 184.941C164.14 184.864 165.819 184.839 167.497 184.865C167.327 189.915 167.409 195.047 167.437 200.105C167.372 203.389 167.377 206.674 167.452 209.958L167.467 210.163C165.668 209.931 164.238 209.953 162.42 209.949C162.407 203.395 162.288 196.437 162.469 189.918C162.348 188.735 162.439 186.392 162.456 185.124L162.463 184.941Z" fill="#B3B2B2"/>
<path d="M162.469 189.918C163.026 191.833 162.771 197.77 162.824 200.066C163.973 199.978 166.489 199.651 167.437 200.105C167.372 203.389 167.377 206.674 167.452 209.958L167.467 210.163C165.668 209.931 164.238 209.953 162.42 209.949C162.407 203.395 162.288 196.437 162.469 189.918Z" fill="#A1A0A3"/>
<path d="M312.239 209.927L312.424 209.802L312.511 210.033L312.498 215.003L312.461 229.988L312.466 234.911C310.897 234.926 308.967 234.895 307.435 235.007L307.448 230.002L307.44 224.987L307.427 219.992L307.395 209.983C309.009 209.976 310.625 209.958 312.239 209.927Z" fill="#9A9999"/>
<path d="M307.395 209.983C309.009 209.976 310.625 209.958 312.239 209.927C312.231 213.077 312.331 216.964 312.189 220.051C310.346 219.924 309.278 219.915 307.427 219.992L307.395 209.983Z" fill="#B3B2B2"/>
<path d="M307.449 230.002C309.345 229.883 310.555 229.903 312.462 229.988L312.467 234.911C310.898 234.926 308.968 234.895 307.436 235.007L307.449 230.002Z" fill="#9A9A67"/>
<path d="M312.19 220.051C312.14 221.742 312.119 223.434 312.127 225.126C310.442 225.012 309.134 224.906 307.441 224.987L307.428 219.992C309.279 219.915 310.347 219.924 312.19 220.051Z" fill="#A1A0A3"/>
<path d="M287.461 335.032L292.439 335.027C292.436 339.977 292.392 344.995 292.447 349.94L292.455 354.903C291.023 354.916 288.803 354.879 287.445 355.016L287.432 349.979C287.355 345.058 287.44 339.964 287.461 335.032Z" fill="#9A9999"/>
<path d="M287.434 349.979C289.248 349.866 290.627 349.887 292.449 349.94L292.457 354.903C291.025 354.916 288.805 354.879 287.447 355.016L287.434 349.979Z" fill="#9A9A67"/>
<path d="M302.404 274.977C302.694 279.581 302.391 285.238 302.46 289.979L302.454 294.932C300.848 294.961 299.066 294.953 297.479 295.032L297.492 290.175L297.357 289.903C297.589 287.477 297.431 282.619 297.415 279.993L302.283 279.996C302.254 278.466 302.138 276.43 302.404 274.977Z" fill="#9A9999"/>
<path d="M302.46 289.979L302.454 294.932C300.848 294.961 299.066 294.953 297.479 295.032L297.492 290.175C298.81 289.771 301.044 289.932 302.46 289.979Z" fill="#9A9A67"/>
<path d="M297.421 305.135C297.642 309.972 297.402 315.13 297.458 320.003V324.906C295.797 324.919 294.098 324.903 292.443 325.019V320.024L292.427 314.995L292.416 309.998C294.093 309.943 295.588 309.993 297.265 310.051C297.321 308.302 297.112 306.915 297.421 305.135Z" fill="#9A9999"/>
<path d="M297.458 320.003V324.906C295.797 324.919 294.098 324.903 292.443 325.019V320.024C294.423 319.906 295.483 319.882 297.458 320.003Z" fill="#9A9A67"/>
<path d="M297.265 310.051C297.118 311.799 297.144 313.268 297.162 315.025C295.583 314.996 294.006 314.985 292.427 314.995L292.416 309.998C294.093 309.943 295.588 309.993 297.265 310.051Z" fill="#A1A0A3"/>
<path d="M252.579 184.982L267.386 184.896L267.399 189.804C264.21 190.204 255.874 189.988 252.395 189.959C252.375 188.383 252.27 186.49 252.579 184.982Z" fill="#E4E3E4"/>
<path d="M237.388 180.06C240.581 180.059 249.632 180.241 252.372 179.84L252.412 184.962C248.186 184.768 241.739 184.987 237.387 184.979L237.388 180.06Z" fill="#E4E3E4"/>
<path d="M267.409 190.06C272.389 190.044 277.341 189.921 282.325 190.058L282.438 190.251V194.858C277.861 195.087 272.004 195.007 267.406 194.952L267.409 190.06Z" fill="#E4E3E4"/>
<path d="M297.156 305.008C297.151 302.039 296.979 292.147 297.356 289.903L297.491 290.175L297.478 295.032L297.483 304.863L297.42 305.135C297.111 306.915 297.32 308.302 297.264 310.051C295.587 309.993 294.092 309.943 292.415 309.998L292.402 305.021L297.156 305.008Z" fill="#B3B2B2"/>
<path d="M302.145 275.003C302.211 271.939 301.913 262.397 302.377 260.03C302.469 261.768 302.493 263.277 302.485 265.019C302.48 267.743 302.611 272.408 302.403 274.977C302.137 276.43 302.253 278.466 302.282 279.996L297.414 279.993L297.404 275.022L302.145 275.003Z" fill="#B3B2B2"/>
<path d="M302.414 245.004L307.265 244.976C307.255 246.539 307.292 248.431 307.22 249.965L302.427 249.958L302.414 245.004Z" fill="#B3B2B2"/>
<path d="M192.564 159.963C194.185 159.933 195.807 159.939 197.428 159.982L197.439 164.769L192.572 164.787L192.564 159.963Z" fill="#A1A0A3"/>
<path d="M217.512 209.905C224.145 209.84 230.778 209.85 237.411 209.936L237.303 214.937C240.62 214.701 244.069 214.964 247.412 214.925C247.398 216.273 247.307 218.672 247.42 219.928L252.408 219.977C254.204 219.897 255.623 219.866 257.416 219.921C257.402 221.528 257.426 223.328 257.354 224.916C259.042 224.939 260.729 224.952 262.417 224.956L262.435 219.922L267.409 219.902L267.412 225.11C269.2 224.958 270.626 224.886 272.422 224.857C272.422 231.482 272.509 238.323 272.409 244.929V254.948C269.113 254.938 265.709 254.972 262.422 254.907C257.789 255.108 252.131 254.951 247.422 254.947C247.371 253.257 247.451 251.627 247.514 249.94L242.419 249.904L242.408 244.938L247.425 244.952L247.412 240.021L247.372 234.889C246.062 234.996 243.823 234.922 242.439 234.914C242.356 233.254 242.583 231.565 242.364 229.959L237.433 229.895C237.443 228.259 237.426 226.622 237.381 224.986C235.841 224.903 233.937 224.928 232.367 224.904C230.918 224.992 228.899 224.921 227.403 224.912L227.414 220.016C224.713 220.034 221.972 220.1 219.28 219.921L217.348 219.909C214.05 219.92 210.753 219.911 207.457 219.883L207.43 214.989C207.342 213.547 207.419 211.372 207.427 209.874C210.748 209.938 214.181 209.9 217.512 209.905Z" fill="#199A32"/>
<path d="M247.412 240.021C249.057 239.9 250.727 239.97 252.377 240.002L252.389 244.956L257.419 244.968L257.355 249.92L262.489 249.986C262.456 251.57 262.382 253.337 262.422 254.907C257.789 255.108 252.131 254.951 247.422 254.947C247.371 253.257 247.451 251.627 247.514 249.94L242.419 249.904L242.408 244.938L247.425 244.952L247.412 240.021Z" fill="#669965"/>
<path d="M257.355 249.92L262.489 249.986C262.456 251.57 262.382 253.337 262.422 254.907C257.789 255.108 252.131 254.951 247.422 254.947C247.371 253.257 247.451 251.627 247.514 249.94L257.355 249.92Z" fill="#99CB98"/>
<path d="M267.412 225.11C269.2 224.958 270.626 224.886 272.422 224.857C272.422 231.482 272.509 238.323 272.409 244.929C270.75 244.953 269.092 244.986 267.433 245.028L267.407 239.969L267.404 234.888L267.412 225.11Z" fill="#99CB98"/>
<path d="M207.427 209.874C210.748 209.938 214.181 209.9 217.512 209.905L217.506 210.114C217.353 211.785 217.377 213.279 217.383 214.953L217.348 219.909C214.05 219.92 210.753 219.911 207.457 219.883L207.43 214.989C207.342 213.547 207.419 211.372 207.427 209.874Z" fill="#8DCC65"/>
<path d="M207.43 214.989C210.614 214.864 214.168 214.943 217.383 214.953L217.348 219.909C214.05 219.92 210.753 219.911 207.457 219.883L207.43 214.989Z" fill="#669965"/>
<path d="M262.435 219.922L267.409 219.902L267.412 225.11L267.404 234.888L262.434 234.953L262.427 229.89L257.345 229.911C257.384 228.666 257.65 225.897 257.145 224.942L257.354 224.916C259.042 224.939 260.729 224.952 262.417 224.956L262.435 219.922Z" fill="#669965"/>
<path d="M267.433 245.028C269.092 244.986 270.75 244.953 272.409 244.929V254.948C269.113 254.938 265.709 254.972 262.422 254.907C262.382 253.337 262.456 251.57 262.489 249.986L267.439 249.958L267.433 245.028Z" fill="#669965"/>
<path d="M217.512 209.905C224.145 209.84 230.778 209.85 237.411 209.936L237.303 214.937L232.353 214.916C232.35 213.291 232.432 211.756 232.514 210.135C227.511 210.153 222.508 210.146 217.506 210.114L217.512 209.905Z" fill="#669965"/>
<path d="M219.279 219.921C221.955 219.826 224.633 219.814 227.309 219.884L232.482 219.981L232.366 224.904C230.917 224.992 228.898 224.921 227.402 224.912L227.413 220.016C224.712 220.034 221.971 220.1 219.279 219.921Z" fill="#8DCC65"/>
<path d="M237.303 214.937C240.62 214.701 244.069 214.964 247.412 214.925C247.398 216.273 247.307 218.672 247.42 219.928L242.415 219.936C242.377 218.369 242.436 216.652 242.46 215.073C240.913 215.094 238.788 215.194 237.303 214.937Z" fill="#669965"/>
<path d="M252.408 219.977C254.204 219.897 255.623 219.866 257.416 219.921C257.402 221.528 257.426 223.328 257.354 224.916L257.145 224.942L252.401 224.927C252.354 223.371 252.404 221.556 252.408 219.977Z" fill="#99CB98"/>
<path d="M247.4 234.733C248.508 235.076 251.127 234.944 252.42 234.932L252.376 240.002C250.726 239.97 249.056 239.9 247.411 240.021L247.371 234.889L247.4 234.733Z" fill="#8DCC65"/>
<path d="M242.515 229.914L247.413 229.955L247.4 234.733L247.371 234.889C246.061 234.996 243.822 234.922 242.438 234.914C242.355 233.254 242.582 231.565 242.363 229.959L242.515 229.914Z" fill="#99CB98"/>
<path d="M237.381 224.986C239.125 224.942 240.668 224.901 242.409 224.986C242.39 226.079 242.248 229.039 242.516 229.914L242.364 229.959L237.433 229.895C237.443 228.259 237.426 226.622 237.381 224.986Z" fill="#669965"/>
<path d="M267.428 275.019L272.393 274.956C272.43 276.63 272.435 278.305 272.403 279.979L277.41 279.969L277.416 289.924L277.418 294.887L277.429 299.969V304.94L272.456 304.998C272.414 306.646 272.398 308.294 272.411 309.942L267.386 309.956L267.409 314.929L262.387 314.882L262.388 319.892L262.409 324.919L257.409 324.892C256.267 325.008 253.693 324.921 252.44 324.913C252.377 323.313 252.419 321.683 252.438 320.079L252.335 319.869C250.904 320 248.914 319.921 247.434 319.903C247.368 318.286 247.424 316.627 247.453 315.006C246.129 314.892 243.831 314.924 242.432 314.898C242.4 313.284 242.444 311.564 242.459 309.942C240.861 309.982 239.054 309.919 237.438 309.895L237.467 305.061L232.34 304.998C232.319 303.481 232.206 301.308 232.544 299.898C233.737 299.779 236.215 299.832 237.507 299.818C237.413 298.321 237.429 296.496 237.404 294.971C239.144 294.948 240.583 294.974 242.322 295.058C242.48 294.069 242.42 291.111 242.42 289.958L247.423 289.985L247.417 284.966L252.404 284.942C252.353 288.252 252.384 291.638 252.379 294.956C253.779 294.808 256.008 294.853 257.48 294.84C257.372 293.299 257.432 291.493 257.446 289.921C259.016 289.911 260.873 290.109 262.389 289.858L262.404 284.919C263.802 284.948 266.086 285.072 267.386 284.842L267.415 280.283L267.428 275.019Z" fill="#199A32"/>
<path d="M267.427 275.019L272.392 274.956C272.429 276.63 272.434 278.305 272.402 279.979L277.409 279.969L277.415 289.924L277.417 294.887L277.428 299.969V304.94L272.455 304.998L272.389 304.853L272.442 300.011L272.387 299.861L272.429 294.905L272.45 292.5C272.305 290.417 272.418 287.097 272.426 284.924L272.487 279.924C271.021 279.876 268.55 279.602 267.414 280.283L267.427 275.019Z" fill="#669965"/>
<path d="M277.43 299.969V304.94L272.457 304.998L272.391 304.853L272.444 300.011C273.322 299.861 276.365 299.958 277.43 299.969Z" fill="#B3B2B2"/>
<path d="M272.431 294.905C272.927 294.832 276.51 294.908 277.419 294.887L277.43 299.969C276.365 299.958 273.322 299.861 272.444 300.011L272.389 299.861L272.431 294.905Z" fill="#9A9999"/>
<path d="M272.451 292.5C272.493 291.57 272.409 290.955 272.944 290.217C273.693 289.779 273.748 289.774 274.611 289.813L277.416 289.924L277.418 294.887C276.509 294.908 272.926 294.832 272.43 294.905L272.451 292.5Z" fill="#9A9A67"/>
<path d="M247.417 284.966L252.404 284.942C252.353 288.252 252.384 291.638 252.379 294.956C254.214 295.072 255.549 295.066 257.394 295.019C257.411 296.609 257.402 298.289 257.455 299.871C254.29 299.874 250.516 299.795 247.416 300.006L247.435 294.929C246.09 294.924 243.494 294.784 242.368 295.225L242.322 295.058C242.48 294.069 242.42 291.111 242.42 289.958L247.423 289.985L247.417 284.966Z" fill="#669965"/>
<path d="M257.372 309.974L262.432 309.998C262.395 311.609 262.327 313.278 262.388 314.882L262.389 319.892L262.41 324.919L257.41 324.892C256.268 325.008 253.694 324.921 252.441 324.913C252.378 323.313 252.42 321.683 252.439 320.079L252.336 319.869C253.741 319.758 255.935 319.819 257.403 319.816L257.372 309.974Z" fill="#669965"/>
<path d="M257.411 319.979C258.985 319.755 260.783 319.861 262.387 319.892L262.408 324.919L257.408 324.892L257.411 319.979Z" fill="#199A32"/>
<path d="M252.438 320.079C253.918 320.058 255.983 320.093 257.412 319.979L257.409 324.892C256.267 325.008 253.693 324.921 252.44 324.913C252.377 323.313 252.419 321.683 252.438 320.079Z" fill="#99CB98"/>
<path d="M232.544 299.898L232.764 300.03C232.498 301.575 232.574 303.155 232.585 304.727L242.372 304.951L242.354 310.069C244.228 309.967 245.542 309.93 247.411 310.003C247.409 311.422 247.343 313.429 247.421 314.8L247.453 315.006C246.129 314.892 243.831 314.924 242.432 314.898C242.4 313.284 242.444 311.564 242.459 309.942C240.861 309.982 239.054 309.919 237.438 309.895L237.467 305.061L232.34 304.998C232.319 303.481 232.206 301.308 232.544 299.898Z" fill="#669965"/>
<path d="M272.391 304.853L272.457 304.998C272.415 306.646 272.399 308.294 272.412 309.942L267.387 309.956L267.41 314.929L262.388 314.882C262.327 313.278 262.395 311.609 262.432 309.998L267.408 309.982V304.919C269.016 304.959 270.812 305.072 272.391 304.853Z" fill="#9A9999"/>
<path d="M262.389 289.858L262.449 290.006C262.418 291.662 262.411 293.321 262.425 294.98L257.394 295.019C255.549 295.066 254.214 295.072 252.379 294.956C253.779 294.808 256.008 294.853 257.48 294.84C257.372 293.299 257.432 291.493 257.446 289.921C259.016 289.911 260.873 290.109 262.389 289.858Z" fill="#99CB98"/>
<path d="M237.405 294.971C239.145 294.948 240.584 294.974 242.323 295.058L242.369 295.225L242.375 300.001C239.284 300.022 235.833 300.112 232.765 300.03L232.545 299.898C233.738 299.779 236.216 299.832 237.508 299.818C237.414 298.321 237.43 296.496 237.405 294.971Z" fill="#9A9A67"/>
<path d="M267.386 284.842L267.441 285.001L267.396 289.995L262.449 290.006L262.389 289.858L262.404 284.919C263.802 284.948 266.086 285.072 267.386 284.842Z" fill="#8DCC65"/>
<path d="M247.452 315.006L252.415 315.059C252.39 316.63 252.394 318.31 252.334 319.869C250.903 320 248.913 319.921 247.433 319.903C247.367 318.286 247.423 316.627 247.452 315.006Z" fill="#9A9A67"/>
<path d="M202.295 219.955L207.36 219.932C207.436 221.711 207.431 223.157 207.382 224.94C207.378 226.49 207.421 228.33 207.356 229.853L207.553 229.951C209.186 229.953 210.82 229.94 212.453 229.913L212.419 234.993C214.079 234.958 215.781 234.902 217.437 234.895C217.43 236.538 217.454 238.294 217.401 239.925C217.436 242.299 217.664 247.863 217.414 249.927L212.749 249.951C212.156 250.871 212.366 253.673 212.398 254.949L212.403 259.942L212.392 264.922C211.11 264.922 208.57 264.824 207.443 265.146L207.319 265.059C205.994 264.9 203.941 264.958 202.539 264.958C202.531 266.372 202.58 268.6 202.393 269.932C202.093 268.226 202.208 262.023 202.211 259.955L197.44 259.943C197.383 258.238 197.398 256.679 197.429 254.971L197.442 249.993L197.437 245.075L197.452 239.961L192.491 239.925C190.893 239.969 189.065 239.91 187.447 239.896L187.443 234.976C187.376 233.426 187.426 231.494 187.423 229.913L192.442 229.963L192.424 224.901L197.465 224.945L197.456 219.922L202.295 219.955Z" fill="#199A32"/>
<path d="M207.356 229.853L207.553 229.951C209.186 229.953 210.82 229.94 212.453 229.913L212.419 234.993C214.079 234.958 215.781 234.902 217.437 234.895C217.43 236.538 217.454 238.294 217.401 239.925C217.436 242.299 217.664 247.863 217.414 249.927C217.227 248.574 217.285 246.36 217.283 244.929L212.438 244.906C212.391 243.337 212.456 241.508 212.476 239.917L207.408 239.949C207.436 236.553 207.277 233.295 207.356 229.853Z" fill="#669965"/>
<path d="M212.42 234.993C214.08 234.958 215.782 234.902 217.438 234.895C217.431 236.538 217.455 238.294 217.402 239.925L212.389 239.949L212.42 234.993Z" fill="#99CB98"/>
<path d="M207.555 229.951C209.188 229.953 210.822 229.94 212.455 229.913L212.421 234.993C211.034 234.891 209.014 234.987 207.578 235.016L207.555 229.951Z" fill="#99CB98"/>
<path d="M207.399 260.045C207.23 256.252 207.116 248.655 207.43 244.93C207.535 246.664 207.558 248.13 207.552 249.87C209.129 249.961 210.967 250.163 212.499 249.888L212.749 249.951C212.156 250.871 212.366 253.673 212.398 254.949L212.403 259.942L212.392 264.922C211.11 264.922 208.57 264.824 207.443 265.146L207.319 265.059C207.409 263.45 207.387 261.669 207.399 260.045Z" fill="#669965"/>
<path d="M212.5 249.888L212.75 249.951C212.157 250.871 212.367 253.673 212.399 254.949C210.801 254.956 209.179 255 207.579 255.029C207.537 253.348 207.56 251.561 207.553 249.87C209.13 249.961 210.968 250.163 212.5 249.888Z" fill="#99CB98"/>
<path d="M207.578 255.029C209.178 255 210.8 254.956 212.398 254.949L212.403 259.942L207.65 259.952L207.578 255.029Z" fill="#9A9A67"/>
<path d="M202.296 219.955L207.361 219.932C207.437 221.711 207.432 223.157 207.383 224.94C207.379 226.49 207.422 228.33 207.357 229.853C205.853 229.95 203.848 229.9 202.303 229.904L202.472 224.913L197.466 224.945L197.457 219.922L202.296 219.955Z" fill="#669965"/>
<path d="M202.297 219.955L207.362 219.932C207.438 221.711 207.433 223.157 207.384 224.94L202.363 224.952C202.392 223.719 202.54 221.024 202.297 219.955Z" fill="#99CB98"/>
<path d="M192.424 224.901L197.465 224.945L197.464 229.95L192.448 229.969L192.456 234.934C190.82 234.947 189.068 234.927 187.443 234.976C187.376 233.426 187.426 231.494 187.423 229.913L192.442 229.963L192.424 224.901Z" fill="#8DCC65"/>
<path d="M197.43 254.971L202.311 254.935C202.326 255.925 202.32 259.313 202.49 260.083C202.504 261.616 202.471 263.455 202.54 264.958C202.532 266.372 202.581 268.6 202.394 269.932C202.094 268.226 202.209 262.023 202.212 259.955L197.441 259.943C197.384 258.238 197.399 256.679 197.43 254.971Z" fill="#99CB98"/>
<path d="M207.432 244.93L212.423 244.921C212.411 246.346 212.33 248.538 212.501 249.888C210.969 250.163 209.131 249.961 207.554 249.87C207.56 248.13 207.537 246.664 207.432 244.93Z" fill="#8DCC65"/>
<path d="M197.443 249.993L202.295 249.939L202.311 254.935L197.43 254.971L197.443 249.993Z" fill="#669965"/>
<path d="M202.541 264.958C203.943 264.958 205.996 264.9 207.321 265.059L207.445 265.146C208.572 264.824 211.112 264.922 212.394 264.922C212.622 266.441 212.566 268.432 212.57 270.003L217.416 269.948L217.396 274.914C217.591 276.58 217.541 278.326 217.54 280.009L222.401 279.943L222.396 284.7L222.314 284.972C220.961 284.956 218.713 284.829 217.516 285.18L217.318 285.177L217.044 284.945L212.468 284.927C212.473 283.295 212.446 281.659 212.389 280.027L207.421 279.94C207.383 278.173 207.372 276.406 207.388 274.639C207.303 273.231 207.349 271.414 207.347 269.969L202.395 269.932C202.582 268.6 202.533 266.372 202.541 264.958Z" fill="#669965"/>
<path d="M202.541 264.958C203.943 264.958 205.996 264.9 207.321 265.059L207.445 265.146C208.572 264.824 211.112 264.922 212.394 264.922C212.235 266.628 212.229 268.345 212.376 270.051C212.408 271.747 212.414 273.26 212.355 274.956C211.077 274.969 208.685 275.109 207.578 274.724L207.388 274.639C207.303 273.231 207.349 271.414 207.347 269.969L202.395 269.932C202.582 268.6 202.533 266.372 202.541 264.958Z" fill="#199A32"/>
<path d="M202.541 264.958C203.943 264.958 205.996 264.9 207.321 265.059L207.445 265.146C207.441 266.166 207.373 269.257 207.509 270.098C207.582 271.638 207.605 273.181 207.578 274.724L207.388 274.639C207.303 273.231 207.349 271.414 207.347 269.969L202.395 269.932C202.582 268.6 202.533 266.372 202.541 264.958Z" fill="#8DCC65"/>
<path d="M217.395 274.914C217.59 276.58 217.54 278.326 217.539 280.009L222.4 279.943L222.395 284.7L222.313 284.972C220.96 284.956 218.712 284.829 217.515 285.18L217.317 285.177L217.043 284.945L217.279 284.711C217.491 283.603 217.375 281.203 217.352 279.982C217.281 278.068 217.271 276.818 217.395 274.914Z" fill="#9A9A67"/>
<path d="M207.386 274.639L207.576 274.724C208.683 275.109 211.075 274.969 212.353 274.956C212.351 276.296 212.275 278.777 212.387 280.027L207.419 279.94C207.381 278.173 207.37 276.406 207.386 274.639Z" fill="#8DCC65"/>
<path d="M212.521 274.903L217.394 274.914C217.27 276.818 217.28 278.068 217.351 279.982H212.498L212.521 274.903Z" fill="#199A32"/>
<path d="M272.42 259.92L277.438 259.886L277.422 264.964L277.411 279.969L272.404 279.979C272.436 278.305 272.431 276.63 272.394 274.956L267.429 275.019C267.371 273.46 267.426 271.578 267.429 269.99L267.426 264.937C269.064 264.911 270.772 264.951 272.415 264.966L272.42 259.92Z" fill="#9A9A67"/>
<path d="M267.426 264.937C269.064 264.911 270.772 264.951 272.415 264.966L272.431 269.99L272.394 274.956L267.429 275.019C267.371 273.46 267.426 271.578 267.429 269.99L267.426 264.937Z" fill="#8DCC65"/>
<path d="M267.426 264.937C269.064 264.911 270.772 264.951 272.415 264.966L272.431 269.99C270.981 269.9 268.824 269.705 267.429 269.99L267.426 264.937Z" fill="#99CB98"/>
<path d="M272.419 259.92L277.437 259.886L277.421 264.964L272.414 264.966L272.419 259.92Z" fill="#99CB98"/>
<path d="M222.396 284.7C222.625 286.209 222.53 288.3 222.509 289.864L227.54 289.829L227.514 295.043C229.131 294.993 230.781 294.919 232.395 294.938C232.377 296.512 232.4 298.371 232.309 299.919C228.922 299.835 225.73 300.017 222.45 299.969C222.415 298.35 222.345 296.599 222.379 294.99L217.452 294.927C217.39 291.992 217.198 288.033 217.318 285.177L217.516 285.18C218.713 284.829 220.961 284.956 222.314 284.972L222.396 284.7Z" fill="#99CB98"/>
<path d="M217.516 285.18C218.713 284.829 220.961 284.956 222.314 284.972L222.292 289.927L217.539 289.972L217.516 285.18Z" fill="#669965"/>
<path d="M222.521 290.059L227.331 290.019L227.283 294.951L222.415 294.958C222.397 293.355 222.473 291.67 222.521 290.059Z" fill="#669965"/>
<path d="M322.396 159.829C325.544 160.232 333.726 159.803 337.441 159.882C337.454 161.563 337.491 163.299 337.475 164.974C342.453 164.89 347.434 164.854 352.412 164.868C352.439 166.503 352.512 168.367 352.475 169.981C354.598 169.937 366.036 169.583 367.344 169.998C367.56 171.805 367.542 173.18 367.539 175.006C369.269 175.166 370.774 175.125 372.509 175.104C372.464 176.56 372.47 178.558 372.356 179.967L367.531 180.046L367.386 179.99L362.49 180.012C362.44 180.98 362.418 184.351 362.281 184.974L357.509 185.049L357.366 184.997C355.726 184.988 354.084 184.998 352.444 185.028L351.98 185.011L352.317 185.084C352.191 181.962 352.394 177.98 352.483 174.789C348.101 174.661 341.578 175.144 337.649 174.765C337.523 173.493 337.596 171.191 337.602 169.831C337.599 168.439 337.697 166.655 337.227 165.397C335.967 164.436 325.053 164.829 322.63 164.843C322.601 163.337 322.796 161.166 322.396 159.829Z" fill="#C3C2C1"/>
<path d="M352.483 174.789C355.737 174.826 358.993 174.831 362.247 174.805C362.26 176.198 362.215 178.527 362.334 179.843L362.321 179.933L362.49 180.012C362.44 180.98 362.418 184.351 362.281 184.974L357.509 185.049L357.366 184.997C355.726 184.988 354.084 184.998 352.444 185.028L351.98 185.011L352.317 185.084C352.191 181.962 352.394 177.98 352.483 174.789Z" fill="#E4E3E4"/>
<path d="M362.32 179.933L362.489 180.012C362.439 180.98 362.417 184.351 362.28 184.974L357.508 185.049L357.365 184.997L357.45 179.968L362.32 179.933Z" fill="#B3B2B2"/>
<path d="M352.502 179.97L357.451 179.968L357.366 184.997C355.726 184.988 354.084 184.998 352.444 185.028L351.98 185.011L352.317 185.084C352.615 183.624 352.515 181.517 352.502 179.97Z" fill="#CDCC99"/>
<path d="M367.344 169.998C367.56 171.805 367.542 173.18 367.539 175.006C369.269 175.166 370.774 175.125 372.509 175.104C372.464 176.56 372.47 178.558 372.356 179.967L367.531 180.046L367.386 179.99C367.42 178.163 367.465 176.672 367.307 174.855C367.217 172.946 367.165 171.889 367.344 169.998Z" fill="#B3B2B2"/>
<path d="M362.454 174.96L367.306 174.855C367.464 176.672 367.419 178.163 367.385 179.99L362.489 180.012L362.32 179.933L362.333 179.843C362.589 178.929 362.47 176.074 362.454 174.96Z" fill="#CDCC99"/>
</svg>
