<svg width="540" height="500" viewBox="0 0 540 500" fill="none" xmlns="http://www.w3.org/2000/svg">
<path d="M253.921 121.92C261.035 121.866 271.337 122.217 278.045 121.871C278.019 124.247 278.114 127.734 277.984 129.976L293.952 129.859L293.929 121.919C301.451 121.918 310.653 122.178 318.034 121.871L318.028 129.935C323.325 129.922 328.768 129.971 334.054 129.888L334.023 137.971L342.059 137.864C342.038 140.02 341.569 153.257 342.465 153.967C342.521 154.012 342.595 154.029 342.66 154.06C345.118 153.835 347.554 153.89 350.022 153.9C350.062 156.585 350.056 159.27 350.001 161.955L373.906 161.863C374.169 163.639 374.093 167.982 374.032 169.91L375.601 170.026C378.351 169.531 386.934 169.942 390.058 169.873L390.024 195.343C390.027 199.652 389.826 206.146 390.195 210.173C387.303 209.921 384.827 210.09 381.99 210.039C382.108 219.896 381.594 232.67 382.169 242.117C379.437 242.029 376.701 242.007 373.966 242.05C374.185 252.157 373.576 264.457 374.177 274.159C371.327 273.927 368.78 274.077 365.972 274.027C366.048 280.928 366.072 287.832 366.038 294.736C366.038 298.339 365.93 302.59 366.162 306.139C363.269 305.955 360.817 306.089 357.99 306.042C358.109 315.889 357.592 328.692 358.172 338.122C355.401 338.022 352.749 338.033 349.98 338.046C350.009 340.467 349.959 343.832 350.149 346.168C347.283 345.918 344.791 346.102 341.985 346.029C342.012 348.531 341.964 351.701 342.128 354.146C339.243 353.958 336.815 354.098 333.999 354.04C334.023 356.445 333.965 359.829 334.133 362.144C328.783 361.841 323.333 362.165 318.002 362.031C318.018 364.433 317.941 367.89 318.142 370.193C313.609 369.731 306.777 370.098 301.981 370.003C302.008 372.476 301.947 375.762 302.145 378.17C298.016 377.817 291.814 377.996 287.558 378.001C281.939 378.012 275.503 377.877 269.937 378.149L269.929 370.198C265.473 369.916 258.449 369.863 253.932 370.14L253.919 362.176C248.601 361.97 243.278 361.957 237.959 362.133L237.944 354.177C232.612 353.94 227.273 353.929 221.941 354.146L221.933 346.195C216.949 345.881 210.955 345.949 205.928 346.129L205.917 338.175C200.599 337.969 195.276 337.956 189.958 338.133L189.944 330.177C184.608 329.937 179.264 329.926 173.927 330.145C173.907 327.002 173.744 321.764 173.981 318.697C173.821 316.432 173.94 312.352 173.938 309.968C173.897 304.858 173.918 299.744 174 294.631C173.902 293.56 173.977 291.363 173.982 290.206C172.381 289.866 167.787 290.019 165.942 290.05C166.103 279.267 165.836 268.436 165.931 257.649C165.947 255.904 165.875 254.136 166.072 252.401L165.861 250.063C163.225 249.975 160.55 250.015 157.91 250.025C158.04 237.583 157.613 224.395 157.979 212.063L157.918 210.095C155.059 209.99 152.795 209.947 149.931 210.044C150.084 194.339 149.527 177.632 149.999 162.101C149.799 159.43 149.902 152.929 149.988 150.246C149.917 149.037 149.966 147.22 149.96 145.963C151.312 145.613 156.223 145.78 157.922 145.805C157.904 143.79 157.759 139.838 158.088 138.048C159.706 137.491 178.565 137.86 181.935 137.845C181.918 135.851 181.787 131.759 182.079 129.928C189.771 129.739 198.201 129.912 205.954 129.911C205.918 128.102 205.767 123.601 206.087 121.936C206.384 123.965 206.273 127.808 206.273 129.984L213.997 129.975L221.848 129.989L222.014 129.928C224.677 129.963 227.341 129.978 230.004 129.974L237.938 129.972C237.952 132.513 238.028 135.372 237.968 137.888C240.353 137.867 243.632 137.745 245.941 137.956C245.898 135.364 245.951 132.603 245.961 129.997L246.106 129.969C247.706 129.952 250.634 129.836 252.13 129.975C252.591 129.877 253.471 129.807 253.607 129.493C254.343 127.799 253.924 123.819 253.921 121.92Z" fill="#C1C0C0"/>
<path d="M214.005 146.062C216.417 146.064 219.492 146.152 221.851 146.008L221.951 146.239C221.928 148.841 221.924 151.444 221.94 154.046C221.932 157.979 221.672 166.103 222.021 169.749L221.644 169.803C219.525 169.642 216.183 169.766 213.975 169.781L214.056 161.88C214.152 156.756 214.023 151.215 214.005 146.062Z" fill="#A1A0A2"/>
<path d="M342.66 154.06C345.118 153.835 347.554 153.89 350.022 153.9C350.062 156.585 350.056 159.27 350.001 161.955L373.906 161.863C374.169 163.639 374.093 167.982 374.032 169.91L375.601 170.026C378.351 169.531 386.934 169.942 390.058 169.873L390.024 195.343C390.027 199.652 389.826 206.146 390.195 210.173C387.303 209.921 384.827 210.09 381.99 210.039C382.108 219.896 381.594 232.67 382.169 242.117C379.437 242.029 376.701 242.007 373.966 242.05C374.185 252.157 373.576 264.457 374.177 274.159C371.327 273.927 368.78 274.077 365.972 274.027C366.048 280.928 366.072 287.832 366.038 294.736C366.038 298.339 365.93 302.59 366.162 306.139C363.269 305.955 360.817 306.089 357.99 306.042C358.109 315.889 357.592 328.692 358.172 338.122C355.401 338.022 352.749 338.033 349.98 338.046C350.009 340.467 349.959 343.832 350.149 346.168C347.283 345.918 344.791 346.102 341.985 346.029C342.012 348.531 341.964 351.701 342.128 354.146C339.243 353.958 336.815 354.098 333.999 354.04C334.023 356.445 333.965 359.829 334.133 362.144C328.783 361.841 323.333 362.165 318.002 362.031C318.018 364.433 317.941 367.89 318.142 370.193C313.609 369.731 306.777 370.098 301.981 370.003C302.008 372.476 301.947 375.762 302.145 378.17C298.016 377.817 291.814 377.996 287.558 378.001C281.939 378.012 275.503 377.877 269.937 378.149L269.929 370.198C265.473 369.916 258.449 369.863 253.932 370.14L253.919 362.176C248.601 361.97 243.278 361.957 237.959 362.133L237.944 354.177C232.612 353.94 227.273 353.929 221.941 354.146L221.933 346.195C216.949 345.881 210.955 345.949 205.928 346.129L205.917 338.175C200.599 337.969 195.276 337.956 189.958 338.133L189.944 330.177C184.608 329.937 179.264 329.926 173.927 330.145C173.907 327.002 173.744 321.764 173.981 318.697C174.098 319.852 174.191 320.826 174.226 321.996L181.924 321.97L190.01 321.965C195.285 321.954 200.686 322.002 205.951 321.928L205.937 329.971C211.284 329.974 216.632 329.945 221.979 329.889L221.964 338.012C227.229 337.996 232.77 338.057 238.016 337.943L237.979 345.973L253.953 345.928L253.932 354.014C259.253 353.861 264.637 353.969 269.971 353.887L269.958 362.01C272.152 362.015 285.251 362.276 285.997 361.688L285.989 353.945C288.774 353.906 291.186 353.914 293.976 354.019L293.942 346.044L293.963 338.028L293.984 330.103L293.934 329.926C294.021 327.442 293.958 324.515 293.963 321.996L293.95 314.006L293.937 305.973L301.939 306.008L301.968 298.006L301.894 295.907C302.066 294.628 302.008 291.448 302.021 290.029L302.034 281.949V266.066C304.254 265.918 307.4 266.01 309.688 266.008C309.678 263.358 309.641 260.712 309.746 258.062C309.902 255.776 309.788 252.325 309.775 249.945L309.941 249.929C310.086 247.961 309.986 244.032 309.989 241.949L309.973 233.976L309.949 225.979C312.618 225.976 315.283 225.987 317.952 226.012L317.965 218.175L317.902 217.994C318.055 215.9 317.962 212.323 317.965 210.114L317.97 201.993L325.865 201.989C325.836 199.346 325.851 196.702 325.912 194.058L326.112 194.06C328.686 194.007 331.262 193.985 333.835 193.994C334.067 193.081 333.999 187.442 333.996 186.076C331.918 186.217 328.275 186.123 326.083 186.127L326.081 185.899C325.722 184.965 325.901 179.384 325.93 177.959C325.923 175.285 325.944 172.612 325.994 169.938C325.925 167.188 325.978 164.836 326.073 162.093L333.482 162.112C336.287 161.964 339.125 161.959 341.938 161.924C341.927 160.033 341.78 156.115 342.086 154.418L342.66 154.06Z" fill="#676767"/>
<path d="M342.66 154.06C345.118 153.835 347.554 153.89 350.022 153.9C350.062 156.585 350.056 159.27 350.001 161.955L373.906 161.863C374.169 163.639 374.093 167.982 374.032 169.91C374.016 171.75 374.09 176.305 373.914 177.937C371.686 178.067 368.255 177.984 365.94 177.992L358.072 177.949C357.988 180.616 357.959 183.284 357.985 185.952L350.08 185.986L349.896 185.958L342.139 185.965L341.978 185.925C339.7 185.944 336.174 185.866 333.996 186.076C331.918 186.217 328.275 186.123 326.083 186.127L326.081 185.899C325.722 184.965 325.901 179.384 325.93 177.959C325.923 175.285 325.944 172.612 325.994 169.938C325.925 167.188 325.978 164.836 326.073 162.093L333.482 162.112C336.287 161.964 339.125 161.959 341.938 161.924C341.927 160.033 341.78 156.115 342.086 154.418L342.66 154.06Z" fill="#A1A0A2"/>
<path d="M342.659 154.06C345.117 153.835 347.553 153.89 350.021 153.9C350.061 156.585 350.055 159.27 350 161.955L373.905 161.863C374.168 163.639 374.092 167.982 374.031 169.91C374.015 171.75 374.089 176.305 373.913 177.937C371.685 178.067 368.254 177.984 365.939 177.992L358.071 177.949L358.032 177.769C357.884 175.461 357.981 172.351 357.989 169.983L341.934 170.006L341.937 161.924C341.926 160.033 341.779 156.115 342.085 154.418L342.659 154.06Z" fill="#DADADA"/>
<path d="M373.905 161.863C374.168 163.639 374.092 167.982 374.031 169.91C374.015 171.75 374.089 176.305 373.913 177.937C371.685 178.067 368.254 177.984 365.939 177.992C365.939 175.321 365.952 172.649 365.979 169.978C368.592 170.042 371.123 169.957 373.733 169.885C373.731 167.597 373.586 164.022 373.905 161.863Z" fill="#B3B2B3"/>
<path d="M357.99 169.983L365.98 169.978C365.953 172.649 365.94 175.321 365.94 177.992L358.072 177.949L358.033 177.769C357.885 175.461 357.982 172.351 357.99 169.983Z" fill="#CCCC99"/>
<path d="M334.023 177.961L341.996 177.97L341.978 185.925C339.7 185.944 336.174 185.866 333.996 186.076C331.918 186.217 328.275 186.123 326.083 186.127L326.081 185.899C325.722 184.965 325.901 179.384 325.93 177.959L334.023 177.961Z" fill="#DADADA"/>
<path d="M325.93 177.959L334.023 177.961L334.004 185.876L326.081 185.899C325.722 184.965 325.901 179.384 325.93 177.959Z" fill="#FEFFFE"/>
<path d="M350.007 177.981C352.544 177.885 355.559 178.103 358.033 177.769L358.072 177.949C357.988 180.616 357.959 183.284 357.985 185.952L350.08 185.986L349.896 185.958C349.948 183.3 349.986 180.64 350.007 177.981Z" fill="#B3B2B3"/>
<path d="M325.993 169.938L333.993 169.994L334.022 177.961L325.929 177.959C325.922 175.285 325.943 172.612 325.993 169.938Z" fill="#DADADA"/>
<path d="M341.997 177.97L350.007 177.981C349.986 180.64 349.949 183.3 349.897 185.958L342.14 185.965L341.979 185.925L341.997 177.97Z" fill="#CCCC99"/>
<path d="M190.009 321.965C195.284 321.954 200.685 322.002 205.95 321.928L205.936 329.971C211.283 329.974 216.631 329.945 221.978 329.889L221.963 338.012C227.228 337.996 232.769 338.057 238.015 337.943L237.978 345.973L253.952 345.928L253.931 354.014C259.252 353.861 264.636 353.969 269.97 353.887L269.957 362.01C272.151 362.015 285.25 362.276 285.996 361.688L286.02 362.012C285.988 364.673 285.978 367.334 285.994 369.995C280.641 369.96 275.291 369.963 269.939 370.005L269.976 362.004L253.907 362.031L253.959 353.974C248.815 353.919 243.063 353.882 237.947 354.043C237.947 351.355 237.969 348.666 238.014 345.976C232.657 345.955 227.3 345.965 221.944 346.007L221.983 338.004C216.624 337.988 211.265 337.996 205.905 338.033L205.956 329.971C200.82 329.918 195.052 329.879 189.945 330.047C189.947 327.352 189.968 324.66 190.009 321.965Z" fill="#A1A0A2"/>
<path d="M373.914 177.937L374.077 177.996C373.734 179.701 373.935 184.003 373.987 185.917C368.643 186.025 363.298 186.1 357.951 186.142L357.988 193.966C355.639 193.987 352.132 194.122 349.877 194.006C350.252 192.09 349.645 188.387 350.08 185.986L357.985 185.952C357.959 183.284 357.988 180.616 358.072 177.949L365.94 177.992C368.255 177.984 371.686 178.067 373.914 177.937Z" fill="#8A8989"/>
<path d="M358.073 177.949L365.941 177.992L365.973 185.888C363.389 185.908 360.552 185.871 357.986 185.952C357.96 183.284 357.989 180.616 358.073 177.949Z" fill="#9A9A67"/>
<path d="M309.774 249.945L309.94 249.929L310.051 250.115C310.035 255.044 310.186 261.194 309.983 266.026C309.956 271.358 309.964 276.69 310.006 282.023C307.222 281.914 304.812 281.909 302.033 281.949V266.066C304.253 265.918 307.399 266.01 309.687 266.008C309.677 263.358 309.64 260.712 309.745 258.062C309.901 255.776 309.787 252.325 309.774 249.945Z" fill="#8A8989"/>
<path d="M341.979 185.925L342.14 185.965L349.897 185.958L350.081 185.986C349.646 188.387 350.253 192.09 349.878 194.006C347.323 193.952 344.504 194.026 341.926 194.046L341.76 193.998L333.987 194.043L333.836 193.994C334.068 193.081 334 187.442 333.997 186.076C336.175 185.866 339.701 185.944 341.979 185.925Z" fill="#B3B2B3"/>
<path d="M349.897 185.958L350.081 185.986C349.646 188.387 350.253 192.09 349.878 194.006C347.323 193.952 344.504 194.026 341.926 194.046L341.76 193.998C342.332 192.381 341.61 188.259 342.14 185.965L349.897 185.958Z" fill="#9A9A67"/>
<path d="M302.022 290.029C304.682 289.984 307.343 289.971 310.003 289.99C309.998 295.145 309.884 300.86 310.014 305.976C307.322 305.957 304.632 305.968 301.94 306.008L301.969 298.006L301.895 295.907C302.067 294.628 302.009 291.448 302.022 290.029Z" fill="#818141"/>
<path d="M301.962 329.947C301.962 334.992 301.801 341.013 301.983 345.984C299.341 345.978 296.57 345.931 293.941 346.044L293.962 338.028L293.983 330.103C295.552 329.802 300.171 329.929 301.962 329.947Z" fill="#818141"/>
<path d="M310.052 250.115C311.342 249.842 316.42 249.948 317.976 249.954C317.97 255.086 317.839 260.941 317.986 266.023C315.318 265.989 312.649 265.989 309.984 266.026C310.187 261.194 310.036 255.044 310.052 250.115Z" fill="#818141"/>
<path d="M293.95 314.006C296.621 313.964 299.289 313.993 301.958 314.09L301.981 321.994C301.971 324.494 301.886 327.487 301.963 329.947C300.172 329.929 295.553 329.802 293.984 330.103L293.934 329.926C294.021 327.442 293.958 324.515 293.963 321.996L293.95 314.006Z" fill="#9A9A67"/>
<path d="M293.949 314.006C296.62 313.964 299.288 313.993 301.957 314.09L301.98 321.994C299.317 321.954 296.62 321.875 293.962 321.996L293.949 314.006Z" fill="#8A8989"/>
<path d="M325.912 194.058L326.112 194.06C326.102 196.705 326.068 199.351 326.007 201.995C325.812 204.501 325.936 207.446 325.975 209.99C324.346 209.943 319.262 209.699 317.965 210.114L317.97 201.993L325.865 201.989C325.836 199.346 325.851 196.702 325.912 194.058Z" fill="#8A8989"/>
<path d="M293.975 354.019C293.975 356.593 293.917 359.425 293.978 361.975L286.02 362.012L285.996 361.688L285.988 353.945C288.773 353.906 291.185 353.914 293.975 354.019Z" fill="#9A9A67"/>
<path d="M317.965 210.114C319.262 209.699 324.346 209.943 325.975 209.99L325.962 217.988C324.412 217.975 319.209 217.842 317.965 218.175L317.902 217.994C318.055 215.9 317.962 212.323 317.965 210.114Z" fill="#9A9A67"/>
<path d="M301.939 306.008L301.958 314.09C299.289 313.993 296.622 313.964 293.951 314.006L293.938 305.973L301.939 306.008Z" fill="#A1A0A2"/>
<path d="M309.989 241.949C312.575 241.954 315.407 241.902 317.973 242.017C317.973 244.591 317.918 247.4 317.976 249.954C316.42 249.948 311.342 249.842 310.052 250.115L309.941 249.929C310.086 247.961 309.986 244.032 309.989 241.949Z" fill="#9A9A67"/>
<path d="M310.007 282.023C310.005 284.633 309.956 287.392 310.003 289.99C307.343 289.971 304.681 289.984 302.021 290.029L302.034 281.949C304.813 281.909 307.223 281.914 310.007 282.023Z" fill="#9A9A67"/>
<path d="M309.949 225.979C312.618 225.976 315.283 225.987 317.952 226.012L317.962 234.097C315.162 233.961 312.773 233.949 309.973 233.976L309.949 225.979Z" fill="#A1A0A2"/>
<path d="M286.022 362.012L293.98 361.975L293.985 369.995H285.996C285.98 367.334 285.99 364.673 286.022 362.012Z" fill="#818141"/>
<path d="M317.964 218.175C319.208 217.842 324.411 217.975 325.961 217.988L325.99 225.989C323.348 225.987 320.58 225.941 317.951 226.012L317.964 218.175Z" fill="#818141"/>
<path d="M317.962 234.097L317.973 242.017C315.407 241.902 312.575 241.954 309.989 241.949L309.973 233.976C312.773 233.949 315.162 233.961 317.962 234.097Z" fill="#8A8989"/>
<path d="M333.836 193.994L333.987 194.043L334.016 201.982L326.008 201.995C326.069 199.351 326.103 196.705 326.113 194.06C328.687 194.007 331.263 193.985 333.836 193.994Z" fill="#9A9A67"/>
<path d="M374.032 169.91L375.601 170.026C377.42 170.263 380.094 170.153 381.99 170.133L381.987 177.964L374.077 177.996L373.914 177.937C374.09 176.305 374.016 171.75 374.032 169.91Z" fill="#9A9A67"/>
<path d="M341.759 193.998L341.925 194.046L341.954 201.956C339.81 201.97 336.032 202.109 334.015 201.982L333.986 194.043L341.759 193.998Z" fill="#8A8989"/>
<path d="M253.922 121.92C261.036 121.866 271.338 122.217 278.046 121.871C278.02 124.247 278.115 127.734 277.985 129.976L293.953 129.859L293.93 121.919C301.452 121.918 310.654 122.178 318.035 121.871L318.029 129.935C323.326 129.922 328.769 129.971 334.055 129.888L334.024 137.971L342.06 137.864C342.039 140.02 341.57 153.257 342.466 153.967C342.522 154.012 342.596 154.029 342.661 154.06L342.087 154.418C341.781 156.115 341.928 160.033 341.939 161.924C339.126 161.959 336.288 161.964 333.483 162.112L326.074 162.093C325.979 164.836 325.926 167.188 325.995 169.938C325.945 172.612 325.924 175.285 325.931 177.959C325.902 179.384 325.723 184.965 326.082 185.899L326.084 186.127C328.276 186.123 331.919 186.217 333.997 186.076C334 187.442 334.068 193.081 333.836 193.994C331.263 193.985 328.687 194.007 326.113 194.06L325.913 194.058C325.852 196.702 325.837 199.346 325.866 201.989L317.971 201.993L309.853 201.973L277.985 201.937L277.999 193.936C272.833 194.083 267.18 193.995 261.979 194.004C261.95 191.363 261.989 188.652 261.999 186.006C265.743 185.768 274.051 185.88 277.854 186.051L277.867 177.961L269.943 177.988C269.901 169.993 269.912 161.998 269.975 154.003L270.001 145.875C268.306 146.061 263.913 145.974 262.005 145.98L262.009 129.936C258.749 129.92 255.362 130.07 252.131 129.975C252.592 129.877 253.472 129.807 253.608 129.493C254.344 127.799 253.925 123.819 253.922 121.92Z" fill="#FEFECC"/>
<path d="M253.922 121.92C261.036 121.866 271.338 122.217 278.046 121.871C278.02 124.247 278.115 127.734 277.985 129.976L293.953 129.859L293.93 121.919C301.452 121.918 310.654 122.178 318.035 121.871L318.029 129.935C323.326 129.922 328.769 129.971 334.055 129.888L334.024 137.971L342.06 137.864C342.039 140.02 341.57 153.257 342.466 153.967C342.522 154.012 342.596 154.029 342.661 154.06L342.087 154.418C341.781 156.115 341.928 160.033 341.939 161.924C339.126 161.959 336.288 161.964 333.483 162.112L326.074 162.093C325.979 164.836 325.926 167.188 325.995 169.938L317.955 169.99C317.945 167.318 317.953 164.646 317.982 161.974C317.955 159.302 317.992 156.63 318.095 153.959L317.961 153.828C316.234 154.125 303.097 154.063 301.911 153.763C302.035 151.805 301.969 149.065 301.982 147.048L301.774 146.239C300.413 145.459 295.828 146.068 293.882 145.977C293.972 148.627 293.974 151.28 293.893 153.931C292.543 153.915 286.937 153.717 286.017 154.162L285.78 154.165C284.64 153.827 279.467 153.977 278.017 153.988C278.033 151.901 278.18 146.307 277.917 144.524C277.764 147.572 277.843 150.902 277.856 153.979L269.975 154.003L270.001 145.875C268.306 146.061 263.913 145.974 262.005 145.98L262.009 129.936C258.749 129.92 255.362 130.07 252.131 129.975C252.592 129.877 253.472 129.807 253.608 129.493C254.344 127.799 253.925 123.819 253.922 121.92Z" fill="#B3B2B3"/>
<path d="M293.955 137.982L309.986 137.935C312.412 137.927 315.571 137.829 317.936 137.996L317.968 145.997C317.925 148.607 317.923 151.218 317.96 153.828C316.233 154.125 303.096 154.063 301.91 153.763C302.034 151.805 301.968 149.065 301.981 147.048L301.773 146.239C300.412 145.459 295.827 146.068 293.881 145.977C293.971 148.627 293.973 151.28 293.892 153.931C292.542 153.915 286.936 153.717 286.016 154.162L285.779 154.165C284.639 153.827 279.466 153.977 278.016 153.988C278.032 151.901 278.179 146.307 277.916 144.524V137.947C283.174 137.929 288.721 137.821 293.955 137.982Z" fill="#FEFECC"/>
<path d="M301.981 147.048L302.103 146.381C303.065 145.693 315.621 145.994 317.968 145.997C317.925 148.607 317.923 151.218 317.96 153.828C316.233 154.125 303.096 154.063 301.91 153.763C302.034 151.805 301.968 149.065 301.981 147.048Z" fill="#B3B2B3"/>
<path d="M323.36 137.914C324.773 137.835 324.768 137.596 325.749 138.193C326.69 140.168 326.091 143.404 326.136 145.996L333.983 145.993L334.017 153.994C334.036 155.418 334.194 160.781 333.812 161.674L333.532 161.921L333.482 162.112L326.073 162.093C325.978 164.836 325.925 167.188 325.994 169.938L317.954 169.99C317.944 167.318 317.952 164.646 317.981 161.974C317.954 159.302 317.991 156.63 318.094 153.959L317.96 153.828C317.923 151.218 317.925 148.607 317.968 145.997L317.936 137.996L318.411 137.961L323.36 137.914Z" fill="#DADADA"/>
<path d="M318.411 137.961L323.36 137.914C324.169 137.974 325.134 137.934 325.751 138.388C325.904 140.213 326.205 152.826 325.87 153.98L318.094 153.959L317.96 153.828C317.923 151.218 317.925 148.607 317.968 145.997L317.936 137.996L318.411 137.961Z" fill="#FEFFFE"/>
<path d="M326.055 153.974C328.71 153.919 331.365 153.925 334.017 153.994C334.036 155.418 334.194 160.781 333.812 161.674L333.532 161.921C331.861 161.74 327.882 161.846 326.041 161.842L326.055 153.974Z" fill="#FEFFFE"/>
<path d="M318.094 153.959L325.87 153.98C325.738 156.65 325.778 159.235 325.799 161.905L317.981 161.974C317.954 159.302 317.991 156.63 318.094 153.959Z" fill="#B3B2B3"/>
<path d="M261.963 122.17L269.95 122.16L270 145.875C268.305 146.061 263.912 145.974 262.004 145.98L262.008 129.936L261.963 122.17Z" fill="#DADADA"/>
<path d="M293.926 129.872C299.076 130.068 304.818 129.955 310.013 129.963L309.986 137.935L293.955 137.982L293.926 129.872Z" fill="#FEFFFE"/>
<path d="M310.013 129.963C312.663 129.954 315.405 129.981 318.047 129.933C318.01 131.248 317.577 137.303 318.411 137.961L317.936 137.996C315.571 137.829 312.412 137.927 309.986 137.935L310.013 129.963Z" fill="#DADADA"/>
<path d="M277.915 144.524C278.178 146.307 278.031 151.901 278.015 153.988C279.465 153.977 284.638 153.827 285.778 154.165L286.015 154.162C286.935 153.717 292.541 153.915 293.891 153.931C293.972 151.28 293.97 148.627 293.88 145.977C295.826 146.068 300.411 145.459 301.772 146.239L301.98 147.048C301.967 149.065 302.033 151.805 301.909 153.763L301.846 153.952C301.914 156.748 301.933 159.546 301.907 162.343L301.933 169.843C299.644 170.211 295.573 169.716 293.909 170.235L293.944 177.932C291.465 177.949 288.565 177.905 286.12 178.005L285.925 178.221C286.313 181.802 286.084 189.975 286.076 194.01L293.991 194.014L301.93 194.015L309.993 193.985C309.978 196.358 310.051 199.679 309.851 201.973L277.983 201.937L277.997 193.936C272.831 194.083 267.178 193.995 261.977 194.004C261.948 191.363 261.987 188.652 261.997 186.006C265.741 185.768 274.049 185.88 277.852 186.051L277.865 177.961L269.941 177.988C269.899 169.993 269.91 161.998 269.973 154.003L277.854 153.979C277.841 150.902 277.762 147.572 277.915 144.524Z" fill="#B3B2B3"/>
<path d="M277.915 144.524C278.178 146.307 278.031 151.901 278.015 153.988C277.612 165.101 278.197 176.256 278.018 187.372C277.984 189.586 277.944 191.809 277.944 194.022L285.828 194.017C285.807 191.561 285.575 180.038 285.925 178.221C286.313 181.802 286.084 189.975 286.076 194.01L293.991 194.014L301.93 194.015L309.993 193.985C309.978 196.358 310.051 199.679 309.851 201.973L277.983 201.937L277.997 193.936C272.831 194.083 267.178 193.995 261.977 194.004C261.948 191.363 261.987 188.652 261.997 186.006C265.741 185.768 274.049 185.88 277.852 186.051L277.865 177.961L269.941 177.988C269.899 169.993 269.91 161.998 269.973 154.003L277.854 153.979C277.841 150.902 277.762 147.572 277.915 144.524Z" fill="#DADADA"/>
<path d="M293.881 145.977C295.827 146.068 300.412 145.459 301.773 146.239L301.981 147.048C301.968 149.065 302.034 151.805 301.91 153.763L301.847 153.952C301.915 156.748 301.934 159.546 301.908 162.343L301.934 169.843C300.022 169.565 296.02 169.707 293.947 169.732L293.987 161.994C291.326 162.025 288.666 162.014 286.008 161.961C285.984 159.361 285.987 156.762 286.016 154.162C286.936 153.717 292.542 153.915 293.892 153.931C293.973 151.28 293.971 148.627 293.881 145.977Z" fill="#FEFFFE"/>
<path d="M294.01 153.992L301.847 153.952C301.915 156.748 301.934 159.546 301.908 162.343L301.934 169.843C300.022 169.565 296.02 169.707 293.947 169.732L293.987 161.994L294.01 153.992Z" fill="#B3B2B3"/>
<path d="M285.779 154.165L286.016 154.162C285.987 156.762 285.984 159.361 286.008 161.961C288.666 162.014 291.326 162.025 293.987 161.994L293.947 169.732C296.02 169.707 300.022 169.565 301.934 169.843C299.645 170.211 295.574 169.716 293.91 170.235L293.831 170.05C292.328 169.69 287.695 169.848 285.945 169.87C285.958 164.611 285.539 159.367 285.779 154.165Z" fill="#C1C0C0"/>
<path d="M285.987 170.103L293.831 170.05L293.91 170.235L293.945 177.932C291.466 177.949 288.566 177.905 286.121 178.005C285.879 176.842 285.982 171.573 285.987 170.103Z" fill="#A1A0A2"/>
<path d="M301.908 162.343C302.907 161.565 308.518 161.92 310.092 162.002C310.049 164.68 310.018 167.357 310.002 170.035C307.284 169.96 304.839 169.992 302.126 170.053C302.073 172.672 301.981 175.403 301.984 178.012C299.371 177.945 296.758 177.952 294.145 178.034C294.021 183.36 293.968 188.687 293.992 194.014L286.077 194.01C286.085 189.975 286.314 181.802 285.926 178.221L286.121 178.005C288.566 177.905 291.466 177.949 293.945 177.932L293.91 170.235C295.574 169.716 299.645 170.211 301.934 169.843L301.908 162.343Z" fill="#FEFFFE"/>
<path d="M301.855 185.925C304.476 185.957 307.492 185.885 310.071 185.993L309.994 193.985L301.931 194.015C301.929 191.498 302.01 188.397 301.855 185.925Z" fill="#FEFFFE"/>
<path d="M326.083 186.127C328.275 186.123 331.918 186.217 333.996 186.076C333.999 187.442 334.067 193.081 333.835 193.994C331.262 193.985 328.686 194.007 326.112 194.06L325.912 194.058C326.086 191.66 325.709 188.413 326.083 186.127Z" fill="#CCCC99"/>
<path d="M317.969 194.014C320.616 193.982 323.266 193.996 325.913 194.058C325.852 196.702 325.837 199.346 325.866 201.989L317.971 201.993L317.969 194.014Z" fill="#B3B2B3"/>
<path d="M246.105 129.969C247.705 129.952 250.633 129.836 252.129 129.975C255.36 130.07 258.747 129.92 262.007 129.936L262.003 145.98C263.911 145.974 268.304 146.061 269.999 145.875L269.973 154.003C269.91 161.998 269.899 169.993 269.941 177.988L277.865 177.961L277.852 186.051C274.049 185.88 265.741 185.768 261.997 186.006C261.956 180.656 261.952 175.307 261.985 169.957C259.438 170.035 256.638 169.993 254.07 170L253.919 178.008C249.06 177.822 242.957 177.979 238.008 177.976C235.307 177.987 232.606 177.983 229.905 177.966L229.939 169.96C227.344 170.02 224.748 170.026 222.153 169.978L222.019 169.749C221.67 166.103 221.93 157.979 221.938 154.046C221.922 151.444 221.926 148.841 221.949 146.239L221.849 146.008C223.439 145.721 228.148 145.824 229.965 145.828C230.131 144.431 230.055 139.521 230.061 137.91C232.696 137.919 235.332 137.912 237.967 137.888C240.352 137.867 243.631 137.745 245.94 137.956C245.897 135.364 245.95 132.603 245.96 129.997L246.105 129.969Z" fill="#FEFECC"/>
<path d="M237.968 137.888C240.353 137.867 243.632 137.745 245.941 137.956C243.277 138.099 240.623 138.079 237.955 138.085C237.937 140.726 237.935 143.367 237.949 146.008C240.54 145.991 243.398 146.023 245.969 145.935C245.965 148.113 245.859 151.909 246.005 153.977L245.937 154.179C244.765 153.772 239.345 153.903 237.99 154.114L237.732 154.015C235.393 153.825 232.328 154.182 230.115 153.799L229.879 153.811C228.309 154.121 223.925 153.958 221.939 154.046C221.923 151.444 221.927 148.841 221.95 146.239L221.85 146.008C223.44 145.721 228.149 145.824 229.966 145.828C230.132 144.431 230.056 139.521 230.062 137.91C232.697 137.919 235.333 137.912 237.968 137.888Z" fill="#DADADA"/>
<path d="M221.95 146.239C224.105 145.977 227.625 146.107 229.904 146.109L229.879 153.811C228.309 154.121 223.925 153.958 221.939 154.046C221.923 151.444 221.927 148.841 221.95 146.239Z" fill="#FEFFFE"/>
<path d="M230.166 146.018L238.002 146.004C238.009 147.402 238.206 153.099 237.732 154.015C235.393 153.825 232.328 154.182 230.115 153.799C230.135 151.233 230.189 148.575 230.166 146.018Z" fill="#C1C0C0"/>
<path d="M253.861 145.941C256.592 146.04 259.255 146.021 261.985 146.01L261.993 154.009C259.344 153.931 256.693 153.934 254.045 154.02C254.057 155.508 254.175 160.725 253.917 161.941C251.321 161.972 248.724 161.972 246.127 161.94L245.939 161.806L245.938 154.179L246.006 153.977C248.654 153.938 251.303 153.943 253.951 153.99C253.935 151.433 253.985 148.46 253.861 145.941Z" fill="#FEFFFE"/>
<path d="M237.99 154.114C239.345 153.903 244.765 153.772 245.937 154.179L245.939 161.806C244.359 162.029 239.774 161.923 238 161.92C238.012 159.318 238.009 156.716 237.99 154.114Z" fill="#C1C0C0"/>
<path d="M246.126 161.94C248.723 161.972 251.32 161.972 253.916 161.941L253.907 169.93L245.972 169.961C245.959 167.216 245.923 164.682 246.126 161.94Z" fill="#C1C0C0"/>
<path d="M206.087 121.936C206.384 123.965 206.273 127.808 206.273 129.984L213.997 129.975L221.848 129.989L222.014 129.928C224.677 129.963 227.341 129.978 230.004 129.974L237.938 129.972C237.952 132.513 238.028 135.372 237.968 137.888C235.333 137.912 232.697 137.919 230.062 137.91C230.056 139.521 230.132 144.431 229.966 145.828C228.149 145.824 223.44 145.721 221.85 146.008C219.491 146.152 216.416 146.064 214.004 146.062C214.022 151.215 214.151 156.756 214.055 161.88L213.807 161.948C212.009 161.943 207.509 161.828 205.884 161.98C203.976 161.982 199.541 162.149 197.919 161.849L197.66 161.882C195.098 161.831 192.534 161.833 189.972 161.889C187.51 162.02 184.454 161.933 181.949 161.929L181.965 153.988C179.327 153.951 176.626 153.977 173.983 153.973L172.799 153.928C168.345 154.147 162.491 153.967 157.931 153.962L150.246 154.005C150.213 152.605 150.134 151.627 149.988 150.246C149.917 149.037 149.966 147.22 149.96 145.963C151.312 145.613 156.223 145.78 157.922 145.805C157.904 143.79 157.759 139.838 158.088 138.048C159.706 137.491 178.565 137.86 181.935 137.845C181.918 135.851 181.787 131.759 182.079 129.928C189.771 129.739 198.201 129.912 205.954 129.911C205.918 128.102 205.767 123.601 206.087 121.936Z" fill="#676767"/>
<path d="M230.004 129.974L237.938 129.972C237.952 132.513 238.028 135.372 237.968 137.888C235.333 137.912 232.697 137.919 230.062 137.91C230.056 139.521 230.132 144.431 229.966 145.828C228.149 145.824 223.44 145.721 221.85 146.008C219.491 146.152 216.416 146.064 214.004 146.062C214.022 151.215 214.151 156.756 214.055 161.88L213.807 161.948C212.009 161.943 207.509 161.828 205.884 161.98C203.976 161.982 199.541 162.149 197.919 161.849L197.66 161.882C195.098 161.831 192.534 161.833 189.972 161.889C187.51 162.02 184.454 161.933 181.949 161.929L181.965 153.988C184.495 153.904 187.433 153.967 189.993 153.961C189.951 151.31 189.963 148.659 190.027 146.009C194.166 146.041 198.223 145.698 202.32 145.698C208.862 145.698 215.377 145.791 221.924 145.755C221.933 143.388 222.333 131.456 221.848 129.989L222.014 129.928C224.677 129.963 227.341 129.978 230.004 129.974Z" fill="#8A8989"/>
<path d="M197.943 146.016C200.659 145.979 203.375 145.972 206.091 145.996C208.586 146.01 211.548 145.96 214.005 146.062C214.023 151.215 214.152 156.756 214.056 161.88L213.808 161.948C212.01 161.943 207.51 161.828 205.885 161.98C203.977 161.982 199.542 162.149 197.92 161.849L197.946 153.913L197.943 146.016Z" fill="#FEFECC"/>
<path d="M206.089 145.996C208.584 146.01 211.546 145.96 214.003 146.062C214.021 151.215 214.15 156.756 214.054 161.88L213.806 161.948C213.916 159.506 213.845 156.428 213.848 153.936L205.932 153.962C205.924 151.331 205.859 148.608 206.089 145.996Z" fill="#DADADA"/>
<path d="M230.005 129.974L237.939 129.972C237.953 132.513 238.029 135.372 237.969 137.888C235.334 137.912 232.698 137.919 230.063 137.91C230.057 139.521 230.133 144.431 229.967 145.828C229.581 143.087 229.951 133.204 230.005 129.974Z" fill="#B3B2B3"/>
<path d="M189.975 153.97C192.632 153.981 195.289 153.962 197.946 153.913L197.92 161.849L197.661 161.882C195.099 161.831 192.535 161.833 189.973 161.889L189.975 153.97Z" fill="#A1A0A2"/>
<path d="M157.922 145.805C157.904 143.79 157.759 139.838 158.088 138.048C158.385 140.028 158.27 143.878 158.267 146.009C160.726 146.005 163.533 145.934 165.963 146L173.661 145.986L173.94 146.111L173.983 153.973L172.799 153.928C168.345 154.147 162.491 153.967 157.931 153.962L150.246 154.005C150.213 152.605 150.134 151.627 149.988 150.246C149.917 149.037 149.966 147.22 149.96 145.963C151.312 145.613 156.223 145.78 157.922 145.805Z" fill="#A1A0A2"/>
<path d="M165.964 146L173.662 145.986L173.941 146.111L173.984 153.973L172.8 153.928C170.87 153.603 168.095 153.723 166.074 153.741C165.902 151.228 165.96 148.532 165.964 146Z" fill="#8A8989"/>
<path d="M149.96 145.963C152.235 146.25 155.542 146.15 157.91 146.147L157.931 153.962L150.246 154.005C150.213 152.605 150.134 151.627 149.988 150.246C149.917 149.037 149.966 147.22 149.96 145.963Z" fill="#DADADA"/>
<path d="M182.078 129.928C189.77 129.739 198.2 129.912 205.953 129.911C205.906 132.587 205.924 135.265 206.007 137.94C204.514 137.719 199.786 137.791 198.16 137.798L182.275 137.963C182.274 135.659 182.377 132.116 182.078 129.928Z" fill="#C1C0C0"/>
<path d="M158.088 138.048C160.121 138.373 164.587 138.261 166.831 138.258L181.916 138.23L181.962 145.786C180.399 145.781 174.91 145.657 173.661 145.986L165.963 146C163.533 145.934 160.726 146.005 158.267 146.009C158.27 143.878 158.385 140.028 158.088 138.048Z" fill="#C1C0C0"/>
<path d="M181.935 137.845C181.918 135.851 181.787 131.759 182.079 129.928C182.378 132.116 182.275 135.659 182.276 137.963L198.161 137.798C199.787 137.791 204.515 137.719 206.008 137.94C201.301 138.25 194.86 138.065 190.012 138.049C189.982 140.687 189.971 143.325 189.978 145.964C184.891 146.007 178.958 145.911 173.94 146.111L173.661 145.986C174.91 145.657 180.399 145.781 181.962 145.786L181.916 138.23L166.831 138.258C164.587 138.261 160.121 138.373 158.088 138.048C159.706 137.491 178.565 137.86 181.935 137.845Z" fill="#A1A0A2"/>
<path d="M206.087 121.936C206.384 123.965 206.273 127.808 206.273 129.984L213.997 129.975L213.989 137.948C212.042 137.957 207.779 138.083 206.008 137.94C205.925 135.265 205.907 132.587 205.954 129.911C205.918 128.102 205.767 123.601 206.087 121.936Z" fill="#A1A0A2"/>
<path d="M157.917 210.095C160.282 209.707 163.555 209.915 166.025 209.833C165.913 219.273 165.932 228.714 166.081 238.153C166.128 242.019 166.028 246.184 166.161 250.012C168.806 249.891 171.383 249.964 174 249.884L173.985 273.919C173.963 278.36 173.713 285.762 174.027 290.016L173.981 290.206C172.38 289.866 167.786 290.019 165.941 290.05C166.102 279.267 165.835 268.436 165.93 257.649C165.946 255.904 165.874 254.136 166.071 252.401L165.86 250.063C163.224 249.975 160.549 250.015 157.909 250.025C158.039 237.583 157.612 224.395 157.978 212.063L157.917 210.095Z" fill="#B3B2B3"/>
<path d="M166.072 252.401C166.525 253.216 166.334 271.572 166.406 274.027L173.986 273.919C173.964 278.36 173.714 285.762 174.028 290.016L173.982 290.206C172.381 289.866 167.787 290.019 165.942 290.05C166.103 279.267 165.836 268.436 165.931 257.649C165.947 255.904 165.875 254.136 166.072 252.401Z" fill="#A1A0A2"/>
<path d="M157.978 212.063C158.56 213.029 158.209 231.297 158.319 234.104C160.831 233.979 163.347 233.907 165.862 233.885C165.832 238.698 165.637 245.326 165.86 250.063C163.224 249.975 160.549 250.015 157.909 250.025C158.039 237.583 157.612 224.395 157.978 212.063Z" fill="#A1A0A2"/>
<path d="M149.988 150.246C150.134 151.627 150.213 152.605 150.246 154.005L157.931 153.962C157.925 156.575 157.863 159.4 157.964 161.994L157.945 193.895L157.918 210.095C155.059 209.99 152.795 209.947 149.931 210.044C150.084 194.339 149.527 177.632 149.999 162.101C149.799 159.43 149.902 152.929 149.988 150.246Z" fill="#B3B2B3"/>
<path d="M149.999 162.101C150.722 163.926 150.277 189.939 150.352 194.09C152.846 194.042 155.464 194.033 157.945 193.895L157.918 210.095C155.059 209.99 152.795 209.947 149.931 210.044C150.084 194.339 149.527 177.632 149.999 162.101Z" fill="#A1A0A2"/>
<path d="M301.902 249.958L309.775 249.945C309.788 252.325 309.902 255.776 309.746 258.062C309.641 260.712 309.678 263.358 309.688 266.008C307.4 266.01 304.254 265.918 302.034 266.066V281.949L302.021 290.029C302.008 291.448 302.066 294.628 301.894 295.907C301.541 293.486 301.794 285.319 301.754 282.605C301.596 271.796 301.997 260.76 301.902 249.958Z" fill="#B3B2B3"/>
<path d="M309.745 258.062C309.64 260.712 309.677 263.358 309.687 266.008C307.399 266.01 304.253 265.918 302.033 266.066L302.057 257.988C304.691 257.963 307.106 257.951 309.745 258.062Z" fill="#A1A0A2"/>
<path d="M173.999 294.631C174.571 296.596 174.288 303.684 174.342 306.126C176.871 305.976 179.404 305.889 181.939 305.868L181.923 321.97L174.225 321.996C174.19 320.826 174.097 319.852 173.98 318.697C173.82 316.432 173.939 312.352 173.937 309.968C173.896 304.858 173.917 299.744 173.999 294.631Z" fill="#A1A0A2"/>
<path d="M157.931 153.962C162.491 153.967 168.345 154.147 172.799 153.928L173.983 153.973L173.981 161.957C169.732 161.716 162.434 161.976 157.964 161.994C157.863 159.4 157.925 156.575 157.931 153.962Z" fill="#DADADA"/>
<path d="M238.009 177.976C242.958 177.979 249.061 177.822 253.92 178.008C253.795 180.26 253.887 183.572 253.889 185.905C248.587 185.959 243.284 185.972 237.982 185.942L238.009 177.976Z" fill="#DADADA"/>
<path d="M293.962 338.028L293.941 346.044L293.975 354.019C291.185 353.914 288.773 353.906 285.988 353.945L285.97 345.984L285.949 337.999L293.962 338.028Z" fill="#A1A0A2"/>
<path d="M285.971 345.984C288.669 345.963 291.244 345.931 293.942 346.044L293.976 354.019C291.186 353.914 288.774 353.906 285.989 353.945L285.971 345.984Z" fill="#8A8989"/>
<path d="M197.66 161.882L197.919 161.849C199.541 162.149 203.976 161.982 205.884 161.98C205.845 164.597 205.894 167.344 205.903 169.972C200.754 170.115 195.186 169.995 190.008 169.978L189.998 162.134C191.728 162.152 196.197 162.299 197.66 161.882Z" fill="#DADADA"/>
<path d="M174.027 290.016C176.645 289.821 179.502 290.087 181.98 289.797C181.925 295.153 181.911 300.512 181.939 305.868C179.404 305.889 176.871 305.976 174.342 306.126C174.288 303.684 174.571 296.596 173.999 294.631C173.901 293.56 173.976 291.363 173.981 290.206L174.027 290.016Z" fill="#B3B2B3"/>
<path d="M173.982 153.973C176.625 153.977 179.326 153.951 181.964 153.988L181.948 161.929C179.292 161.979 176.636 161.988 173.98 161.957L173.982 153.973Z" fill="#B3B2B3"/>
<path d="M293.932 297.946L301.969 298.006L301.94 306.008L293.938 305.973L293.932 297.946Z" fill="#B3B2B3"/>
<path d="M214.054 161.88L213.973 169.781C216.181 169.766 219.524 169.642 221.643 169.803C220.254 170.203 215.535 170.1 213.94 169.964C213.403 169.889 207.052 170.005 206.163 170.007L206.062 162.196C207.753 162.227 212.421 162.438 213.807 161.948L214.054 161.88Z" fill="#B3B2B3"/>
<path d="M317.902 217.994L317.965 218.175L317.952 226.012C315.283 225.987 312.618 225.976 309.949 225.979L309.957 217.999L317.902 217.994Z" fill="#B3B2B3"/>
<path d="M285.957 329.947C288.433 329.984 291.489 330.066 293.933 329.926L293.983 330.103L293.962 338.028L285.949 337.999L285.957 329.947Z" fill="#B3B2B3"/>
<path d="M222.02 169.749L222.154 169.978C221.849 171.514 221.945 176.188 221.947 177.962L213.979 177.979L213.941 169.964C215.536 170.1 220.254 170.203 221.643 169.803L222.02 169.749Z" fill="#DADADA"/>
<path d="M189.986 217.982C192.598 217.977 195.373 218.014 197.971 217.953L197.963 225.995L205.957 225.908C205.966 228.32 206.071 231.781 205.923 234.097C208.37 233.8 211.481 233.877 213.993 233.867C214.028 237.252 214.35 247.22 214.003 249.953C212.247 249.954 207.445 249.843 205.922 250.004C205.928 255.308 205.991 260.73 205.934 266.026C205.922 268.212 206.001 271.361 205.865 273.465C206.005 276.242 205.96 279.074 205.955 281.859C203.364 281.843 200.738 281.801 198.152 281.899L197.98 281.851L197.972 274.204C196.869 273.716 191.485 273.956 189.97 273.985C189.928 271.329 189.937 268.671 190 266.015L189.983 258.046L189.975 250.1C189.987 247.401 190.008 244.777 189.904 242.077L173.972 241.946L173.951 233.913C176.587 233.968 179.293 233.957 181.935 233.976L181.929 225.936C183.584 225.972 188.585 226.161 189.968 225.769L189.986 217.982Z" fill="#229A32"/>
<path d="M197.963 225.995L205.957 225.908C205.966 228.32 206.071 231.781 205.923 234.097C208.37 233.8 211.481 233.877 213.993 233.867C214.028 237.252 214.35 247.22 214.003 249.953C212.247 249.954 207.445 249.843 205.922 250.004C205.94 247.466 206.034 244.484 205.858 241.986L205.912 241.856L205.956 233.94L197.979 233.936C197.888 231.507 197.962 228.469 197.963 225.995Z" fill="#99CC98"/>
<path d="M205.911 241.856C207.495 242.124 212.141 241.989 213.912 241.972C213.901 244.211 213.776 247.824 214.002 249.953C212.246 249.954 207.444 249.843 205.921 250.004C205.939 247.466 206.033 244.484 205.857 241.986L205.911 241.856Z" fill="#619966"/>
<path d="M189.968 225.769L190.017 225.969C190.007 228.383 190.078 231.577 189.962 233.93C187.351 233.952 184.548 234.029 181.954 233.997L181.928 241.789C184.47 241.794 187.352 241.734 189.865 241.858L189.904 242.077L173.972 241.946L173.951 233.913C176.587 233.968 179.293 233.957 181.935 233.976L181.929 225.936C183.584 225.972 188.585 226.161 189.968 225.769Z" fill="#7BCC65"/>
<path d="M189.999 266.015C192.475 266.002 195.533 265.904 197.96 266.078L197.971 274.204C196.868 273.716 191.484 273.956 189.969 273.985C189.927 271.329 189.936 268.671 189.999 266.015Z" fill="#99CC98"/>
<path d="M189.982 258.046C191.996 257.985 196.055 257.777 197.919 258.025L197.96 266.078C195.533 265.904 192.475 266.002 189.999 266.015L189.982 258.046Z" fill="#619966"/>
<path d="M189.987 217.982C192.599 217.977 195.374 218.014 197.972 217.953L197.964 225.995C196.137 225.838 192.019 225.96 190.018 225.969L189.969 225.769L189.987 217.982Z" fill="#619966"/>
<path d="M254.026 289.974C256.799 289.961 259.169 289.823 261.984 289.984L269.987 289.929V297.935C269.972 300.483 270.022 303.413 269.929 305.928L269.985 306.066C269.958 308.703 269.948 311.342 269.95 313.98C267.896 313.982 263.928 313.887 261.999 314.04C261.865 317.371 262.321 327.716 261.921 329.955L253.952 329.916C251.927 330.058 248.102 329.947 245.95 329.947L245.969 321.967L237.995 321.936C238.005 319.897 238.136 315.884 237.886 314.014L229.961 313.951L229.949 305.931C232.618 305.976 235.287 305.981 237.955 305.947L237.991 297.904L237.987 289.982C240.627 289.976 243.335 290 245.969 289.958C245.963 292.413 245.874 295.575 245.984 297.97C248.43 297.967 251.526 298.041 253.93 297.938C253.943 295.282 253.975 292.627 254.026 289.974Z" fill="#229A32"/>
<path d="M261.821 314.003L261.998 314.04C261.864 317.371 262.32 327.716 261.92 329.955L253.951 329.916C251.926 330.058 248.101 329.947 245.949 329.947L245.968 321.967L254.023 321.98C253.947 319.38 253.97 316.601 253.951 313.985C256.544 314.027 259.221 313.998 261.821 314.003Z" fill="#619966"/>
<path d="M245.968 321.967L254.023 321.98C253.961 324.625 253.937 327.271 253.951 329.916C251.926 330.058 248.101 329.947 245.949 329.947L245.968 321.967Z" fill="#99CC98"/>
<path d="M254.023 321.98C256.501 321.954 259.287 321.862 261.74 321.957C261.748 324.077 261.652 327.993 261.92 329.955L253.951 329.916C253.937 327.271 253.961 324.625 254.023 321.98Z" fill="#229A32"/>
<path d="M254.026 289.974C256.799 289.961 259.169 289.823 261.984 289.984C261.97 292.556 262.01 295.383 261.93 297.933C259.323 297.993 256.716 298.012 254.108 297.988L253.93 297.938C253.943 295.282 253.975 292.627 254.026 289.974Z" fill="#CCCC99"/>
<path d="M269.929 305.928L269.985 306.066C269.958 308.703 269.948 311.342 269.95 313.98C267.896 313.982 263.928 313.887 261.999 314.04L261.822 314.003C262.127 312.856 261.995 307.371 261.987 305.907C264.466 305.957 267.496 306.066 269.929 305.928Z" fill="#619966"/>
<path d="M245.984 297.97C248.43 297.967 251.526 298.041 253.93 297.938L254.108 297.988C253.709 299.591 253.945 304.127 254.015 305.947C251.436 305.897 248.575 305.973 245.979 305.992L245.984 297.97Z" fill="#619966"/>
<path d="M237.887 314.014L238.041 313.971C240.685 313.971 243.33 313.993 245.973 314.037C245.957 316.173 245.827 319.968 245.97 321.967L237.996 321.936C238.006 319.897 238.137 315.884 237.887 314.014Z" fill="#619966"/>
<path d="M237.986 289.982C240.626 289.976 243.334 290 245.968 289.958C245.962 292.413 245.873 295.575 245.983 297.97L237.99 297.904L237.986 289.982Z" fill="#619966"/>
<path d="M261.983 217.976C264.578 217.975 267.389 218.023 269.962 217.949L269.957 226.062C272.617 225.962 275.279 225.908 277.942 225.902C277.942 231.204 277.869 236.695 278.004 241.981C275.322 241.928 272.638 241.899 269.954 241.893L269.962 250.029L269.954 257.943L261.974 257.924C257.417 258.153 250.672 257.949 245.957 257.946C245.919 255.288 245.946 252.63 246.038 249.973L237.97 249.937L237.943 241.893C237.834 239.74 237.96 236.316 237.972 234.071C240.616 234.216 243.307 234.169 245.958 234.159L245.918 233.923C246.052 231.667 245.982 228.292 245.998 225.954C247.928 225.959 252.145 225.863 253.902 226.015L254.04 225.965L262.01 225.964L261.983 217.976Z" fill="#229A32"/>
<path d="M245.918 233.923L253.962 233.939L253.938 241.976L245.945 242.004C245.951 243.676 245.871 248.554 246.038 249.973L237.97 249.937L237.943 241.893C237.834 239.74 237.96 236.316 237.972 234.071C240.616 234.216 243.307 234.169 245.958 234.159L245.918 233.923Z" fill="#7BCC65"/>
<path d="M237.972 234.071C240.616 234.216 243.307 234.169 245.958 234.159C245.95 236.758 245.912 239.426 245.939 242.018C243.584 241.986 240.218 242.04 237.943 241.893C237.834 239.74 237.96 236.316 237.972 234.071Z" fill="#B3B2B3"/>
<path d="M246.037 249.973C251.291 249.975 256.784 249.905 262.017 250L261.973 257.924C257.416 258.153 250.671 257.949 245.956 257.946C245.918 255.288 245.945 252.63 246.037 249.973Z" fill="#99CC98"/>
<path d="M269.956 226.062C272.616 225.962 275.279 225.908 277.942 225.902C277.942 231.204 277.868 236.695 278.003 241.981C275.321 241.928 272.637 241.899 269.953 241.893V233.885L269.956 226.062Z" fill="#99CC98"/>
<path d="M261.982 217.976C264.577 217.975 267.388 218.023 269.961 217.949L269.956 226.062L269.953 233.885C267.295 233.897 264.64 233.927 261.984 233.976C262.036 231.305 262.044 228.634 262.009 225.964L261.982 217.976Z" fill="#619966"/>
<path d="M262.017 250C264.643 250 267.343 249.966 269.961 250.029L269.953 257.943L261.973 257.924L262.017 250Z" fill="#619966"/>
<path d="M214.029 209.915C224.453 209.838 235.709 210.167 245.972 209.918L245.946 218.023L253.95 217.963C253.927 219.541 253.772 224.668 254.04 225.965L253.902 226.015C252.145 225.863 247.928 225.959 245.998 225.954C245.982 228.292 246.052 231.667 245.918 233.923L245.958 234.159C243.307 234.169 240.616 234.216 237.972 234.071C236.819 233.841 231.403 233.946 229.966 233.952C229.863 231.309 230.086 228.605 229.937 225.99L221.954 225.946C221.949 223.291 221.971 220.636 222.02 217.981C219.515 218.334 208.937 217.99 205.944 217.948C205.922 215.262 205.93 212.576 205.967 209.891C208.594 209.966 211.388 209.917 214.029 209.915Z" fill="#229A32"/>
<path d="M214.027 209.915C224.451 209.838 235.707 210.167 245.97 209.918L245.944 218.023L253.948 217.963C253.925 219.541 253.77 224.668 254.038 225.965L253.9 226.015C252.143 225.863 247.926 225.959 245.996 225.954C245.916 223.461 245.991 220.479 245.999 217.949C244.68 217.798 239.652 217.891 238.074 217.89C238.087 215.788 238.061 213.685 237.996 211.583L237.959 210.56C236.922 209.698 231.683 210.097 229.905 210.136C224.613 210.18 219.321 210.178 214.029 210.131L214.027 209.915Z" fill="#619966"/>
<path d="M230.076 225.928L237.854 225.985L237.989 225.936L245.997 225.954C245.981 228.292 246.051 231.667 245.917 233.923L245.957 234.159C243.306 234.169 240.615 234.216 237.971 234.071C236.818 233.841 231.402 233.946 229.965 233.952C229.862 231.309 230.085 228.605 229.936 225.99L230.076 225.928Z" fill="#99CC98"/>
<path d="M237.989 225.936L245.997 225.954C245.981 228.292 246.051 231.667 245.917 233.923C243.555 233.788 240.338 233.883 237.908 233.889C237.972 232.233 238.104 227.425 237.854 225.985L237.989 225.936Z" fill="#7BCC65"/>
<path d="M205.967 209.891C208.594 209.966 211.388 209.917 214.029 209.915L214.031 210.131C213.96 212.701 213.936 215.272 213.96 217.842C215.634 217.855 220.589 217.796 222.02 217.981C219.515 218.334 208.937 217.99 205.944 217.948C205.922 215.262 205.93 212.576 205.967 209.891Z" fill="#7BCC65"/>
<path d="M222.02 217.981C224.67 217.959 227.303 217.897 229.947 218.067C229.942 219.622 229.836 224.688 230.077 225.928L229.937 225.99L221.954 225.946C221.949 223.291 221.971 220.636 222.02 217.981Z" fill="#7BCC65"/>
<path d="M269.953 265.984L277.969 265.947C278.543 278.958 277.716 292.967 277.961 305.944C276.576 305.936 271.068 305.831 269.985 306.066L269.929 305.928C270.022 303.413 269.972 300.483 269.987 297.935V289.929L261.984 289.984L261.981 282.044C261.857 279.713 261.964 276.321 261.97 273.911L269.979 273.985L269.953 265.984Z" fill="#619966"/>
<path d="M269.953 265.984L277.969 265.947C277.586 269.924 277.834 277.587 277.855 281.941L269.966 281.954C267.406 281.959 264.511 281.899 261.981 282.044C261.857 279.713 261.964 276.321 261.97 273.911L269.979 273.985L269.953 265.984Z" fill="#9A9A67"/>
<path d="M261.97 273.911L269.979 273.985L269.966 281.954C267.406 281.959 264.511 281.899 261.981 282.044C261.857 279.713 261.964 276.321 261.97 273.911Z" fill="#7BCC65"/>
<path d="M277.97 265.947C278.544 278.958 277.717 292.967 277.962 305.944C276.577 305.936 271.069 305.831 269.986 306.066L269.93 305.928C270.023 303.413 269.973 300.483 269.988 297.935C271.57 297.801 276.082 297.964 277.867 297.983L277.856 281.941C277.835 277.587 277.587 269.924 277.97 265.947Z" fill="#A1A0A2"/>
<path d="M205.865 273.465C206.817 274.457 212.282 273.964 213.988 273.94C213.966 279.309 213.989 284.676 214.055 290.045L221.965 289.953L221.972 297.956C222.049 300.504 221.987 303.407 221.99 305.981C219.356 305.923 216.609 305.952 213.965 305.947C213.939 303.294 213.949 300.641 213.993 297.988L205.954 297.964C205.919 295.261 205.84 292.685 206.072 289.987H197.96C197.946 287.273 197.952 284.562 197.98 281.851L198.152 281.899C200.738 281.801 203.364 281.843 205.955 281.859C205.96 279.074 206.005 276.242 205.865 273.465Z" fill="#99CC98"/>
<path d="M205.865 273.465C206.817 274.457 212.282 273.964 213.988 273.94C213.966 279.309 213.989 284.676 214.055 290.045C211.722 290.098 208.186 290.172 205.946 289.953C205.737 287.959 205.86 284.196 205.867 282.07C204.197 282.052 199.514 282.202 198.152 281.899C200.738 281.801 203.364 281.843 205.955 281.859C205.96 279.074 206.005 276.242 205.865 273.465Z" fill="#619966"/>
<path d="M206.122 281.922L213.768 281.899L213.775 289.871C211.399 289.844 208.256 289.731 205.945 289.953C206.181 287.366 206.119 284.538 206.122 281.922Z" fill="#229A32"/>
<path d="M214.055 290.045L221.965 289.953L221.972 297.956L213.982 297.964C213.981 295.324 214.005 292.685 214.055 290.045Z" fill="#619966"/>
<path d="M254.173 178.034C256.625 177.939 259.247 178.006 261.713 178.026L261.715 185.901C259.198 185.953 256.68 185.973 254.163 185.959C254.132 183.342 254.166 180.657 254.173 178.034Z" fill="#B3B2B3"/>
<path d="M206.088 121.936L234.443 121.859C235.974 121.854 245.099 121.739 246.014 122.003C246.002 123.642 245.878 128.56 246.107 129.969L245.962 129.997C245.952 132.603 245.899 135.364 245.942 137.956C243.633 137.745 240.354 137.867 237.969 137.888C238.029 135.372 237.953 132.513 237.939 129.972L230.005 129.974C227.342 129.978 224.678 129.963 222.015 129.928L221.849 129.989L213.998 129.975L206.274 129.984C206.274 127.808 206.385 123.965 206.088 121.936Z" fill="#DADADA"/>
<path d="M206.088 121.936L234.443 121.859C235.974 121.854 245.099 121.739 246.014 122.003C244.021 122.326 239.587 122.21 237.384 122.208L221.961 122.188C221.962 123.789 221.868 128.516 222.015 129.928L221.849 129.989L213.998 129.975L206.274 129.984C206.274 127.808 206.385 123.965 206.088 121.936Z" fill="#C1C0C0"/>
<path d="M237.938 129.972C240.329 129.973 243.649 129.877 245.96 129.997C245.95 132.603 245.897 135.364 245.94 137.956C243.631 137.745 240.352 137.867 237.967 137.888C238.027 135.372 237.952 132.513 237.938 129.972Z" fill="#A1A0A2"/>
</svg>
