<svg width="540" height="500" viewBox="0 0 540 500" fill="none" xmlns="http://www.w3.org/2000/svg">
<path d="M209.991 122.056C213.676 121.742 220.307 121.963 224.245 121.965L251.828 121.975C277.553 121.97 304.471 121.574 330.089 122.154C330.042 124.771 330.082 127.388 330.203 130.002C332.829 130.075 335.455 130.119 338.081 130.133C338.047 132.74 338.068 135.347 338.147 137.953L346.086 138.165C346.039 140.798 346.094 143.304 346.155 145.934C348.786 146.051 351.42 146.136 354.052 146.188L354.062 167.613C354.06 170.332 353.899 175.489 354.089 178.047L362.128 178.021C362.081 180.696 362.081 183.371 362.133 186.046C367.207 186.037 373.181 186.16 378.186 185.978C378.246 188.653 378.286 191.328 378.31 194.003L386.051 194.159L386.03 226.128C383.438 226.199 380.844 226.216 378.252 226.18C377.927 229.87 378.072 233.917 378.043 237.645C377.993 244.462 378.123 251.33 378.036 258.144C375.517 258.177 372.717 258.264 370.22 258.202C369.648 267.489 370.03 280.538 370.028 290.137C367.62 290.168 364.583 290.295 362.22 290.197C361.596 299.013 362.025 312.893 362.031 322.128C359.428 322.175 356.86 322.241 354.258 322.178C354.031 324.625 354.065 327.007 354.047 329.462C353.983 337.679 354.136 345.915 354.036 354.132C351.61 354.174 348.62 354.306 346.237 354.222C346.068 356.862 345.994 359.504 346.02 362.146L330.253 362.225C330.06 364.96 330.045 367.402 330.029 370.134C326.722 370.15 317.141 370.437 314.256 370.118C314.061 372.961 314.024 375.3 314.021 378.141C306.037 378.191 298.003 378.067 290.04 378.162C290.017 375.786 290.069 372.671 289.927 370.358C285.284 369.934 278.826 370.116 274.041 370.142C274.004 367.605 274.014 364.849 273.917 362.331C269.255 362.001 262.821 362.091 258.05 362.146C258.033 359.572 258.058 356.885 257.918 354.325C253.698 354.04 246.335 353.995 242.043 354.158C242.02 351.759 242.079 348.697 241.923 346.353C237.286 345.931 230.826 346.115 226.043 346.139C226.005 343.605 226.014 340.849 225.918 338.33C221.267 338.001 214.812 338.09 210.051 338.146C210.031 335.59 210.059 332.861 209.911 330.324C205.357 330.016 198.649 330.052 194.011 330.176C194.018 327.692 194.085 324.928 193.937 322.471C191.382 322.347 188.388 322.149 185.874 322.436C186.214 312.181 185.42 300.226 186.021 290.282C183.19 290.155 180.817 290.161 177.986 290.211L177.997 258.279C175.334 258.124 172.663 258.105 169.998 258.224C170.125 247.665 170.017 236.841 170.014 226.263C167.279 226.135 164.736 226.162 162.003 226.186C162.189 215.733 162.028 204.75 162.031 194.27C159.218 194.164 156.798 194.163 153.988 194.211C154.033 181.038 154.182 167.185 153.949 154.052C156.642 154.055 159.335 154.017 162.027 153.94C162.043 151.313 162.028 148.685 161.98 146.059C167.318 146.09 172.656 146.06 177.993 145.968L177.966 138.025C185.977 138.06 193.988 138.044 201.999 137.976L201.951 130.045C204.65 130.054 207.35 130.017 210.048 129.933C210.045 127.307 210.025 124.682 209.991 122.056Z" fill="#C1C0C0"/>
<path d="M209.991 122.056C213.676 121.742 220.307 121.963 224.245 121.965L251.828 121.975C277.553 121.97 304.471 121.574 330.089 122.154C330.042 124.771 330.082 127.388 330.203 130.002C332.829 130.075 335.455 130.119 338.081 130.133C338.047 132.74 338.068 135.347 338.147 137.953L346.086 138.165C346.039 140.798 346.094 143.304 346.155 145.934C348.786 146.051 351.42 146.136 354.052 146.188L354.062 167.613C354.06 170.332 353.899 175.489 354.089 178.047C354.052 180.718 354.036 183.389 354.044 186.061L354.052 194.126C351.555 194.125 348.462 194.206 346.013 194.106C343.352 194.047 340.692 194.056 338.031 194.132C337.981 196.785 337.978 199.439 338.023 202.092C338.034 204.41 338.15 207.773 337.952 210.008L337.963 210.181C335.679 210.436 332.389 210.331 330.018 210.324L329.992 217.929C327.632 217.932 324.362 217.837 322.074 217.951C319.801 217.976 317.518 217.969 315.253 218.145L314.021 218.114L314.027 226.102L314.037 234.08C310.525 233.678 300.115 234.057 296.31 234.088C288.798 234.147 281.466 233.99 273.959 233.921L273.985 226.104L258.006 226.131L258.045 218.128C252.701 218.164 247.356 218.166 242.012 218.135C241.991 215.455 241.994 212.774 242.021 210.094C236.676 210.168 231.33 210.167 225.985 210.09L225.988 202.105C220.663 202.15 215.339 202.15 210.014 202.103C209.987 199.443 209.983 196.783 210.003 194.123C204.674 194.165 199.345 194.167 194.016 194.131C193.989 191.483 193.989 188.834 194.018 186.186C196.225 186.195 198.452 186.251 200.646 186.038C198.859 185.854 195.868 185.948 194.061 186.016C191.534 186.322 180.858 186.148 177.986 186.088L177.988 178.108L162.143 178.129C162.055 171.737 162.191 165.344 162.127 158.952C162.11 157.309 162.149 155.665 161.97 154.029C161.652 156.046 161.815 163.391 161.82 165.867L162.024 194.152L170.046 194.104L170.03 226.131L178.01 226.085L177.989 258.175C180.68 258.092 183.372 258.054 186.064 258.061C185.997 268.76 185.984 279.459 186.024 290.158C187.383 290.163 193.177 290.314 194.094 289.923L194.209 290.1C193.83 291.685 193.972 296.877 193.977 298.766L194.031 314.137L210.068 314.111L210.005 322.115L226.017 322.083C226.015 324.652 225.948 327.552 226.017 330.092C221.511 329.841 214.713 330.018 210.087 330.008L210.088 322.072C202.171 321.967 194.05 322.075 186.115 322.086L186.12 302.03C186.122 298.454 186.246 293.768 186.021 290.282C183.19 290.155 180.817 290.161 177.986 290.211L177.997 258.279C175.334 258.124 172.663 258.105 169.998 258.224C170.125 247.665 170.017 236.841 170.014 226.263C167.279 226.135 164.736 226.162 162.003 226.186C162.189 215.733 162.028 204.75 162.031 194.27C159.218 194.164 156.798 194.163 153.988 194.211C154.033 181.038 154.182 167.185 153.949 154.052C156.642 154.055 159.335 154.017 162.027 153.94C162.043 151.313 162.028 148.685 161.98 146.059C167.318 146.09 172.656 146.06 177.993 145.968L177.966 138.025C185.977 138.06 193.988 138.044 201.999 137.976L201.951 130.045C204.65 130.054 207.35 130.017 210.048 129.933C210.045 127.307 210.025 124.682 209.991 122.056Z" fill="#818080"/>
<path d="M201.968 154.103L246.101 154.062C255.336 154.063 264.854 153.931 274.051 154.091L274.054 175.142C274.022 178.856 273.835 182.496 273.906 186.214L282.054 186.228L282.08 194.087C289.782 194.074 298.248 193.886 305.89 194.125C305.895 201.981 306.043 210.318 305.84 218.136C305.803 219.746 305.557 224.694 306.064 225.936L306.14 226.06C308.769 226.088 311.398 226.102 314.027 226.102L314.037 234.08C310.525 233.678 300.115 234.057 296.31 234.088C288.798 234.147 281.466 233.99 273.959 233.921L273.985 226.104L258.006 226.131L258.045 218.128C252.701 218.164 247.356 218.166 242.012 218.135C241.991 215.455 241.994 212.774 242.021 210.094C236.676 210.168 231.33 210.167 225.985 210.09L225.988 202.105C220.663 202.15 215.339 202.15 210.014 202.103C209.987 199.443 209.983 196.783 210.003 194.123C204.674 194.165 199.345 194.167 194.016 194.131C193.989 191.483 193.989 188.834 194.018 186.186C196.225 186.195 198.452 186.251 200.646 186.038L201.69 185.96C202.235 185.206 201.948 157.451 201.968 154.103Z" fill="#FEFEFE"/>
<path d="M258.016 202.115L290.019 202.096L290.006 210.046L277.769 210.085C271.193 209.982 264.625 210.276 258.043 210.058C257.964 207.52 258.017 204.678 258.016 202.115Z" fill="#0101FF"/>
<path d="M305.84 218.136C305.803 219.746 305.557 224.694 306.064 225.936L306.14 226.06C295.944 226.346 284.34 226.088 274.038 226.09C274.001 223.528 274.091 220.717 274.128 218.138L305.84 218.136Z" fill="#C1C0C0"/>
<path d="M242.021 210.094C247.361 210.046 252.702 210.034 258.043 210.058C258.048 212.627 258.124 215.591 258.045 218.128C252.701 218.164 247.356 218.166 242.012 218.135C241.991 215.455 241.994 212.774 242.021 210.094Z" fill="#FEFEFE"/>
<path d="M258.043 210.058C264.625 210.276 271.193 209.982 277.769 210.085C276.211 210.336 275.512 210.318 273.943 210.308L273.977 218.06C268.783 218.072 263.204 217.992 258.045 218.128C258.124 215.591 258.048 212.627 258.043 210.058Z" fill="#C1C0C0"/>
<path d="M242.112 202.113L258.016 202.115C258.017 204.678 257.964 207.52 258.043 210.058C252.702 210.034 247.361 210.046 242.021 210.094L242.112 202.113Z" fill="#C1C0C0"/>
<path d="M210.061 186.118C215.76 186.133 221.458 186.098 227.156 186.013C239.267 186.461 253.734 186.083 266.023 186.075L266.004 194.078L241.943 194.141C242.026 196.717 241.991 199.472 242.002 202.063L226.045 202.089C226.003 199.433 226.033 196.689 226.029 194.026C222.086 194.342 214.398 194.11 210.057 194.116L210.061 186.118Z" fill="#0101FF"/>
<path d="M210.061 186.118C215.76 186.133 221.458 186.098 227.156 186.013L226.269 186.314C225.586 187.764 226.004 192.261 225.983 194.13L241.943 194.141C242.026 196.717 241.991 199.472 242.002 202.063L226.045 202.089C226.003 199.433 226.033 196.689 226.029 194.026C222.086 194.342 214.398 194.11 210.057 194.116L210.061 186.118Z" fill="#C1C0C0"/>
<path d="M209.981 130.029C223.867 130.196 238.005 130.063 251.907 130.064L322.083 130.049L322.054 138.031C319.43 138.027 316.809 138.051 314.188 138.103L305.97 138.058L297.978 138.1L290.01 138.068C287.341 138.089 284.673 138.096 282.007 138.089L274.01 138.06L266.103 138.105C266.082 140.736 266.005 143.576 266.079 146.19C263.611 146.095 260.494 146.178 257.981 146.182L250.074 146.178C247.418 146.133 244.623 146.18 241.955 146.185L234.065 146.166L225.984 146.13C218.947 146.464 209.249 146.157 201.986 146.141L201.963 138.017L210.004 138.035L209.981 130.029Z" fill="#FEFEFE"/>
<path d="M234.012 138.089C236.679 138.1 239.346 138.094 242.013 138.07L249.992 138.101C250.24 140.494 250.011 143.694 250.073 146.178C247.417 146.133 244.622 146.18 241.954 146.185L234.064 146.166C234.086 143.617 234.188 140.594 234.012 138.089Z" fill="#FFFE00"/>
<path d="M234.012 138.089C236.679 138.1 239.346 138.094 242.013 138.07C242.013 140.775 241.993 143.48 241.954 146.185L234.064 146.166C234.086 143.617 234.188 140.594 234.012 138.089Z" fill="#C1C0C0"/>
<path d="M249.992 138.101C252.649 138.103 255.307 138.088 257.964 138.055L266.102 138.105C266.081 140.736 266.004 143.576 266.078 146.19C263.61 146.095 260.493 146.178 257.98 146.182L250.073 146.178C250.011 143.694 250.24 140.494 249.992 138.101Z" fill="#FFFE00"/>
<path d="M249.992 138.101C252.649 138.103 255.307 138.088 257.964 138.055L257.98 146.182L250.073 146.178C250.011 143.694 250.24 140.494 249.992 138.101Z" fill="#C1C0C0"/>
<path d="M225.996 138.044L234.011 138.089C234.187 140.594 234.085 143.617 234.063 146.166L225.982 146.13L225.996 138.044Z" fill="#FFFE00"/>
<path d="M297.977 138.1L305.969 138.058L314.187 138.103L314.195 138.247C313.953 140.601 314.053 143.775 314.063 146.2C314.04 148.832 314.037 151.464 314.058 154.096L314.063 162.199C314.034 164.839 314.034 167.479 314.063 170.118C314.071 172.678 314.148 175.592 314.003 178.121L306.035 178.109L306.021 170.141C303.366 170.105 300.64 170.135 297.979 170.134L297.987 162.099L294.014 162.085L289.99 162.03L282.017 162.031C281.938 159.396 281.932 156.759 281.998 154.123C281.911 151.644 281.988 148.629 281.99 146.118L273.988 146.165C271.388 146.225 268.686 146.188 266.078 146.19C266.004 143.576 266.081 140.736 266.102 138.105L274.009 138.06L282.006 138.089C284.672 138.096 287.34 138.089 290.009 138.068L297.977 138.1Z" fill="#FFFE00"/>
<path d="M297.978 138.1L305.97 138.058L314.188 138.103L314.196 138.247C313.954 140.601 314.054 143.775 314.064 146.2C314.041 148.832 314.038 151.464 314.059 154.096L314.064 162.199C311.742 162.047 308.448 162.11 306.046 162.092C303.423 162.048 300.759 162.064 298.131 162.056C297.978 159.573 298.041 156.622 298.03 154.103L290.107 154.068C290.02 151.471 290.049 148.718 290.033 146.108C289.996 143.428 289.989 140.748 290.01 138.068L297.978 138.1Z" fill="#FFFE00"/>
<path d="M305.969 138.058L314.187 138.103L314.195 138.247C313.953 140.601 314.053 143.775 314.063 146.2C311.564 146.091 308.579 146.133 306.043 146.112L305.969 138.058Z" fill="#FFFE00"/>
<path d="M297.977 138.1L305.969 138.058L306.043 146.112C303.427 146.033 300.73 146.09 298.109 146.111C298.032 143.648 298.23 140.435 297.977 138.1Z" fill="#C1C0C0"/>
<path d="M298.029 154.103L306.008 154.113L306.045 162.092C303.422 162.048 300.758 162.064 298.13 162.056C297.977 159.573 298.04 156.622 298.029 154.103Z" fill="#C1C0C0"/>
<path d="M306.043 146.112C308.579 146.133 311.564 146.091 314.063 146.2C314.04 148.832 314.037 151.464 314.058 154.096C311.408 154.069 308.758 154.075 306.108 154.112L306.043 146.112Z" fill="#C1C0C0"/>
<path d="M290.031 146.108L297.994 146.122C298.002 148.636 297.934 151.628 298.028 154.103L290.105 154.068C290.018 151.471 290.047 148.718 290.031 146.108Z" fill="#C1C0C0"/>
<path d="M266.102 138.105L274.009 138.06C273.949 140.761 273.943 143.463 273.988 146.165C271.388 146.225 268.686 146.188 266.078 146.19C266.004 143.576 266.081 140.736 266.102 138.105Z" fill="#C1C0C0"/>
<path d="M282.006 138.089C284.672 138.096 287.34 138.089 290.009 138.068C289.988 140.748 289.995 143.428 290.032 146.108C287.39 146.079 284.749 146.077 282.107 146.102C282.07 143.475 282.196 140.694 282.006 138.089Z" fill="#C1C0C0"/>
<path d="M306.045 162.092C308.447 162.11 311.741 162.047 314.063 162.199C314.034 164.839 314.034 167.479 314.063 170.118C311.435 170.073 308.758 170.079 306.124 170.063C306.035 167.492 306.064 164.682 306.045 162.092Z" fill="#C1C0C0"/>
<path d="M281.998 154.123L290.009 154.117L289.99 162.03L282.017 162.031C281.938 159.396 281.932 156.759 281.998 154.123Z" fill="black"/>
<path d="M209.99 122.056C213.675 121.742 220.306 121.963 224.244 121.965L251.827 121.975C277.552 121.97 304.47 121.574 330.088 122.154C330.041 124.771 330.081 127.388 330.202 130.002C332.828 130.075 335.454 130.119 338.08 130.133C338.046 132.74 338.067 135.347 338.146 137.953L346.085 138.165C346.038 140.798 346.093 143.304 346.154 145.934C348.785 146.051 351.419 146.136 354.051 146.188L354.061 167.613C354.059 170.332 353.898 175.489 354.088 178.047C354.051 180.718 354.035 183.389 354.043 186.061L354.051 194.126C351.554 194.125 348.461 194.206 346.012 194.106C345.932 191.506 345.988 188.824 346.006 186.217L346.043 178.087C345.985 175.461 345.975 172.835 346.012 170.209C343.596 170.078 340.501 170.129 338.03 170.11L330.007 170.029L329.986 162.204L329.996 154.037L329.983 146.196C329.938 143.488 329.936 140.781 329.975 138.074C330.054 135.536 330.007 132.716 330.02 130.157C327.336 130.123 324.652 130.118 321.97 130.142C321.962 127.484 321.975 124.826 322.004 122.169C296.341 121.857 270.016 122.143 244.306 122.149L222.367 122.159C218.567 122.162 213.666 122.314 209.99 122.056Z" fill="black"/>
<path d="M329.996 154.037L338.028 154.101C340.474 154.115 343.631 154.049 346.014 154.197C345.975 156.824 345.985 159.452 346.046 162.079L346.012 170.209C343.596 170.078 340.501 170.129 338.03 170.11L330.007 170.029L329.986 162.204L329.996 154.037Z" fill="#FFFE00"/>
<path d="M329.986 162.204C332.657 162.124 335.33 162.098 338.004 162.126L338.03 170.11L330.007 170.029L329.986 162.204Z" fill="#C1C0C0"/>
<path d="M338.029 154.101C340.475 154.115 343.632 154.049 346.015 154.197C345.976 156.824 345.986 159.452 346.047 162.079C343.4 162.048 340.75 162.055 338.1 162.102C338.042 159.462 338.047 156.746 338.029 154.101Z" fill="#C1C0C0"/>
<path d="M329.977 138.074L338.043 138.095L338.037 146.098L346.048 146.138L346.016 154.197C343.633 154.049 340.476 154.115 338.03 154.101L329.998 154.037L329.985 146.196C329.94 143.488 329.938 140.781 329.977 138.074Z" fill="#FFFE00"/>
<path d="M329.984 146.196L337.952 146.126L338.029 154.101L329.997 154.037L329.984 146.196Z" fill="#C1C0C0"/>
<path d="M297.98 170.134C300.641 170.135 303.367 170.105 306.022 170.141L306.036 178.109L314.004 178.121C314.236 191.251 314.035 204.942 314.022 218.114L314.028 226.102C311.399 226.102 308.77 226.088 306.141 226.06L306.065 225.936C306.207 212.669 306.189 199.402 306.007 186.135L274.179 185.973C274.126 183.363 274.174 180.682 274.187 178.066C281.501 177.959 290.914 178.513 297.991 178.038L297.98 170.134Z" fill="black"/>
<path d="M314.196 138.247L322.107 138.25C321.774 145.563 321.864 153.942 322.014 161.281C322.397 180.004 321.484 199.283 322.075 217.951C319.802 217.976 317.519 217.969 315.254 218.145L314.022 218.114C314.035 204.942 314.236 191.251 314.004 178.121C314.149 175.592 314.072 172.678 314.064 170.118C314.035 167.479 314.035 164.839 314.064 162.199L314.059 154.096C314.038 151.464 314.041 148.832 314.064 146.2C314.054 143.775 313.954 140.601 314.196 138.247Z" fill="#828100"/>
<path d="M177.969 146.01C183.223 146.045 188.862 145.965 194.064 146.106L194.045 154.122L178.098 154.136L178.02 162.107L170.064 162.114L170.071 170.088C172.688 170.085 175.445 170.038 178.049 170.104L178.042 178.083C183.263 178.077 188.874 177.979 194.064 178.094L194.062 186.016C191.535 186.322 180.859 186.148 177.987 186.088L177.989 178.108L162.144 178.129C162.056 171.737 162.192 165.344 162.128 158.952C162.111 157.309 162.15 155.665 161.971 154.029L177.968 154.07L177.969 146.01Z" fill="#FEFEFE"/>
<path d="M330.008 170.029L338.031 170.11C340.502 170.129 343.597 170.078 346.013 170.209C345.976 172.835 345.986 175.461 346.044 178.087L346.007 186.217C343.713 186.032 340.402 186.108 338.031 186.092L329.997 186.02L329.992 178.194L330.008 170.029Z" fill="#FFFE00"/>
<path d="M329.992 178.194C332.66 178.138 335.329 178.112 338 178.116L338.031 186.092L329.997 186.02L329.992 178.194Z" fill="#C1C0C0"/>
<path d="M338.031 170.11C340.502 170.129 343.597 170.078 346.013 170.209C345.976 172.835 345.986 175.461 346.044 178.087C343.394 178.078 340.744 178.084 338.097 178.104C338.044 175.46 338.05 172.76 338.031 170.11Z" fill="#C1C0C0"/>
<path d="M294.015 162.085L297.988 162.099L297.98 170.134L297.991 178.038C293.912 177.655 286.429 177.897 282.002 177.846C282.094 172.792 282.01 167.399 282.005 162.323C284.647 162.329 287.357 162.371 289.994 162.26C291.336 162.126 292.668 162.115 294.015 162.085Z" fill="#C1C0C0"/>
<path d="M294.013 162.085L297.986 162.099L297.978 170.134L290.018 170.138L289.992 162.26C291.334 162.126 292.666 162.115 294.013 162.085Z" fill="black"/>
<path d="M329.996 186.02L338.03 186.092C340.401 186.108 343.712 186.032 346.006 186.217C345.988 188.824 345.932 191.506 346.012 194.106C343.351 194.047 340.691 194.056 338.03 194.132C335.349 194.129 332.664 194.153 329.986 194.206L329.996 186.02Z" fill="#FFFE00"/>
<path d="M338.031 186.092C340.402 186.108 343.713 186.032 346.007 186.217C345.989 188.824 345.933 191.506 346.013 194.106C343.352 194.047 340.692 194.056 338.031 194.132C338.073 191.495 338.034 188.739 338.031 186.092Z" fill="#C1C0C0"/>
<path d="M331.095 202.01C333.405 202.065 335.715 202.092 338.024 202.092C338.035 204.41 338.151 207.773 337.953 210.008L330.017 210.031C329.956 208.259 329.64 203.634 330.307 202.241L331.095 202.01Z" fill="black"/>
<path d="M329.987 194.206C332.665 194.153 335.35 194.129 338.031 194.132C337.981 196.785 337.978 199.439 338.023 202.092C335.714 202.092 333.404 202.065 331.094 202.01L330.395 201.833C329.647 200.885 329.958 195.691 329.987 194.206Z" fill="#C1C0C0"/>
<path d="M354.09 178.047L362.129 178.021C362.082 180.696 362.082 183.371 362.134 186.046C367.208 186.037 373.182 186.16 378.187 185.978C378.247 188.653 378.287 191.328 378.311 194.003L386.052 194.159L386.031 226.128C383.439 226.199 380.845 226.216 378.253 226.18C377.928 229.87 378.073 233.917 378.044 237.645C377.994 244.462 378.124 251.331 378.037 258.145C375.518 258.178 372.718 258.264 370.221 258.202C369.649 267.489 370.031 280.538 370.029 290.137C367.621 290.168 364.584 290.295 362.221 290.197C361.597 299.013 362.026 312.893 362.032 322.128C359.429 322.175 356.861 322.241 354.259 322.178C354.032 324.625 354.066 327.007 354.048 329.462C353.984 337.679 354.137 345.915 354.037 354.132C351.611 354.174 348.621 354.306 346.238 354.222C346.069 356.862 345.995 359.504 346.021 362.146L330.254 362.225C330.061 364.96 330.046 367.402 330.03 370.134C326.723 370.15 317.142 370.437 314.257 370.118C314.062 372.961 314.025 375.3 314.022 378.141C306.038 378.191 298.004 378.067 290.041 378.162C290.018 375.786 290.07 372.671 289.928 370.358C285.285 369.934 278.827 370.116 274.042 370.142C274.005 367.605 274.015 364.849 273.918 362.331C269.256 362.001 262.822 362.091 258.051 362.146C258.034 359.572 258.059 356.886 257.919 354.326C253.699 354.041 246.336 353.995 242.044 354.158C242.021 351.759 242.08 348.697 241.924 346.353C237.287 345.931 230.827 346.115 226.044 346.139C226.006 343.605 226.015 340.849 225.919 338.33C221.268 338.001 214.813 338.09 210.052 338.146C210.032 335.59 210.06 332.861 209.912 330.324C205.358 330.016 198.65 330.052 194.012 330.176C194.019 327.692 194.086 324.928 193.938 322.471C191.383 322.347 188.389 322.149 185.875 322.436C186.215 312.181 185.421 300.227 186.022 290.283C186.247 293.769 186.123 298.454 186.121 302.03L186.116 322.086C194.051 322.075 202.172 321.967 210.089 322.072L210.088 330.008C214.714 330.018 221.512 329.841 226.018 330.092L226.058 338.004C231.404 338.122 236.739 337.994 242.061 338.089L242.065 346.029L258.088 346.073L258.087 354.008C262.741 354.019 269.48 353.845 274.018 354.095C279.357 354.122 284.694 354.111 290.033 354.061L289.999 362.147C292.623 362.099 295.381 362.136 298.017 362.133L298.044 234.264C300.327 234.282 312.707 234.506 314.038 234.08L314.028 226.102L314.022 218.114L315.254 218.145C317.519 217.969 319.802 217.976 322.075 217.951C324.363 217.837 327.633 217.932 329.993 217.929L330.019 210.324C332.39 210.331 335.68 210.436 337.964 210.181L337.953 210.008C338.151 207.773 338.035 204.41 338.024 202.092C337.979 199.439 337.982 196.785 338.032 194.132C340.693 194.056 343.353 194.047 346.014 194.106C348.463 194.206 351.556 194.125 354.053 194.126L354.045 186.061C354.037 183.389 354.053 180.718 354.09 178.047Z" fill="#818080"/>
<path d="M378.187 185.978C378.247 188.653 378.287 191.328 378.311 194.003L386.052 194.159L386.031 226.128C383.439 226.199 380.845 226.216 378.253 226.18C377.928 229.87 378.073 233.917 378.044 237.645C377.994 244.462 378.124 251.33 378.037 258.144C375.518 258.177 372.718 258.264 370.221 258.202C369.649 267.489 370.031 280.538 370.029 290.137C367.621 290.168 364.584 290.295 362.221 290.197C361.597 299.013 362.026 312.893 362.032 322.128C359.429 322.175 356.861 322.241 354.259 322.178C354.032 324.625 354.066 327.007 354.048 329.462C353.984 337.679 354.137 345.915 354.037 354.132C351.611 354.174 348.621 354.306 346.238 354.222C346.069 356.862 345.995 359.504 346.021 362.146L330.254 362.225C330.061 364.96 330.046 367.402 330.03 370.134C326.723 370.15 317.142 370.437 314.257 370.118C314.062 372.961 314.025 375.3 314.022 378.141C306.038 378.191 298.004 378.067 290.041 378.162C290.018 375.786 290.07 372.671 289.928 370.358C285.285 369.934 278.827 370.116 274.042 370.142C274.005 367.605 274.015 364.849 273.918 362.331C269.256 362.001 262.822 362.091 258.051 362.146C258.034 359.572 258.059 356.885 257.919 354.325C253.699 354.04 246.336 353.995 242.044 354.158C242.021 351.759 242.08 348.697 241.924 346.353C237.287 345.931 230.827 346.115 226.044 346.139C226.006 343.605 226.015 340.849 225.919 338.33C221.268 338.001 214.813 338.09 210.052 338.146C210.032 335.59 210.06 332.861 209.912 330.324C205.358 330.016 198.65 330.052 194.012 330.176C194.019 327.692 194.086 324.928 193.938 322.471C191.383 322.347 188.389 322.149 185.875 322.436C186.215 312.181 185.421 300.226 186.022 290.282C186.247 293.768 186.123 298.454 186.121 302.03L186.116 322.086C194.051 322.075 202.172 321.967 210.089 322.072L210.088 330.008C214.714 330.018 221.512 329.841 226.018 330.092L226.058 338.004C231.404 338.122 236.739 337.993 242.061 338.088L242.065 346.028L258.088 346.073L258.087 354.008C262.741 354.019 269.48 353.845 274.018 354.095C274.121 356.498 274.052 359.554 274.065 362.007C278.909 362.212 285.076 362.065 290.057 362.089L290.06 370.029C297.912 370.163 306.091 370.053 313.97 370.058L314.006 362.078L329.974 362.065C329.961 359.409 330.006 356.703 330.027 354.043L345.948 354.032L345.99 322.067L353.979 322.057L354.027 290.084L361.963 290.066L362.003 258.045L369.947 258.033L369.992 226.072L377.981 226.061C377.976 216.307 378.503 204.684 378.055 195.199L378.087 194.426C378.031 191.958 377.918 188.345 378.187 185.978Z" fill="black"/>
<path d="M354.089 178.047L362.128 178.021C362.081 180.696 362.081 183.371 362.133 186.046C367.207 186.037 373.181 186.16 378.186 185.978C377.917 188.345 378.03 191.958 378.086 194.426L378.054 195.199C377.703 198.842 377.951 206.121 377.88 210.119L362.126 210.129L362.025 218.144L338.116 218.148L338.029 226.123C330.179 226.125 321.834 226.276 314.027 226.102L314.021 218.114L315.253 218.145C317.518 217.969 319.801 217.976 322.074 217.951C324.362 217.837 327.632 217.932 329.992 217.929L330.018 210.324C332.389 210.331 335.68 210.436 337.964 210.181L337.952 210.008C338.15 207.773 338.034 204.41 338.023 202.092C337.978 199.439 337.981 196.785 338.031 194.132C340.692 194.056 343.352 194.047 346.013 194.106C348.462 194.206 351.555 194.125 354.052 194.126L354.044 186.061C354.036 183.389 354.052 180.718 354.089 178.047Z" fill="#FEFEFE"/>
<path d="M354.051 194.126C356.701 194.143 359.353 194.14 362.003 194.116L361.982 210.046L345.677 210.032C344.34 210.03 339.027 209.96 337.962 210.181L337.951 210.008C338.149 207.773 338.033 204.41 338.022 202.092C337.977 199.439 337.98 196.785 338.03 194.132C340.691 194.056 343.351 194.047 346.012 194.106C348.461 194.206 351.554 194.125 354.051 194.126Z" fill="#C1C0C0"/>
<path d="M338.032 194.132C340.693 194.056 343.353 194.047 346.014 194.106L346.08 202.106C343.472 202.103 340.611 202.158 338.024 202.092C337.979 199.439 337.982 196.785 338.032 194.132Z" fill="black"/>
<path d="M354.09 178.047L362.129 178.021C362.082 180.696 362.082 183.371 362.134 186.046C367.208 186.037 373.182 186.16 378.187 185.978C377.918 188.345 378.031 191.958 378.087 194.426C376.897 193.72 364.26 194.082 362.047 194.104L362.079 186.02L354.045 186.061C354.037 183.389 354.053 180.718 354.09 178.047Z" fill="#818080"/>
<path d="M330.019 210.324C332.39 210.331 335.68 210.436 337.964 210.181C338.016 212.808 338.016 215.435 337.969 218.061L323.686 218.224C321.561 218.248 317.239 218.362 315.254 218.145C317.519 217.969 319.802 217.976 322.075 217.951C324.363 217.837 327.633 217.932 329.993 217.929L330.019 210.324Z" fill="#C1C0C0"/>
<path d="M194.042 242.101C204.506 242.274 215.503 242.114 226.001 242.107L226.013 274.103L218.047 274.079L218.048 266.155C215.376 266.113 212.703 266.102 210.031 266.126C210.03 274.127 209.975 282.239 210.067 290.229C210.06 292.79 210.007 295.548 210.065 298.091L218.034 298.075V306.084C215.378 306.092 212.722 306.084 210.066 306.063C210.032 303.431 210.053 300.749 210.048 298.112L202.027 298.085L202.025 290.153C199.42 290.103 196.815 290.087 194.21 290.1L194.095 289.923C193.638 280.902 194.028 267.392 194.039 258.059L202.014 258.099L202.026 250.122L194.052 250.089L194.042 242.101Z" fill="#008200"/>
<path d="M274.016 274.085L282.055 274.077L282.05 306.091L273.99 306.089L274.021 314.137L250.028 314.116C249.793 316.411 249.921 319.754 249.944 322.136L242.032 322.112C241.945 319.686 242.032 316.635 242.043 314.164C239.454 314.074 236.617 314.137 234.008 314.145L234.068 306.144C231.536 306.039 228.68 306.102 226.122 306.105C226.117 304.95 226.048 303.866 225.982 302.716L226.016 298.08L234.047 298.109L234.051 290.103L242.032 290.129L242.034 282.065L250.012 282.059L250 298.122L266.085 298.104L274.003 298.111L273.992 290.171L274.016 274.085Z" fill="#008200"/>
<path d="M242.027 226.099L258.06 226.1C258.047 228.754 258.007 231.473 258.03 234.122L266.033 234.056L266.012 242.147L274.017 242.123C274.017 239.489 273.98 236.759 274.049 234.133C276.717 234.172 279.385 234.184 282.051 234.167V266.134C271.457 266.128 260.612 266.244 250.033 266.099C250.008 263.422 250.004 260.743 250.022 258.065L258.05 258.103L258.065 250.122L250.027 250.09C250.024 247.456 250.001 244.793 250.028 242.162C242.018 242.022 234.005 242.168 226 242.107L226.018 234.062L234.103 234.086L242.02 234.102L242.027 226.099Z" fill="#008200"/>
<path d="M226.018 330.092L242.031 330.087L242.006 338.135C247.329 338.13 252.754 338.175 258.068 338.109L258.011 346.107C263.313 346.102 268.723 346.147 274.015 346.078C274.013 348.644 273.944 351.558 274.018 354.095C269.48 353.845 262.741 354.019 258.087 354.008L258.088 346.073L242.065 346.028L242.061 338.088C236.739 337.993 231.404 338.122 226.058 338.004L226.018 330.092Z" fill="#818080"/>
<path d="M225.983 302.716C226.049 303.866 226.118 304.95 226.123 306.105C228.681 306.102 231.537 306.039 234.069 306.144L234.009 314.145C236.618 314.137 239.455 314.074 242.044 314.164C242.033 316.635 241.946 319.686 242.033 322.112L234.076 322.08C234.06 319.427 234.059 316.774 234.072 314.121L226.041 314.108C226.01 310.593 225.777 306.131 225.983 302.716Z" fill="#818080"/>
<path d="M249.944 322.136C249.921 319.754 249.793 316.411 250.028 314.116C250.408 319.261 249.922 324.834 250.003 330.068L242.029 330.087L242.032 322.112L249.944 322.136Z" fill="#818080"/>
<path d="M234.059 226.106L242.028 226.099L242.021 234.102L234.104 234.086L234.059 226.106Z" fill="#818080"/>
<path d="M273.992 290.171L274.003 298.111L266.085 298.104L266.037 290.132L273.992 290.171Z" fill="#818080"/>
<path d="M210.066 290.229C212.724 290.155 215.383 290.116 218.041 290.105L218.033 298.075L210.064 298.091C210.006 295.548 210.059 292.79 210.066 290.229Z" fill="#818080"/>
</svg>
