<svg width="221" height="200" viewBox="0 0 221 200" fill="none" xmlns="http://www.w3.org/2000/svg">
<g clip-path="url(#clip0_1_8227)">
<path d="M89.8658 0.803453L131.15 0.785645C131.13 3.18949 131.119 5.27012 131.268 7.67734C135.466 7.51528 140.6 7.62078 144.864 7.61018C144.835 10.0285 144.846 12.1138 144.95 14.5341C149.343 14.3993 154.136 14.4642 158.56 14.4471C158.484 16.5954 158.59 19.1387 158.626 21.3156L172.263 21.2949C172.171 23.3992 172.297 25.9982 172.342 28.137L185.903 28.1266C185.914 25.8618 185.898 23.5968 185.851 21.3325L192.708 21.321C192.706 19.0813 192.737 16.7376 192.694 14.5071C197.223 14.5195 202.022 14.5675 206.542 14.4428C206.49 18.4582 206.354 24.3896 206.589 28.3464C203.238 28.3329 195.958 28.4963 192.898 28.2105C192.633 32.621 192.717 37.3762 192.914 41.7924L199.631 41.9276C199.5 45.9964 199.574 51.3527 199.75 55.4385C201.991 55.5422 204.231 55.5992 206.472 55.6093C206.452 60.1114 206.476 64.6137 206.549 69.1155C208.803 69.1872 211.059 69.2408 213.315 69.2762C213.268 73.4936 213.227 78.6202 213.473 82.8196L220.184 82.953C220.046 89.1345 220.161 95.6171 220.161 101.83L220.159 130.791C217.932 130.858 215.703 130.885 213.476 130.876C213.16 134.943 213.297 140.302 213.3 144.47C211.289 144.497 208.559 144.614 206.607 144.493C206.501 146.767 206.449 149.043 206.451 151.32C204.624 151.34 201.453 151.469 199.741 151.277C199.64 153.572 199.583 155.868 199.572 158.165L192.907 158.233C192.767 160.613 192.724 162.61 192.726 164.992L137.926 164.999C137.924 162.691 137.924 160.624 137.777 158.316C133.666 158.025 128.429 158.161 124.232 158.158C124.216 155.999 124.257 153.583 124.09 151.451C120.397 151.227 114.283 151.2 110.527 151.338C110.514 149.007 110.536 146.961 110.281 144.637C107.891 144.472 106.051 144.454 103.667 144.47C103.682 142.259 103.693 139.994 103.432 137.796C101.079 137.643 99.1719 137.629 96.8209 137.641C96.8311 135.916 97.1489 132.533 96.1906 131.314C94.7744 130.462 91.8884 130.919 90.0856 130.863C89.9953 133.126 89.9517 135.391 89.9553 137.656C87.8964 137.677 85.2796 137.778 83.269 137.69C83.1597 139.949 83.0991 142.209 83.0869 144.47C81.1199 144.499 78.313 144.626 76.4128 144.495C76.2857 146.765 76.2256 149.041 76.233 151.315C74.142 151.347 71.6027 151.455 69.5458 151.383C69.4365 153.644 69.3864 155.904 69.3954 158.167C67.3297 158.192 64.7377 158.296 62.7127 158.203C62.6011 160.462 62.5397 162.723 62.5284 164.986C60.5871 165.015 57.7248 165.141 55.8574 165.004C55.7253 167.278 55.6648 169.554 55.6756 171.831C53.5765 171.862 51.0543 171.966 48.9875 171.896C48.88 174.157 48.8305 176.418 48.8387 178.681C46.7779 178.703 44.1742 178.807 42.1555 178.719C42.0399 180.977 41.9773 183.238 41.9678 185.499C40.0566 185.528 37.1317 185.659 35.3021 185.515C35.1663 187.787 35.1047 190.065 35.1173 192.342C33.0507 192.373 30.4567 192.475 28.4326 192.416C28.3255 194.675 28.2754 196.938 28.2826 199.198L7.70013 199.196L7.75907 192.423C5.56621 192.398 2.99843 192.313 0.83809 192.373C0.956439 186.157 0.43742 177.509 0.810312 171.779C3.1091 171.723 5.43386 171.709 7.73536 171.68L7.66624 164.916C9.96977 164.92 12.2735 164.898 14.5764 164.846C14.5317 162.612 14.5391 160.324 14.5231 158.088C19.0082 158.172 23.9019 158.12 28.382 158.043C28.321 160.338 28.316 162.632 28.3669 164.929C28.4082 166.209 28.2514 170.988 28.4805 171.709C29.214 171.716 29.9296 171.714 30.6616 171.77L35.1521 171.687C35.0995 169.43 35.0676 167.172 35.0563 164.916C37.3791 164.922 39.7016 164.9 42.0236 164.848C42.0202 162.599 41.9841 160.349 41.915 158.1C44.2248 158.102 46.5344 158.066 48.8432 157.996C48.8095 155.744 48.7894 153.493 48.7829 151.241C51.0887 151.232 53.3947 151.209 55.7002 151.169L55.6153 144.405C57.9367 144.407 60.2583 144.384 62.5794 144.335L62.4986 137.584C64.7989 137.586 67.0993 137.555 69.3988 137.485C69.3629 135.233 69.343 132.979 69.3394 130.728C71.6463 130.721 73.9532 130.698 76.2599 130.658C76.2184 128.404 76.1894 126.15 76.1732 123.896L80.6741 123.882C81.4479 123.837 82.2144 123.853 82.92 123.553C83.142 122.447 83.2929 118.362 82.7452 117.495L80.8369 117.19C79.1412 117.166 77.8551 117.199 76.1614 117.31C76.1395 115.017 76.1447 112.725 76.1768 110.434C73.8911 110.285 71.5977 110.298 69.3139 110.472C69.2723 108.184 69.2782 105.896 69.3315 103.608C67.0503 103.435 64.759 103.446 62.4796 103.64C62.3954 101.365 62.4491 99.0449 62.4728 96.7653C60.1874 96.6149 57.8942 96.6257 55.6104 96.7977C55.5864 92.2042 55.59 87.6104 55.621 83.0168C53.2569 82.9866 51.1381 82.9345 48.7752 83.1171C48.7833 78.4059 48.7424 73.9631 48.8436 69.2359C46.4685 69.3276 44.3809 69.2954 41.9423 69.4529C41.7365 59.8574 41.9927 50.0962 41.9048 40.4884C41.8675 36.4282 42.0236 32.1867 41.8479 28.15L48.8904 28.1604C48.653 26.0762 48.782 23.5285 48.6862 21.3354C51.0175 21.3176 53.2684 21.3109 55.5988 21.1792C55.5166 19.0887 55.5833 16.6105 55.5909 14.4843C59.91 14.5233 65.0553 14.5715 69.329 14.3531C69.1792 12.946 69.3008 9.28803 69.3141 7.63543C75.5026 7.64377 83.8131 7.87637 89.8801 7.50131C89.7486 6.17057 89.8616 2.37131 89.8658 0.803453ZM76.1732 123.896C76.1894 126.15 76.2184 128.404 76.2599 130.658C73.9532 130.698 71.6463 130.721 69.3394 130.728C69.343 132.979 69.3629 135.233 69.3988 137.485C67.0993 137.555 64.7989 137.586 62.4986 137.584L62.5794 144.335C60.2583 144.384 57.9367 144.407 55.6153 144.405L55.7002 151.169C53.3947 151.209 51.0887 151.232 48.7829 151.241C48.7894 153.493 48.8095 155.744 48.8432 157.996C46.5344 158.066 44.2248 158.102 41.915 158.1C41.9841 160.349 42.0202 162.599 42.0236 164.848C39.7016 164.9 37.3791 164.922 35.0563 164.916C35.0676 167.172 35.0995 169.43 35.1521 171.687L30.6616 171.77C29.9296 171.714 29.214 171.716 28.4805 171.709C28.2514 170.988 28.4082 166.209 28.3669 164.929C28.316 162.632 28.321 160.338 28.382 158.043C23.9019 158.12 19.0082 158.172 14.5231 158.088C14.5391 160.324 14.5317 162.612 14.5764 164.846C12.2735 164.898 9.96977 164.92 7.66624 164.916L7.73536 171.68C5.43386 171.709 3.1091 171.723 0.810312 171.779C1.03549 173.783 0.954857 176.526 0.952825 178.595L7.7209 178.6L7.76607 185.436C9.55894 185.436 12.9156 185.341 14.5791 185.539C14.5791 187.746 14.5445 190.043 14.599 192.243L21.3639 192.254L28.2372 192.261C28.2069 190.027 28.2374 187.793 28.3287 185.562L28.5435 185.512C30.4513 185.368 33.1076 185.445 35.0719 185.443C35.0751 183.193 35.0909 180.944 35.1196 178.694L42.0098 178.683L42.0638 171.761L48.7998 171.75C48.7876 169.457 48.7912 167.343 48.8854 165.046L49.0975 164.999C51.0089 164.857 53.6619 164.931 55.6293 164.931C55.6302 162.682 55.6465 160.433 55.6779 158.183L62.5761 158.172L62.6036 151.25L69.3563 151.236C69.3446 148.946 69.3486 146.83 69.4417 144.533L69.6585 144.486C71.5749 144.346 74.2157 144.42 76.1865 144.418C76.1651 142.295 76.1881 140.172 76.2556 138.049C76.6168 137.363 82.153 137.652 83.1335 137.659L83.1678 130.737C82.8715 129.612 83.0682 125.338 83.1127 123.939L80.6741 123.882L76.1732 123.896Z" fill="#FEFE00"/>
<path d="M89.8657 0.803453L131.15 0.785645C131.13 3.18949 131.119 5.27012 131.268 7.67734C135.466 7.51528 140.6 7.62078 144.864 7.61018C144.835 10.0285 144.846 12.1138 144.95 14.5341C149.343 14.3993 154.136 14.4642 158.56 14.4471C158.484 16.5954 158.59 19.1387 158.626 21.3156L172.263 21.2949C172.171 23.3992 172.297 25.9982 172.342 28.137L185.903 28.1266C185.894 30.9017 186.05 35.3077 185.876 37.9302C185.812 37.0523 185.833 36.0249 185.826 35.1321L179.089 35.0228C176.789 35.0055 174.49 35.0206 172.193 35.0684L172.229 28.1442L158.522 28.1654L158.536 21.3291L144.736 21.3688L144.722 28.1613L131.08 28.1839L131.087 21.4231C133.33 21.3789 135.67 21.4184 137.921 21.4247C137.897 19.136 137.926 16.7966 137.93 14.5035L131.067 14.4911L131.078 7.68997L89.9215 7.66427C89.9229 9.91327 89.8897 12.2853 89.9364 14.5233L69.3675 14.5273C69.3655 16.7721 69.325 19.1297 69.3824 21.3645L69.3488 28.2454C71.6475 28.2706 73.9466 28.2781 76.2453 28.2682C78.4732 28.2497 80.8391 28.1888 83.055 28.2454C85.3578 28.2742 87.6609 28.2801 89.964 28.2634L96.7549 28.215C96.7531 30.48 96.7153 32.8419 96.772 35.0983L103.625 35.0992C108.187 35.1197 112.752 35.1062 117.314 35.058C117.307 37.3155 117.276 39.6414 117.305 41.8924C121.885 41.9436 126.466 41.951 131.046 41.9148L131.019 48.7138C133.307 48.785 135.593 48.7943 137.881 48.7415L137.863 55.5922C142.439 55.6292 147.014 55.6217 151.59 55.5703L151.579 62.3203L151.629 69.3145L151.624 75.938L144.677 75.9576L144.596 76.0615C144.661 77.9463 144.539 81.2754 144.686 82.898L137.876 82.8849C135.699 82.8315 133.255 82.8904 131.06 82.8964L124.248 82.9415L124.225 89.7156C122.068 89.7951 119.528 89.7455 117.341 89.7514C115.069 89.7239 112.795 89.7307 110.52 89.7712L110.498 96.5827L103.69 96.6318L103.657 103.409L96.805 103.453C96.7939 105.717 96.7657 108.001 96.7824 110.264C94.5101 110.238 92.2375 110.245 89.9653 110.285C89.9586 112.393 89.8917 114.811 89.9687 116.895L89.9622 117.172L89.9407 123.934C87.772 123.993 85.3039 123.939 83.1126 123.939L80.674 123.882C81.4478 123.837 82.2143 123.853 82.9199 123.553C83.1419 122.447 83.2928 118.362 82.7451 117.495L80.8368 117.19C79.1411 117.166 77.855 117.199 76.1613 117.31C76.1394 115.017 76.1446 112.725 76.1767 110.434C73.891 110.285 71.5976 110.298 69.3137 110.472C69.2722 108.184 69.2781 105.896 69.3314 103.608C67.0502 103.435 64.7589 103.446 62.4795 103.64C62.3953 101.365 62.449 99.0449 62.4727 96.7653C60.1873 96.6149 57.8941 96.6257 55.6102 96.7977C55.5863 92.2042 55.5899 87.6104 55.6209 83.0168C53.2568 82.9866 51.138 82.9345 48.7751 83.1171C48.7832 78.4059 48.7423 73.9631 48.8435 69.2359C46.4684 69.3276 44.3808 69.2954 41.9422 69.4529C41.7364 59.8574 41.9926 50.0962 41.9047 40.4884C41.8674 36.4282 42.0235 32.1867 41.8478 28.15L48.8903 28.1604C48.6529 26.0762 48.7819 23.5285 48.6861 21.3354C51.0174 21.3176 53.2683 21.3109 55.5987 21.1792C55.5165 19.0887 55.5831 16.6105 55.5908 14.4843C59.9099 14.5233 65.0552 14.5715 69.3289 14.3531C69.1791 12.946 69.3006 9.28803 69.314 7.63543C75.5025 7.64377 83.813 7.87637 89.88 7.50131C89.7485 6.17057 89.8614 2.37131 89.8657 0.803453Z" fill="#838100"/>
<path d="M83.0605 55.5543C85.3692 55.5018 87.6786 55.4948 89.9875 55.5338C92.0081 55.5501 94.8019 55.6468 96.7579 55.5525C99.0725 55.5025 101.388 55.4962 103.703 55.5334C105.716 55.5505 108.526 55.6533 110.473 55.5487C112.783 55.5217 115.135 55.4635 117.441 55.5534C117.416 57.8266 117.402 60.0999 117.402 62.373L124.255 62.3708C126.315 62.3789 129.029 62.4605 131.037 62.3798C131.033 64.3734 131.114 67.311 130.915 69.2264L131.042 69.4518C132.598 69.2616 136.151 69.342 137.93 69.2785C139.871 69.1045 142.786 69.2041 144.738 69.3531C144.742 70.9825 144.846 74.4754 144.677 75.9576L144.596 76.0615C144.661 77.9463 144.539 81.2754 144.686 82.898L137.876 82.8849C135.699 82.8315 133.255 82.8903 131.06 82.8964L124.248 82.9415L124.225 89.7155C122.068 89.7951 119.528 89.7455 117.341 89.7514C115.069 89.7239 112.795 89.7307 110.52 89.7712L110.498 96.5827L103.69 96.6318L103.657 103.409L96.8051 103.453C96.794 105.717 96.7658 108.001 96.7825 110.264C94.5101 110.238 92.2375 110.245 89.9654 110.285C89.9586 112.393 89.8918 114.811 89.9688 116.895C88.3654 117.102 84.7713 116.997 83.0424 116.985L83.0661 110.282C80.7702 110.275 78.4742 110.289 76.1785 110.323L76.1987 103.449L69.3463 103.45L69.3635 96.6269L62.4755 96.6357C62.4459 94.3337 62.461 92.031 62.5209 89.7295C62.4947 87.4634 62.4967 85.197 62.5272 82.9309L55.6729 82.9237C55.6356 80.6765 55.646 78.3827 55.6333 76.1312C55.5961 73.8617 55.6297 71.4889 55.6313 69.2111L55.6453 62.3863L62.5042 62.3854C64.7896 62.3523 67.0753 62.3493 69.361 62.3764C69.3488 60.1076 69.3524 57.8385 69.3716 55.5697C71.6374 55.4707 74.0119 55.5214 76.2879 55.5338C78.3355 55.5487 81.0688 55.6398 83.0605 55.5543Z" fill="#FEFE00"/>
<path d="M137.93 69.2787C139.871 69.1047 142.786 69.2043 144.738 69.3533C144.742 70.9827 144.846 74.4756 144.677 75.9578L144.596 76.0617C144.661 77.9465 144.539 81.2756 144.686 82.8982L137.876 82.8851C135.699 82.8317 133.255 82.8906 131.06 82.8966L124.248 82.9417L124.225 89.7158C122.068 89.7953 119.528 89.7457 117.341 89.7516C117.337 87.4812 117.346 85.2108 117.366 82.9406L124.216 82.8966L124.248 76.1199L131.053 76.0701L131.042 69.452C132.598 69.2618 136.151 69.3422 137.93 69.2787Z" fill="black"/>
<path d="M137.93 69.2787C139.871 69.1047 142.786 69.2043 144.738 69.3533C144.742 70.9827 144.846 74.4756 144.677 75.9578L144.596 76.0617C142.373 76.0148 140.148 76.0076 137.924 76.0401L137.93 69.2787Z" fill="#818181"/>
<path d="M131.076 76.1231L137.89 76.1038C137.872 78.364 137.867 80.6245 137.876 82.885C135.699 82.8316 133.255 82.8904 131.06 82.8965L131.076 76.1231Z" fill="#818181"/>
<path d="M55.6333 76.1313L62.5195 76.0925L62.4922 82.9281L69.377 82.9292L69.3924 89.7391C67.127 89.6848 64.7916 89.722 62.5209 89.7296C62.4947 87.4635 62.4967 85.1972 62.5272 82.931L55.6728 82.9238C55.6356 80.6766 55.6459 78.3828 55.6333 76.1313Z" fill="#C1C0C1"/>
<path d="M55.6454 62.3864L62.5042 62.3855L62.5426 69.2227C60.2626 69.1771 57.917 69.2084 55.6313 69.2111L55.6454 62.3864Z" fill="#C1C0C1"/>
<path d="M76.2429 96.5952L83.0812 96.6072L83.1065 103.422C80.8299 103.395 78.5528 103.399 76.2761 103.434C76.2239 101.18 76.2483 98.8553 76.2429 96.5952Z" fill="#C1C0C1"/>
<path d="M96.8005 76.082L103.642 76.094L103.663 82.9079C101.398 82.8802 99.1332 82.8843 96.8687 82.9203C96.7886 80.683 96.813 78.3288 96.8005 76.082Z" fill="#C1C0C1"/>
<path d="M76.2384 82.9128L83.0808 82.923L83.1027 89.7399C80.8461 89.6754 78.5695 89.725 76.3109 89.7516C76.2285 87.5166 76.2524 85.158 76.2384 82.9128Z" fill="#C1C0C1"/>
<path d="M96.796 62.3987L103.636 62.4091L103.661 69.228C101.397 69.161 99.1352 69.2113 96.8699 69.2415C96.7865 67.0067 96.8105 64.6441 96.796 62.3987Z" fill="#C1C0C1"/>
<path d="M76.2878 55.5339C78.3355 55.5488 81.0688 55.6399 83.0604 55.5544L83.1063 62.3957C80.8398 62.3639 78.5728 62.3682 76.3066 62.4085C76.2259 60.1298 76.2702 57.8165 76.2878 55.5339Z" fill="#C1C0C1"/>
<path d="M62.5426 69.2227L69.3723 69.2556L69.3947 76.0801C67.1564 76.0276 64.8522 76.0641 62.6088 76.0722L62.5426 69.2227Z" fill="#C1C0C1"/>
<path d="M103.661 69.2278L110.491 69.2528L110.507 76.0812C108.273 76.0291 105.967 76.0649 103.725 76.071L103.661 69.2278Z" fill="#C1C0C1"/>
<path d="M83.1027 89.7397L89.9333 89.7769L89.95 96.5938C87.716 96.5415 85.4069 96.5796 83.1668 96.5871L83.1027 89.7397Z" fill="#C1C0C1"/>
<path d="M83.1063 62.3958L89.932 62.4131L89.9501 69.2273C87.6982 69.1617 85.42 69.2117 83.1655 69.2374L83.1063 62.3958Z" fill="#C1C0C1"/>
<path d="M103.703 55.5334C105.716 55.5506 108.526 55.6534 110.473 55.5488L110.507 62.3961C108.244 62.3663 105.983 62.3699 103.721 62.4069C103.683 60.1383 103.705 57.8077 103.703 55.5334Z" fill="#C1C0C1"/>
<path d="M89.9875 55.5339C92.0081 55.5502 94.8019 55.6469 96.7579 55.5526C96.7687 57.7331 96.7206 60.2454 96.796 62.3986C94.5564 62.3416 92.2454 62.388 89.9997 62.4044C89.9789 60.1144 89.9749 57.8242 89.9875 55.5339Z" fill="#C1C0C1"/>
<path d="M110.507 62.3961C112.759 62.3934 115.053 62.4133 117.301 62.3862L117.352 69.2292C115.094 69.1589 112.82 69.2117 110.559 69.2407L110.507 62.3961Z" fill="#C1C0C1"/>
<path d="M124.255 62.3708C126.315 62.379 129.029 62.4606 131.037 62.3799C131.033 64.3735 131.114 67.3111 130.915 69.2265C128.731 69.167 126.466 69.2116 124.275 69.2251C124.246 66.9547 124.262 64.6449 124.255 62.3708Z" fill="#C1C0C1"/>
<path d="M83.1066 103.422L89.9327 103.432L89.881 110.275C87.6386 110.211 85.395 110.204 83.1524 110.256L83.1066 103.422Z" fill="#C1C0C1"/>
<path d="M117.353 69.2292L124.198 69.2401C124.178 71.5236 124.176 73.8264 124.128 76.1079C121.897 76.0439 119.663 76.0328 117.429 76.0752C117.377 73.7935 117.353 71.5114 117.353 69.2292Z" fill="#C1C0C1"/>
<path d="M103.663 82.908L110.491 82.9188L110.441 89.7629C108.203 89.6991 105.963 89.6899 103.722 89.7354C103.715 87.4596 103.695 85.1838 103.663 82.908Z" fill="#C1C0C1"/>
<path d="M69.3925 89.739L76.217 89.7701C76.2204 91.8956 76.1567 94.5129 76.243 96.5951C73.9826 96.5347 71.6917 96.585 69.4284 96.6107L69.3925 89.739Z" fill="#C1C0C1"/>
<path d="M89.9501 96.5938L96.7748 96.5971L96.7333 103.429C94.4889 103.399 92.2443 103.397 90 103.422L89.9501 96.5938Z" fill="#C1C0C1"/>
<path d="M110.507 76.0813L117.332 76.084L117.289 82.9171C115.046 82.8864 112.801 82.8842 110.559 82.9101L110.507 76.0813Z" fill="#C1C0C1"/>
<path d="M89.9501 69.2271L96.7755 69.2554C96.7789 71.3877 96.7161 73.9915 96.8006 76.082C94.5664 76.0173 92.245 76.0669 90.0036 76.0836L89.9501 69.2271Z" fill="#C1C0C1"/>
<path d="M69.3947 76.0801L76.2167 76.0929C76.2208 78.261 76.1652 80.7726 76.2384 82.9127C74.0042 82.8559 71.6873 82.9021 69.4464 82.9166L69.3947 76.0801Z" fill="#C1C0C1"/>
<path d="M76.2341 69.2327L83.0835 69.25L83.1088 76.0804C80.8663 76.0187 78.5593 76.0671 76.3114 76.0856C76.2346 73.8366 76.2508 71.4902 76.2341 69.2327Z" fill="#C1C0C1"/>
<path d="M83.1088 76.0803L89.9335 76.0995L89.9507 82.9098C87.7147 82.8598 85.408 82.9024 83.1661 82.915L83.1088 76.0803Z" fill="#C1C0C1"/>
<path d="M96.7925 89.7427L103.642 89.754L103.568 96.6188C101.335 96.5589 99.1003 96.5485 96.8666 96.5879C96.8223 94.3065 96.7974 92.0246 96.7925 89.7427Z" fill="#C1C0C1"/>
<path d="M89.9507 82.9099L96.7727 82.9282L96.7924 89.7428C94.527 89.6725 92.2678 89.7243 90.0017 89.7559L89.9507 82.9099Z" fill="#C1C0C1"/>
<path d="M69.4235 62.4126L76.2108 62.4137L76.2341 69.2326C73.9525 69.206 71.7228 69.1727 69.44 69.2335C69.4177 66.9599 69.412 64.6864 69.4235 62.4126Z" fill="#C1C0C1"/>
<path d="M55.6342 21.3608L69.3824 21.3647L69.3488 28.2456C65.0566 28.1126 59.9969 28.23 55.6532 28.2359C55.6021 25.9907 55.6353 23.6173 55.6342 21.3608Z" fill="#FEFFFE"/>
<path d="M144.754 62.3857C147.03 62.3807 149.305 62.3589 151.579 62.3203L151.629 69.3146L151.624 75.938L144.677 75.9577C144.846 74.4754 144.742 70.9825 144.738 69.3531L144.754 62.3857Z" fill="black"/>
<path d="M80.8369 117.19C83.8569 117.159 86.9697 117.258 89.9623 117.172L89.9408 123.934C87.7721 123.993 85.304 123.939 83.1127 123.939L80.6741 123.882C81.4479 123.837 82.2144 123.853 82.92 123.553C83.142 122.447 83.2929 118.362 82.7452 117.495L80.8369 117.19Z" fill="black"/>
<path d="M131.037 62.38C133.361 62.3547 135.683 62.3552 138.005 62.3809C137.992 64.6292 137.96 66.8775 137.91 69.1254C135.887 69.1256 132.86 69.0366 130.915 69.2266C131.114 67.3112 131.033 64.3736 131.037 62.38Z" fill="#FEFE00"/>
<path d="M137.931 14.5037L144.803 14.5704L144.794 21.3764L137.921 21.4249C137.897 19.1362 137.926 16.7968 137.931 14.5037Z" fill="#FEFFFE"/>
<path d="M192.694 14.5071C197.223 14.5195 202.022 14.5675 206.542 14.4429C206.49 18.4583 206.354 24.3896 206.589 28.3464C203.238 28.3329 195.958 28.4963 192.898 28.2105C192.633 32.621 192.717 37.3762 192.914 41.7924L199.631 41.9276C199.5 45.9965 199.574 51.3528 199.75 55.4385C201.991 55.5422 204.231 55.5993 206.472 55.6094C206.452 60.1114 206.476 64.6137 206.549 69.1156C208.803 69.1872 211.059 69.2409 213.315 69.2763C213.268 73.4936 213.227 78.6203 213.473 82.8196L220.184 82.9531C220.046 89.1345 220.161 95.6171 220.161 101.83L220.159 130.791C217.932 130.858 215.703 130.885 213.476 130.876C213.16 134.943 213.297 140.303 213.3 144.47C211.289 144.497 208.559 144.614 206.607 144.493C206.501 146.767 206.449 149.043 206.451 151.32C204.624 151.34 201.453 151.469 199.741 151.277C199.64 153.572 199.583 155.868 199.572 158.165L192.907 158.233C192.767 160.613 192.724 162.61 192.726 164.992L137.926 164.999C137.924 162.691 137.924 160.624 137.777 158.316C133.666 158.025 128.429 158.161 124.232 158.158C124.216 155.999 124.257 153.583 124.09 151.451C120.397 151.227 114.283 151.2 110.527 151.338C110.514 149.007 110.536 146.961 110.281 144.637C107.891 144.472 106.051 144.454 103.667 144.47C103.682 142.259 103.693 139.994 103.432 137.796C101.079 137.643 99.1719 137.629 96.8209 137.641C96.8311 135.916 97.1489 132.533 96.1906 131.314C94.7744 130.462 91.8884 130.919 90.0856 130.863C89.9953 133.126 89.9517 135.391 89.9553 137.656C87.8964 137.677 85.2796 137.778 83.269 137.69C83.1597 139.949 83.0991 142.209 83.0869 144.47C81.1199 144.499 78.313 144.626 76.4128 144.495C76.2857 146.765 76.2256 149.041 76.233 151.315C74.142 151.347 71.6027 151.455 69.5458 151.383C69.4365 153.644 69.3864 155.904 69.3954 158.167C67.3297 158.192 64.7377 158.296 62.7127 158.203C62.6011 160.462 62.5397 162.723 62.5284 164.986C60.5871 165.015 57.7248 165.141 55.8574 165.004C55.7253 167.278 55.6648 169.554 55.6756 171.831C53.5765 171.862 51.0543 171.966 48.9875 171.896C48.88 174.157 48.8305 176.418 48.8387 178.681C46.7779 178.703 44.1742 178.807 42.1555 178.719C42.0399 180.977 41.9773 183.238 41.9678 185.499C40.0566 185.528 37.1317 185.659 35.3021 185.515C35.1663 187.787 35.1047 190.065 35.1173 192.342C33.0507 192.373 30.4567 192.475 28.4326 192.416C28.3255 194.675 28.2754 196.938 28.2826 199.198L7.70013 199.196L7.75907 192.423C5.56621 192.398 2.99843 192.313 0.83809 192.373C0.956439 186.157 0.43742 177.509 0.810312 171.779C3.1091 171.723 5.43386 171.709 7.73536 171.68L7.66624 164.916C9.96977 164.92 12.2735 164.898 14.5764 164.846C14.5317 162.612 14.5391 160.324 14.5231 158.089C19.0082 158.172 23.9019 158.12 28.382 158.043C28.321 160.338 28.316 162.632 28.3669 164.929C28.4082 166.21 28.2514 170.988 28.4805 171.709C29.214 171.716 29.9296 171.714 30.6616 171.77L35.1521 171.687C35.0995 169.43 35.0676 167.172 35.0563 164.916C37.3791 164.923 39.7016 164.9 42.0236 164.848C42.0202 162.599 41.9841 160.349 41.915 158.1C44.2248 158.102 46.5344 158.066 48.8432 157.996C48.8095 155.744 48.7894 153.493 48.7829 151.241C51.0887 151.232 53.3947 151.209 55.7002 151.169L55.6153 144.405C57.9367 144.407 60.2583 144.384 62.5794 144.335L62.4986 137.584C64.7989 137.587 67.0993 137.555 69.3988 137.485C69.3629 135.233 69.343 132.979 69.3394 130.728C71.6463 130.721 73.9532 130.698 76.2599 130.658C76.2184 128.404 76.1894 126.15 76.1732 123.896L80.6741 123.882L83.1127 123.939C85.304 123.939 87.7721 123.993 89.9408 123.934C92.0196 123.921 94.7279 123.835 96.7579 123.912L96.7529 130.757C99.026 130.764 101.373 130.741 103.639 130.78L103.635 137.623L110.487 137.645L110.48 144.445L117.396 144.443L124.216 144.439L124.264 151.218L130.744 151.255C131.789 151.487 136.573 151.442 137.928 151.462L137.888 158.1C155.755 158.449 174.727 158.084 192.706 158.113L192.708 151.255L199.549 151.239C199.513 148.992 199.565 146.679 199.59 144.427C199.491 142.457 199.57 139.705 199.574 137.677C199.624 135.369 199.61 133.058 199.536 130.75C201.815 130.829 204.186 130.811 206.467 130.798L206.47 82.8915L206.429 76.193C204.252 76.0273 201.781 76.0841 199.576 76.0834C199.687 74.0468 199.673 71.2435 199.608 69.2073C199.339 66.2731 199.425 58.6554 199.567 55.6238L192.744 55.5598C192.633 51.1046 192.71 46.404 192.71 41.9308L185.914 41.8706L185.876 37.9302C186.05 35.3078 185.894 30.9017 185.903 28.1267C185.914 25.8619 185.898 23.5969 185.851 21.3325L192.708 21.3211C192.706 19.0813 192.737 16.7376 192.694 14.5071ZM76.1732 123.896C76.1894 126.15 76.2184 128.404 76.2599 130.658C73.9532 130.698 71.6463 130.721 69.3394 130.728C69.343 132.979 69.3629 135.233 69.3988 137.485C67.0993 137.555 64.7989 137.587 62.4986 137.584L62.5794 144.335C60.2583 144.384 57.9367 144.407 55.6153 144.405L55.7002 151.169C53.3947 151.209 51.0887 151.232 48.7829 151.241C48.7894 153.493 48.8095 155.744 48.8432 157.996C46.5344 158.066 44.2248 158.102 41.915 158.1C41.9841 160.349 42.0202 162.599 42.0236 164.848C39.7016 164.9 37.3791 164.923 35.0563 164.916C35.0676 167.172 35.0995 169.43 35.1521 171.687L30.6616 171.77C29.9296 171.714 29.214 171.716 28.4805 171.709C28.2514 170.988 28.4082 166.21 28.3669 164.929C28.316 162.632 28.321 160.338 28.382 158.043C23.9019 158.12 19.0082 158.172 14.5231 158.089C14.5391 160.324 14.5317 162.612 14.5764 164.846C12.2735 164.898 9.96977 164.92 7.66624 164.916L7.73536 171.68C5.43386 171.709 3.1091 171.723 0.810312 171.779C1.03549 173.783 0.954857 176.526 0.952825 178.595L7.7209 178.6L7.76607 185.436C9.55894 185.436 12.9156 185.341 14.5791 185.539C14.5791 187.746 14.5445 190.043 14.599 192.243L21.3639 192.254L28.2372 192.261C28.2069 190.027 28.2374 187.793 28.3287 185.562L28.5435 185.512C30.4513 185.368 33.1076 185.445 35.0719 185.443C35.0751 183.193 35.0909 180.944 35.1196 178.694L42.0098 178.683L42.0638 171.761L48.7998 171.75C48.7876 169.457 48.7912 167.343 48.8854 165.046L49.0975 164.999C51.0089 164.857 53.6619 164.932 55.6293 164.932C55.6302 162.682 55.6465 160.433 55.6779 158.183L62.5761 158.172L62.6036 151.25L69.3563 151.236C69.3446 148.946 69.3486 146.83 69.4417 144.533L69.6585 144.486C71.5749 144.346 74.2157 144.421 76.1865 144.418C76.1651 142.295 76.1881 140.172 76.2556 138.049C76.6168 137.363 82.153 137.652 83.1335 137.659L83.1678 130.737C82.8715 129.612 83.0682 125.339 83.1127 123.939L80.6741 123.882L76.1732 123.896Z" fill="black"/>
<path d="M80.6741 123.883L83.1127 123.939C83.0682 125.339 82.8715 129.612 83.1678 130.737L83.1335 137.659C82.153 137.652 76.6168 137.363 76.2556 138.049C76.1881 140.172 76.165 142.295 76.1865 144.418C74.2157 144.421 71.5749 144.346 69.6585 144.486L69.4417 144.533C69.3486 146.83 69.3446 148.947 69.3563 151.237L62.6036 151.25L62.576 158.172L55.6779 158.183C55.6465 160.433 55.6302 162.682 55.6293 164.932C53.6619 164.932 51.0089 164.857 49.0975 164.999L48.8854 165.047C48.7912 167.343 48.7876 169.458 48.7998 171.75L42.0638 171.761L42.0098 178.683L35.1196 178.694C35.0909 180.944 35.0751 183.193 35.0719 185.443C33.1076 185.445 30.4513 185.368 28.5435 185.513L28.3287 185.562C28.2374 187.794 28.2069 190.027 28.2372 192.261L21.3639 192.254L14.599 192.243C14.5445 190.043 14.5791 187.746 14.5791 185.54C12.9156 185.341 9.55893 185.436 7.76607 185.436L7.72089 178.6L0.952815 178.595C0.954848 176.526 1.03548 173.783 0.810303 171.779C3.10909 171.723 5.43385 171.709 7.73535 171.68L7.66623 164.916C9.96976 164.92 12.2735 164.898 14.5764 164.846C14.5317 162.612 14.5391 160.325 14.5231 158.089C19.0082 158.172 23.9018 158.12 28.382 158.044C28.321 160.338 28.316 162.633 28.3668 164.929C28.4082 166.21 28.2514 170.988 28.4804 171.709C29.214 171.716 29.9295 171.714 30.6616 171.77L35.1521 171.687C35.0995 169.431 35.0676 167.172 35.0563 164.916C37.379 164.923 39.7015 164.9 42.0236 164.848C42.0202 162.599 41.9841 160.349 41.915 158.1C44.2248 158.102 46.5344 158.066 48.8432 157.996C48.8095 155.745 48.7894 153.493 48.7829 151.241C51.0887 151.232 53.3947 151.21 55.7002 151.169L55.6153 144.405C57.9367 144.407 60.2583 144.385 62.5794 144.335L62.4986 137.584C64.7989 137.587 67.0993 137.555 69.3988 137.485C69.3629 135.233 69.343 132.98 69.3394 130.728C71.6463 130.721 73.9532 130.699 76.2599 130.658C76.2183 128.404 76.1894 126.15 76.1732 123.896L80.6741 123.883ZM28.3036 178.512L28.2537 171.932C26.0308 171.939 23.8079 171.912 21.5859 171.851C21.468 174.213 21.6062 176.582 21.4998 178.701C19.3151 178.733 17.0265 178.782 14.8497 178.676C14.7347 180.937 14.7207 183.2 14.8074 185.458C17.0312 185.454 19.255 185.416 21.4777 185.341C21.4407 183.171 21.3494 180.856 21.4998 178.701C22.9189 178.541 26.7269 178.559 28.3036 178.512Z" fill="#818181"/>
<path d="M14.5231 158.089C19.0082 158.172 23.9018 158.12 28.382 158.043C28.321 160.338 28.316 162.633 28.3668 164.929C28.4082 166.21 28.2514 170.988 28.4804 171.709C29.214 171.716 29.9295 171.714 30.6616 171.77L28.2537 171.932C26.0308 171.939 23.8079 171.912 21.5859 171.851C21.468 174.213 21.6062 176.582 21.4998 178.701C19.3151 178.733 17.0265 178.782 14.8497 178.676C14.7347 180.937 14.7207 183.2 14.8074 185.458L14.5791 185.539C12.9156 185.341 9.55893 185.436 7.76607 185.436L7.72089 178.6L0.952815 178.595C0.954848 176.526 1.03548 173.783 0.810303 171.779C3.10909 171.723 5.43385 171.709 7.73535 171.68L7.66623 164.916C9.96976 164.92 12.2735 164.898 14.5764 164.846C14.5317 162.612 14.5391 160.324 14.5231 158.089Z" fill="#C1C0C1"/>
<path d="M14.5231 158.089C19.0082 158.172 23.9019 158.12 28.382 158.043C28.321 160.338 28.316 162.633 28.3668 164.929L21.503 164.927C21.4926 166.399 21.5452 170.519 21.3352 171.754C21.1256 169.627 21.2243 167.113 21.2496 164.947L14.5418 164.905L14.51 171.79L7.71615 171.729L7.72089 178.6L0.952815 178.595C0.954848 176.526 1.03548 173.783 0.810303 171.779C3.10909 171.723 5.43385 171.709 7.73535 171.68L7.66623 164.916C9.96976 164.92 12.2735 164.898 14.5764 164.846C14.5317 162.612 14.5391 160.324 14.5231 158.089Z" fill="#818181"/>
<path d="M28.3668 164.929C28.4081 166.21 28.2514 170.988 28.4804 171.709C29.214 171.716 29.9295 171.714 30.6615 171.77L28.2536 171.932C26.0307 171.939 23.8078 171.912 21.5858 171.851C21.4679 174.213 21.6062 176.582 21.4998 178.701C19.3151 178.732 17.0264 178.782 14.8496 178.676C14.7346 180.937 14.7206 183.2 14.8074 185.458L14.579 185.539C14.3294 182.172 14.5237 175.252 14.5621 171.756L21.3351 171.754C21.5452 170.519 21.4926 166.399 21.5029 164.927L28.3668 164.929Z" fill="black"/>
<path d="M41.989 164.909C44.0741 164.913 46.8639 164.844 48.8853 165.046C48.7911 167.343 48.7875 169.457 48.7997 171.75L42.0637 171.761C41.7778 170.753 41.9601 166.198 41.989 164.909Z" fill="#C1C0C1"/>
<path d="M62.5454 144.396C64.6886 144.403 67.3479 144.337 69.4416 144.533C69.3485 146.83 69.3445 148.947 69.3562 151.237L62.6035 151.25C62.3681 150.243 62.521 145.66 62.5454 144.396Z" fill="#C1C0C1"/>
<path d="M48.8287 158.052C51.1121 158.08 53.3951 158.122 55.6778 158.183C55.6465 160.433 55.6302 162.682 55.6293 164.932C53.6618 164.932 51.0089 164.857 49.0975 164.999C48.5468 164.208 48.8095 159.317 48.8287 158.052Z" fill="#C1C0C1"/>
<path d="M69.3842 137.544C70.6852 137.58 75.5775 137.285 76.2555 138.049C76.188 140.172 76.165 142.295 76.1864 144.418C74.2156 144.421 71.5748 144.346 69.6584 144.486C69.1042 143.702 69.3657 138.804 69.3842 137.544Z" fill="#C1C0C1"/>
<path d="M21.4394 185.411C23.5173 185.42 26.316 185.352 28.3286 185.562C28.2373 187.793 28.2068 190.027 28.2371 192.261L21.3638 192.254L21.4394 185.411Z" fill="#C1C0C1"/>
<path d="M28.2846 178.566L35.1195 178.694C35.0909 180.944 35.075 183.193 35.0719 185.443C33.1076 185.445 30.4513 185.368 28.5434 185.512C27.9858 184.712 28.2604 179.846 28.2846 178.566Z" fill="#C1C0C1"/>
<path d="M55.6661 151.214L62.3829 151.273C62.3135 153.437 62.3388 155.742 62.3253 157.917L55.6259 157.922L55.6661 151.214Z" fill="#C1C0C1"/>
<path d="M76.2226 130.703L82.9362 130.757C82.8746 132.921 82.8958 135.231 82.8818 137.406L76.184 137.408L76.2226 130.703Z" fill="#C1C0C1"/>
<path d="M35.1168 171.725L41.8242 171.786C41.7618 173.947 41.7817 176.256 41.7668 178.431L35.069 178.435L35.1168 171.725Z" fill="#C1C0C1"/>
<path d="M206.47 82.8916L213.266 82.954L213.248 130.726C211.233 130.726 208.416 130.642 206.467 130.798L206.47 82.8916Z" fill="#C1C0C1"/>
<path d="M192.694 14.5071C197.223 14.5195 202.022 14.5675 206.542 14.4429C206.49 18.4583 206.354 24.3896 206.589 28.3464C205.008 28.0275 201.365 28.1496 199.61 28.1589L199.624 21.3289L192.708 21.3211C192.706 19.0813 192.737 16.7376 192.694 14.5071Z" fill="#818181"/>
<path d="M206.467 130.798C206.418 135.337 206.399 139.877 206.411 144.416L199.59 144.427C199.49 142.457 199.57 139.705 199.574 137.677C199.624 135.369 199.61 133.058 199.536 130.75C201.815 130.829 204.186 130.811 206.467 130.798Z" fill="#C1C0C1"/>
<path d="M199.567 55.6238C199.732 60.1423 199.545 64.709 199.68 69.2224L206.463 69.2426L206.429 76.1929C204.252 76.0273 201.781 76.0841 199.576 76.0834C199.687 74.0467 199.673 71.2435 199.608 69.2073C199.339 66.2731 199.425 58.6554 199.567 55.6238Z" fill="#838100"/>
<path d="M83.1127 123.939C85.3039 123.939 87.7721 123.993 89.9408 123.934L89.9132 130.726L83.1678 130.737C82.8714 129.612 83.0682 125.339 83.1127 123.939Z" fill="#C1C0C1"/>
<path d="M185.851 21.3325L192.708 21.321L192.69 28.1618C190.531 28.1548 188.033 28.2028 185.903 28.1266C185.914 25.8619 185.898 23.5969 185.851 21.3325Z" fill="#818181"/>
<path d="M144.862 76.1875L151.649 76.1697L151.654 82.8858C153.957 82.8743 156.261 82.8754 158.565 82.8892L158.493 89.8298L158.499 96.5944C158.508 98.6567 158.594 101.477 158.504 103.489C158.486 105.743 158.484 107.996 158.493 110.249C158.506 112.387 158.59 115.086 158.502 117.175L158.493 123.934C158.506 126.006 158.597 128.841 158.502 130.863L158.459 137.648C156.223 137.648 153.872 137.609 151.645 137.672L151.613 144.466C149.413 144.463 146.983 144.412 144.803 144.5L144.783 151.311L137.973 151.255C136.155 151.104 132.907 151.16 130.985 151.142L130.744 151.255L124.264 151.219L124.216 144.439L117.395 144.443L110.48 144.445L110.486 137.645L103.635 137.623L103.639 130.78C101.373 130.741 99.0259 130.764 96.7529 130.757L96.7578 123.912C94.7278 123.835 92.0196 123.921 89.9408 123.934L89.9622 117.173L89.9688 116.895C89.8917 114.811 89.9586 112.393 89.9654 110.285C92.2375 110.245 94.5101 110.238 96.7825 110.264C96.7658 108.001 96.794 105.717 96.8051 103.453L103.657 103.409L103.69 96.632L110.498 96.5829L110.52 89.7714C112.795 89.7308 115.069 89.7241 117.341 89.7516C119.528 89.7457 122.068 89.7953 124.225 89.7157L124.248 82.9417L131.06 82.8966C133.255 82.8905 135.699 82.8317 137.876 82.8851L144.686 82.8982C145.018 82.0054 144.876 77.3889 144.862 76.1875Z" fill="#FEFE00"/>
<path d="M110.52 89.7713C112.795 89.7307 115.069 89.7239 117.341 89.7514C119.528 89.7456 122.068 89.7951 124.225 89.7156C124.198 91.2079 124.052 95.3683 124.32 96.6488L124.239 97.107L124.201 103.406C122.01 103.404 119.48 103.464 117.319 103.398C115.148 103.343 112.695 103.403 110.505 103.409L103.691 103.453L103.667 110.228C101.651 110.329 98.8469 110.26 96.7825 110.264C96.7658 108.001 96.794 105.717 96.8051 103.453L103.657 103.409L103.69 96.6318L110.498 96.5827L110.52 89.7713Z" fill="black"/>
<path d="M117.341 89.7514C119.528 89.7456 122.069 89.7951 124.225 89.7156C124.198 91.2079 124.052 95.3683 124.32 96.6488L124.239 97.107L124.013 96.7042C123.15 96.3923 118.658 96.5406 117.357 96.5532L117.341 89.7514Z" fill="#818181"/>
<path d="M110.518 96.6363L117.328 96.616C117.321 98.8591 117.292 101.16 117.319 103.398C115.148 103.343 112.695 103.403 110.505 103.409L110.518 96.6363Z" fill="#818181"/>
<path d="M89.9654 110.285C92.2375 110.245 94.5101 110.238 96.7825 110.264C98.8468 110.26 101.651 110.329 103.667 110.228C103.635 112.525 103.576 114.821 103.667 117.116C103.687 118.376 103.723 119.611 103.662 120.871L103.639 123.916C101.444 123.916 98.927 123.975 96.7579 123.912C94.7278 123.835 92.0196 123.921 89.9408 123.934L89.9622 117.172L89.9688 116.895C89.8917 114.811 89.9586 112.393 89.9654 110.285Z" fill="black"/>
<path d="M96.7825 110.264C98.8468 110.26 101.651 110.329 103.667 110.228C103.635 112.525 103.576 114.821 103.667 117.116C103.687 118.376 103.723 119.611 103.662 120.871C103.579 119.726 103.602 118.221 103.588 117.044L96.7987 117.067L96.7825 110.264Z" fill="#818181"/>
<path d="M89.9622 117.173C92.2312 117.143 94.5004 117.127 96.7694 117.127L96.7579 123.912C94.7279 123.835 92.0196 123.921 89.9408 123.934L89.9622 117.173Z" fill="#818181"/>
<path d="M110.504 103.409C112.695 103.403 115.148 103.343 117.319 103.398L117.314 110.225L110.493 110.243L110.484 117.091L103.667 117.116C103.576 114.821 103.635 112.525 103.667 110.228L103.691 103.453L110.504 103.409Z" fill="black"/>
<path d="M110.505 103.409C110.484 105.67 110.475 107.932 110.482 110.193L103.667 110.228L103.691 103.453L110.505 103.409Z" fill="#818181"/>
<path d="M131.06 82.8965C133.255 82.8904 135.699 82.8316 137.876 82.885L137.872 89.7109L131.049 89.7305L131.037 96.5794C129.328 96.5877 125.924 96.5167 124.32 96.6488C124.051 95.3683 124.198 91.208 124.225 89.7156L124.248 82.9416L131.06 82.8965Z" fill="black"/>
<path d="M131.06 82.8965C131.04 85.1574 131.031 87.4184 131.037 89.6793L124.225 89.7156L124.248 82.9416L131.06 82.8965Z" fill="#818181"/>
<path d="M117.362 137.625L124.194 137.627C124.189 139.913 124.171 142.198 124.142 144.484L131.053 144.47L130.985 151.142L130.744 151.254L124.264 151.218L124.216 144.438L117.395 144.443C117.314 142.336 117.366 139.766 117.362 137.625Z" fill="#C1C0C1"/>
<path d="M137.91 130.771L144.76 130.791L144.785 137.62C142.527 137.559 140.25 137.609 137.989 137.636C137.915 135.378 137.928 133.036 137.91 130.771Z" fill="#C1C0C1"/>
<path d="M137.922 117.109L144.76 117.121L144.781 123.934C142.538 123.885 140.234 123.928 137.985 123.943C137.91 121.701 137.933 119.361 137.922 117.109Z" fill="#C1C0C1"/>
<path d="M117.355 123.939L124.196 123.948L124.219 130.764C121.956 130.703 119.693 130.75 117.427 130.78C117.346 128.544 117.368 126.184 117.355 123.939Z" fill="#C1C0C1"/>
<path d="M117.414 110.299L124.194 110.272L124.223 117.107C121.953 117.085 119.69 117.048 117.42 117.114C117.371 114.769 117.337 112.649 117.414 110.299Z" fill="#C1C0C1"/>
<path d="M137.915 103.426L144.756 103.434L144.779 110.252C142.515 110.189 140.255 110.237 137.989 110.267C137.908 108.027 137.928 105.675 137.915 103.426Z" fill="#C1C0C1"/>
<path d="M137.971 89.7878L144.754 89.7551L144.783 96.5945C142.506 96.5713 140.257 96.5355 137.98 96.6008C137.933 94.2732 137.894 92.1202 137.971 89.7878Z" fill="#C1C0C1"/>
<path d="M137.919 144.452L144.803 144.499L144.783 151.311L137.973 151.255C137.874 149.007 137.912 146.706 137.919 144.452Z" fill="#C1C0C1"/>
<path d="M124.219 130.764L131.049 130.8L131.067 137.62C128.804 137.596 126.54 137.591 124.277 137.607L124.219 130.764Z" fill="#C1C0C1"/>
<path d="M151.624 103.425C153.788 103.44 156.376 103.398 158.504 103.489C158.486 105.742 158.484 107.995 158.493 110.248C156.22 110.21 153.951 110.217 151.678 110.268C151.631 108.009 151.64 105.688 151.624 103.425Z" fill="#C1C0C1"/>
<path d="M144.781 123.934L151.602 123.95L151.624 130.768C149.37 130.701 147.094 130.75 144.839 130.775L144.781 123.934Z" fill="#C1C0C1"/>
<path d="M151.624 130.768C153.671 130.784 156.525 130.73 158.502 130.863L158.459 137.647C156.223 137.647 153.872 137.609 151.645 137.672L151.624 130.768Z" fill="#C1C0C1"/>
<path d="M124.223 117.107L131.046 117.125L131.067 123.937C128.831 123.885 126.522 123.928 124.282 123.939L124.223 117.107Z" fill="#C1C0C1"/>
<path d="M144.783 96.5945L151.602 96.6089L151.624 103.425C149.363 103.393 147.1 103.394 144.837 103.431L144.783 96.5945Z" fill="#C1C0C1"/>
<path d="M151.62 89.7427C153.711 89.7582 156.46 89.7078 158.493 89.8297L158.5 96.5943C156.225 96.5692 153.953 96.5688 151.681 96.5929C151.627 94.3399 151.638 92.0034 151.62 89.7427Z" fill="#C1C0C1"/>
<path d="M144.785 137.62L151.645 137.672L151.613 144.466C149.413 144.463 146.983 144.412 144.803 144.499L144.785 137.62Z" fill="#C1C0C1"/>
<path d="M131.067 123.937L137.89 123.952L137.91 130.771C135.643 130.696 133.384 130.748 131.116 130.782L131.067 123.937Z" fill="#C1C0C1"/>
<path d="M151.627 117.109C153.883 117.127 156.254 117.114 158.502 117.175L158.493 123.934C156.221 123.914 153.951 123.916 151.679 123.941C151.633 121.683 151.64 119.372 151.627 117.109Z" fill="#C1C0C1"/>
<path d="M103.707 123.959L110.484 123.946L110.507 130.766C108.248 130.739 105.987 130.732 103.727 130.744C103.67 128.483 103.663 126.222 103.707 123.959Z" fill="#C1C0C1"/>
<path d="M144.824 82.9374L151.572 82.8975L151.62 89.7427C149.352 89.7177 147.098 89.6735 144.83 89.7526C144.799 87.4809 144.797 85.2091 144.824 82.9374Z" fill="#C1C0C1"/>
<path d="M124.268 103.449L131.042 103.435L131.062 110.253C128.795 110.23 126.54 110.187 124.273 110.266C124.239 107.994 124.237 105.721 124.268 103.449Z" fill="#C1C0C1"/>
<path d="M131.067 137.62L137.888 137.629C137.894 139.759 137.833 142.36 137.919 144.452C135.674 144.396 133.37 144.441 131.121 144.457C131.073 142.198 131.082 139.881 131.067 137.62Z" fill="#C1C0C1"/>
<path d="M131.062 110.253L137.89 110.28C137.894 112.368 137.824 115.076 137.921 117.109C135.69 117.046 133.361 117.094 131.121 117.109C131.064 114.861 131.078 112.51 131.062 110.253Z" fill="#C1C0C1"/>
<path d="M110.507 130.766L117.328 130.795C117.334 132.923 117.273 135.54 117.362 137.625C115.096 137.602 112.831 137.591 110.565 137.593C110.486 135.378 110.518 132.993 110.507 130.766Z" fill="#C1C0C1"/>
<path d="M144.779 110.252L151.606 110.287C151.611 112.452 151.554 114.973 151.627 117.109C149.393 117.058 147.08 117.091 144.842 117.096L144.779 110.252Z" fill="#C1C0C1"/>
<path d="M131.107 96.6243L137.885 96.6016C137.892 98.7615 137.836 101.296 137.915 103.426C135.645 103.388 133.377 103.389 131.11 103.431C131.069 101.162 131.067 98.8932 131.107 96.6243Z" fill="#C1C0C1"/>
<path d="M110.55 117.136L117.325 117.116C117.334 119.278 117.28 121.807 117.355 123.939C115.087 123.903 112.82 123.903 110.552 123.939C110.511 121.671 110.511 119.404 110.55 117.136Z" fill="#C1C0C1"/>
<path d="M151.629 69.3146C153.896 69.2668 156.166 69.2479 158.436 69.2576L158.418 76.1031C160.72 76.1243 163.021 76.1274 165.323 76.113C165.295 78.3807 165.284 80.6486 165.289 82.9166C167.577 82.9522 169.867 82.9578 172.157 82.9337L172.134 89.7445C176.498 89.8899 181.465 89.8157 185.862 89.7289L185.833 96.5674C183.552 96.5246 181.268 96.5309 178.985 96.5864C178.969 98.8478 178.924 101.176 178.973 103.432C181.273 103.474 183.574 103.476 185.876 103.441C185.812 108.003 185.803 112.567 185.849 117.13C188.132 117.157 190.418 117.159 192.703 117.136L192.69 137.643L199.574 137.677C199.569 139.705 199.49 142.457 199.59 144.427C199.565 146.679 199.513 148.992 199.549 151.239L192.708 151.255L192.706 158.113C174.727 158.084 155.755 158.449 137.888 158.1L137.928 151.462C136.573 151.442 131.789 151.487 130.744 151.255L130.985 151.142C132.907 151.16 136.155 151.104 137.973 151.255L144.783 151.311L144.803 144.499C146.983 144.412 149.413 144.463 151.613 144.466L151.645 137.672C153.872 137.609 156.223 137.647 158.459 137.647L158.502 130.863C158.597 128.841 158.506 126.006 158.493 123.934L158.502 117.175C158.59 115.086 158.506 112.387 158.493 110.249C158.484 107.995 158.486 105.742 158.504 103.489C158.594 101.477 158.508 98.6566 158.499 96.5943L158.493 89.8297L158.565 82.8891C156.261 82.8753 153.957 82.8742 151.654 82.8857L151.649 76.1696L144.862 76.1874C144.876 77.3887 145.018 82.0053 144.686 82.8981C144.539 81.2755 144.661 77.9464 144.596 76.0616L144.677 75.9577L151.624 75.9381L151.629 69.3146Z" fill="#838100"/>
<path d="M89.9216 7.66431L131.078 7.69L131.067 14.4911L131.035 21.3749L124.253 21.4168C124.223 19.1241 124.223 16.8311 124.253 14.5384C121.969 14.5308 119.609 14.5531 117.332 14.5084L117.312 21.4085C115.074 21.3981 112.813 21.3711 110.575 21.3889C110.5 19.1061 110.482 16.8219 110.527 14.5382C108.262 14.5299 105.899 14.5551 103.643 14.5076L103.649 21.3276L110.52 21.3857L110.477 28.2497C108.228 28.2098 105.978 28.197 103.729 28.2116C103.663 25.9299 103.637 23.6471 103.651 21.3645L96.855 21.3769C96.7803 19.095 96.7692 16.8113 96.8221 14.5287L89.9413 14.5486L89.9361 21.3494L89.9641 28.2635C87.661 28.2801 85.358 28.2743 83.0551 28.2454C80.8392 28.1888 78.4733 28.2497 76.2455 28.2682C73.9467 28.2781 71.6477 28.2707 69.3489 28.2454L69.3825 21.3645C69.3252 19.1297 69.3656 16.7721 69.3676 14.5274L89.9365 14.5233C89.8898 12.2854 89.923 9.91331 89.9216 7.66431Z" fill="#FEFFFE"/>
<path d="M83.0867 21.343C85.3152 21.4052 87.6953 21.3563 89.9361 21.3496L89.9641 28.2636C87.661 28.2802 85.3579 28.2744 83.0551 28.2455C83.0864 25.9449 83.0971 23.6439 83.0867 21.343Z" fill="#FEFE00"/>
<path d="M69.3825 21.3647L76.2721 21.3577C76.2518 23.5934 76.1788 26.0504 76.2455 28.2683C73.9467 28.2782 71.6477 28.2708 69.3489 28.2455L69.3825 21.3647Z" fill="#FEFE00"/>
<path d="M185.914 41.8706L192.71 41.9308C192.71 46.404 192.633 51.1046 192.744 55.5598L199.567 55.6238C199.425 58.6554 199.339 66.2731 199.608 69.2073C197.322 69.1857 195.037 69.2019 192.751 69.2555L192.742 55.5415C190.465 55.5267 188.191 55.5485 185.914 55.6074V41.8706Z" fill="#C1C0C1"/>
<path d="M89.936 21.3494L96.792 21.3771L96.7542 28.1838L103.675 28.2106L103.625 35.0992L96.7721 35.0983C96.7154 32.8419 96.7531 30.4799 96.7549 28.2149L89.964 28.2634L89.936 21.3494Z" fill="#FEFFFE"/>
<path d="M199.576 76.0836C201.781 76.0843 204.252 76.0274 206.429 76.1931L206.47 82.8916C204.159 82.9011 201.848 82.8946 199.538 82.872L199.576 76.0836Z" fill="#C1C0C1"/>
<path d="M179.089 35.0229L185.826 35.1323C185.833 36.0251 185.813 37.0524 185.876 37.9303L185.914 41.8707C183.626 41.8612 181.338 41.8736 179.05 41.9079C179.025 39.6436 179.071 37.2947 179.089 35.0229Z" fill="#C1C0C1"/>
<path d="M192.753 76.1414L199.576 76.0835L199.538 82.872L192.724 82.9076C192.796 80.7152 192.753 78.348 192.753 76.1414Z" fill="#838100"/>
<path d="M192.724 82.9075C192.658 85.0927 192.69 87.4963 192.676 89.6986L185.921 89.7273L185.923 82.9598L192.724 82.9075Z" fill="#838100"/>
<path d="M124.02 28.2491C126.339 28.2585 128.713 28.2123 131.037 28.1909L131.012 35.026C129.045 34.981 126.985 35.0055 125.011 34.9981L117.368 35.0585C117.391 32.7953 117.395 30.5316 117.38 28.2682L124.02 28.2491Z" fill="#838100"/>
<path d="M154.533 48.7641L158.429 48.7012L158.398 55.537L155.841 55.5226L151.633 55.5769L151.636 48.7886L154.533 48.7641Z" fill="#838100"/>
<path d="M158.486 41.936L165.298 41.8796L165.273 48.6762L158.493 48.6927C158.508 46.4405 158.506 44.1881 158.486 41.936Z" fill="#838100"/>
<path d="M165.363 35.1119L172.153 35.0574L172.123 41.8666C169.928 41.8262 167.565 41.8736 165.361 41.8815L165.363 35.1119Z" fill="#838100"/>
</g>
<defs>
<clipPath id="clip0_1_8227">
<rect width="221" height="200" fill="white"/>
</clipPath>
</defs>
</svg>
